<?xml version="1.0" encoding="utf-8"?>
<!-- Generator: Adobe Illustrator 22.0.0, SVG Export Plug-In . SVG Version: 6.00 Build 0)  -->
<svg version="1.1" id="Layer_1" xmlns="http://www.w3.org/2000/svg" xmlns:xlink="http://www.w3.org/1999/xlink" x="0px" y="0px"
	 viewBox="0 0 690 904" style="enable-background:new 0 0 690 904;" xml:space="preserve">
<style type="text/css">
	.st0{fill:none;}
	.st1{font-family:'Rubik-Light';}
	.st2{font-size:62px;}
	.st3{fill:#99134D;}
	.st4{fill:none;stroke:#B2B2B2;stroke-width:2.6511;stroke-linecap:round;stroke-miterlimit:10;}
	.st5{fill:#5CADE0;}
	.st6{fill:#E72B6F;}
	.st7{fill:#FFFFFF;}
	.st8{font-family:'Rubik-Bold';}
	.st9{font-size:75.0322px;}
	.st10{fill:#020203;}
	.st11{fill:#FFD019;}
	.st12{fill:#4A9ED8;}
	.st13{fill:none;stroke:#FFFFFF;stroke-width:3.5794;stroke-miterlimit:10;}
	.st14{fill:none;stroke:#FFFFFF;stroke-width:3.5794;stroke-linecap:round;stroke-miterlimit:10;}
	.st15{fill:#FFFFFF;stroke:#FFFFFF;stroke-width:3.5794;stroke-linecap:round;stroke-miterlimit:10;}
	.st16{fill:#E72B6F;stroke:#FFFFFF;stroke-width:3.5794;stroke-linecap:round;stroke-miterlimit:10;}
	.st17{fill:#020303;}
	.st18{font-family:'Rubik-Medium';}
	.st19{font-size:77.8747px;}
	.st20{fill:#50AC33;}
	.st21{fill:#E84628;}
	.st22{fill:#E94880;}
	.st23{fill:#85C9EF;}
	.st24{fill:#85C9EF;stroke:#85C9EF;stroke-width:0.8837;stroke-miterlimit:10;}
	.st25{fill:#ED6FA7;}
	.st26{fill:#ED6FA7;stroke:#ED6FA7;stroke-width:0.8837;stroke-miterlimit:10;}
	.st27{fill:#FFE7A0;}
	.st28{fill:#FFE7A0;stroke:#FFE7A0;stroke-width:0.8837;stroke-miterlimit:10;}
	.st29{font-size:24.4676px;}
	.st30{fill:#A8144C;}
</style>
<g>
	<rect y="775" class="st0" width="690" height="121"/>
	<text transform="matrix(1 0 0 1 111.0156 819.0195)" class="st1 st2">YOUR LOCATION</text>
</g>
<path class="st3" d="M84,678h307.8l-15.4-23.9l15.4-25.9H84c-6.4,0-11.7,5.3-11.7,11.7v26.3C72.3,672.7,77.6,678,84,678z"/>
<path class="st3" d="M586.2,563.1H278.4l15.4-23.9l-15.4-25.9h307.8c6.4,0,11.7,5.3,11.7,11.7v26.3
	C597.9,557.8,592.6,563.1,586.2,563.1z"/>
<path class="st4" d="M154.3,492.9V645c0,2.3,1.1,4.4,3,5.7l1.2,0.8c4.1,2.8,4,8.8-0.2,11.5l0,0c-3.9,2.4-4.3,7.9-0.9,10.9l0.9,0.8
	c2.4,2.1,3,5.6,1.5,8.4l-2.6,4.7c-0.6,1.2-0.9,2.5-0.8,3.8l1.3,17.1"/>
<path class="st4" d="M312,427.8l-3.8,140c-0.1,2.3,1,4.4,2.8,5.7l1.2,0.8c4,2.9,3.7,8.9-0.5,11.4h0c-3.9,2.3-4.5,7.8-1.2,10.9
	l0.9,0.8c2.3,2.2,2.9,5.7,1.2,8.5l-2.7,4.7c-0.7,1.2-1,2.5-0.9,3.8l0.9,47.2"/>
<path class="st4" d="M520.3,484.5v153.8c0,2.3,1.1,4.4,3,5.7l1.2,0.8"/>
<rect x="51.3" y="673" transform="matrix(0.866 0.5 -0.5 0.866 352.0031 63.4848)" class="st5" width="12.4" height="31.2"/>
<polygon class="st6" points="597.3,629.2 38.3,629.2 75.1,578.2 38.3,527.2 597.3,527.2 597.3,578.2 "/>
<text transform="matrix(1 0 0 1 97.4503 600.9453)" class="st7 st8 st9">Big Birthday</text>
<polygon class="st6" points="72.3,742.6 639,742.6 602.4,691.6 639,640.6 72.3,640.6 72.3,691.6 "/>
<text transform="matrix(1 0 0 1 101.3545 715.4643)" class="st7 st8 st9">Weekend</text>
<polygon class="st10" points="351.1,220.4 336.5,203.3 325.5,201.9 330.3,225.5 "/>
<g>
	<path class="st10" d="M315.8,358.2l17.4-142.5c0.5-3.8,2.4-6,5.3-6.5c1.3-0.2,2.6,0.1,3.7,0.7l30,35.4c0,0,4,4.4,2.9,13.4
		l-6.5,104.2"/>
</g>
<path class="st10" d="M91,379.2l34.8,8.5c0.9,0.4,1.6,0.9,2.3,1.6l0,0c0.9,1,1.7,2.2,2.2,3.4l7.9,19.4c0,0-40.7-12.6-40.5-13.5
	C97.9,397.8,91,379.2,91,379.2z"/>
<polygon class="st10" points="427.8,485.5 389.3,446.4 423,441.5 448.6,436.1 "/>
<polygon class="st10" points="574.4,481.4 536.3,442.6 570,437.7 595.5,432.3 "/>
<polygon class="st10" points="504.2,470.2 465.5,409.5 499.2,404.6 542.5,272 554.4,373.1 "/>
<g>
	<path class="st10" d="M526.9,419.7c2,13.2,9,18.3,21.7,17.9c14.9-0.4,21.5-8,21.2-20.8l-7.6-173.7c-0.1-3.8,1.4-6.3,4.2-7.2
		c1.2-0.4,2.5-0.3,3.8,0.1l35.1,30.3c0,0,4.7,3.8,4.9,12.8l3,136.6"/>
</g>
<polygon class="st10" points="244.2,361.4 303.4,241.1 322.8,342.3 264.8,377.9 "/>
<polygon class="st10" points="233.6,434.4 196.5,390.1 233.2,368.5 268.1,353.5 "/>
<polygon class="st10" points="363,452.3 325.5,407.4 359.5,407.9 367.9,429 "/>
<g>
	<path class="st10" d="M91.3,422.9c-0.8-5,1.4-7.9,5.7-8.3l30-3c4-0.4,6.4,2,7.7,6.5c0,0.1,0.1,0.3,0.1,0.4
		c3,13,10.2,17.6,22.9,16.3c14.9-1.5,20.9-9.5,19.6-22.3l-19.9-172.7c-0.4-3.8,0.9-6.4,3.7-7.5c1.2-0.5,2.5-0.5,3.8-0.1l37.2,27.7
		c0,0,4.9,3.4,5.8,12.4l12.7,136c4.5,45.5-24.8,69.4-58.3,72.7C130.5,484.1,98.9,468.4,91.3,422.9z"/>
</g>
<g>
	<path class="st10" d="M400.2,458.2l-33.1-4.3c-3.8-0.5-6.2-2.6-6.7-7.2l-3.7-27.2l-66.1-8.6l-10.5,25.3c-1.7,4.3-4.6,5.7-8.3,5.2
		l-33.1-4.3c-4.8-0.6-6.9-3.9-4.6-9l82-184.5c1.6-4,4.8-5.7,8.6-5.2l43.1,5.6c3.8,0.5,6.5,2.9,7,7.2L407,450.7
		C407.9,456.2,405.1,458.8,400.2,458.2z M350.5,373.8l-11-80.8l-31.2,75.4L350.5,373.8z"/>
</g>
<polygon class="st10" points="446.1,253.5 431.1,240.5 418,239.5 426.4,261.8 "/>
<g>
	<path class="st10" d="M432.8,395.1l-5.2-143.5c-0.1-3.8,1.4-6.3,4.2-7.2c1.2-0.4,2.5-0.3,3.8,0.1l35.1,30.3c0,0,4.7,3.8,4.9,12.8
		l9.8,103.9"/>
</g>
<g>
	<path class="st10" d="M415.2,282.1c1-4.2,3.9-6.4,7.7-6.5l43.4-1.2c3.8-0.1,6.8,1.9,8,6l60.8,185.3 M469.5,405.1L446,327L427,406.3
		L469.5,405.1z"/>
</g>
<g>
	<path class="st10" d="M610.7,302.3l4.8,172.1c0.1,4.8-2.2,7.5-6.6,7.6l-29.9,0.8c-4.3,0.1-6.9-2.5-7-7.2l-2.8-99l-32,90.4
		c-1.2,3.9-3.9,5.8-7.7,5.9l-18.5,0.5c-3.8,0.1-6.6-1.6-8-5.4l-37-88.5l2.8,99c0.1,4.8-2.2,7.5-6.6,7.6l-29.9,0.8
		c-4.3,0.1-6.9-2.5-7-7.2l-4.8-172.1c-0.1-4.8,2.2-7.5,6.6-7.6l29.9-0.8l6.5-0.2c3.8-0.1,6.6,1.6,8,5.4L474,389l85.6-87.1
		c1.2-3.9,3.9-5.8,7.7-5.9l22-0.6l14.4-0.4C608.1,295,610.6,297.6,610.7,302.3z"/>
</g>
<g>
	<path class="st6" d="M363.4,414l-33.1-4.3c-3.8-0.5-6.2-2.6-6.7-7.2l-3.7-27.2l-66.1-8.6l-10.5,25.3c-1.7,4.3-4.6,5.7-8.3,5.2
		l-33.1-4.3c-4.8-0.6-6.9-3.9-4.6-9l82-184.5c1.6-4,4.8-5.7,8.6-5.2l43.1,5.6c3.8,0.5,6.5,2.9,7,7.2l32.2,199.3
		C371,412,368.2,414.7,363.4,414z M313.6,329.6l-11-80.8l-31.2,75.4L313.6,329.6z"/>
</g>
<g>
	<path class="st11" d="M572.9,242.3l5.4,193.1c0.1,4.8-2.2,7.5-6.6,7.6l-29.9,0.8c-4.3,0.1-6.9-2.5-7-7.2l-3.4-120.1l-32,90.4
		c-1.2,3.9-3.9,5.8-7.7,5.9l-18.5,0.5c-3.8,0.1-6.6-1.6-8-5.4l-37-88.5l3.4,120.1c0.1,4.8-2.2,7.5-6.6,7.6l-29.9,0.8
		c-4.3,0.1-6.9-2.5-7-7.2l-5.4-193.1c-0.1-4.8,2.2-7.5,6.6-7.6l29.9-0.8l6.5-0.2c3.8-0.1,6.6,1.6,8,5.4L481,357.6L521.8,242
		c1.2-3.9,3.9-5.8,7.7-5.9l22-0.6l14.4-0.4C570.3,235,572.8,237.6,572.9,242.3z"/>
</g>
<polygon class="st10" points="114.4,467.5 77.3,436.2 77.5,405.3 116.9,446.3 "/>
<path class="st10" d="M123.6,450.9c0,0-2.1-15.3,3.2-25s56.5-58.6,56.5-58.6l8.7,69.6l-34.9,36.9L123.6,450.9z"/>
<g>
	<path class="st12" d="M52.9,390.4c-0.8-5,1.4-7.9,5.7-8.3l30-3c4.1-0.4,6.5,2,7.8,6.7c2.9,13.1,10.2,17.8,22.9,16.5
		c14.9-1.5,20.9-9.5,19.6-22.3l-13.6-137.5c-0.5-4.7,1.7-7.6,6-8.1l29.7-3c4.3-0.4,7,2,7.5,6.7l13.6,137.5
		c4.5,45.5-24.8,69.4-58.3,72.7C92,451.6,60.4,436,52.9,390.4z"/>
</g>
<ellipse transform="matrix(0.9951 -9.874812e-02 9.874812e-02 0.9951 -39.7676 9.9768)" class="st13" cx="80.9" cy="406.7" rx="8" ry="8.4"/>
<path class="st14" d="M86.5,412.8l13.1,11.4c2.7,2.3,6.1,3.5,9.6,3.1l32.1-3.2"/>
<line class="st15" x1="157.1" y1="389.1" x2="144" y2="257.3"/>
<ellipse transform="matrix(0.9951 -9.874812e-02 9.874812e-02 0.9951 -38.5047 17.5386)" class="st13" cx="157.9" cy="397.7" rx="8" ry="8.4"/>
<ellipse transform="matrix(4.554134e-02 -0.999 0.999 4.554134e-02 -149.6435 575.2004)" class="st13" cx="226.2" cy="365.9" rx="8.4" ry="8.1"/>
<ellipse transform="matrix(0.1287 -0.9917 0.9917 0.1287 -77.9691 676.4583)" class="st13" cx="346" cy="382.6" rx="8.4" ry="8.1"/>
<path class="st14" d="M238.8,337.9l40.3,5.2c1.8,0.2,3.4,1.2,4.6,2.7l11.5,15.4"/>
<line class="st14" x1="339.4" y1="351" x2="309.2" y2="347"/>
<ellipse transform="matrix(0.1287 -0.9917 0.9917 0.1287 44.3877 498.1839)" class="st13" cx="305.7" cy="223.8" rx="8.4" ry="8.1"/>
<ellipse transform="matrix(0.9996 -2.801759e-02 2.801759e-02 0.9996 -7.4233 11.5983)" class="st13" cx="410.2" cy="270.7" rx="7.8" ry="8.2"/>
<ellipse transform="matrix(0.9996 -2.801759e-02 2.801759e-02 0.9996 -7.2837 15.4848)" class="st13" cx="548.9" cy="267.7" rx="7.8" ry="8.2"/>
<ellipse transform="matrix(0.9996 -2.801759e-02 2.801759e-02 0.9996 -11.5322 15.7216)" class="st13" cx="555.3" cy="419.4" rx="7.8" ry="8.2"/>
<path class="st14" d="M410.4,280.4l0.6,20.2c0,1.4-0.4,2.8-1.2,3.8l-5,6.4c-0.8,1.1-1.3,2.4-1.2,3.8l3.2,114.8"/>
<path class="st13" d="M542.5,272l-14.2,10.5c-1.4,1-2.4,2.4-3.1,4.1l-35.8,92.9"/>
<line class="st16" x1="472.8" y1="379.8" x2="432.4" y2="289.4"/>
<ellipse transform="matrix(0.9996 -2.801759e-02 2.801759e-02 0.9996 -10.5272 13.6296)" class="st13" cx="481.1" cy="382.5" rx="8.6" ry="9"/>
<line class="st16" x1="555" y1="411.2" x2="552.1" y2="306.1"/>
<path class="st13" d="M298.4,223.6l-7.8-1c-1-0.1-2,0.4-2.4,1.4l-59.9,135.5"/>
<path class="st13" d="M312.9,225.4l5.1,0.7c1,0.1,1.8,0.9,2,2l23.3,146.3"/>
<text transform="matrix(0.914 0 0 1 66.7408 181.9106)" class="st17 st18 st19">R A S P B E R R Y </text>
<path class="st10" d="M154.3,495.9h-7.2c-0.7,0-1.2-0.8-0.8-1.4l3.6-6.2l4.4-7.6l4.4,7.6l3.6,6.2c0.4,0.6-0.1,1.4-0.8,1.4H154.3z"/>
<polygon class="st10" points="154.3,479.6 160.5,479.6 157.4,485 154.3,490.4 151.1,485 148,479.6 "/>
<path class="st10" d="M312.9,429.5l-7.1-0.6c-0.7-0.1-1.1-0.9-0.7-1.5l4.1-5.9l5-7.2l3.7,7.9l3.1,6.5c0.3,0.6-0.2,1.4-0.9,1.3
	L312.9,429.5z"/>
<polygon class="st10" points="314.2,413.4 320.4,413.9 316.9,419 313.3,424.1 310.7,418.5 308,412.8 "/>
<path class="st10" d="M520.3,489.1h-7.2c-0.7,0-1.2-0.8-0.8-1.4l3.6-6.2l4.4-7.6l4.4,7.6l3.6,6.2c0.4,0.6-0.1,1.4-0.8,1.4H520.3z"/>
<polygon class="st10" points="520.3,472.8 526.5,472.8 523.4,478.2 520.3,483.7 517.2,478.2 514.1,472.8 "/>
<rect x="61.6" y="258.8" transform="matrix(0.9012 0.4334 -0.4334 0.9012 125.6254 -2.2607)" class="st20" width="12.4" height="31.2"/>
<rect x="621.4" y="199.5" transform="matrix(0.9326 -0.3608 0.3608 0.9326 -35.343 240.9269)" class="st21" width="12.4" height="31.2"/>
<rect x="474.4" y="230.6" transform="matrix(0.7071 0.7071 -0.7071 0.7071 314.8645 -267.7081)" class="st20" width="12.4" height="31.2"/>
<rect x="186.5" y="240.3" transform="matrix(0.9847 0.1742 -0.1742 0.9847 47.5218 -29.6589)" class="st22" width="12.4" height="31.2"/>
<rect x="38.2" y="484.8" transform="matrix(0.5843 -0.8115 0.8115 0.5843 -387.6548 244.0289)" class="st20" width="12.4" height="31.2"/>
<rect x="646.8" y="416.4" transform="matrix(0.9591 0.2829 -0.2829 0.9591 148.9067 -167.1072)" class="st5" width="12.4" height="31.2"/>
<rect x="38.2" y="127.4" transform="matrix(0.5843 -0.8115 0.8115 0.5843 -97.63 95.47)" class="st5" width="12.4" height="31.2"/>
<rect x="185.9" y="75.8" transform="matrix(0.769 0.6393 -0.6393 0.769 102.8063 -101.6998)" class="st11" width="12.4" height="31.2"/>
<rect x="527.3" y="392.7" transform="matrix(0.9326 -0.3608 0.3608 0.9326 -111.3948 219.979)" class="st20" width="12.4" height="31.2"/>
<rect x="396.6" y="55" transform="matrix(0.8115 0.5843 -0.5843 0.8115 117.1368 -222.0611)" class="st22" width="12.4" height="31.2"/>
<rect x="489.7" y="113.4" transform="matrix(0.9326 -0.3608 0.3608 0.9326 -13.1433 187.5945)" class="st11" width="12.4" height="31.2"/>
<rect x="82" y="360.5" transform="matrix(0.6393 -0.769 0.769 0.6393 -257.4317 203.4648)" class="st11" width="12.4" height="31.2"/>
<rect x="356" y="400.4" transform="matrix(0.8115 0.5843 -0.5843 0.8115 311.3223 -133.2457)" class="st11" width="12.4" height="31.2"/>
<rect x="214.9" y="516.3" transform="matrix(0.8115 0.5843 -0.5843 0.8115 352.4401 -28.9643)" class="st11" width="12.4" height="31.2"/>
<path class="st23" d="M165.1,320.7L165.1,320.7c-1.9,0.2-3.6-1.2-3.8-3.1l-5-50.5c-0.2-1.9,1.2-3.6,3.1-3.8l0,0
	c1.9-0.2,3.6,1.2,3.8,3.1l5,50.5C168.3,318.8,166.9,320.5,165.1,320.7z"/>
<path class="st24" d="M158,257.2L158,257.2c-2.3,0-4.1-1.9-4.1-4.1v0c0-2.3,1.9-4.1,4.1-4.1l0,0c2.3,0,4.1,1.9,4.1,4.1v0
	C162.2,255.4,160.3,257.2,158,257.2z"/>
<path class="st25" d="M340.3,281.8L340.3,281.8c-1.9,0.3-3.6-1-3.9-2.8l-8.3-50.1c-0.3-1.9,1-3.6,2.8-3.9l0,0c1.9-0.3,3.6,1,3.9,2.8
	l8.3,50.1C343.4,279.7,342.2,281.4,340.3,281.8z"/>
<path class="st26" d="M329.1,218.9L329.1,218.9c-2.3,0.1-4.2-1.6-4.4-3.9l0,0c-0.1-2.3,1.6-4.2,3.9-4.4h0c2.3-0.1,4.2,1.6,4.4,3.9v0
	C333.1,216.8,331.4,218.7,329.1,218.9z"/>
<path class="st27" d="M454.4,315.3L454.4,315.3c-1.7,0.7-3.8-0.1-4.5-1.8l-20.1-46.6c-0.7-1.7,0.1-3.8,1.8-4.5l0,0
	c1.7-0.7,3.8,0.1,4.5,1.8l20.1,46.6C456.9,312.5,456.1,314.5,454.4,315.3z"/>
<path class="st28" d="M428.1,256L428.1,256c-2.2,0.7-4.5-0.5-5.2-2.7l0,0c-0.7-2.2,0.5-4.5,2.7-5.2h0c2.2-0.7,4.5,0.5,5.2,2.7v0
	C431.4,253,430.2,255.3,428.1,256z"/>
<path class="st27" d="M567,358.9L567,358.9c-1.9,0.1-3.5-1.4-3.6-3.3l-1.8-50.7c-0.1-1.9,1.4-3.5,3.3-3.6l0,0
	c1.9-0.1,3.5,1.4,3.6,3.3l1.8,50.7C570.4,357.2,568.9,358.8,567,358.9z"/>
<path class="st28" d="M564.3,295.3L564.3,295.3c-2.3-0.1-4-2.1-3.9-4.4l0,0c0.1-2.3,2.1-4,4.4-3.9l0,0c2.3,0.1,4,2.1,3.9,4.4l0,0
	C568.5,293.7,566.6,295.4,564.3,295.3z"/>
<circle class="st27" cx="44.4" cy="204.1" r="5.1"/>
<circle class="st27" cx="453.1" cy="218.8" r="5.1"/>
<circle class="st27" cx="238.8" cy="218.8" r="5.1"/>
<circle class="st27" cx="273.2" cy="65.5" r="5.1"/>
<circle class="st27" cx="552.1" cy="91.4" r="5.1"/>
<circle class="st27" cx="111.6" cy="537.5" r="5.1"/>
<circle class="st27" cx="278.3" cy="460.8" r="5.1"/>
<circle class="st27" cx="104.1" cy="640.6" r="5.1"/>
<circle class="st27" cx="614" cy="521.2" r="5.1"/>
<circle class="st27" cx="656.5" cy="323.2" r="5.1"/>
<circle class="st27" cx="20.3" cy="354.9" r="5.1"/>
<circle class="st27" cx="335.6" cy="626.3" r="5.1"/>
<circle class="st27" cx="670.1" cy="386.3" r="5.1"/>
<path class="st25" d="M239.5,305.8L239.5,305.8c-1.7-0.8-2.4-2.9-1.6-4.6l21.7-45.9c0.8-1.7,2.9-2.4,4.6-1.6l0,0
	c1.7,0.8,2.4,2.9,1.6,4.6l-21.7,45.9C243.3,305.9,241.2,306.6,239.5,305.8z"/>
<path class="st26" d="M265.9,248.9L265.9,248.9c-1.9-1.2-2.6-3.7-1.4-5.7v0c1.2-1.9,3.7-2.6,5.7-1.4v0c1.9,1.2,2.6,3.7,1.4,5.7l0,0
	C270.4,249.4,267.8,250.1,265.9,248.9z"/>
<rect x="607.9" y="333.4" transform="matrix(0.769 0.6393 -0.6393 0.769 364.9646 -311.9171)" class="st22" width="12.4" height="31.2"/>
<rect x="592.8" y="534" transform="matrix(0.7071 -0.7071 0.7071 0.7071 -213.2091 584.5602)" class="st5" width="12.4" height="31.2"/>
<rect x="592.1" y="729.2" transform="matrix(0.769 0.6393 -0.6393 0.769 614.3625 -210.4075)" class="st11" width="12.4" height="31.2"/>
<rect x="72" y="794.8" transform="matrix(0.9326 -0.3608 0.3608 0.9326 -287.1149 82.8093)" class="st20" width="12.4" height="31.2"/>
<circle class="st27" cx="103.7" cy="759.1" r="5.1"/>
<circle class="st27" cx="619.1" cy="790" r="5.1"/>
<circle class="st27" cx="642.6" cy="593.2" r="5.1"/>
<text transform="matrix(1 0 0 1 493.2828 698.0303)" class="st7 st8 st29">March</text>
<text transform="matrix(1 0 0 1 493.2828 723.8604)" class="st7 st8 st29">2018</text>
<text transform="matrix(1 0 0 1 493.2828 675.9893)" class="st7 st8 st29">3-4</text>
<rect x="461.1" y="659.1" class="st30" width="8.9" height="64.8"/>
<circle class="st27" cx="389.3" cy="481.5" r="5.1"/>
<rect x="641.5" y="653.5" transform="matrix(-0.5 -0.866 0.866 -0.5 392.1043 1564.5782)" class="st20" width="12.4" height="31.2"/>
</svg>
