<svg id="Layer_1" data-name="Layer 1" xmlns="http://www.w3.org/2000/svg" xmlns:xlink="http://www.w3.org/1999/xlink" viewBox="0 0 203.826 195.02"><defs><clipPath id="clip-path"><polygon id="_Clipping_Path_" data-name="&lt;Clipping Path&gt;" points="76.017 77.619 94.824 25.768 124.247 78.418 76.017 77.619" fill="#e6296e"/></clipPath></defs><title>Jam_Birthday_Assets</title><polygon id="_Clipping_Path_2" data-name="&lt;Clipping Path&gt;" points="76.017 77.619 94.824 25.768 124.247 78.418 76.017 77.619" fill="#e6296e"/><g clip-path="url(#clip-path)"><path d="M74.261,68.975c.683.448,33.076,17.647,33.076,17.647" fill="#fff" stroke="#fff" stroke-miterlimit="10" stroke-width="1.585"/><path d="M79.627,61.966c.683.449,33.076,17.647,33.076,17.647" fill="#fff" stroke="#fff" stroke-miterlimit="10" stroke-width="1.585"/><path d="M83.559,54.144c.682.449,48.826,26.262,48.826,26.262" fill="#fff" stroke="#fff" stroke-miterlimit="10" stroke-width="1.585"/><path d="M86.816,44.825c.683.448,48.826,26.262,48.826,26.262" fill="#fff" stroke="#fff" stroke-miterlimit="10" stroke-width="1.585"/><path d="M90.118,35.378c.683.448,48.826,26.262,48.826,26.262" fill="#fff" stroke="#fff" stroke-miterlimit="10" stroke-width="1.585"/></g><line x1="88.317" y1="18.23" x2="101.308" y2="37.884" fill="#fff" stroke="#eeb001" stroke-miterlimit="10" stroke-width="1.253"/><line x1="105.15" y1="22.409" x2="84.476" y2="33.706" fill="#fff" stroke="#eeb001" stroke-miterlimit="10" stroke-width="1.253"/><line x1="91.661" y1="16.707" x2="97.965" y2="39.407" fill="#fff" stroke="#eeb001" stroke-miterlimit="10" stroke-width="1.253"/><line x1="106.387" y1="25.868" x2="83.239" y2="30.246" fill="#fff" stroke="#eeb001" stroke-miterlimit="10" stroke-width="1.253"/><line x1="96.716" y1="16.432" x2="92.91" y2="39.682" fill="#fff" stroke="#eeb001" stroke-miterlimit="10" stroke-width="1.253"/><line x1="106.237" y1="30.928" x2="83.389" y2="25.186" fill="#fff" stroke="#eeb001" stroke-miterlimit="10" stroke-width="1.253"/><line x1="100.546" y1="17.767" x2="89.08" y2="38.347" fill="#fff" stroke="#eeb001" stroke-miterlimit="10" stroke-width="1.253"/><line x1="104.586" y1="34.633" x2="85.04" y2="21.481" fill="#fff" stroke="#eeb001" stroke-miterlimit="10" stroke-width="1.253"/><path d="M64.192,75.583h73.082a14.053,14.053,0,0,1,14.053,14.053v80.951A5.412,5.412,0,0,1,145.915,176H55.551a5.412,5.412,0,0,1-5.412-5.412V89.636A14.053,14.053,0,0,1,64.192,75.583Z" fill="#9ac125"/><rect x="56.672" y="83.074" width="86.685" height="59.416" rx="6.987" ry="6.987" fill="#e8e8e8"/><rect x="84.234" y="122.466" width="31.271" height="3.097" fill="#1d1e1c"/><rect x="92.214" y="105.25" width="17.353" height="2.889" transform="translate(-5.804 207.585) rotate(-90)" fill="#1d1e1c"/><rect x="79.316" y="119.256" width="4.917" height="3.097" fill="#1d1e1c"/><rect x="106.824" y="155.202" width="32.802" height="2.992" rx="1.445" ry="1.445" fill="#1d1e1c"/><rect x="59.819" y="155.202" width="6.595" height="2.992" rx="1.445" ry="1.445" fill="#1d1e1c"/><rect x="115.504" y="119.256" width="4.917" height="3.097" fill="#1d1e1c"/><rect x="94.528" y="94.921" width="4.917" height="3.097" fill="#1d1e1c"/><rect x="64.868" y="100.402" width="11.353" height="3.097" fill="#1d1e1c"/><rect x="123.225" y="100.402" width="11.353" height="3.097" fill="#1d1e1c"/><rect x="125.827" y="109.257" width="4.917" height="4.236" fill="#1d1e1c"/><rect x="67.326" y="109.257" width="4.917" height="4.236" fill="#1d1e1c"/><path d="M125.827,154h15.712a1.819,1.819,0,0,1,1.819,1.819v1.749a1.819,1.819,0,0,1-1.819,1.819H125.827a0,0,0,0,1,0,0V154a0,0,0,0,1,0,0Z" fill="#1d1e1c"/><rect x="60.84" y="121.889" width="9.059" height="7.805" fill="#f6b7a0"/><rect x="128.597" y="121.889" width="9.059" height="7.805" fill="#f6b7a0"/></svg>