<svg id="Layer_1" data-name="Layer 1" xmlns="http://www.w3.org/2000/svg" xmlns:xlink="http://www.w3.org/1999/xlink" viewBox="0 0 203.826 195.02"><defs><clipPath id="clip-path"><circle id="_Ellipse_" data-name="&lt;Ellipse&gt;" cx="106.607" cy="133.039" r="53.243" fill="#ecd1be"/></clipPath><clipPath id="clip-path-2"><path id="_Clipping_Path_" data-name="&lt;Clipping Path&gt;" d="M170.456,67.626c-6.843-19.265-27.373-29.56-45.855-23a34.123,34.123,0,0,0-7.562,3.8A34.556,34.556,0,0,0,65.78,62.285a34.374,34.374,0,0,0-21.6.452C25.7,69.3,16.262,90.241,23.1,109.506a37.313,37.313,0,0,0,27.2,24.207l2.473,3.37c19.75-1.6,37.179-10.664,51.4-21.6a33.978,33.978,0,0,0,13.748-5.36,34.981,34.981,0,0,0,31.464,4.269C167.863,107.83,177.3,86.891,170.456,67.626Z" fill="#d65f1d"/></clipPath><clipPath id="clip-path-3"><path id="_Clipping_Path_2" data-name="&lt;Clipping Path&gt;" d="M136.618,147.961a14.411,14.411,0,0,1-28.4,4.911Z"/></clipPath><clipPath id="clip-path-4"><polygon id="_Clipping_Path_3" data-name="&lt;Clipping Path&gt;" points="68.581 81.939 69.333 17.626 121.978 64.262 68.581 81.939" fill="#e6296e"/></clipPath></defs><title>Jam_Birthday_Assets</title><circle cx="156.394" cy="127.645" r="12.131" fill="#e5c4b1"/><circle cx="55.451" cy="148.578" r="12.131" fill="#e8cbb8"/><circle id="_Ellipse_2" data-name="&lt;Ellipse&gt;" cx="106.607" cy="133.039" r="53.243" fill="#ecd1be"/><g clip-path="url(#clip-path)"><circle cx="97.201" cy="134.052" r="55.587" fill="#efdbce"/></g><circle cx="140.958" cy="132.905" r="2.934"/><circle cx="97.003" cy="140.846" r="2.934"/><path id="_Clipping_Path_4" data-name="&lt;Clipping Path&gt;" d="M170.456,67.626c-6.843-19.265-27.373-29.56-45.855-23a34.123,34.123,0,0,0-7.562,3.8A34.556,34.556,0,0,0,65.78,62.285a34.374,34.374,0,0,0-21.6.452C25.7,69.3,16.262,90.241,23.1,109.506a37.313,37.313,0,0,0,27.2,24.207l2.473,3.37c19.75-1.6,37.179-10.664,51.4-21.6a33.978,33.978,0,0,0,13.748-5.36,34.981,34.981,0,0,0,31.464,4.269C167.863,107.83,177.3,86.891,170.456,67.626Z" fill="#d65f1d"/><g clip-path="url(#clip-path-2)"><circle cx="65.383" cy="131.522" r="86.58" fill="#e9681a"/></g><circle cx="55.451" cy="169.714" r="4.884" fill="#2eb1aa"/><circle cx="166.365" cy="145.72" r="4.884" fill="#2eb1aa"/><circle cx="90.318" cy="162.819" r="11.017" fill="#f6b7a1"/><circle cx="126.568" cy="149.121" r="3.4" fill="#e25096"/><circle cx="120.823" cy="150.033" r="3.4" fill="#e25096"/><path id="_Clipping_Path_5" data-name="&lt;Clipping Path&gt;" d="M136.618,147.961a14.411,14.411,0,0,1-28.4,4.911Z"/><g clip-path="url(#clip-path-3)"><rect x="107.278" y="148.459" width="30.556" height="5.22" transform="translate(-25.086 24.406) rotate(-10.322)" fill="#f5f5f5"/><ellipse cx="121.135" cy="163.493" rx="7.433" ry="2.783" fill="#fcbed4"/></g><path d="M120.051,126.659l3.563,10.607a.893.893,0,0,1-.715,1.168l-8.35,1.245" fill="none" stroke="#000" stroke-linecap="round" stroke-miterlimit="10" stroke-width="1.787"/><rect x="88.649" y="129.013" width="13.758" height="3.812" transform="translate(-21.913 19.236) rotate(-10.322)" fill="#e9681a"/><rect x="133.869" y="121.712" width="13.758" height="3.812" transform="translate(-8.171 9.976) rotate(-3.945)" fill="#e9681a"/><polygon id="_Clipping_Path_6" data-name="&lt;Clipping Path&gt;" points="68.581 81.939 69.333 17.626 121.978 64.262 68.581 81.939" fill="#e6296e"/><g clip-path="url(#clip-path-4)"><circle cx="86.589" cy="42.601" r="7.182" fill="#fff"/><circle cx="73.95" cy="65.643" r="7.182" fill="#fff"/><circle cx="106.941" cy="56.964" r="7.182" fill="#fff"/></g><line x1="59.27" y1="11.833" x2="81.132" y2="28.468" fill="#fff" stroke="#ffcf14" stroke-miterlimit="10" stroke-width="1.462"/><line x1="79.407" y1="9.956" x2="60.996" y2="30.345" fill="#fff" stroke="#ffcf14" stroke-miterlimit="10" stroke-width="1.462"/><line x1="62.364" y1="8.87" x2="78.038" y2="31.431" fill="#fff" stroke="#ffcf14" stroke-miterlimit="10" stroke-width="1.462"/><line x1="82.1" y1="13.287" x2="58.303" y2="27.014" fill="#fff" stroke="#ffcf14" stroke-miterlimit="10" stroke-width="1.462"/><line x1="67.823" y1="6.622" x2="72.579" y2="33.679" fill="#fff" stroke="#ffcf14" stroke-miterlimit="10" stroke-width="1.462"/><line x1="83.881" y1="18.916" x2="56.521" y2="21.385" fill="#fff" stroke="#ffcf14" stroke-miterlimit="10" stroke-width="1.462"/><line x1="72.553" y1="6.617" x2="67.85" y2="33.683" fill="#fff" stroke="#ffcf14" stroke-miterlimit="10" stroke-width="1.462"/><line x1="83.489" y1="23.629" x2="56.913" y2="16.672" fill="#fff" stroke="#ffcf14" stroke-miterlimit="10" stroke-width="1.462"/><circle cx="99.938" cy="76.668" r="15.527" fill="#e9681a"/><circle cx="76.719" cy="81.939" r="15.527" fill="#e9681a"/></svg>