<svg id="Layer_1" data-name="Layer 1" xmlns="http://www.w3.org/2000/svg" viewBox="0 0 203.826 195.02"><title>Jam_Birthday_Assets</title><rect x="33.634" y="48.011" width="5.589" height="14.077" transform="translate(33.826 121.01) rotate(-144.246)" fill="#5bacdf"/><rect x="69.584" y="84.157" width="5.589" height="14.077" transform="translate(170.699 153.552) rotate(160.822)" fill="#4fab33"/><rect x="99.248" y="92.303" width="5.589" height="14.077" transform="translate(85.252 240.761) rotate(-127.461)" fill="#e74626"/><rect x="80.323" y="55.567" width="5.589" height="14.077" transform="translate(184.255 87.085) rotate(156.619)" fill="#ffcf14"/><rect x="44.447" y="114.915" width="5.589" height="14.077" transform="translate(21.855 250.25) rotate(-147.632)" fill="#ffcf14"/><rect x="22.02" y="100.7" width="5.589" height="14.077" transform="translate(-11.904 212.023) rotate(-147.632)" fill="#5bacdf"/><rect x="129.863" y="161.154" width="5.589" height="14.077" transform="translate(335.519 99.391) rotate(109.529)" fill="#4fab33"/><circle cx="38.37" cy="72.044" r="2.429" fill="#ffe69f"/><circle cx="44.07" cy="88.474" r="2.429" fill="#ffe69f"/><circle cx="84.456" cy="156.132" r="2.429" fill="#ffe69f"/><circle cx="82.026" cy="125.958" r="2.429" fill="#ffe69f"/><circle cx="99.613" cy="56.697" r="2.429" fill="#ffe69f"/><circle cx="107.567" cy="76.979" r="2.429" fill="#ffe69f"/><circle cx="58.69" cy="63.608" r="2.429" fill="#ffe69f"/><circle cx="100.232" cy="138.575" r="2.429" fill="#ffe69f"/><circle cx="137.122" cy="151.274" r="2.429" fill="#ffe69f"/><circle cx="146.331" cy="47.638" r="2.429" fill="#ffe69f"/><rect x="126.423" y="39.576" width="5.589" height="14.077" transform="translate(206.844 159.947) rotate(-144.246)" fill="#5bacdf"/><rect x="143.536" y="114.915" width="5.589" height="14.077" transform="translate(324.603 189.067) rotate(160.822)" fill="#4fab33"/><rect x="159.5" y="84.157" width="5.589" height="14.077" transform="translate(188.618 275.487) rotate(-127.461)" fill="#e74626"/><rect x="154.885" y="56.57" width="5.589" height="14.077" transform="translate(327.654 59.418) rotate(156.619)" fill="#ffcf14"/><rect x="159.5" y="140.978" width="5.589" height="14.077" transform="translate(370.003 219.473) rotate(156.619)" fill="#5bacdf"/><rect x="121.213" y="97.969" width="5.589" height="14.077" transform="translate(172.531 260.088) rotate(-147.632)" fill="#ffcf14"/><rect x="121.213" y="137.953" width="5.589" height="14.077" transform="translate(151.126 333.843) rotate(-147.632)" fill="#5bacdf"/><rect x="99.867" y="27.478" width="5.589" height="14.077" transform="translate(169.51 -50.701) rotate(109.529)" fill="#4fab33"/><circle cx="131.159" cy="63.608" r="2.429" fill="#ffe69f"/><circle cx="136.858" cy="80.039" r="2.429" fill="#ffe69f"/><circle cx="174.815" cy="117.523" r="2.429" fill="#ffe69f"/><circle cx="174.815" cy="72.044" r="2.429" fill="#ffe69f"/><rect x="61.853" y="137.953" width="5.589" height="14.077" transform="translate(-11.122 284.494) rotate(-127.461)" fill="#e74626"/></svg>