<svg id="Layer_1" data-name="Layer 1" xmlns="http://www.w3.org/2000/svg" xmlns:xlink="http://www.w3.org/1999/xlink" viewBox="0 0 203.826 195.02"><defs><clipPath id="clip-path"><polygon id="_Clipping_Path_" data-name="&lt;Clipping Path&gt;" points="77.045 74.522 95.852 22.67 125.275 75.321 77.045 74.522" fill="#5bade0"/></clipPath></defs><title>Jam_Birthday_Assets</title><polygon id="_Clipping_Path_2" data-name="&lt;Clipping Path&gt;" points="77.045 74.522 95.852 22.67 125.275 75.321 77.045 74.522" fill="#5bade0"/><g clip-path="url(#clip-path)"><path d="M75.289,65.877c.683.448,33.077,17.647,33.077,17.647" fill="#fff" stroke="#fff" stroke-miterlimit="10" stroke-width="1.585"/><path d="M80.655,58.868c.683.449,33.077,17.647,33.077,17.647" fill="#fff" stroke="#fff" stroke-miterlimit="10" stroke-width="1.585"/><path d="M84.587,51.047c.682.448,48.826,26.261,48.826,26.261" fill="#fff" stroke="#fff" stroke-miterlimit="10" stroke-width="1.585"/><path d="M87.844,41.727c.683.449,48.826,26.262,48.826,26.262" fill="#fff" stroke="#fff" stroke-miterlimit="10" stroke-width="1.585"/><path d="M91.146,32.28c.683.449,48.826,26.262,48.826,26.262" fill="#fff" stroke="#fff" stroke-miterlimit="10" stroke-width="1.585"/></g><line x1="89.346" y1="15.133" x2="102.337" y2="34.786" fill="#fff" stroke="#eeb001" stroke-miterlimit="10" stroke-width="1.253"/><line x1="106.178" y1="19.311" x2="85.504" y2="30.608" fill="#fff" stroke="#eeb001" stroke-miterlimit="10" stroke-width="1.253"/><line x1="92.689" y1="13.609" x2="98.993" y2="36.309" fill="#fff" stroke="#eeb001" stroke-miterlimit="10" stroke-width="1.253"/><line x1="107.415" y1="22.77" x2="84.267" y2="27.149" fill="#fff" stroke="#eeb001" stroke-miterlimit="10" stroke-width="1.253"/><line x1="97.744" y1="13.335" x2="93.938" y2="36.584" fill="#fff" stroke="#eeb001" stroke-miterlimit="10" stroke-width="1.253"/><line x1="107.265" y1="27.831" x2="84.417" y2="22.088" fill="#fff" stroke="#eeb001" stroke-miterlimit="10" stroke-width="1.253"/><line x1="101.574" y1="14.669" x2="90.108" y2="35.25" fill="#fff" stroke="#eeb001" stroke-miterlimit="10" stroke-width="1.253"/><line x1="105.614" y1="31.535" x2="86.068" y2="18.384" fill="#fff" stroke="#eeb001" stroke-miterlimit="10" stroke-width="1.253"/><path d="M63.691,71.413h73.082a14.053,14.053,0,0,1,14.053,14.053v80.951a5.412,5.412,0,0,1-5.412,5.412H55.05a5.412,5.412,0,0,1-5.412-5.412V85.466A14.053,14.053,0,0,1,63.691,71.413Z" fill="#c6c5c5"/><rect x="56.171" y="78.903" width="86.685" height="59.416" rx="6.987" ry="6.987" fill="#e8e8e8"/><rect x="83.733" y="118.296" width="31.271" height="3.097" fill="#1d1e1c"/><rect x="91.713" y="101.08" width="17.353" height="2.889" transform="translate(-2.135 202.914) rotate(-90)" fill="#1d1e1c"/><rect x="78.815" y="115.085" width="4.917" height="3.097" fill="#1d1e1c"/><rect x="106.323" y="151.031" width="32.802" height="2.992" rx="1.445" ry="1.445" fill="#1d1e1c"/><rect x="59.318" y="151.031" width="6.595" height="2.992" rx="1.445" ry="1.445" fill="#1d1e1c"/><rect x="115.003" y="115.085" width="4.917" height="3.097" fill="#1d1e1c"/><rect x="94.027" y="90.751" width="4.917" height="3.097" fill="#1d1e1c"/><rect x="64.366" y="96.232" width="11.353" height="3.097" fill="#1d1e1c"/><rect x="122.724" y="96.232" width="11.353" height="3.097" fill="#1d1e1c"/><rect x="125.326" y="105.087" width="4.917" height="4.236" fill="#1d1e1c"/><rect x="66.825" y="105.087" width="4.917" height="4.236" fill="#1d1e1c"/><path d="M125.326,149.834h15.712a1.819,1.819,0,0,1,1.819,1.819V153.4a1.819,1.819,0,0,1-1.819,1.819H125.326a0,0,0,0,1,0,0v-5.386A0,0,0,0,1,125.326,149.834Z" fill="#1d1e1c"/><rect x="60.339" y="117.718" width="9.059" height="7.805" fill="#f6b7a0"/><rect x="128.095" y="117.718" width="9.059" height="7.805" fill="#f6b7a0"/></svg>