<svg id="Layer_1" data-name="Layer 1" xmlns="http://www.w3.org/2000/svg" xmlns:xlink="http://www.w3.org/1999/xlink" viewBox="0 0 203.826 195.02"><defs><clipPath id="clip-path"><polyline id="_Clipping_Path_" data-name="&lt;Clipping Path&gt;" points="152.658 74.757 147.558 131.989 54.403 163.981 43.271 50.563 52.844 36.648" fill="#1d1d1b"/></clipPath></defs><title>Jam_Birthday_Assets</title><polyline id="_Clipping_Path_2" data-name="&lt;Clipping Path&gt;" points="152.658 74.757 147.558 131.989 54.403 163.981 43.271 50.563 52.844 36.648" fill="#1d1d1b"/><g clip-path="url(#clip-path)"><path d="M10.618,148.237c.344-1.716,5.458-2,6.615-2.079a21.937,21.937,0,0,1,7.572.808c3.794,1.082,7.151,3.3,10.912,4.484,7.664,2.406,14.469-.434,20.247-5.588,5.288-4.717,9.723-12.556,17.686-12.282,4.772.164,9.328,2.21,14.125,2.466A29.252,29.252,0,0,0,98,134.734c7.491-2.371,12.455-7.216,17.067-13.364,2.446-3.259,4.723-5.869,8.725-7.115,3.209-1,6.616-1.119,9.941-1.382,6.89-.546,13.715-1.336,19.319-5.753,6.216-4.9,9.542-14.308,17.691-16.321,5.586-1.379,3.22-10.009-2.378-8.626-8.664,2.14-12.569,9.3-18.206,15.425-6.007,6.526-13.982,5.876-22.118,6.826-7.24.845-13.33,3.128-18.042,8.88C104.2,120.39,99.453,127.09,89.3,127.14c-8.994.045-16.729-4.878-25.5-.253-6.853,3.612-10.531,10.96-17.058,14.864-4.931,2.949-8.934,1.032-13.72-1.111a35.612,35.612,0,0,0-12.247-3.4c-6.445-.442-17.226.863-18.782,8.617-1.128,5.622,7.493,8.028,8.627,2.378Z" fill="#fff"/></g><path d="M49.689,35.48l1.856,79.705L152.658,74.757a1.429,1.429,0,0,0-.028-2.664L51.62,34.109A1.429,1.429,0,0,0,49.689,35.48Z" fill="#ffcf14"/><circle cx="79.47" cy="54.27" r="3.698" fill="#489ed7"/><circle cx="83.952" cy="69.866" r="3.698" fill="#489ed7"/><circle cx="86.986" cy="86.634" r="3.698" fill="#489ed7"/><polygon points="51.498 113.128 54.403 163.981 48.626 163.093 40.236 55.387 49.689 35.48 51.498 113.128" fill="#ffcf14"/><circle cx="60.7" cy="54.868" r="10.776" fill="#fff"/><circle cx="65.345" cy="87.713" r="10.776" fill="#fff"/></svg>