<svg id="Layer_1" data-name="Layer 1" xmlns="http://www.w3.org/2000/svg" viewBox="0 0 203.826 195.02"><title>Jam_Birthday_Assets</title><path d="M166.782,35.331H36.175A14.326,14.326,0,0,0,21.892,49.615V76.947h6.2A4.707,4.707,0,0,1,32.8,81.654v45.093a4.707,4.707,0,0,1-4.707,4.707h-6.2v17.87a14.325,14.325,0,0,0,14.283,14.283H166.782a14.325,14.325,0,0,0,14.283-14.283V49.615A14.325,14.325,0,0,0,166.782,35.331ZM36.42,157.352a5,5,0,1,1,5-5A5,5,0,0,1,36.42,157.352Zm0-105.467a5,5,0,1,1,5-5A5,5,0,0,1,36.42,51.885ZM146.1,156.271a2.386,2.386,0,0,1-4.771,0V119.653a2.386,2.386,0,1,1,4.771,0Zm21.917,1.081a5,5,0,1,1,5-5A5,5,0,0,1,168.017,157.352Zm0-105.467a5,5,0,1,1,5-5A5,5,0,0,1,168.017,51.885Z" fill="#4bab33"/><rect x="44.442" y="66.079" width="85.564" height="74.705" rx="2.118" ry="2.118" fill="#1d1e1c"/><rect x="95.384" y="-2.602" width="15.095" height="105.979" rx="4.384" ry="4.384" transform="translate(52.543 153.319) rotate(-90)" fill="#1d1e1c"/><rect x="78.433" y="69.439" width="7.167" height="7.167" rx="0.906" ry="0.906" fill="#ece9e9"/><rect x="68.268" y="69.439" width="7.167" height="7.167" rx="0.906" ry="0.906" fill="#ece9e9"/><rect x="58.102" y="69.439" width="7.167" height="7.167" rx="0.906" ry="0.906" fill="#ece9e9"/><rect x="47.937" y="69.439" width="7.167" height="7.167" rx="0.906" ry="0.906" fill="#ece9e9"/><rect x="119.095" y="69.439" width="7.167" height="7.167" rx="0.906" ry="0.906" fill="#ece9e9"/><rect x="108.93" y="69.439" width="7.167" height="7.167" rx="0.906" ry="0.906" fill="#ece9e9"/><rect x="98.764" y="69.439" width="7.167" height="7.167" rx="0.906" ry="0.906" fill="#ece9e9"/><rect x="88.599" y="69.439" width="7.167" height="7.167" rx="0.906" ry="0.906" fill="#ece9e9"/><rect x="78.433" y="79.604" width="7.167" height="7.167" rx="0.906" ry="0.906" fill="#ece9e9"/><rect x="68.268" y="79.604" width="7.167" height="7.167" rx="0.906" ry="0.906" fill="#ece9e9"/><rect x="58.102" y="79.604" width="7.167" height="7.167" rx="0.906" ry="0.906" fill="#ece9e9"/><rect x="47.937" y="79.604" width="7.167" height="7.167" rx="0.906" ry="0.906" fill="#ece9e9"/><rect x="119.095" y="79.604" width="7.167" height="7.167" rx="0.906" ry="0.906" fill="#ece9e9"/><rect x="108.93" y="79.604" width="7.167" height="7.167" rx="0.906" ry="0.906" fill="#ece9e9"/><rect x="98.764" y="79.604" width="7.167" height="7.167" rx="0.906" ry="0.906" fill="#ece9e9"/><rect x="88.599" y="79.604" width="7.167" height="7.167" rx="0.906" ry="0.906" fill="#ece9e9"/><rect x="78.433" y="89.77" width="7.167" height="7.167" rx="0.906" ry="0.906" fill="#ece9e9"/><rect x="68.268" y="89.77" width="7.167" height="7.167" rx="0.906" ry="0.906" fill="#ece9e9"/><rect x="58.102" y="89.77" width="7.167" height="7.167" rx="0.906" ry="0.906" fill="#ece9e9"/><rect x="47.937" y="89.77" width="7.167" height="7.167" rx="0.906" ry="0.906" fill="#ece9e9"/><rect x="119.095" y="89.77" width="7.167" height="7.167" rx="0.906" ry="0.906" fill="#ece9e9"/><rect x="108.93" y="89.77" width="7.167" height="7.167" rx="0.906" ry="0.906" fill="#ece9e9"/><rect x="98.764" y="89.77" width="7.167" height="7.167" rx="0.906" ry="0.906" fill="#ece9e9"/><rect x="88.599" y="89.77" width="7.167" height="7.167" rx="0.906" ry="0.906" fill="#ece9e9"/><rect x="78.433" y="99.935" width="7.167" height="7.167" rx="0.906" ry="0.906" fill="#ece9e9"/><rect x="68.268" y="99.935" width="7.167" height="7.167" rx="0.906" ry="0.906" fill="#ece9e9"/><rect x="58.102" y="99.935" width="7.167" height="7.167" rx="0.906" ry="0.906" fill="#ece9e9"/><rect x="47.937" y="99.935" width="7.167" height="7.167" rx="0.906" ry="0.906" fill="#ece9e9"/><rect x="119.095" y="99.935" width="7.167" height="7.167" rx="0.906" ry="0.906" fill="#ece9e9"/><rect x="108.93" y="99.935" width="7.167" height="7.167" rx="0.906" ry="0.906" fill="#ece9e9"/><rect x="98.764" y="99.935" width="7.167" height="7.167" rx="0.906" ry="0.906" fill="#ece9e9"/><rect x="88.599" y="99.935" width="7.167" height="7.167" rx="0.906" ry="0.906" fill="#ece9e9"/><rect x="78.433" y="110.101" width="7.167" height="7.167" rx="0.906" ry="0.906" fill="#ece9e9"/><rect x="68.268" y="110.101" width="7.167" height="7.167" rx="0.906" ry="0.906" fill="#ece9e9"/><rect x="58.102" y="110.101" width="7.167" height="7.167" rx="0.906" ry="0.906" fill="#ece9e9"/><rect x="47.937" y="110.101" width="7.167" height="7.167" rx="0.906" ry="0.906" fill="#ece9e9"/><rect x="119.095" y="110.101" width="7.167" height="7.167" rx="0.906" ry="0.906" fill="#ece9e9"/><rect x="108.93" y="110.101" width="7.167" height="7.167" rx="0.906" ry="0.906" fill="#ece9e9"/><rect x="98.764" y="110.101" width="7.167" height="7.167" rx="0.906" ry="0.906" fill="#ece9e9"/><rect x="88.599" y="110.101" width="7.167" height="7.167" rx="0.906" ry="0.906" fill="#ece9e9"/><rect x="78.433" y="120.266" width="7.167" height="7.167" rx="0.906" ry="0.906" fill="#ece9e9"/><rect x="68.268" y="120.266" width="7.167" height="7.167" rx="0.906" ry="0.906" fill="#ece9e9"/><rect x="58.102" y="120.266" width="7.167" height="7.167" rx="0.906" ry="0.906" fill="#ece9e9"/><rect x="47.937" y="120.266" width="7.167" height="7.167" rx="0.906" ry="0.906" fill="#ece9e9"/><rect x="119.095" y="120.266" width="7.167" height="7.167" rx="0.906" ry="0.906" fill="#ece9e9"/><rect x="108.93" y="120.266" width="7.167" height="7.167" rx="0.906" ry="0.906" fill="#ece9e9"/><rect x="98.764" y="120.266" width="7.167" height="7.167" rx="0.906" ry="0.906" fill="#ece9e9"/><rect x="88.599" y="120.266" width="7.167" height="7.167" rx="0.906" ry="0.906" fill="#ece9e9"/><rect x="78.433" y="130.432" width="7.167" height="7.167" rx="0.906" ry="0.906" fill="#ece9e9"/><rect x="68.268" y="130.432" width="7.167" height="7.167" rx="0.906" ry="0.906" fill="#ece9e9"/><rect x="58.102" y="130.432" width="7.167" height="7.167" rx="0.906" ry="0.906" fill="#ece9e9"/><rect x="47.937" y="130.432" width="7.167" height="7.167" rx="0.906" ry="0.906" fill="#ece9e9"/><rect x="119.095" y="130.432" width="7.167" height="7.167" rx="0.906" ry="0.906" fill="#ece9e9"/><rect x="108.93" y="130.432" width="7.167" height="7.167" rx="0.906" ry="0.906" fill="#ece9e9"/><rect x="98.764" y="130.432" width="7.167" height="7.167" rx="0.906" ry="0.906" fill="#ece9e9"/><rect x="88.599" y="130.432" width="7.167" height="7.167" rx="0.906" ry="0.906" fill="#ece9e9"/><rect x="141.329" y="73.818" width="7.211" height="10.928" rx="1.41" ry="1.41" fill="#1d1e1c"/><rect x="156.764" y="119.843" width="7.211" height="10.928" rx="1.41" ry="1.41" transform="translate(35.063 285.677) rotate(-90)" fill="#1d1e1c"/><rect x="157.666" y="75.586" width="9.16" height="9.16" rx="1.455" ry="1.455" fill="#1d1e1c"/><rect x="139.291" y="96.626" width="9.16" height="9.16" rx="1.455" ry="1.455" fill="#1d1e1c"/><circle cx="156.396" cy="140.784" r="6.898" fill="#1d1e1c"/><rect x="77.208" y="146.498" width="11.162" height="11.162" rx="1.772" ry="1.772" fill="#1d1e1c"/><path d="M123.764,143.832a1.431,1.431,0,0,1,.454.14c.369-.119.453.044.635.11.4-.084.525.1.718.291l.224,0a2.517,2.517,0,0,1,1.015,1.439,2.52,2.52,0,0,1,1.016-1.439l.225,0c.193-.192.315-.375.718-.291.181-.066.266-.229.635-.11.23-.072.432-.262.737-.025a.656.656,0,0,1,.728.067c.344-.044.456.047.54.153.076,0,.565-.077.789.253.564-.066.742.327.541.693a.475.475,0,0,1-.035.683c.095.187.036.389-.188.634a.534.534,0,0,1-.266.591c.039.359-.334.567-.446.641-.042.209-.132.407-.558.516-.07.311-.326.365-.574.43a2.645,2.645,0,0,1,1.518,2.6l.12.211a2.542,2.542,0,0,1,.463,3.843,7.048,7.048,0,0,1-.36,1.156,2.828,2.828,0,0,1-1.784,2.247,6.043,6.043,0,0,1-1.7.954,2.855,2.855,0,0,1-2.1.927h-.021a2.861,2.861,0,0,1-2.108-.927,6.043,6.043,0,0,1-1.7-.954,2.828,2.828,0,0,1-1.784-2.247,7.048,7.048,0,0,1-.36-1.156,2.541,2.541,0,0,1,.463-3.842l.12-.211a2.645,2.645,0,0,1,1.517-2.6c-.247-.065-.5-.119-.574-.43-.426-.109-.515-.306-.558-.515-.111-.075-.484-.283-.445-.642a.533.533,0,0,1-.266-.591c-.224-.245-.283-.447-.188-.633a.476.476,0,0,1-.035-.684c-.2-.366-.024-.759.54-.693.225-.33.714-.255.789-.253.085-.106.2-.2.54-.153a.657.657,0,0,1,.729-.067.484.484,0,0,1,.283-.115Zm-1.2,1.551a10.493,10.493,0,0,1,3.331,1.748c1.113-.518.345-1.825-.2-2.344a.478.478,0,0,1-.095.25,4.906,4.906,0,0,0-.548-.566c0,.107.054.223-.082.308a1.6,1.6,0,0,0-.506-.435c.106.182.019.237-.038.313a1.843,1.843,0,0,0-.635-.4c.085.1.2.2.078.321a1.869,1.869,0,0,0-.755-.291c.092.1.283.205.167.308a3.2,3.2,0,0,0-.72-.177c.127.1.233.206.129.287a1.587,1.587,0,0,0-.862-.085l.2.2a5.355,5.355,0,0,1-.78.025,1.568,1.568,0,0,1,.3.6c-.031.032-.189.014-.338,0,.152.321.418.4.48.54a.391.391,0,0,1-.365,0,2.427,2.427,0,0,0,.523.566c-.046.033-.126.052-.317.03a2.974,2.974,0,0,0,.613.489c-.043.05-.189.048-.326.051a3.074,3.074,0,0,0,.763.464.455.455,0,0,1-.325.068,2.546,2.546,0,0,0,.8.325.292.292,0,0,1-.232.135c.312.172.758.094.884.182a.378.378,0,0,1-.219.19c.5.029,1.872-.019,2.135-1.056a10.916,10.916,0,0,0-3.061-2.043Zm8.533,0a10.894,10.894,0,0,0-3.061,2.043c.263,1.037,1.634,1.085,2.135,1.056a.378.378,0,0,1-.219-.19c.126-.088.572-.01.884-.182a.292.292,0,0,1-.232-.135,2.546,2.546,0,0,0,.8-.325.455.455,0,0,1-.325-.068,3.074,3.074,0,0,0,.763-.464c-.137,0-.283,0-.326-.051a2.974,2.974,0,0,0,.613-.489c-.191.022-.271,0-.317-.03a2.427,2.427,0,0,0,.523-.566.391.391,0,0,1-.365,0c.062-.138.327-.219.48-.54-.149.014-.307.032-.338,0a1.582,1.582,0,0,1,.3-.6,5.517,5.517,0,0,1-.78-.025l.2-.2a1.587,1.587,0,0,0-.862.085c-.1-.081,0-.183.129-.287a3.149,3.149,0,0,0-.72.177c-.116-.1.075-.2.167-.308a1.856,1.856,0,0,0-.754.291c-.125-.118-.008-.218.077-.321a1.857,1.857,0,0,0-.635.4c-.056-.075-.144-.13-.038-.312a1.6,1.6,0,0,0-.506.435c-.136-.085-.081-.2-.082-.308a4.982,4.982,0,0,0-.548.565.469.469,0,0,1-.1-.249c-.542.519-1.309,1.826-.2,2.344a10.493,10.493,0,0,1,3.331-1.748Zm-2.318,10.544a1.939,1.939,0,0,0-3.86.019v.018a1.939,1.939,0,0,0,3.86-.018Zm-3.009-4.988a1.931,1.931,0,0,0-2.574.744,1.85,1.85,0,0,0,.322,2.612h0a1.931,1.931,0,0,0,2.574-.744,1.85,1.85,0,0,0-.322-2.612Zm2.158-.094a1.85,1.85,0,0,0-.322,2.613,1.931,1.931,0,0,0,2.574.744h0a1.851,1.851,0,0,0,.322-2.613,1.931,1.931,0,0,0-2.574-.744ZM121.415,155c.7.308,1.274-3.438.411-3.21A2.008,2.008,0,0,0,121.415,155Zm10.387-3.257c-.863-.228-.291,3.518.411,3.211a2.009,2.009,0,0,0-.411-3.211Zm-.215-.579a2.13,2.13,0,0,0-2.68-2.216C128.358,149.037,131.538,151.772,131.587,151.162Zm-6.8-2.262a2.13,2.13,0,0,0-2.68,2.215C122.16,151.725,125.34,148.99,124.791,148.9Zm2.052-.372c-.889-.022-1.742.651-1.744,1.041,0,.474.7.959,1.75.972,1.07.007,1.753-.389,1.756-.878,0-.555-.973-1.143-1.762-1.135Zm.069,9.724c-.77-.019-1.952.3-1.938.718-.012.282.928,1.1,1.887,1.055.925.016,1.881-.8,1.869-1.156s-1.043-.65-1.818-.617Zm-2.869-2.2c-.634-.724-1.456-1.155-1.989-.836-.356.267-.422,1.176.086,2.069a1.893,1.893,0,0,0,2.246.912c.46-.339.209-1.49-.343-2.145Zm5.557-.207c-.6.689-.93,1.945-.494,2.35.416.314,1.535.271,2.361-.858a2.139,2.139,0,0,0,.056-2.361c-.509-.388-1.24.109-1.923.869Z" fill="#fff"/></svg>