<svg id="Layer_1" data-name="Layer 1" xmlns="http://www.w3.org/2000/svg" xmlns:xlink="http://www.w3.org/1999/xlink" viewBox="0 0 203.826 195.02"><defs><clipPath id="clip-path"><polygon id="_Clipping_Path_" data-name="&lt;Clipping Path&gt;" points="67.902 67.705 2.846 169.903 122.767 153.149 67.902 67.705" fill="#1d1d1b"/></clipPath></defs><title>Jam_Birthday_Assets</title><polygon id="_Clipping_Path_2" data-name="&lt;Clipping Path&gt;" points="67.902 67.705 2.846 169.903 122.767 153.149 67.902 67.705" fill="#1d1d1b"/><g clip-path="url(#clip-path)"><circle cx="13.04" cy="147.583" r="13.925" fill="#489ed7"/><circle cx="67.501" cy="159.39" r="13.925" fill="#489ed7"/><circle cx="44.807" cy="99.405" r="13.925" fill="#489ed7"/></g><ellipse cx="98.585" cy="108.84" rx="19.536" ry="51.706" transform="translate(-43.906 73.323) rotate(-33.834)" fill="#489ed7"/><line x1="98.585" y1="99.428" x2="141.131" y2="59.733" fill="#1d1d1b" stroke="#1d1d1b" stroke-miterlimit="10" stroke-width="6.16"/><line x1="96.428" y1="116.196" x2="154.467" y2="112.026" fill="#1d1d1b" stroke="#1d1d1b" stroke-miterlimit="10" stroke-width="6.16"/><rect x="112.349" y="27.053" width="10.417" height="20.532" fill="#489ed7"/><rect x="154.467" y="69.314" width="10.417" height="20.532" transform="translate(222.116 -87.544) rotate(83.996)" fill="#489ed7"/><rect x="166.859" y="124.75" width="10.417" height="20.532" transform="translate(380.88 69.949) rotate(124.572)" fill="#489ed7"/><rect x="173.043" y="24.316" width="10.417" height="20.532" transform="translate(27.756 136.172) rotate(-45)" fill="#489ed7"/><circle cx="145.411" cy="32.186" r="5.133" fill="#1d1d1b"/><circle cx="183.471" cy="104.647" r="5.219" fill="#1d1d1b"/><circle cx="193.91" cy="64.952" r="5.219" fill="#1d1d1b"/><circle cx="106.051" cy="63.719" r="3.986" fill="#1d1d1b"/></svg>