<svg id="Layer_1" data-name="Layer 1" xmlns="http://www.w3.org/2000/svg" viewBox="0 0 203.826 195.02"><title>Jam_Birthday_Assets</title><path d="M154.651,167.318c3.263-4.079,23.035-23.77,23.035-23.77l-25.745-23.836Z" fill="#1d1d1b"/><polygon points="38.987 39.295 38.987 132.114 177.686 143.548 177.686 39.295 38.987 39.295" fill="#1d1d1b"/><polygon points="38.987 39.295 20.067 59.254 49.736 64.407 38.987 39.295" fill="#1d1d1b"/><rect x="33.327" y="45.995" width="108.064" height="134.583" transform="translate(-25.927 200.645) rotate(-90)" fill="#e6296e"/><rect x="35.368" y="97.445" width="108.064" height="31.682" transform="translate(-23.886 202.686) rotate(-90)" fill="#1d1d1b"/><rect x="20.067" y="99.582" width="134.583" height="31.404" fill="#1d1d1b"/><rect x="119.341" y="94.382" width="18.5" height="29.027" transform="translate(277.032 188.64) rotate(167.986)" fill="#fff"/><path d="M126.953,93.727c-.841-3.264-.333-4.725,2.152-7.279a10.863,10.863,0,0,0,1.8-2.03,7.9,7.9,0,0,0,1.028-5c-.547-4.325-4.692-6.874-8.827-6.338-1.522.2-1.542,2.619,0,2.419,3.545-.46,7.147,2.045,6.364,6.025-.481,2.442-2.74,3.187-4.177,4.849-1.962,2.27-1.357,5.357-.677,8a1.211,1.211,0,0,0,2.333-.643Z" fill="#fff"/></svg>