<svg id="Layer_1" data-name="Layer 1" xmlns="http://www.w3.org/2000/svg" xmlns:xlink="http://www.w3.org/1999/xlink" viewBox="0 0 203.826 195.02"><defs><clipPath id="clip-path"><circle id="_Ellipse_" data-name="&lt;Ellipse&gt;" cx="115.163" cy="135.055" r="47.921" fill="#5e3633"/></clipPath><clipPath id="clip-path-2"><path id="_Clipping_Path_" data-name="&lt;Clipping Path&gt;" d="M142.174,148.486a12.97,12.97,0,0,1-25.561,4.42Z"/></clipPath><clipPath id="clip-path-3"><polygon id="_Clipping_Path_2" data-name="&lt;Clipping Path&gt;" points="47.545 78.362 42.444 21.194 93.369 57.878 47.545 78.362" fill="#eeb001"/></clipPath></defs><title>Jam_Birthday_Assets</title><path d="M152.557,100.486c.208,1.808,3.791,3.208,3.852,5a65.743,65.743,0,0,1-75.426,67.109c-1.976-.3-3.215-5.237-5.136-5.708-2.485-.608-5.632,3.195-8.006,2.309a65.811,65.811,0,0,1-14.166-7.358c-2.073-1.419.234-5.356-1.663-7-1.17-1.015-6.6.329-7.7-.767q-2.046-2.043-3.911-4.266c-1.467-1.748,4.171-6.285,2.888-8.187-.986-1.461-8.932-.257-9.8-1.8q-1.45-2.577-2.672-5.3a65.056,65.056,0,0,1-2.429-6.267c-.691-2.1,3.988-4.845,3.506-7.039-.476-2.168-6.116-3.783-6.377-6.035q-.292-2.544-.39-5.061a65.953,65.953,0,0,1,.077-6.647c.193-3.094,3.743-6.119,4.358-9.1.5-2.4-2.014-4.787-1.259-7.1A65.655,65.655,0,0,1,31,80.351c.839-1.834,4.6-3.136,5.6-4.879,1.7-2.958.778-6.268,2.907-8.923,2.229-2.782,6.914-2.177,9.57-4.568,1.146-1.031.1-5.23,1.316-6.18a65.649,65.649,0,0,1,5.815-4.052c2.407-1.49,5.476,1.959,8.088.782,2.221-1,3.958-6.674,6.312-7.43q2.925-.939,5.975-1.611a66.414,66.414,0,0,1,6.632-1.108c3.012-.348,5.111,3.126,8.061,3.186,1.954.039,4.78-3.447,6.695-3.237a65.229,65.229,0,0,1,9.063,1.648c2.851.73,2.592,5.176,5.293,6.27,2.4.974,7.782-1.441,10.041-.2q2.247,1.236,4.39,2.643c2.444,1.6,2.256,6.086,4.465,8,1.9,1.643,6.228.677,7.931,2.53a65.5,65.5,0,0,1,4.8,5.871c1.593,2.194.084,6.69,1.4,9.087,1,1.812,4.883,1.484,5.71,3.4a65.384,65.384,0,0,1,2.7,7.474C154.812,92.6,152.118,96.688,152.557,100.486Z" fill="#27131d"/><circle cx="159.974" cy="130.201" r="10.919" fill="#492726"/><circle cx="69.12" cy="149.042" r="10.919" fill="#774943"/><circle id="_Ellipse_2" data-name="&lt;Ellipse&gt;" cx="115.163" cy="135.055" r="47.921" fill="#5e3633"/><g clip-path="url(#clip-path)"><circle cx="106.697" cy="135.967" r="50.03" fill="#805249"/></g><path id="_Clipping_Path_3" data-name="&lt;Clipping Path&gt;" d="M142.174,148.486a12.97,12.97,0,0,1-25.561,4.42Z"/><g clip-path="url(#clip-path-2)"><rect x="115.766" y="148.934" width="27.501" height="4.698" transform="translate(-25.012 25.656) rotate(-10.322)" fill="#f5f5f5"/><ellipse cx="128.239" cy="162.466" rx="6.69" ry="2.504" fill="#fcbed4"/></g><path d="M126.5,121.128l6.9,20.526a.823.823,0,0,1-.659,1.077l-7.7,1.148" fill="none" stroke="#000" stroke-linecap="round" stroke-miterlimit="10" stroke-width="1.647"/><circle cx="146.948" cy="134.099" r="2.641"/><circle cx="108.805" cy="141.31" r="2.641"/><circle cx="100.345" cy="155.38" r="1.32" fill="#5b332f"/><circle cx="105.479" cy="156.812" r="1.32" fill="#5b332f"/><circle cx="101.557" cy="160.189" r="1.32" fill="#5b332f"/><circle cx="149.933" cy="145.04" r="1.32" fill="#5b332f"/><circle id="_Ellipse_3" data-name="&lt;Ellipse&gt;" cx="155.067" cy="146.471" r="1.32" fill="#5b332f"/><circle cx="151.145" cy="149.849" r="1.32" fill="#5b332f"/><polygon id="_Clipping_Path_4" data-name="&lt;Clipping Path&gt;" points="47.545 78.362 42.444 21.194 93.369 57.878 47.545 78.362" fill="#eeb001"/><g clip-path="url(#clip-path-3)"><circle cx="60.005" cy="41.82" r="6.409" fill="#fff"/><circle cx="50.851" cy="63.412" r="6.409" fill="#fff"/><circle cx="79.364" cy="52.747" r="6.409" fill="#fff"/></g><line x1="32.99" y1="16.952" x2="53.893" y2="29.761" fill="#fff" stroke="#489ed7" stroke-miterlimit="10" stroke-width="1.304"/><line x1="50.7" y1="13.479" x2="36.183" y2="33.234" fill="#fff" stroke="#489ed7" stroke-miterlimit="10" stroke-width="1.304"/><line x1="35.471" y1="14.044" x2="51.411" y2="32.67" fill="#fff" stroke="#489ed7" stroke-miterlimit="10" stroke-width="1.304"/><line x1="53.39" y1="16.196" x2="33.493" y2="30.518" fill="#fff" stroke="#489ed7" stroke-miterlimit="10" stroke-width="1.304"/><line x1="40.116" y1="11.559" x2="46.766" y2="35.155" fill="#fff" stroke="#489ed7" stroke-miterlimit="10" stroke-width="1.304"/><line x1="55.477" y1="21.033" x2="31.406" y2="25.68" fill="#fff" stroke="#489ed7" stroke-miterlimit="10" stroke-width="1.304"/><line x1="44.315" y1="11.13" x2="42.568" y2="35.583" fill="#fff" stroke="#489ed7" stroke-miterlimit="10" stroke-width="1.304"/><line x1="55.551" y1="25.253" x2="31.331" y2="21.461" fill="#fff" stroke="#489ed7" stroke-miterlimit="10" stroke-width="1.304"/><path d="M99.834,55.012c-1.2-.452-11.989,3.981-13.911,3.07s-9.11,6.221-9.11,6.221l-11,3.625-5.924,4.914H50.7l-6.385,3.68L56.756,93.209S88.23,78.114,90.252,76.2,99.834,55.012,99.834,55.012Z" fill="#27131d"/></svg>