<svg id="Layer_1" data-name="Layer 1" xmlns="http://www.w3.org/2000/svg" xmlns:xlink="http://www.w3.org/1999/xlink" viewBox="0 0 203.826 195.02"><defs><clipPath id="clip-path"><ellipse id="_Ellipse_" data-name="&lt;Ellipse&gt;" cx="102.056" cy="116.755" rx="60.824" ry="61.509" fill="#704f42"/></clipPath><clipPath id="clip-path-2"><path id="_Clipping_Path_" data-name="&lt;Clipping Path&gt;" d="M40.944,122.9l7.233,26.536,13.891-5.575-8.383-28.487s15.581-.838,20.644-13.45l34.913-14.1-8.382-5.959,58.074,7.5-4.827-15.7-.443,10.056L131.856,57.355,109.242,46.09,33.829,70.865Z"/></clipPath><clipPath id="clip-path-3"><path id="_Clipping_Path_2" data-name="&lt;Clipping Path&gt;" d="M136.341,133.994a16.469,16.469,0,1,1-32.444,5.674Z"/></clipPath><clipPath id="clip-path-4"><polygon id="_Clipping_Path_3" data-name="&lt;Clipping Path&gt;" points="61.431 79.92 62.157 17.844 112.971 62.858 61.431 79.92" fill="#eeb001"/></clipPath></defs><title>Jam_Birthday_Assets</title><ellipse cx="158.934" cy="110.524" rx="13.859" ry="14.015" fill="#634840"/><ellipse cx="45.456" cy="134.707" rx="13.859" ry="14.015" fill="#70564c"/><ellipse id="_Ellipse_2" data-name="&lt;Ellipse&gt;" cx="102.056" cy="116.755" rx="60.824" ry="61.509" fill="#704f42"/><g clip-path="url(#clip-path)"><ellipse cx="91.311" cy="117.926" rx="63.502" ry="64.217" fill="#806559"/><path id="_Clipping_Path_4" data-name="&lt;Clipping Path&gt;" d="M40.944,122.9l7.233,26.536,13.891-5.575-8.383-28.487s15.581-.838,20.644-13.45l34.913-14.1-8.382-5.959,58.074,7.5-4.827-15.7-.443,10.056L131.856,57.355,109.242,46.09,33.829,70.865Z"/><g clip-path="url(#clip-path-2)"><ellipse cx="75.531" cy="118.685" rx="78.483" ry="79.366" fill="#212121"/></g></g><path id="_Clipping_Path_5" data-name="&lt;Clipping Path&gt;" d="M136.341,133.994a16.469,16.469,0,1,1-32.444,5.674Z"/><g clip-path="url(#clip-path-3)"><polygon points="137.981 137.388 103.639 143.713 102.571 137.781 136.912 131.456 137.981 137.388" fill="#f5f5f5"/><ellipse cx="118.653" cy="151.938" rx="8.492" ry="3.215" fill="#fcbed4"/></g><path d="M116.444,98.878l8.754,26.347a1.056,1.056,0,0,1-.836,1.382l-9.769,1.473" fill="none" stroke="#000" stroke-linecap="round" stroke-miterlimit="10" stroke-width="2.102"/><ellipse cx="141.711" cy="116.323" rx="3.352" ry="3.39"/><ellipse cx="93.598" cy="125.774" rx="3.352" ry="3.39"/><polygon points="98.191 115.595 82.921 119.359 81.89 115.081 97.16 111.317 98.191 115.595" fill="#1d1d1b"/><polygon points="147.588 108.276 131.908 109.37 131.609 104.977 147.288 103.883 147.588 108.276" fill="#1d1d1b"/><polygon id="_Clipping_Path_6" data-name="&lt;Clipping Path&gt;" points="61.431 79.92 62.157 17.844 112.971 62.858 61.431 79.92" fill="#eeb001"/><g clip-path="url(#clip-path-4)"><path d="M56.355,71.387c.892.223,41.7,6.466,41.7,6.466" fill="#fff" stroke="#fff" stroke-miterlimit="10" stroke-width="1.784"/><path d="M59.453,61.948c.892.223,41.7,6.466,41.7,6.466" fill="#fff" stroke="#fff" stroke-miterlimit="10" stroke-width="1.784"/><path d="M60.726,52.177c.892.223,61.63,9.771,61.63,9.771" fill="#fff" stroke="#fff" stroke-miterlimit="10" stroke-width="1.784"/><path d="M60.726,41.066c.892.223,61.63,9.77,61.63,9.77" fill="#fff" stroke="#fff" stroke-miterlimit="10" stroke-width="1.784"/><path d="M60.726,29.8c.892.223,61.63,9.77,61.63,9.77" fill="#fff" stroke="#fff" stroke-miterlimit="10" stroke-width="1.784"/></g><line x1="52.445" y1="12.252" x2="73.546" y2="28.309" fill="#fff" stroke="#e6296e" stroke-miterlimit="10" stroke-width="1.411"/><line x1="71.881" y1="10.44" x2="54.11" y2="30.121" fill="#fff" stroke="#e6296e" stroke-miterlimit="10" stroke-width="1.411"/><line x1="55.431" y1="9.392" x2="70.56" y2="31.169" fill="#fff" stroke="#e6296e" stroke-miterlimit="10" stroke-width="1.411"/><line x1="74.48" y1="13.656" x2="51.511" y2="26.905" fill="#fff" stroke="#e6296e" stroke-miterlimit="10" stroke-width="1.411"/><line x1="60.7" y1="7.222" x2="65.29" y2="33.338" fill="#fff" stroke="#e6296e" stroke-miterlimit="10" stroke-width="1.411"/><line x1="76.2" y1="19.088" x2="49.791" y2="21.472" fill="#fff" stroke="#e6296e" stroke-miterlimit="10" stroke-width="1.411"/><line x1="65.265" y1="7.218" x2="60.726" y2="33.343" fill="#fff" stroke="#e6296e" stroke-miterlimit="10" stroke-width="1.411"/><line x1="75.821" y1="23.637" x2="50.169" y2="16.923" fill="#fff" stroke="#e6296e" stroke-miterlimit="10" stroke-width="1.411"/><path d="M60.4,77.014l18.066-9.783-5.029,8.622L97.551,62.329s-4.425,7.691-2.687,7.1,17.808-10.463,17.808-10.463L114,67.989,90.421,78.412,62.7,83.583Z" fill="#212121"/></svg>