<svg id="Layer_1" data-name="Layer 1" xmlns="http://www.w3.org/2000/svg" xmlns:xlink="http://www.w3.org/1999/xlink" viewBox="0 0 203.826 195.02"><defs><clipPath id="clip-path"><circle id="_Ellipse_" data-name="&lt;Ellipse&gt;" cx="105.306" cy="102.88" r="48.29" fill="#efc9ac"/></clipPath><clipPath id="clip-path-2"><path id="_Clipping_Path_" data-name="&lt;Clipping Path&gt;" d="M132.525,116.414a13.07,13.07,0,1,1-25.758,4.455Z"/></clipPath><clipPath id="clip-path-3"><path id="_Clipping_Path_2" data-name="&lt;Clipping Path&gt;" d="M97.258,68.316l1.648,18.707,57.564.279c0-31.351-45.777-38.742-45.777-38.742" fill="#231312"/></clipPath><clipPath id="clip-path-4"><polygon id="_Clipping_Path_3" data-name="&lt;Clipping Path&gt;" points="78.095 71.008 86.987 14.98 126.957 62.419 78.095 71.008" fill="#e6296e"/></clipPath></defs><title>Jam_Birthday_Assets</title><circle cx="151.16" cy="127.949" r="13.175" fill="none" stroke="#ffcf11" stroke-miterlimit="10" stroke-width="3.34"/><path d="M84.051,118.953l-1.224,68.458a1.145,1.145,0,0,1-2.074.6l-3.354-4.67a1.146,1.146,0,0,0-2.029.342l-2.5,8.4a1.146,1.146,0,0,1-2.132.168l-5.684-11.869a1.146,1.146,0,0,0-1.949-.195l-2.171,2.883a1.146,1.146,0,0,1-2.061-.671L58.1,116.773Z" fill="#35201d"/><circle cx="71.039" cy="79.071" r="13.913" fill="#e84780"/><circle cx="150.462" cy="97.989" r="11.003" fill="#d8b193"/><circle cx="58.909" cy="116.975" r="11.003" fill="#edc9ab"/><circle id="_Ellipse_2" data-name="&lt;Ellipse&gt;" cx="105.306" cy="102.88" r="48.29" fill="#efc9ac"/><g clip-path="url(#clip-path)"><circle cx="96.775" cy="103.8" r="50.416" fill="#f9e0ca"/><polygon points="135.91 47.54 109.099 37.325 75.591 47.779 47.205 81.633 57.4 107.951 85.391 86.412 94.368 79.505 135.91 47.54" fill="#35201d"/></g><circle cx="91.557" cy="127.978" r="9.089" fill="#f6b7a1"/><path id="_Clipping_Path_4" data-name="&lt;Clipping Path&gt;" d="M132.525,116.414a13.07,13.07,0,1,1-25.758,4.455Z"/><g clip-path="url(#clip-path-2)"><rect x="105.914" y="116.866" width="27.713" height="4.734" transform="translate(-19.427 23.391) rotate(-10.322)" fill="#f5f5f5"/><ellipse cx="118.483" cy="130.502" rx="6.742" ry="2.524" fill="#fcbed4"/></g><circle cx="135.175" cy="104.112" r="2.661"/><circle cx="98.016" cy="109.218" r="2.661"/><path d="M117.339,97.256l4.188,13.734a.83.83,0,0,1-.664,1.085l-7.755,1.156" fill="none" stroke="#000" stroke-linecap="round" stroke-miterlimit="10" stroke-width="1.659"/><path id="_Clipping_Path_5" data-name="&lt;Clipping Path&gt;" d="M97.258,68.316l1.648,18.707,57.564.279c0-31.351-45.777-38.742-45.777-38.742" fill="#231312"/><g clip-path="url(#clip-path-3)"><ellipse cx="83.576" cy="101.921" rx="62.873" ry="63.58" fill="#35201d"/></g><polygon id="_Clipping_Path_6" data-name="&lt;Clipping Path&gt;" points="78.095 71.008 86.987 14.98 126.957 62.419 78.095 71.008" fill="#e6296e"/><g clip-path="url(#clip-path-4)"><path d="M74.637,62.619C75.414,62.939,111.478,74,111.478,74" fill="#fff" stroke="#fff" stroke-miterlimit="10" stroke-width="1.63"/><path d="M78.691,54.5c.777.32,36.841,11.378,36.841,11.378" fill="#fff" stroke="#fff" stroke-miterlimit="10" stroke-width="1.63"/><path d="M81.138,45.831c.777.32,54.425,17.01,54.425,17.01" fill="#fff" stroke="#fff" stroke-miterlimit="10" stroke-width="1.63"/><path d="M82.612,35.785c.777.32,54.425,17.01,54.425,17.01" fill="#fff" stroke="#fff" stroke-miterlimit="10" stroke-width="1.63"/><path d="M84.106,25.6c.777.32,54.425,17.01,54.425,17.01" fill="#fff" stroke="#fff" stroke-miterlimit="10" stroke-width="1.63"/></g><line x1="78.947" y1="8.635" x2="95.896" y2="25.952" fill="#fff" stroke="#eeb001" stroke-miterlimit="10" stroke-width="1.289"/><line x1="96.76" y1="9.576" x2="78.083" y2="25.012" fill="#fff" stroke="#eeb001" stroke-miterlimit="10" stroke-width="1.289"/><line x1="82.027" y1="6.446" x2="92.816" y2="28.142" fill="#fff" stroke="#eeb001" stroke-miterlimit="10" stroke-width="1.289"/><line x1="98.684" y1="12.828" x2="76.159" y2="21.759" fill="#fff" stroke="#eeb001" stroke-miterlimit="10" stroke-width="1.289"/><line x1="87.079" y1="5.183" x2="87.764" y2="29.404" fill="#fff" stroke="#eeb001" stroke-miterlimit="10" stroke-width="1.289"/><line x1="99.518" y1="17.968" x2="75.325" y2="16.62" fill="#fff" stroke="#eeb001" stroke-miterlimit="10" stroke-width="1.289"/><line x1="91.206" y1="5.785" x2="83.637" y2="28.803" fill="#fff" stroke="#eeb001" stroke-miterlimit="10" stroke-width="1.289"/><line x1="98.572" y1="22.031" x2="76.271" y2="12.557" fill="#fff" stroke="#eeb001" stroke-miterlimit="10" stroke-width="1.289"/><circle cx="53.764" cy="146.536" r="13.175" fill="none" stroke="#ffcf11" stroke-miterlimit="10" stroke-width="3.34"/></svg>