<svg id="Layer_1" data-name="Layer 1" xmlns="http://www.w3.org/2000/svg" viewBox="0 0 203.826 195.02"><title>Jam_Birthday_Assets</title><path d="M156.585,36.585C154.177,35.308,133.28,24.06,133.28,24.06l-8.842,16.655Z" fill="#1d1d1b"/><polygon points="46.6 157.755 126.972 157.755 133.28 24.06 46.6 24.06 46.6 157.755" fill="#1d1d1b"/><polygon points="46.6 157.755 59.813 170.28 63.224 150.639 46.6 157.755" fill="#1d1d1b"/><rect x="59.813" y="36.585" width="96.913" height="133.695" transform="translate(216.539 206.865) rotate(-180)" fill="#e74626"/><rect x="59.813" y="94.97" width="96.913" height="20.975" transform="translate(216.539 210.914) rotate(-180)" fill="#1d1d1b"/><rect x="41.413" y="93.038" width="133.695" height="20.79" transform="translate(4.828 211.693) rotate(-90)" fill="#1d1d1b"/><rect x="130.634" y="67.675" width="12.248" height="19.216" transform="translate(286.606 124.408) rotate(167.986)" fill="#fff"/><path d="M135.673,67.241c-.556-2.161-.22-3.128,1.425-4.819a7.176,7.176,0,0,0,1.194-1.344,5.231,5.231,0,0,0,.681-3.31,5.064,5.064,0,0,0-5.844-4.2c-1.008.131-1.021,1.734,0,1.6,2.347-.3,4.731,1.354,4.213,3.988-.318,1.617-1.814,2.111-2.765,3.211-1.3,1.5-.9,3.546-.448,5.294a.8.8,0,0,0,1.544-.426Z" fill="#fff"/></svg>