<svg id="Layer_1" data-name="Layer 1" xmlns="http://www.w3.org/2000/svg" xmlns:xlink="http://www.w3.org/1999/xlink" viewBox="0 0 203.826 195.02"><defs><clipPath id="clip-path"><polyline id="_Clipping_Path_" data-name="&lt;Clipping Path&gt;" points="149.281 47.68 164.372 103.122 88.121 165.469 38.3 62.974 42.446 46.601" fill="#1d1d1b"/></clipPath></defs><title>Jam_Birthday_Assets</title><polyline id="_Clipping_Path_2" data-name="&lt;Clipping Path&gt;" points="149.281 47.68 164.372 103.122 88.121 165.469 38.3 62.974 42.446 46.601" fill="#1d1d1b"/><g clip-path="url(#clip-path)"><path d="M41.609,166.292c-.433-4.035,10.056-6.292,12.625-6.5,4.429-.355,8.826.764,13.26.3,7.4-.776,12.482-5.763,15.784-12.127,3.886-7.491,5.268-16.333,14.779-18.259,7.967-1.613,14.8-2.021,21.41-7.337,6.331-5.091,8.793-11.587,11.1-19.1,2.379-7.751,7.847-10.331,14.765-13.541,5.916-2.745,11.729-5.789,15.358-11.447,4.185-6.524,3.96-17.045,10.77-21.607,4.76-3.189.286-10.941-4.515-7.725-11.073,7.418-8.49,23.307-19.886,29.95-10.032,5.847-20.578,8.225-24.643,20.42-2.189,6.564-3.492,12.458-9.41,16.787-6,4.387-12.933,3.525-19.7,5.548-6.136,1.834-10.356,6.153-13.223,11.749-2.735,5.338-4.292,13.3-9.776,16.616-3.756,2.273-8.677.965-12.8.813a31.289,31.289,0,0,0-10.772,1.4c-6.022,1.959-14.878,6.59-14.076,14.056.608,5.664,9.561,5.726,8.946,0Z" fill="#fff"/></g><path d="M39.081,46.6,68.5,120.7,149.281,47.68a1.429,1.429,0,0,0-.951-2.489L40.416,44.645A1.428,1.428,0,0,0,39.081,46.6Z" fill="#489ed7"/><circle cx="73.533" cy="53.881" r="3.698" fill="#ffcf14"/><circle cx="83.152" cy="66.95" r="3.698" fill="#ffcf14"/><circle cx="91.82" cy="81.621" r="3.698" fill="#ffcf14"/><polygon points="67.739 118.789 88.121 165.469 82.395 166.642 37.128 68.552 39.081 46.601 67.739 118.789" fill="#489ed7"/><circle cx="56.139" cy="60.959" r="10.776" fill="#fff"/><circle cx="71.9" cy="90.147" r="10.776" fill="#fff"/></svg>