<svg id="Layer_1" data-name="Layer 1" xmlns="http://www.w3.org/2000/svg" xmlns:xlink="http://www.w3.org/1999/xlink" viewBox="0 0 203.826 195.02"><defs><clipPath id="clip-path"><path id="_Clipping_Path_" data-name="&lt;Clipping Path&gt;" d="M113.077,158.239l-.206-22.841a3.259,3.259,0,0,1,3.229-3.288l5.118-.046,3.267-.029a3.258,3.258,0,0,1,3.288,3.229l.207,22.84Z" fill="#aeafae"/></clipPath></defs><title>Jam_Birthday_Assets</title><path d="M185.487,49.6A15.4,15.4,0,0,0,170,34.389L23.446,35.715A15.4,15.4,0,0,0,8.233,51.206l.818,90.4a15.4,15.4,0,0,0,15.491,15.213l146.55-1.327A15.4,15.4,0,0,0,186.305,140ZM19.77,42.854a4.834,4.834,0,1,1-4.791,4.877A4.835,4.835,0,0,1,19.77,42.854Zm.972,107.364a4.834,4.834,0,1,1,4.79-4.877A4.834,4.834,0,0,1,20.742,150.218ZM142.332,41.744a4.834,4.834,0,1,1-4.79,4.878A4.834,4.834,0,0,1,142.332,41.744Zm.972,107.365a4.834,4.834,0,1,1,4.791-4.878A4.834,4.834,0,0,1,143.3,149.109Z" fill="#4bab33"/><rect x="158.245" y="105.327" width="34.419" height="48.975" rx="7.391" ry="7.391" transform="translate(303.675 -46.808) rotate(89.481)" fill="#d5d5d5"/><rect x="165.231" y="69.989" width="26.031" height="42.695" rx="6.002" ry="6.002" transform="translate(267.966 -87.729) rotate(89.481)" fill="#d5d5d5"/><rect x="164.017" y="36.894" width="26.031" height="42.695" rx="6.002" ry="6.002" transform="translate(233.668 -119.311) rotate(89.481)" fill="#d5d5d5"/><rect x="48.205" y="89.701" width="29.487" height="29.487" rx="6.521" ry="6.521" transform="translate(166.819 40.552) rotate(89.481)" fill="#1d1e1c"/><rect x="123.178" y="64.66" width="20.683" height="20.683" rx="3.315" ry="3.315" transform="translate(207.309 -59.192) rotate(89.481)" fill="#1d1e1c"/><rect x="61.252" y="128.858" width="26.031" height="32.939" rx="5.271" ry="5.271" transform="translate(-1.313 0.678) rotate(-0.519)" fill="#d5d5d5"/><rect x="73.659" y="5.432" width="12.569" height="84.002" rx="3.561" ry="3.561" transform="translate(126.651 -32.936) rotate(89.481)" fill="#f5a12d"/><path d="M60.979,58.992a2.17,2.17,0,0,1,.7.209c.567-.188.7.061.978.161.619-.135.81.144,1.11.438l.345-.01a3.879,3.879,0,0,1,1.583,2.2,3.872,3.872,0,0,1,1.543-2.229l.345,0c.3-.3.481-.581,1.1-.458.279-.1.406-.356.976-.178.354-.114.662-.409,1.134-.049a1.009,1.009,0,0,1,1.122.093c.529-.072.7.066.833.228.117,0,.869-.126,1.218.378.868-.109,1.147.493.842,1.059a.731.731,0,0,1-.044,1.052c.149.286.061.6-.281.978a.821.821,0,0,1-.4.914c.065.551-.506.877-.677.993-.063.322-.2.627-.851.8-.1.48-.5.566-.878.67a4.07,4.07,0,0,1,2.372,3.983l.188.323A3.912,3.912,0,0,1,75,76.459a11.055,11.055,0,0,1-.538,1.785,4.351,4.351,0,0,1-2.714,3.482,9.272,9.272,0,0,1-2.612,1.492,4.392,4.392,0,0,1-3.214,1.456h-.049a4.388,4.388,0,0,1-3.24-1.4A9.325,9.325,0,0,1,60,81.833,4.35,4.35,0,0,1,57.223,78.4a10.965,10.965,0,0,1-.571-1.775,3.912,3.912,0,0,1,.659-5.92l.182-.326a4.071,4.071,0,0,1,2.3-4.025c-.382-.1-.777-.176-.889-.654-.658-.162-.8-.464-.866-.785-.173-.113-.75-.429-.7-.982a.819.819,0,0,1-.417-.906c-.349-.373-.443-.684-.3-.972A.731.731,0,0,1,56.563,61c-.316-.56-.047-1.167.822-1.073.341-.511,1.095-.4,1.211-.4.129-.164.3-.305.829-.242a1.008,1.008,0,0,1,1.12-.114.734.734,0,0,1,.434-.181Zm-1.821,2.4a16.171,16.171,0,0,1,5.151,2.644c1.706-.813.507-2.813-.336-3.6a.731.731,0,0,1-.141.385,7.685,7.685,0,0,0-.853-.863c0,.165.087.343-.121.475a2.464,2.464,0,0,0-.784-.662c.165.278.031.365-.055.481a2.862,2.862,0,0,0-.982-.608c.131.157.314.309.123.493A2.867,2.867,0,0,0,60,59.7c.143.157.438.312.261.472a4.889,4.889,0,0,0-1.111-.263c.2.159.361.314.2.44a2.436,2.436,0,0,0-1.327-.118l.306.3a8.63,8.63,0,0,1-1.2.05,2.434,2.434,0,0,1,.477.912c-.049.049-.292.024-.522,0,.24.493.65.614.747.825a.6.6,0,0,1-.561.012,3.72,3.72,0,0,0,.813.863c-.071.051-.194.083-.488.05a4.556,4.556,0,0,0,.95.746c-.065.076-.291.075-.5.082a4.736,4.736,0,0,0,1.18.7.7.7,0,0,1-.5.109,3.937,3.937,0,0,0,1.232.489.45.45,0,0,1-.355.211c.482.261,1.167.134,1.362.267a.58.58,0,0,1-.334.3c.772.038,2.881-.054,3.271-1.655a16.8,16.8,0,0,0-4.739-3.1Zm13.133-.119a16.781,16.781,0,0,0-4.682,3.188c.419,1.593,2.53,1.646,3.3,1.595a.578.578,0,0,1-.34-.29c.193-.137.88-.022,1.357-.291a.452.452,0,0,1-.358-.2,3.9,3.9,0,0,0,1.222-.512.7.7,0,0,1-.5-.1,4.719,4.719,0,0,0,1.168-.726c-.21,0-.436,0-.5-.073a4.487,4.487,0,0,0,.936-.762c-.293.037-.417.008-.488-.041a3.744,3.744,0,0,0,.8-.878.6.6,0,0,1-.561,0c.093-.213.5-.341.731-.838-.229.024-.472.053-.521,0a2.426,2.426,0,0,1,.46-.92,8.573,8.573,0,0,1-1.2-.028l.3-.308a2.425,2.425,0,0,0-1.325.142c-.161-.123,0-.282.194-.444a4.875,4.875,0,0,0-1.106.283c-.179-.157.113-.317.253-.477a2.867,2.867,0,0,0-1.157.459c-.194-.18-.014-.336.114-.495a2.863,2.863,0,0,0-.971.626c-.088-.115-.223-.2-.063-.48a2.463,2.463,0,0,0-.773.676c-.209-.129-.127-.308-.129-.473a7.666,7.666,0,0,0-.837.879.737.737,0,0,1-.149-.383c-.828.806-1.99,2.828-.27,3.61a16.151,16.151,0,0,1,5.1-2.737ZM68.87,77.537a2.984,2.984,0,0,0-5.939.082v.019a2.983,2.983,0,0,0,5.94-.073ZM64.17,69.9a2.971,2.971,0,0,0-3.95,1.181,2.847,2.847,0,0,0,.532,4.016h0a2.971,2.971,0,0,0,3.95-1.18A2.848,2.848,0,0,0,64.17,69.9Zm3.32-.173a2.847,2.847,0,0,0-.459,4.025A2.973,2.973,0,0,0,71,74.862h0a2.848,2.848,0,0,0,.459-4.026,2.972,2.972,0,0,0-3.972-1.108ZM57.52,76.21c1.085.463,1.913-5.31.588-4.947A3.091,3.091,0,0,0,57.52,76.21Zm15.941-5.158c-1.332-.338-.4,5.419.677,4.936a3.092,3.092,0,0,0-.677-4.936Zm-.34-.889c.055-2.449-1.866-3.774-4.155-3.372C68.123,66.939,73.054,71.1,73.121,70.163ZM62.63,66.777c-2.3-.361-4.192,1-4.093,3.447C58.621,71.162,63.476,66.909,62.63,66.777Zm3.154-.6c-1.369-.023-2.673,1.025-2.671,1.625,0,.73,1.1,1.468,2.708,1.472,1.647,0,2.692-.623,2.691-1.376,0-.853-1.514-1.745-2.728-1.721Zm.241,14.964c-1.186-.018-3,.495-2.972,1.132-.015.434,1.443,1.674,2.918,1.6,1.424.011,2.885-1.253,2.86-1.807-.008-.57-1.613-.985-2.806-.923ZM61.579,77.8c-.985-1.106-2.258-1.758-3.073-1.259-.544.416-.632,1.815.161,3.183,1.172,1.627,2.8,1.777,3.47,1.372.7-.528.3-2.3-.558-3.3Zm8.55-.4c-.91,1.068-1.4,3.007-.728,3.624.645.478,2.366.4,3.621-1.354a3.286,3.286,0,0,0,.054-3.634c-.789-.59-1.906.184-2.947,1.363Z" fill="#fff"/><rect x="31.343" y="145.497" width="16.469" height="13.504" rx="2.685" ry="2.685" transform="matrix(1, -0.009, 0.009, 1, -1.377, 0.365)" fill="#d5d5d5"/><path d="M99.005,107.7l2.345-.021a1.508,1.508,0,0,1,1.522,1.494l.048,5.357,2.653,1.888a2.516,2.516,0,0,1,1.38,2.222l.239,26.495a2.515,2.515,0,0,1-1.584,2.361l-2.377,1.359.045,5.03a1.507,1.507,0,0,1-1.494,1.522l-2.345.021a1.508,1.508,0,0,1-1.522-1.494l-.405-44.712A1.509,1.509,0,0,1,99.005,107.7Z" fill="#fff"/><path d="M95.366,116.911h2.378a0,0,0,0,1,0,0v2.283a1.02,1.02,0,0,1-1.02,1.02h-.339a1.02,1.02,0,0,1-1.02-1.02v-2.283A0,0,0,0,1,95.366,116.911Z" transform="translate(214.239 20.938) rotate(89.481)" fill="#d5d5d5"/><path d="M95.4,121.139h2.378a0,0,0,0,1,0,0v2.283a1.02,1.02,0,0,1-1.02,1.02h-.339a1.02,1.02,0,0,1-1.02-1.02v-2.283A0,0,0,0,1,95.4,121.139Z" transform="translate(218.504 25.089) rotate(89.481)" fill="#d5d5d5"/><path d="M95.443,125.366h2.378a0,0,0,0,1,0,0v2.283a1.02,1.02,0,0,1-1.02,1.02h-.339a1.02,1.02,0,0,1-1.02-1.02v-2.283a0,0,0,0,1,0,0Z" transform="translate(222.769 29.24) rotate(89.481)" fill="#d5d5d5"/><path d="M95.481,129.593h2.378a0,0,0,0,1,0,0v2.283a1.02,1.02,0,0,1-1.02,1.02H96.5a1.02,1.02,0,0,1-1.02-1.02v-2.283a0,0,0,0,1,0,0Z" transform="translate(227.034 33.39) rotate(89.481)" fill="#d5d5d5"/><path d="M95.519,133.821H97.9a0,0,0,0,1,0,0V136.1a1.02,1.02,0,0,1-1.02,1.02h-.339a1.02,1.02,0,0,1-1.02-1.02v-2.283a0,0,0,0,1,0,0Z" transform="translate(231.299 37.541) rotate(89.481)" fill="#d5d5d5"/><path d="M95.558,138.048h2.378a0,0,0,0,1,0,0v2.283a1.02,1.02,0,0,1-1.02,1.02h-.339a1.02,1.02,0,0,1-1.02-1.02v-2.283A0,0,0,0,1,95.558,138.048Z" transform="translate(235.564 41.692) rotate(89.481)" fill="#d5d5d5"/><path d="M95.6,142.275h2.378a0,0,0,0,1,0,0v2.283a1.02,1.02,0,0,1-1.02,1.02h-.339a1.02,1.02,0,0,1-1.02-1.02v-2.283A0,0,0,0,1,95.6,142.275Z" transform="translate(239.829 45.843) rotate(89.481)" fill="#d5d5d5"/><path d="M83.939,129.469h31.4a0,0,0,0,1,0,0v3.043a.815.815,0,0,1-.815.815H84.753a.815.815,0,0,1-.815-.815v-3.043A0,0,0,0,1,83.939,129.469Z" transform="translate(-30.85 232.223) rotate(-90.519)"/><path d="M19.326,122.464l-2.345.022a1.509,1.509,0,0,1-1.522-1.5l-.048-5.357-2.653-1.887a2.518,2.518,0,0,1-1.38-2.223l-.24-26.5a2.516,2.516,0,0,1,1.585-2.36l2.377-1.36-.045-5.03a1.508,1.508,0,0,1,1.494-1.522l2.345-.021a1.508,1.508,0,0,1,1.522,1.494l.405,44.713A1.508,1.508,0,0,1,19.326,122.464Z" fill="#fff"/><path d="M20.587,109.951h2.378a0,0,0,0,1,0,0v2.283a1.02,1.02,0,0,1-1.02,1.02h-.339a1.02,1.02,0,0,1-1.02-1.02v-2.283A0,0,0,0,1,20.587,109.951Z" transform="translate(-89.625 134.388) rotate(-90.519)" fill="#d5d5d5"/><path d="M20.549,105.724h2.378a0,0,0,0,1,0,0v2.283a1.02,1.02,0,0,1-1.02,1.02h-.339a1.02,1.02,0,0,1-1.02-1.02v-2.283A0,0,0,0,1,20.549,105.724Z" transform="translate(-85.436 130.084) rotate(-90.519)" fill="#d5d5d5"/><path d="M20.51,101.5h2.378a0,0,0,0,1,0,0v2.283a1.02,1.02,0,0,1-1.02,1.02H21.53a1.02,1.02,0,0,1-1.02-1.02V101.5a0,0,0,0,1,0,0Z" transform="translate(-81.248 125.78) rotate(-90.519)" fill="#d5d5d5"/><path d="M20.472,97.269H22.85a0,0,0,0,1,0,0v2.283a1.02,1.02,0,0,1-1.02,1.02h-.339a1.02,1.02,0,0,1-1.02-1.02V97.269A0,0,0,0,1,20.472,97.269Z" transform="translate(-77.059 121.476) rotate(-90.519)" fill="#d5d5d5"/><path d="M20.434,93.042h2.378a0,0,0,0,1,0,0v2.283a1.02,1.02,0,0,1-1.02,1.02h-.339a1.02,1.02,0,0,1-1.02-1.02V93.042A0,0,0,0,1,20.434,93.042Z" transform="translate(-72.871 117.172) rotate(-90.519)" fill="#d5d5d5"/><path d="M20.4,88.815h2.378a0,0,0,0,1,0,0V91.1a1.02,1.02,0,0,1-1.02,1.02h-.339A1.02,1.02,0,0,1,20.4,91.1V88.815A0,0,0,0,1,20.4,88.815Z" transform="translate(-68.682 112.868) rotate(-90.519)" fill="#d5d5d5"/><path d="M20.357,84.587h2.378a0,0,0,0,1,0,0V86.87a1.02,1.02,0,0,1-1.02,1.02h-.339a1.02,1.02,0,0,1-1.02-1.02V84.587A0,0,0,0,1,20.357,84.587Z" transform="translate(-64.494 108.565) rotate(-90.519)" fill="#d5d5d5"/><path d="M2.99,96.839h31.4a0,0,0,0,1,0,0v3.043a.815.815,0,0,1-.815.815H3.8a.815.815,0,0,1-.815-.815V96.839a0,0,0,0,1,0,0Z" transform="translate(117.285 79.183) rotate(89.481)"/><rect x="4.802" y="59.785" width="12.28" height="5.734" rx="1.077" ry="1.077" transform="translate(73.493 51.144) rotate(89.481)" fill="#d5d5d5"/><path d="M116.421,153.806h6.957a1.425,1.425,0,0,1,1.425,1.425V165.4a1.425,1.425,0,0,1-1.425,1.425h-6.957a0,0,0,0,1,0,0V153.806a0,0,0,0,1,0,0Z" transform="translate(279.828 38.255) rotate(89.481)"/><path id="_Clipping_Path_2" data-name="&lt;Clipping Path&gt;" d="M113.077,158.239l-.206-22.841a3.259,3.259,0,0,1,3.229-3.288l5.118-.046,3.267-.029a3.258,3.258,0,0,1,3.288,3.229l.207,22.84Z" fill="#aeafae"/><g clip-path="url(#clip-path)"><rect x="111.919" y="131.27" width="16.884" height="16.884" transform="translate(-1.26 1.095) rotate(-0.519)" fill="#2d2d2d"/></g><circle cx="120.379" cy="134.512" r="1.211"/><rect x="114.676" y="134.554" width="2.169" height="3.833" rx="0.953" ry="0.953" transform="translate(-1.231 1.054) rotate(-0.519)" fill="#d6d6d6"/><path d="M124.057,148.582l-7.1.064,1.227-10.948a1.266,1.266,0,0,1,1.246-1.124l1.769-.016a1.265,1.265,0,0,1,1.264,1.083Z" fill="#afafaf"/><rect x="120.356" y="150.894" width="0.347" height="14.903" transform="matrix(0.009, 1, -1, 0.009, 277.778, 36.387)"/></svg>