<svg id="Layer_1" data-name="Layer 1" xmlns="http://www.w3.org/2000/svg" viewBox="0 0 203.826 195.02"><title>Jam_Birthday_Assets</title><path d="M155.875,143.115c1.2-2.263,11.766-15.967,11.766-15.967L152,112.916Z" fill="#1d1d1b"/><polygon points="42.048 63.498 42.048 121.222 167.641 127.148 167.641 63.498 42.048 63.498" fill="#1d1d1b"/><polygon points="42.048 63.498 30.282 75.91 48.734 79.115 42.048 63.498" fill="#1d1d1b"/><rect x="59.476" y="46.717" width="67.205" height="125.592" transform="translate(-16.434 202.591) rotate(-90)" fill="#ffcf14"/><rect x="57.575" y="99.661" width="67.205" height="19.703" transform="translate(-18.336 200.69) rotate(-90)" fill="#1d1d1b"/><rect x="30.282" y="100.99" width="125.592" height="19.53" fill="#1d1d1b"/><rect x="130.058" y="96.961" width="11.505" height="18.052" transform="translate(290.707 181.383) rotate(167.986)" fill="#fff"/><path d="M134.792,96.553c-.523-2.03-.207-2.938,1.338-4.527a6.708,6.708,0,0,0,1.122-1.262,4.912,4.912,0,0,0,.639-3.11,4.756,4.756,0,0,0-5.489-3.941c-.947.123-.959,1.628,0,1.5,2.205-.286,4.444,1.272,3.958,3.747-.3,1.519-1.7,1.982-2.6,3.016-1.22,1.412-.844,3.331-.421,4.973a.753.753,0,0,0,1.451-.4Z" fill="#fff"/></svg>