<svg id="Layer_1" data-name="Layer 1" xmlns="http://www.w3.org/2000/svg" xmlns:xlink="http://www.w3.org/1999/xlink" viewBox="0 0 203.826 195.02"><defs><clipPath id="clip-path"><path id="_Clipping_Path_" data-name="&lt;Clipping Path&gt;" d="M109.256,182.172l-.51.364a18.7,18.7,0,0,1-22.232-.364h0V76.885h22.742Z" fill="#1d1d1b"/></clipPath></defs><title>Jam_Birthday_Assets</title><rect x="86.514" y="76.885" width="22.741" height="105.287" fill="#1d1d1b"/><path id="_Clipping_Path_2" data-name="&lt;Clipping Path&gt;" d="M109.256,182.172l-.51.364a18.7,18.7,0,0,1-22.232-.364h0V76.885h22.742Z" fill="#1d1d1b"/><g clip-path="url(#clip-path)"><path d="M120.773,102.59a59.049,59.049,0,0,1-40.812-8.777l5.124-7.94a49.6,49.6,0,0,0,34.281,7.372Z" fill="#ffcf14"/><path d="M115.474,127.228a59.052,59.052,0,0,1-40.812-8.777l5.125-7.94a49.6,49.6,0,0,0,34.28,7.372Z" fill="#ffcf14"/><path d="M114.376,151.865a59.045,59.045,0,0,1-40.812-8.776q2.562-3.97,5.125-7.941a49.591,49.591,0,0,0,34.28,7.372Z" fill="#ffcf14"/><path d="M114.678,176.5a59.05,59.05,0,0,1-40.812-8.776l5.124-7.941a49.6,49.6,0,0,0,34.281,7.372Z" fill="#ffcf14"/></g><ellipse cx="97.947" cy="78.004" rx="11.433" ry="5.319" fill="#fff"/><path d="M113.828,33.2c2.844,13.792-6.645,25.5-14.843,25.5S77.7,45.721,84.141,33.2a81.4,81.4,0,0,0,8.14-25.5S111.434,21.589,113.828,33.2Z" fill="#5aaee1"/><line x1="98.537" y1="54.906" x2="97.496" y2="77.727" fill="none" stroke="#b1b1b1" stroke-linecap="round" stroke-miterlimit="10" stroke-width="1.826"/><path d="M113.828,33.2c2.844,13.792-6.645,25.5-14.843,25.5S77.7,45.721,84.141,33.2a81.4,81.4,0,0,0,8.14-25.5S111.434,21.589,113.828,33.2Z" fill="#ffcf11"/></svg>