<svg id="Layer_1" data-name="Layer 1" xmlns="http://www.w3.org/2000/svg" xmlns:xlink="http://www.w3.org/1999/xlink" viewBox="0 0 203.826 195.02"><defs><clipPath id="clip-path"><circle id="_Ellipse_" data-name="&lt;Ellipse&gt;" cx="101.473" cy="120.366" r="54.263" fill="#ecd1be"/></clipPath><clipPath id="clip-path-2"><path id="_Clipping_Path_" data-name="&lt;Clipping Path&gt;" d="M43,111.914l6.6,26.268,9.1-1.9-3.868-24.372s21.664-.268,26.86-2.946l-5.606-6.7s23.972.816,29.5-2.538L101.9,95.04s35.143,2.679,36.143,0v-8.3s9.4,3.749,10.6,2.142L126.188,59.736,74.3,58.347,47.75,73.078,36.57,102Z" fill="#eeb001"/></clipPath><clipPath id="clip-path-3"><path id="_Clipping_Path_2" data-name="&lt;Clipping Path&gt;" d="M132.059,135.575a14.687,14.687,0,0,1-28.944,5.005Z"/></clipPath><clipPath id="clip-path-4"><polygon id="_Clipping_Path_3" data-name="&lt;Clipping Path&gt;" points="61.633 94.068 62.378 30.326 114.556 76.548 61.633 94.068" fill="#489ed7"/></clipPath></defs><title>Jam_Birthday_Assets</title><circle cx="152.215" cy="114.87" r="12.364" fill="#ddc0b1"/><circle cx="49.337" cy="136.204" r="12.364" fill="#edd1bf"/><circle id="_Ellipse_2" data-name="&lt;Ellipse&gt;" cx="101.473" cy="120.366" r="54.263" fill="#ecd1be"/><g clip-path="url(#clip-path)"><circle cx="91.887" cy="121.4" r="56.652" fill="#f7e0d0"/><path id="_Clipping_Path_4" data-name="&lt;Clipping Path&gt;" d="M43,111.914l6.6,26.268,9.1-1.9-3.868-24.372s21.664-.268,26.86-2.946l-5.606-6.7s23.972.816,29.5-2.538L101.9,95.04s35.143,2.679,36.143,0v-8.3s9.4,3.749,10.6,2.142L126.188,59.736,74.3,58.347,47.75,73.078,36.57,102Z" fill="#eeb001"/><g clip-path="url(#clip-path-2)"><path d="M138.084,88.005s-14.353-18.873-31.77-22.237S126.46,54.322,126.46,54.322l18.069,23,2.46,8.819,4.066,4.463Z" fill="#c98f00"/></g></g><circle cx="86.024" cy="148.569" r="10.213" fill="#f6b7a1"/><path id="_Clipping_Path_5" data-name="&lt;Clipping Path&gt;" d="M132.059,135.575a14.687,14.687,0,0,1-28.944,5.005Z"/><g clip-path="url(#clip-path-3)"><rect x="102.157" y="136.083" width="31.141" height="5.32" transform="translate(-22.956 23.341) rotate(-10.322)" fill="#f5f5f5"/><ellipse cx="116.28" cy="151.405" rx="7.576" ry="2.836" fill="#fcbed4"/></g><path d="M114.309,104.6l7.81,23.243a.933.933,0,0,1-.746,1.219l-8.715,1.3" fill="none" stroke="#000" stroke-linecap="round" stroke-miterlimit="10" stroke-width="1.865"/><circle cx="138.282" cy="119.341" r="2.99"/><circle cx="94.505" cy="128.323" r="2.99"/><polygon id="_Clipping_Path_6" data-name="&lt;Clipping Path&gt;" points="61.633 94.068 62.378 30.326 114.556 76.548 61.633 94.068" fill="#489ed7"/><g clip-path="url(#clip-path-4)"><path d="M56.42,85.306c.916.229,42.816,6.64,42.816,6.64" fill="#fff" stroke="#fff" stroke-miterlimit="10" stroke-width="1.832"/><path d="M59.6,75.613c.916.229,42.816,6.64,42.816,6.64" fill="#fff" stroke="#fff" stroke-miterlimit="10" stroke-width="1.832"/><path d="M60.908,65.581c.916.229,63.285,10.032,63.285,10.032" fill="#fff" stroke="#fff" stroke-miterlimit="10" stroke-width="1.832"/><path d="M60.908,54.171c.916.229,63.285,10.032,63.285,10.032" fill="#fff" stroke="#fff" stroke-miterlimit="10" stroke-width="1.832"/><path d="M60.908,42.605c.916.229,63.285,10.032,63.285,10.032" fill="#fff" stroke="#fff" stroke-miterlimit="10" stroke-width="1.832"/></g><line x1="52.405" y1="24.584" x2="74.073" y2="41.072" fill="#fff" stroke="#e6296e" stroke-miterlimit="10" stroke-width="1.449"/><line x1="72.363" y1="22.723" x2="54.115" y2="42.932" fill="#fff" stroke="#e6296e" stroke-miterlimit="10" stroke-width="1.449"/><line x1="55.472" y1="21.647" x2="71.006" y2="44.008" fill="#fff" stroke="#e6296e" stroke-miterlimit="10" stroke-width="1.449"/><line x1="75.032" y1="26.025" x2="51.446" y2="39.63" fill="#fff" stroke="#e6296e" stroke-miterlimit="10" stroke-width="1.449"/><line x1="60.882" y1="19.419" x2="65.596" y2="46.236" fill="#fff" stroke="#e6296e" stroke-miterlimit="10" stroke-width="1.449"/><line x1="76.798" y1="31.604" x2="49.68" y2="34.051" fill="#fff" stroke="#e6296e" stroke-miterlimit="10" stroke-width="1.449"/><line x1="65.569" y1="19.415" x2="60.908" y2="46.241" fill="#fff" stroke="#e6296e" stroke-miterlimit="10" stroke-width="1.449"/><line x1="76.409" y1="36.275" x2="50.069" y2="29.38" fill="#fff" stroke="#e6296e" stroke-miterlimit="10" stroke-width="1.449"/><path d="M59.643,91.867,80.058,80.889l-5.164,8.854L99.655,75.856s-4.545,7.9-2.76,7.287S115.181,72.4,115.181,72.4l1.365,9.267-24.213,10.7L63.864,97.68Z" fill="#eeb001"/><rect x="84.32" y="117.174" width="14.021" height="3.885" transform="translate(-25.609 25.014) rotate(-13.698)" fill="#eeb001"/><rect x="129.387" y="108.845" width="14.021" height="3.885" transform="translate(-7.299 9.647) rotate(-3.945)" fill="#eeb001"/></svg>