<svg id="Layer_1" data-name="Layer 1" xmlns="http://www.w3.org/2000/svg" xmlns:xlink="http://www.w3.org/1999/xlink" viewBox="0 0 203.826 195.02"><defs><clipPath id="clip-path"><circle id="_Ellipse_" data-name="&lt;Ellipse&gt;" cx="110.678" cy="125.166" r="55.857" fill="#d3a584"/></clipPath><clipPath id="clip-path-2"><path id="_Clipping_Path_" data-name="&lt;Clipping Path&gt;" d="M58.653,129.361s13.672,5.221,31.194-26.963c0,0,36.07,16.334,74.705,5l5.091-43.487L122.15,32.043,57.919,55.379,32.871,122.726Z" fill="#232323"/></clipPath><clipPath id="clip-path-3"><path id="_Clipping_Path_2" data-name="&lt;Clipping Path&gt;" d="M142.162,140.821a15.118,15.118,0,0,1-29.794,5.153Z"/></clipPath><clipPath id="clip-path-4"><polygon id="_Clipping_Path_3" data-name="&lt;Clipping Path&gt;" points="75.642 90.185 87.584 25.662 132.396 81.702 75.642 90.185" fill="#e6296e"/></clipPath></defs><title>Jam_Birthday_Assets</title><circle cx="60.8" cy="89.019" r="30.097" fill="#1a1a1a"/><circle cx="162.91" cy="119.508" r="12.727" fill="#d8b193"/><circle cx="57.01" cy="141.469" r="12.727" fill="#edc9ab"/><circle id="_Ellipse_2" data-name="&lt;Ellipse&gt;" cx="110.678" cy="125.166" r="55.857" fill="#d3a584"/><g clip-path="url(#clip-path)"><circle cx="100.81" cy="126.23" r="58.316" fill="#e8c5a7"/><path id="_Clipping_Path_4" data-name="&lt;Clipping Path&gt;" d="M58.653,129.361s13.672,5.221,31.194-26.963c0,0,36.07,16.334,74.705,5l5.091-43.487L122.15,32.043,57.919,55.379,32.871,122.726Z" fill="#232323"/><g clip-path="url(#clip-path-2)"><path d="M158.206,110.012S140.568,79.2,115.514,75.65c-18.079-2.564,30.712-5.2,30.712-5.2l18.613,28.563,2.532,9.078,4.186,4.594Z"/></g></g><circle cx="94.775" cy="154.197" r="10.513" fill="#d3a584"/><path id="_Clipping_Path_5" data-name="&lt;Clipping Path&gt;" d="M142.162,140.821a15.118,15.118,0,0,1-29.794,5.153Z"/><g clip-path="url(#clip-path-3)"><rect x="111.381" y="141.344" width="32.056" height="5.476" transform="translate(-23.756 25.162) rotate(-10.322)" fill="#f5f5f5"/><ellipse cx="125.919" cy="157.116" rx="7.798" ry="2.919" fill="#fcbed4"/></g><circle cx="146.648" cy="126.031" r="3.078"/><circle cx="102.545" cy="133.357" r="3.078"/><circle cx="57.764" cy="162.387" r="4.095" fill="#eeb001"/><circle cx="171.173" cy="136.804" r="4.095" fill="#e0a207"/><path d="M125.612,123.151l3.829,11.395a.96.96,0,0,1-.768,1.255l-8.971,1.338" fill="none" stroke="#000" stroke-linecap="round" stroke-miterlimit="10" stroke-width="1.92"/><polygon id="_Clipping_Path_6" data-name="&lt;Clipping Path&gt;" points="75.642 90.185 87.584 25.662 132.396 81.702 75.642 90.185" fill="#e6296e"/><g clip-path="url(#clip-path-4)"><path d="M71.892,80.383c.889.393,42.263,14.248,42.263,14.248" fill="#fff" stroke="#fff" stroke-miterlimit="10" stroke-width="1.885"/><path d="M76.821,71.11c.889.393,42.262,14.249,42.262,14.249" fill="#fff" stroke="#fff" stroke-miterlimit="10" stroke-width="1.885"/><path d="M79.907,61.163c.888.393,62.428,21.282,62.428,21.282" fill="#fff" stroke="#fff" stroke-miterlimit="10" stroke-width="1.885"/><path d="M81.909,49.59c.889.393,62.428,21.282,62.428,21.282" fill="#fff" stroke="#fff" stroke-miterlimit="10" stroke-width="1.885"/><path d="M83.939,37.859c.888.393,62.428,21.282,62.428,21.282" fill="#fff" stroke="#fff" stroke-miterlimit="10" stroke-width="1.885"/></g><line x1="78.476" y1="18.087" x2="97.56" y2="38.614" fill="#fff" stroke="#eeb001" stroke-miterlimit="10" stroke-width="1.491"/><line x1="99.046" y1="19.703" x2="76.991" y2="36.998" fill="#fff" stroke="#eeb001" stroke-miterlimit="10" stroke-width="1.491"/><line x1="82.102" y1="15.647" x2="93.935" y2="41.054" fill="#fff" stroke="#eeb001" stroke-miterlimit="10" stroke-width="1.491"/><line x1="101.174" y1="23.521" x2="74.863" y2="33.18" fill="#fff" stroke="#eeb001" stroke-miterlimit="10" stroke-width="1.491"/><line x1="87.981" y1="14.337" x2="88.056" y2="42.364" fill="#fff" stroke="#eeb001" stroke-miterlimit="10" stroke-width="1.491"/><line x1="101.986" y1="29.489" x2="74.051" y2="27.212" fill="#fff" stroke="#eeb001" stroke-miterlimit="10" stroke-width="1.491"/><line x1="92.736" y1="15.155" x2="83.301" y2="41.546" fill="#fff" stroke="#eeb001" stroke-miterlimit="10" stroke-width="1.491"/><line x1="100.772" y1="34.158" x2="75.265" y2="22.543" fill="#fff" stroke="#eeb001" stroke-miterlimit="10" stroke-width="1.491"/></svg>