<svg id="Layer_1" data-name="Layer 1" xmlns="http://www.w3.org/2000/svg" xmlns:xlink="http://www.w3.org/1999/xlink" viewBox="0 0 203.826 195.02"><defs><clipPath id="clip-path"><path id="_Clipping_Path_" data-name="&lt;Clipping Path&gt;" d="M111.844,184.883l-.517.37a19,19,0,0,1-22.592-.37h0V77.894h23.109Z" fill="#1d1d1b"/></clipPath></defs><title>Jam_Birthday_Assets</title><rect x="88.735" y="77.894" width="23.109" height="106.989" fill="#1d1d1b"/><path id="_Clipping_Path_2" data-name="&lt;Clipping Path&gt;" d="M111.844,184.883l-.517.37a19,19,0,0,1-22.592-.37h0V77.894h23.109Z" fill="#1d1d1b"/><g clip-path="url(#clip-path)"><path d="M123.548,104.014A60,60,0,0,1,82.076,95.1q2.6-4.035,5.207-8.069a50.4,50.4,0,0,0,34.835,7.491Q122.832,99.266,123.548,104.014Z" fill="#489ed7"/><path d="M118.164,129.05a60,60,0,0,1-41.472-8.918q2.6-4.035,5.207-8.069a50.4,50.4,0,0,0,34.835,7.491Q117.448,124.3,118.164,129.05Z" fill="#489ed7"/><path d="M117.048,154.086a60,60,0,0,1-41.472-8.918q2.6-4.035,5.207-8.069a50.4,50.4,0,0,0,34.835,7.491Q116.332,149.337,117.048,154.086Z" fill="#489ed7"/><path d="M117.355,179.122A60,60,0,0,1,75.883,170.2q2.6-4.035,5.207-8.069a50.4,50.4,0,0,0,34.835,7.491Q116.639,174.375,117.355,179.122Z" fill="#489ed7"/></g><ellipse cx="100.353" cy="79.03" rx="11.618" ry="5.405" fill="#fff"/><path d="M116.491,33.5c2.889,14.014-6.753,25.909-15.084,25.909S79.776,46.226,86.324,33.5A82.728,82.728,0,0,0,94.6,7.594S114.058,21.7,116.491,33.5Z" fill="#5aaee1"/><line x1="100.953" y1="55.56" x2="99.895" y2="78.749" fill="none" stroke="#b1b1b1" stroke-linecap="round" stroke-miterlimit="10" stroke-width="1.855"/><path d="M116.491,33.5c2.889,14.014-6.753,25.909-15.084,25.909S79.776,46.226,86.324,33.5A82.728,82.728,0,0,0,94.6,7.594S114.058,21.7,116.491,33.5Z" fill="#489ed7"/></svg>