<svg id="Layer_1" data-name="Layer 1" xmlns="http://www.w3.org/2000/svg" viewBox="0 0 322.73 195.02"><title>Jam_Birthday_Assets</title><path d="M282.172,68.231a18.165,18.165,0,0,0-18.166-18.164l-211.135.016A18.163,18.163,0,0,0,34.708,68.248l0,63.4a18.164,18.164,0,0,0,18.166,18.163l211.135-.015a18.166,18.166,0,0,0,18.164-18.166ZM44.618,63.677a5.444,5.444,0,1,1,5.444,5.443A5.445,5.445,0,0,1,44.618,63.677Zm7.374,77.166a5.444,5.444,0,1,1,5.443-5.444A5.444,5.444,0,0,1,51.992,140.843Zm214.5-.008a5.444,5.444,0,1,1,5.443-5.444A5.444,5.444,0,0,1,266.494,140.835Zm0-71.723a5.444,5.444,0,1,1,5.443-5.444A5.444,5.444,0,0,1,266.494,69.112Z" fill="#4bab33"/><rect x="119.822" y="82.689" width="43.552" height="43.552" rx="9.632" ry="9.632" fill="#1d1e1c"/><rect x="72.137" y="125.453" width="35.418" height="28.726" rx="5.742" ry="5.742" fill="#d5d5d5"/><rect x="44.618" y="79.797" width="41.045" height="37.895" rx="7.1" ry="7.1" fill="#c6c5c5"/><rect x="150.246" y="-26.591" width="15.189" height="180.581" rx="5.74" ry="5.74" transform="translate(94.141 221.539) rotate(-90)" fill="#f5a12d"/><rect x="213.53" y="132.871" width="31.456" height="21.7" rx="4.703" ry="4.703" fill="#d5d5d5"/><rect x="170.557" y="133.336" width="31.456" height="21.7" rx="4.703" ry="4.703" fill="#d5d5d5"/><path d="M272.288,76.866h9.886a0,0,0,0,1,0,0v44.552a0,0,0,0,1,0,0h-9.886a4.568,4.568,0,0,1-4.568-4.568V81.435A4.568,4.568,0,0,1,272.288,76.866Z" fill="#d5d5d5"/><path d="M250.064,69.87h4.47A1.465,1.465,0,0,1,256,71.335v41.621a1.465,1.465,0,0,1-1.465,1.465h-4.47a0,0,0,0,1,0,0V69.87A0,0,0,0,1,250.064,69.87Z" fill="#1d1e1c"/><path d="M278.73,83.555l-1.844-1.014a1.217,1.217,0,0,1-.63-1.065v-4.61h2.474Z" fill="#1d1e1c"/><path d="M278.73,114.73l-1.844,1.014a1.216,1.216,0,0,0-.63,1.065v4.609h2.474Z" fill="#1d1e1c"/><rect x="222.608" y="94.321" width="20.181" height="20.181" rx="4.463" ry="4.463" fill="#1d1e1c"/><path d="M190.481,78.727a2.639,2.639,0,0,1,.837.258c.682-.219.837.082,1.171.2.743-.155.968.182,1.325.537l.414-.008a4.64,4.64,0,0,1,1.872,2.654,4.648,4.648,0,0,1,1.874-2.654l.414.008c.356-.355.581-.692,1.324-.537.334-.122.49-.423,1.171-.2.425-.132.8-.482,1.36-.045a1.2,1.2,0,0,1,1.343.124c.634-.081.84.086,1,.281.14,0,1.042-.141,1.456.467,1.04-.121,1.368.6,1,1.277a.876.876,0,0,1-.064,1.261c.176.344.067.717-.347,1.169a.984.984,0,0,1-.491,1.09c.072.662-.616,1.046-.821,1.183-.079.386-.243.749-1.029.951-.13.574-.6.673-1.059.794a4.874,4.874,0,0,1,2.8,4.8l.222.389a4.688,4.688,0,0,1,.854,7.087,13.047,13.047,0,0,1-.664,2.133,5.216,5.216,0,0,1-3.289,4.144A11.136,11.136,0,0,1,200,107.846a5.265,5.265,0,0,1-3.868,1.71h-.058a5.265,5.265,0,0,1-3.868-1.71,11.15,11.15,0,0,1-3.146-1.759,5.216,5.216,0,0,1-3.289-4.144,13.047,13.047,0,0,1-.664-2.133,4.687,4.687,0,0,1,.854-7.086l.221-.389a4.876,4.876,0,0,1,2.8-4.8c-.457-.121-.929-.22-1.059-.794-.786-.2-.95-.565-1.029-.95-.2-.137-.893-.522-.821-1.184a.983.983,0,0,1-.491-1.09c-.414-.451-.523-.824-.347-1.168a.876.876,0,0,1-.064-1.262c-.373-.674-.044-1.4,1-1.277.414-.608,1.316-.47,1.455-.467.156-.195.363-.362,1-.281a1.2,1.2,0,0,1,1.343-.124.887.887,0,0,1,.522-.213Zm-2.208,2.861a19.405,19.405,0,0,1,6.144,3.223c2.052-.955.637-3.365-.364-4.322a.862.862,0,0,1-.174.46,9.213,9.213,0,0,0-1.012-1.044c0,.2.1.412-.15.569a2.944,2.944,0,0,0-.933-.8c.2.335.034.437-.071.576a3.418,3.418,0,0,0-1.17-.74c.155.19.373.375.142.592a3.429,3.429,0,0,0-1.391-.537c.17.189.521.379.308.568a5.855,5.855,0,0,0-1.328-.327c.234.192.429.381.237.53a2.908,2.908,0,0,0-1.589-.156l.364.366a10.223,10.223,0,0,1-1.439.047,2.922,2.922,0,0,1,.561,1.1c-.059.059-.35.026-.625,0,.282.593.771.742.886,1a.717.717,0,0,1-.672.008,4.454,4.454,0,0,0,.964,1.044c-.085.06-.233.1-.585.054a5.4,5.4,0,0,0,1.131.9c-.079.091-.35.088-.6.094a5.674,5.674,0,0,0,1.407.856.84.84,0,0,1-.6.125,4.74,4.74,0,0,0,1.471.6.542.542,0,0,1-.427.249c.574.318,1.4.172,1.629.335a.693.693,0,0,1-.4.35c.925.054,3.453-.033,3.938-1.947a20.128,20.128,0,0,0-5.646-3.769Zm15.738,0a20.11,20.11,0,0,0-5.644,3.769c.484,1.914,3.013,2,3.937,1.947a.694.694,0,0,1-.4-.35c.232-.163,1.054-.017,1.628-.335a.54.54,0,0,1-.426-.249,4.744,4.744,0,0,0,1.47-.6.841.841,0,0,1-.6-.125,5.656,5.656,0,0,0,1.407-.856c-.251-.006-.522,0-.6-.094a5.393,5.393,0,0,0,1.13-.9c-.351.042-.5.006-.585-.054a4.48,4.48,0,0,0,.965-1.044.717.717,0,0,1-.672-.008c.114-.254.6-.4.885-1-.275.026-.566.059-.624,0a2.9,2.9,0,0,1,.561-1.1A10.128,10.128,0,0,1,205,80.544l.364-.366a2.911,2.911,0,0,0-1.59.155c-.191-.148,0-.337.238-.529a5.85,5.85,0,0,0-1.329.327c-.213-.189.139-.379.309-.568a3.435,3.435,0,0,0-1.392.537c-.23-.218-.013-.4.143-.592a3.4,3.4,0,0,0-1.17.74c-.105-.139-.266-.241-.072-.576a2.944,2.944,0,0,0-.933.8c-.249-.157-.148-.371-.15-.569a9.131,9.131,0,0,0-1.012,1.044.88.88,0,0,1-.174-.46c-1,.957-2.416,3.367-.363,4.322a19.37,19.37,0,0,1,6.143-3.224Zm-4.275,19.449a3.575,3.575,0,0,0-7.118.034v.034a3.576,3.576,0,0,0,7.118-.034Zm-5.55-9.2a3.56,3.56,0,0,0-4.746,1.372,3.411,3.411,0,0,0,.594,4.818h0a3.559,3.559,0,0,0,4.746-1.372,3.411,3.411,0,0,0-.594-4.818Zm3.981-.172a3.411,3.411,0,0,0-.594,4.818,3.561,3.561,0,0,0,4.747,1.372h0a3.412,3.412,0,0,0,.594-4.819,3.561,3.561,0,0,0-4.747-1.371Zm-12.018,7.659c1.295.567,2.35-6.342.758-5.921A3.7,3.7,0,0,0,186.149,99.322Zm19.158-6.007c-1.592-.421-.537,6.488.758,5.921a3.7,3.7,0,0,0-.758-5.921Zm-.4-1.069c.092-2.935-2.194-4.543-4.942-4.086C198.955,88.328,204.819,93.371,204.909,92.246Zm-12.534-4.172c-2.748-.457-5.034,1.151-4.942,4.086C187.523,93.285,193.387,88.241,192.375,88.074Zm3.786-.685c-1.64-.042-3.214,1.2-3.218,1.919-.005.875,1.3,1.77,3.229,1.793,1.973.014,3.232-.717,3.239-1.62.007-1.022-1.795-2.107-3.25-2.092Zm.126,17.935c-1.42-.035-3.6.56-3.573,1.323-.023.521,1.711,2.022,3.479,1.947,1.707.029,3.47-1.47,3.447-2.134,0-.683-1.923-1.2-3.353-1.136ZM191,101.274c-1.169-1.335-2.686-2.132-3.669-1.542-.657.492-.777,2.169.158,3.816,1.388,1.963,3.339,2.159,4.143,1.682.85-.626.386-2.748-.632-3.956Zm10.249-.383c-1.1,1.271-1.715,3.588-.911,4.335.768.58,2.83.5,4.354-1.583a3.941,3.941,0,0,0,.1-4.354c-.939-.715-2.287.2-3.547,1.6Z" fill="#fff"/></svg>