<svg id="Layer_1" data-name="Layer 1" xmlns="http://www.w3.org/2000/svg" viewBox="0 0 413.25 195.02"><title>Jam_Birthday_Assets</title><polygon points="73.341 85.31 103.753 79.166 93.868 108.575 83.983 137.985 63.456 114.719 42.929 91.454 73.341 85.31" fill="#e6296e"/><polygon points="246.746 87.602 275.506 81.897 266.066 109.657 256.626 137.416 237.306 115.361 217.986 93.306 246.746 87.602" fill="#489ed7"/><polygon points="157 79.735 187.196 87.214 165.62 109.625 144.045 132.035 135.425 102.145 126.804 72.255 157 79.735" fill="#ffcf14"/><polygon points="327.181 85.619 358.693 91.7 337.67 115.95 316.648 140.199 306.158 109.868 295.669 79.537 327.181 85.619" fill="#e6296e"/><path d="M26.745,88.331c20.587,7.628,42.076,1.58,62.307-4.18,10.98-3.126,22.066-6.37,33.468-7.5,11.86-1.179,23.423.692,34.816,3.949,21.137,6.042,42.2,16.29,64.722,14.574,11.916-.908,23.024-5.3,34.312-8.864a95.236,95.236,0,0,1,35.331-4.56c27.7,1.777,54.078,12.587,82.048,11.969,3.472-.077,3.484-5.481,0-5.4-24.412.54-47.67-7.62-71.634-10.885-11.772-1.6-23.691-1.941-35.381.479-11.435,2.367-22.173,7.167-33.492,9.96-23.739,5.856-45.766-3.5-68.081-10.547-10.2-3.223-20.68-5.949-31.419-6.413-11.026-.477-22.016,1.617-32.652,4.328C77.5,81.247,52.43,92.105,28.182,83.121c-3.266-1.21-4.675,4.011-1.437,5.21Z" fill="#1d1d1b"/></svg>