<svg id="Layer_1" data-name="Layer 1" xmlns="http://www.w3.org/2000/svg" xmlns:xlink="http://www.w3.org/1999/xlink" viewBox="0 0 203.826 195.02"><defs><clipPath id="clip-path"><circle id="_Ellipse_" data-name="&lt;Ellipse&gt;" cx="106.86" cy="128.973" r="55.427" fill="#ecd1be"/></clipPath><clipPath id="clip-path-2"><path id="_Clipping_Path_" data-name="&lt;Clipping Path&gt;" d="M69.5,125.342c4.437-.712,15.682-3.926,17.118-18.256a.856.856,0,0,1,1.061-.758l17.288,4.491a.832.832,0,0,0,1.031-.926L103.064,97.95c-.072-.488,9.413,2.752,9.811,3.044l10.982,2.949a.853.853,0,0,0,1.309-.408l5.9-16.91a1.515,1.515,0,0,1,1.344-1.014l10.029-.578a1.154,1.154,0,0,0,1.073-1.369c-.634-3.359-3.18-12.265-12.565-14.868a.776.776,0,0,1-.56-.93L133,57.361a.473.473,0,0,0-.721-.509l-7.057,4.689S83.169,52.757,50.506,82.93q-.525.483-1.009,1c-7.292,7.719-6.255,20.116,1.722,27.126L66.5,124.482A3.655,3.655,0,0,0,69.5,125.342Z" fill="#1d9387"/></clipPath><clipPath id="clip-path-3"><path id="_Clipping_Path_2" data-name="&lt;Clipping Path&gt;" d="M138.1,144.507a15,15,0,0,1-29.565,5.113Z"/></clipPath><clipPath id="clip-path-4"><polygon id="_Clipping_Path_3" data-name="&lt;Clipping Path&gt;" points="61.87 84.122 62.627 19.438 115.575 66.343 61.87 84.122" fill="#e6296e"/></clipPath></defs><title>Jam_Birthday_Assets</title><circle cx="158.691" cy="123.358" r="12.629" fill="#ddc0b1"/><circle cx="53.605" cy="145.151" r="12.629" fill="#edd1bf"/><circle id="_Ellipse_2" data-name="&lt;Ellipse&gt;" cx="106.86" cy="128.973" r="55.427" fill="#ecd1be"/><g clip-path="url(#clip-path)"><circle cx="97.068" cy="130.028" r="57.867" fill="#f7e0d0"/></g><circle cx="91.079" cy="157.781" r="10.432" fill="#f4bdc6"/><path d="M119.972,112.864l7.977,23.742a.952.952,0,0,1-.762,1.245l-8.9,1.328" fill="none" stroke="#000" stroke-linecap="round" stroke-miterlimit="10" stroke-width="1.905"/><circle cx="143.625" cy="127.867" r="3.054"/><circle cx="98.613" cy="137.101" r="3.054"/><rect x="88.21" y="125.712" width="14.322" height="3.968" transform="translate(-51.071 64.793) rotate(-30)" fill="#2eb1aa"/><rect x="134.539" y="117.145" width="14.322" height="3.968" transform="translate(-7.86 10.031) rotate(-3.945)" fill="#2eb1aa"/><path id="_Clipping_Path_4" data-name="&lt;Clipping Path&gt;" d="M69.5,125.342c4.437-.712,15.682-3.926,17.118-18.256a.856.856,0,0,1,1.061-.758l17.288,4.491a.832.832,0,0,0,1.031-.926L103.064,97.95c-.072-.488,9.413,2.752,9.811,3.044l10.982,2.949a.853.853,0,0,0,1.309-.408l5.9-16.91a1.515,1.515,0,0,1,1.344-1.014l10.029-.578a1.154,1.154,0,0,0,1.073-1.369c-.634-3.359-3.18-12.265-12.565-14.868a.776.776,0,0,1-.56-.93L133,57.361a.473.473,0,0,0-.721-.509l-7.057,4.689S83.169,52.757,50.506,82.93q-.525.483-1.009,1c-7.292,7.719-6.255,20.116,1.722,27.126L66.5,124.482A3.655,3.655,0,0,0,69.5,125.342Z" fill="#1d9387"/><g clip-path="url(#clip-path-2)"><circle cx="81.794" cy="133.32" r="72.573" fill="#2eb1aa"/></g><circle cx="127.197" cy="145.611" r="3.4" fill="#e25096"/><circle cx="121.452" cy="146.523" r="3.4" fill="#e25096"/><path id="_Clipping_Path_5" data-name="&lt;Clipping Path&gt;" d="M138.1,144.507a15,15,0,0,1-29.565,5.113Z"/><g clip-path="url(#clip-path-3)"><rect x="107.558" y="145.026" width="31.809" height="5.434" transform="matrix(0.984, -0.179, 0.179, 0.984, -24.476, 24.514)" fill="#f5f5f5"/><ellipse cx="121.985" cy="160.677" rx="7.738" ry="2.897" fill="#fcbed4"/></g><polygon id="_Clipping_Path_6" data-name="&lt;Clipping Path&gt;" points="61.87 84.122 62.627 19.438 115.575 66.343 61.87 84.122" fill="#e6296e"/><g clip-path="url(#clip-path-4)"><polyline points="57.38 43.441 73.409 47.454 79.174 35.372 96.156 41.716" fill="none" stroke="#fff" stroke-miterlimit="10" stroke-width="2.191"/><polyline points="55.618 68.159 78.261 73.819 86.113 58.846 107.66 64.953 113.868 50.114" fill="none" stroke="#fff" stroke-miterlimit="10" stroke-width="2.191"/><circle cx="69.313" cy="38.76" r="2.009" fill="#fff"/><circle cx="73.409" cy="64.18" r="2.727" fill="#fff"/><circle cx="101.296" cy="54.138" r="2.739" fill="#fff"/></g><line x1="52.506" y1="13.611" x2="74.494" y2="30.343" fill="#fff" stroke="#eeb001" stroke-miterlimit="10" stroke-width="1.47"/><line x1="72.759" y1="11.723" x2="54.242" y2="32.231" fill="#fff" stroke="#eeb001" stroke-miterlimit="10" stroke-width="1.47"/><line x1="55.618" y1="10.631" x2="71.382" y2="33.323" fill="#fff" stroke="#eeb001" stroke-miterlimit="10" stroke-width="1.47"/><line x1="75.467" y1="15.074" x2="51.533" y2="28.88" fill="#fff" stroke="#eeb001" stroke-miterlimit="10" stroke-width="1.47"/><line x1="61.109" y1="8.371" x2="65.892" y2="35.584" fill="#fff" stroke="#eeb001" stroke-miterlimit="10" stroke-width="1.47"/><line x1="77.259" y1="20.735" x2="49.741" y2="23.219" fill="#fff" stroke="#eeb001" stroke-miterlimit="10" stroke-width="1.47"/><line x1="65.865" y1="8.366" x2="61.135" y2="35.588" fill="#fff" stroke="#eeb001" stroke-miterlimit="10" stroke-width="1.47"/><line x1="76.865" y1="25.475" x2="50.135" y2="18.479" fill="#fff" stroke="#eeb001" stroke-miterlimit="10" stroke-width="1.47"/><path d="M52.056,83.124,72.13,73.487l-5.588,8.494,26.8-13.323s-4.918,7.577-2.987,6.991,19.788-10.306,19.788-10.306l1.477,8.891L85.413,84.5,54.607,89.6Z" fill="#2eb1aa"/><circle cx="56.823" cy="122.154" r="1.205" fill="#ddc3b1"/><circle cx="55.929" cy="127.514" r="1.205" fill="#ddc3b1"/><circle cx="61.289" cy="125.727" r="1.205" fill="#ddc3b1"/></svg>