<svg id="Layer_1" data-name="Layer 1" xmlns="http://www.w3.org/2000/svg" xmlns:xlink="http://www.w3.org/1999/xlink" viewBox="0 0 203.826 195.02"><defs><clipPath id="clip-path"><circle id="_Ellipse_" data-name="&lt;Ellipse&gt;" cx="104.151" cy="120.783" r="52.995" fill="#5e3633"/></clipPath><clipPath id="clip-path-2"><polygon id="_Clipping_Path_" data-name="&lt;Clipping Path&gt;" points="142.034 82.049 45.285 102.049 77.314 63.682 120.158 63.682 142.034 82.049" fill="#442322"/></clipPath><clipPath id="clip-path-3"><path id="_Clipping_Path_2" data-name="&lt;Clipping Path&gt;" d="M134.022,135.635a14.343,14.343,0,1,1-28.267,4.889Z"/></clipPath><clipPath id="clip-path-4"><polygon id="_Clipping_Path_3" data-name="&lt;Clipping Path&gt;" points="66.555 91.822 67.283 29.57 118.242 74.712 66.555 91.822" fill="#e6296e"/></clipPath></defs><title>Jam_Birthday_Assets</title><circle cx="153.707" cy="115.414" r="12.075" fill="#683d3c"/><circle cx="53.233" cy="136.25" r="12.075" fill="#683d3c"/><circle id="_Ellipse_2" data-name="&lt;Ellipse&gt;" cx="104.151" cy="120.783" r="52.995" fill="#5e3633"/><g clip-path="url(#clip-path)"><circle cx="94.789" cy="121.792" r="55.328" fill="#865751"/><path d="M46.144,126.023s26.848-6.012,31.71-28.4-43,0-43,0Z" fill="#5e3633"/><polygon id="_Clipping_Path_4" data-name="&lt;Clipping Path&gt;" points="142.034 82.049 45.285 102.049 77.314 63.682 120.158 63.682 142.034 82.049" fill="#442322"/><g clip-path="url(#clip-path-2)"><circle cx="93.991" cy="120.783" r="55.328" fill="#5e3633"/></g></g><path id="_Clipping_Path_5" data-name="&lt;Clipping Path&gt;" d="M134.022,135.635a14.343,14.343,0,1,1-28.267,4.889Z"/><g clip-path="url(#clip-path-3)"><rect x="104.818" y="136.131" width="30.414" height="5.195" transform="translate(-22.916 23.752) rotate(-10.322)" fill="#f5f5f5"/><ellipse cx="118.612" cy="151.096" rx="7.399" ry="2.77" fill="#fcbed4"/></g><path d="M116.687,105.38l7.627,22.7a.91.91,0,0,1-.729,1.191l-8.511,1.269" fill="none" stroke="#000" stroke-linecap="round" stroke-miterlimit="10" stroke-width="1.821"/><circle cx="140.1" cy="118.871" r="2.92"/><circle cx="96.435" cy="128.554" r="2.92"/><rect x="86.488" y="117.665" width="13.694" height="3.794" transform="translate(-25.657 25.502) rotate(-13.698)" fill="#1d1d1b"/><rect x="131.412" y="106.798" width="13.694" height="3.794" transform="translate(-17.239 26.534) rotate(-10.322)" fill="#1d1d1b"/><circle cx="87.764" cy="143.26" r="1.46" fill="#5b332f"/><circle cx="93.442" cy="144.843" r="1.46" fill="#5b332f"/><circle cx="89.105" cy="148.578" r="1.46" fill="#5b332f"/><circle cx="142.603" cy="131.825" r="1.46" fill="#5b332f"/><circle id="_Ellipse_3" data-name="&lt;Ellipse&gt;" cx="148.281" cy="133.408" r="1.46" fill="#5b332f"/><circle cx="143.944" cy="137.143" r="1.46" fill="#5b332f"/><polygon id="_Clipping_Path_6" data-name="&lt;Clipping Path&gt;" points="66.555 91.822 67.283 29.57 118.242 74.712 66.555 91.822" fill="#e6296e"/><g clip-path="url(#clip-path-4)"><circle cx="83.986" cy="53.744" r="6.952" fill="#fff"/><circle cx="71.753" cy="76.049" r="6.952" fill="#fff"/><circle cx="103.687" cy="67.648" r="6.952" fill="#fff"/></g><line x1="57.543" y1="23.962" x2="78.704" y2="40.064" fill="#fff" stroke="#ffcf14" stroke-miterlimit="10" stroke-width="1.415"/><line x1="77.034" y1="22.145" x2="59.213" y2="41.881" fill="#fff" stroke="#ffcf14" stroke-miterlimit="10" stroke-width="1.415"/><line x1="60.538" y1="21.094" x2="75.709" y2="42.932" fill="#fff" stroke="#ffcf14" stroke-miterlimit="10" stroke-width="1.415"/><line x1="79.641" y1="25.37" x2="56.606" y2="38.656" fill="#fff" stroke="#ffcf14" stroke-miterlimit="10" stroke-width="1.415"/><line x1="65.822" y1="18.918" x2="70.425" y2="45.108" fill="#fff" stroke="#ffcf14" stroke-miterlimit="10" stroke-width="1.415"/><line x1="81.366" y1="30.818" x2="54.882" y2="33.208" fill="#fff" stroke="#ffcf14" stroke-miterlimit="10" stroke-width="1.415"/><line x1="70.4" y1="18.913" x2="65.848" y2="45.113" fill="#fff" stroke="#ffcf14" stroke-miterlimit="10" stroke-width="1.415"/><line x1="80.986" y1="35.38" x2="55.261" y2="28.646" fill="#fff" stroke="#ffcf14" stroke-miterlimit="10" stroke-width="1.415"/><circle cx="51.862" cy="147.118" r="3.885" fill="#eeb001"/></svg>