<svg id="Layer_1" data-name="Layer 1" xmlns="http://www.w3.org/2000/svg" xmlns:xlink="http://www.w3.org/1999/xlink" viewBox="0 0 203.826 195.02"><defs><clipPath id="clip-path"><path id="_Clipping_Path_" data-name="&lt;Clipping Path&gt;" d="M166.037,170.8h0a191.705,191.705,0,0,1-124.962,0h0V101.886H166.037Z" fill="#e6296e"/></clipPath><clipPath id="clip-path-2"><path id="_Clipping_Path_2" data-name="&lt;Clipping Path&gt;" d="M146.521,101.17h0a132.742,132.742,0,0,1-86.535,0h0V53.445h86.535Z" fill="#e6296e"/></clipPath><clipPath id="clip-path-3"><path id="_Clipping_Path_3" data-name="&lt;Clipping Path&gt;" d="M129.927,51.515h0a79.525,79.525,0,0,1-51.839,0h0V22.925h51.839Z" fill="#e6296e"/></clipPath></defs><title>Jam_Birthday_Assets</title><path id="_Clipping_Path_4" data-name="&lt;Clipping Path&gt;" d="M166.037,170.8h0a191.705,191.705,0,0,1-124.962,0h0V101.886H166.037Z" fill="#e6296e"/><g clip-path="url(#clip-path)"><path d="M30.953,132.008c.595-1.072,5.463.387,6.433.688a18.963,18.963,0,0,1,7.248,4.245c3.56,3.281,6.817,7.08,11.761,8.2,5.423,1.225,10.785-.886,15.562-3.279,5.2-2.606,10.2-5.556,15.885-2.541,4.522,2.4,8.312,5.574,13.449,6.692a26.316,26.316,0,0,0,15.314-1.182c4.654-1.855,8.425-6.3,13.382-7.237,4.77-.9,9.716,1.223,14.274,2.354,5.642,1.4,11.169,1.778,16.6-.623,5.751-2.543,10.758-8.1,17.473-7.381,4.95.529,4.912-7.219,0-7.744-6.052-.646-11.173,2.425-16.1,5.524-5.178,3.258-9.386,4.323-15.379,2.886-5.014-1.2-10.078-3.147-15.316-2.938-5.5.219-9.429,2.941-13.869,5.852a18.683,18.683,0,0,1-16.582,2.4c-5.085-1.764-8.928-6-14.243-7.318-5.627-1.394-10.994.642-15.98,3.126-5.532,2.756-11.36,6.244-16.817,1.508-4.688-4.069-8.456-8.116-14.6-10.008-4.9-1.508-12.246-2.417-15.179,2.871-2.419,4.362,4.267,8.273,6.687,3.909Z" fill="#fff"/><path d="M30.953,153.692c.595-1.072,5.463.387,6.433.688a18.965,18.965,0,0,1,7.248,4.246c3.56,3.28,6.817,7.079,11.761,8.2,5.423,1.226,10.785-.886,15.562-3.279,5.2-2.606,10.2-5.556,15.885-2.541,4.522,2.4,8.312,5.575,13.449,6.692a26.308,26.308,0,0,0,15.314-1.182c4.654-1.855,8.425-6.3,13.382-7.237,4.77-.9,9.716,1.223,14.274,2.354,5.642,1.4,11.169,1.778,16.6-.623,5.751-2.543,10.758-8.1,17.473-7.38,4.95.528,4.912-7.22,0-7.745-6.052-.646-11.173,2.425-16.1,5.524-5.178,3.258-9.386,4.323-15.379,2.886-5.014-1.2-10.078-3.147-15.316-2.938-5.5.22-9.429,2.941-13.869,5.852a18.68,18.68,0,0,1-16.582,2.4c-5.085-1.764-8.928-6-14.243-7.318-5.627-1.394-10.994.643-15.98,3.127-5.532,2.756-11.36,6.243-16.817,1.507-4.688-4.068-8.456-8.116-14.6-10.008-4.9-1.508-12.246-2.417-15.179,2.871-2.419,4.363,4.267,8.273,6.687,3.909Z" fill="#fff"/></g><ellipse cx="103.556" cy="101.886" rx="62.481" ry="19.825" fill="#1d1d1b"/><path id="_Clipping_Path_5" data-name="&lt;Clipping Path&gt;" d="M146.521,101.17h0a132.742,132.742,0,0,1-86.535,0h0V53.445h86.535Z" fill="#e6296e"/><g clip-path="url(#clip-path-2)"><path d="M30.953,79.346c.595-1.072,5.463.387,6.433.688a18.965,18.965,0,0,1,7.248,4.246c3.56,3.28,6.817,7.079,11.761,8.2C61.818,93.7,67.18,91.59,71.957,89.2c5.2-2.606,10.2-5.556,15.885-2.541,4.522,2.4,8.312,5.575,13.449,6.693a26.317,26.317,0,0,0,15.314-1.183c4.654-1.854,8.425-6.3,13.382-7.236,4.77-.9,9.716,1.222,14.274,2.354,5.642,1.4,11.169,1.777,16.6-.624,5.751-2.543,10.758-8.1,17.473-7.38,4.95.529,4.912-7.22,0-7.745-6.052-.646-11.173,2.425-16.1,5.524-5.178,3.258-9.386,4.323-15.379,2.886-5.014-1.2-10.078-3.147-15.316-2.938-5.5.22-9.429,2.941-13.869,5.852a18.68,18.68,0,0,1-16.582,2.4c-5.085-1.765-8.928-6-14.243-7.319-5.627-1.394-10.994.643-15.98,3.127-5.532,2.756-11.36,6.243-16.817,1.507-4.688-4.068-8.456-8.116-14.6-10.008-4.9-1.508-12.246-2.417-15.179,2.872-2.419,4.362,4.267,8.272,6.687,3.908Z" fill="#fff"/></g><ellipse cx="103.254" cy="53.445" rx="43.268" ry="13.729" fill="#1d1d1b"/><path id="_Clipping_Path_6" data-name="&lt;Clipping Path&gt;" d="M129.927,51.515h0a79.525,79.525,0,0,1-51.839,0h0V22.925h51.839Z" fill="#e6296e"/><g clip-path="url(#clip-path-3)"><path d="M32.5,35.978c.595-1.072,5.463.387,6.433.688a18.963,18.963,0,0,1,7.248,4.245c3.56,3.281,6.817,7.08,11.761,8.2,5.423,1.225,10.785-.886,15.562-3.279,5.2-2.606,10.2-5.556,15.885-2.541,4.522,2.4,8.312,5.574,13.449,6.692A26.316,26.316,0,0,0,118.154,48.8c4.654-1.855,8.424-6.3,13.382-7.237,4.77-.9,9.716,1.223,14.274,2.354,5.642,1.4,11.169,1.778,16.6-.623,5.751-2.543,10.758-8.1,17.473-7.381,4.949.529,4.912-7.219,0-7.744-6.052-.647-11.174,2.425-16.1,5.524-5.177,3.258-9.386,4.323-15.378,2.886-5.014-1.2-10.078-3.147-15.316-2.938-5.5.219-9.429,2.94-13.869,5.852a18.683,18.683,0,0,1-16.582,2.4c-5.085-1.764-8.929-6-14.243-7.318-5.627-1.394-10.994.642-15.98,3.126-5.532,2.756-11.36,6.244-16.818,1.508-4.687-4.069-8.455-8.116-14.6-10.008-4.9-1.508-12.246-2.417-15.179,2.871-2.419,4.362,4.267,8.273,6.687,3.909Z" fill="#fff"/></g><ellipse cx="104.007" cy="22.925" rx="25.919" ry="8.224" fill="#1d1d1b"/><circle cx="102.709" cy="15.663" r="1.298" fill="#fff"/><circle cx="95.513" cy="15.914" r="1.298" fill="#fff"/><circle cx="110.873" cy="15.914" r="1.298" fill="#fff"/><circle cx="103.254" cy="27.802" r="2.047" fill="#fff"/><circle cx="113.271" cy="26.254" r="2.047" fill="#fff"/><circle cx="123.289" cy="23.291" r="2.047" fill="#fff"/><circle cx="92.892" cy="26.254" r="2.047" fill="#fff"/><circle cx="83.165" cy="22.925" r="2.047" fill="#fff"/><circle cx="87.084" cy="17.656" r="1.427" fill="#fff"/><circle cx="119.288" cy="17.656" r="1.427" fill="#fff"/><rect x="90.845" y="14.365" width="1.732" height="6.879" fill="#fff"/><rect x="99.074" y="17.439" width="1.822" height="6.879" fill="#fff"/><rect x="114.406" y="15.644" width="1.825" height="6.879" fill="#fff"/><rect x="105.724" y="12.475" width="1.801" height="6.879" fill="#fff"/><path d="M93.444,12.005c.319,1.547-.745,2.861-1.665,2.861a2.108,2.108,0,0,1-1.665-2.861,9.149,9.149,0,0,0,.913-2.86S93.176,10.7,93.444,12.005Z" fill="#f46eab"/><path d="M101.718,15.644c.319,1.547-.746,2.861-1.665,2.861a2.108,2.108,0,0,1-1.666-2.861,9.137,9.137,0,0,0,.914-2.861S101.449,14.341,101.718,15.644Z" fill="#f46eab"/><path d="M108.469,10.655c.319,1.547-.745,2.861-1.665,2.861a2.108,2.108,0,0,1-1.665-2.861,9.149,9.149,0,0,0,.913-2.86S108.2,9.352,108.469,10.655Z" fill="#f46eab"/><path d="M117.052,13.907c.319,1.547-.746,2.86-1.665,2.86a2.108,2.108,0,0,1-1.666-2.86,9.118,9.118,0,0,0,.913-2.861S116.783,12.6,117.052,13.907Z" fill="#f46eab"/><circle cx="101.776" cy="62.878" r="2.047" fill="#fff"/><circle cx="114.406" cy="62.38" r="2.047" fill="#fff"/><circle cx="124.568" cy="60.831" r="2.047" fill="#fff"/><circle cx="90.845" cy="62.38" r="2.047" fill="#fff"/><circle cx="80.349" cy="60.333" r="2.047" fill="#fff"/><circle cx="71.637" cy="57.787" r="2.047" fill="#fff"/><circle cx="134.436" cy="58.286" r="2.047" fill="#fff"/><circle cx="65.441" cy="52.589" r="2.047" fill="#fff"/><circle cx="140.714" cy="52.589" r="2.047" fill="#fff"/><circle cx="72.37" cy="48.494" r="2.047" fill="#fff"/><circle cx="134.436" cy="48.494" r="2.047" fill="#fff"/><circle cx="84.199" cy="116.296" r="2.047" fill="#fff"/><circle cx="93.966" cy="117.264" r="2.047" fill="#fff"/><circle cx="103.732" cy="117.264" r="2.047" fill="#fff"/><circle cx="74.182" cy="114.249" r="2.047" fill="#fff"/><circle cx="63.394" cy="111.704" r="2.047" fill="#fff"/><circle cx="53.977" cy="108.419" r="2.047" fill="#fff"/><circle cx="47.683" cy="101.886" r="2.047" fill="#fff"/><circle cx="54.418" cy="95.1" r="2.047" fill="#fff"/><circle cx="123.266" cy="116.296" r="2.047" fill="#fff"/><circle cx="113.499" cy="117.264" r="2.047" fill="#fff"/><circle cx="103.732" cy="117.264" r="2.047" fill="#fff"/><circle cx="133.282" cy="114.249" r="2.047" fill="#fff"/><circle cx="144.07" cy="111.704" r="2.047" fill="#fff"/><circle cx="153.487" cy="108.419" r="2.047" fill="#fff"/><circle cx="159.782" cy="101.886" r="2.047" fill="#fff"/><circle cx="153.047" cy="95.1" r="2.047" fill="#fff"/></svg>