<svg id="Layer_1" data-name="Layer 1" xmlns="http://www.w3.org/2000/svg" xmlns:xlink="http://www.w3.org/1999/xlink" viewBox="0 0 203.826 195.02"><defs><clipPath id="clip-path"><polyline id="_Clipping_Path_" data-name="&lt;Clipping Path&gt;" points="152.173 73.574 147.074 130.806 53.919 162.798 42.787 49.381 52.36 35.466" fill="#1d1d1b"/></clipPath></defs><title>Jam_Birthday_Assets</title><polyline id="_Clipping_Path_2" data-name="&lt;Clipping Path&gt;" points="152.173 73.574 147.074 130.806 53.919 162.798 42.787 49.381 52.36 35.466" fill="#1d1d1b"/><g clip-path="url(#clip-path)"><path d="M10.133,147.055c.345-1.717,5.459-2,6.615-2.079a21.933,21.933,0,0,1,7.572.807c3.795,1.082,7.152,3.3,10.913,4.484,7.664,2.406,14.469-.434,20.247-5.588,5.288-4.717,9.722-12.556,17.686-12.282,4.772.165,9.328,2.211,14.125,2.466a29.22,29.22,0,0,0,10.227-1.312c7.492-2.37,12.456-7.216,17.068-13.363,2.445-3.26,4.723-5.87,8.725-7.116,3.209-1,6.615-1.119,9.941-1.382,6.889-.546,13.715-1.336,19.319-5.753,6.216-4.9,9.542-14.308,17.691-16.32,5.586-1.38,3.22-10.009-2.379-8.627-8.664,2.14-12.569,9.3-18.206,15.425-6.006,6.526-13.981,5.876-22.117,6.826-7.241.845-13.33,3.129-18.043,8.88-5.806,7.086-10.549,13.786-20.7,13.836-8.994.045-16.729-4.878-25.5-.253-6.852,3.613-10.531,10.96-17.057,14.864-4.931,2.949-8.935,1.032-13.721-1.11a35.614,35.614,0,0,0-12.246-3.4c-6.445-.442-17.226.863-18.782,8.618C.379,150.3,9,152.7,10.133,147.055Z" fill="#fff"/></g><path d="M49.2,34.3,51.061,114,152.173,73.574a1.429,1.429,0,0,0-.027-2.664L51.135,32.926A1.429,1.429,0,0,0,49.2,34.3Z" fill="#9ac125"/><circle cx="78.985" cy="53.088" r="3.698" fill="#489ed7"/><circle cx="83.467" cy="68.684" r="3.698" fill="#489ed7"/><circle cx="86.502" cy="85.451" r="3.698" fill="#489ed7"/><polygon points="51.013 111.945 53.919 162.798 48.142 161.91 39.751 54.204 49.204 34.297 51.013 111.945" fill="#9ac125"/><circle cx="60.216" cy="53.685" r="10.776" fill="#fff"/><circle cx="64.861" cy="86.53" r="10.776" fill="#fff"/></svg>