<svg id="Layer_1" data-name="Layer 1" xmlns="http://www.w3.org/2000/svg" xmlns:xlink="http://www.w3.org/1999/xlink" viewBox="0 0 203.826 195.02"><defs><clipPath id="clip-path"><circle id="_Ellipse_" data-name="&lt;Ellipse&gt;" cx="99.155" cy="126.418" r="61.09" fill="#efd9cb"/></clipPath><clipPath id="clip-path-2"><path id="_Clipping_Path_" data-name="&lt;Clipping Path&gt;" d="M40.579,102.108s115.08,4.886,120.539-17.335L129.487,52.305,77.359,48.112,46.076,63.555Z" fill="#27131d"/></clipPath><clipPath id="clip-path-3"><path id="_Clipping_Path_2" data-name="&lt;Clipping Path&gt;" d="M133.59,143.54A16.535,16.535,0,0,1,101,149.175Z"/></clipPath><clipPath id="clip-path-4"><polygon id="_Clipping_Path_3" data-name="&lt;Clipping Path&gt;" points="58.085 90.504 66.561 19.239 119.429 77.236 58.085 90.504" fill="#489ed7"/></clipPath></defs><title>Jam_Birthday_Assets</title><circle cx="156.281" cy="120.23" r="13.919" fill="#ddc0b1"/><circle cx="40.459" cy="144.248" r="13.919" fill="#edd1bf"/><circle id="_Ellipse_2" data-name="&lt;Ellipse&gt;" cx="99.155" cy="126.418" r="61.09" fill="#efd9cb"/><g clip-path="url(#clip-path)"><circle cx="88.363" cy="127.581" r="63.78" fill="#f2e1d6"/><path id="_Clipping_Path_4" data-name="&lt;Clipping Path&gt;" d="M40.579,102.108s115.08,4.886,120.539-17.335L129.487,52.305,77.359,48.112,46.076,63.555Z" fill="#27131d"/><g clip-path="url(#clip-path-2)"><ellipse cx="64.381" cy="132.727" rx="87.692" ry="88.679" fill="#282828"/></g></g><path id="_Clipping_Path_5" data-name="&lt;Clipping Path&gt;" d="M133.59,143.54A16.535,16.535,0,0,1,101,149.175Z"/><g clip-path="url(#clip-path-3)"><rect x="99.925" y="144.112" width="35.059" height="5.989" transform="translate(-24.459 23.427) rotate(-10.322)" fill="#f5f5f5"/><ellipse cx="115.825" cy="161.362" rx="8.529" ry="3.193" fill="#fcbed4"/></g><path d="M113.606,110.469l8.793,26.168a1.049,1.049,0,0,1-.84,1.372l-9.812,1.463" fill="none" stroke="#000" stroke-linecap="round" stroke-miterlimit="10" stroke-width="2.099"/><polygon id="_Clipping_Path_6" data-name="&lt;Clipping Path&gt;" points="58.085 90.504 66.561 19.239 119.429 77.236 58.085 90.504" fill="#489ed7"/><g clip-path="url(#clip-path-4)"><path d="M53.3,80.071c1,.366,47.133,12.565,47.133,12.565" fill="#fff" stroke="#fff" stroke-miterlimit="10" stroke-width="2.062"/><path d="M58.024,69.6c1,.366,47.133,12.566,47.133,12.566" fill="#fff" stroke="#fff" stroke-miterlimit="10" stroke-width="2.062"/><path d="M60.69,58.528c1,.366,69.639,18.817,69.639,18.817" fill="#fff" stroke="#fff" stroke-miterlimit="10" stroke-width="2.062"/><path d="M62.057,45.755c1,.367,69.639,18.818,69.639,18.818" fill="#fff" stroke="#fff" stroke-miterlimit="10" stroke-width="2.062"/><path d="M63.444,32.808c1,.366,69.639,18.818,69.639,18.818" fill="#fff" stroke="#fff" stroke-miterlimit="10" stroke-width="2.062"/></g><line x1="56.085" y1="11.616" x2="78.364" y2="32.67" fill="#fff" stroke="#e6296e" stroke-miterlimit="10" stroke-width="1.631"/><line x1="78.649" y1="11.926" x2="55.8" y2="32.36" fill="#fff" stroke="#e6296e" stroke-miterlimit="10" stroke-width="1.631"/><line x1="59.87" y1="8.696" x2="74.579" y2="35.59" fill="#fff" stroke="#e6296e" stroke-miterlimit="10" stroke-width="1.631"/><line x1="81.241" y1="15.942" x2="53.208" y2="28.344" fill="#fff" stroke="#e6296e" stroke-miterlimit="10" stroke-width="1.631"/><line x1="66.194" y1="6.851" x2="68.256" y2="37.435" fill="#fff" stroke="#e6296e" stroke-miterlimit="10" stroke-width="1.631"/><line x1="82.55" y1="22.398" x2="51.9" y2="21.887" fill="#fff" stroke="#e6296e" stroke-miterlimit="10" stroke-width="1.631"/><line x1="71.442" y1="7.407" x2="63.008" y2="36.878" fill="#fff" stroke="#e6296e" stroke-miterlimit="10" stroke-width="1.631"/><line x1="81.555" y1="27.581" x2="52.895" y2="16.705" fill="#fff" stroke="#e6296e" stroke-miterlimit="10" stroke-width="1.631"/><rect x="75.645" y="113.794" width="15.786" height="4.374" transform="translate(-25.088 23.08) rotate(-13.698)" fill="#27131d"/><rect x="131.631" y="103.368" width="15.786" height="4.374" transform="translate(-6.932 9.849) rotate(-3.945)" fill="#27131d"/><path d="M56.886,102.611l-2.5,35.929a3.863,3.863,0,0,1-2.324,3.28l-7.009,3.025a3.866,3.866,0,0,1-5.343-2.908L34.1,108.569a3.866,3.866,0,0,1,2.472-4.267l15.123-5.585A3.864,3.864,0,0,1,56.886,102.611Z" fill="#282828"/><circle cx="86.548" cy="135.939" r="12.96" fill="none" stroke="#e84780" stroke-miterlimit="10" stroke-width="4.008"/><circle cx="141.628" cy="125.104" r="12.96" fill="none" stroke="#e84780" stroke-miterlimit="10" stroke-width="4.008"/><line x1="72.835" y1="131.611" x2="35.924" y2="128.795" fill="#eeb001" stroke="#e84780" stroke-miterlimit="10" stroke-width="3.612"/><line x1="129.934" y1="120.86" x2="96.269" y2="128.195" fill="#eeb001" stroke="#e84780" stroke-miterlimit="10" stroke-width="3.612"/><path d="M145.919,122.651l-8.45,2.029a.343.343,0,0,0-.084.635l6.282,3.415" fill="none" stroke="#000" stroke-linecap="round" stroke-miterlimit="10" stroke-width="2.091"/><path d="M81.45,134.355l8.687-.2a.343.343,0,0,1,.244.592l-5.2,4.907" fill="none" stroke="#000" stroke-linecap="round" stroke-miterlimit="10" stroke-width="2.091"/></svg>