<svg id="Layer_1" data-name="Layer 1" xmlns="http://www.w3.org/2000/svg" xmlns:xlink="http://www.w3.org/1999/xlink" viewBox="0 0 203.826 195.02"><defs><clipPath id="clip-path"><circle id="_Ellipse_" data-name="&lt;Ellipse&gt;" cx="107.463" cy="119.154" r="57.736" fill="#ecd1be"/></clipPath><clipPath id="clip-path-2"><path id="_Clipping_Path_" data-name="&lt;Clipping Path&gt;" d="M140.937,136.266a15.627,15.627,0,0,1-30.8,5.326Z"/></clipPath><clipPath id="clip-path-3"><polygon id="_Clipping_Path_2" data-name="&lt;Clipping Path&gt;" points="71.114 88.089 77.108 26.315 123.903 75.47 71.114 88.089" fill="#eeb001"/></clipPath></defs><title>Jam_Birthday_Assets</title><circle cx="161.452" cy="113.305" r="13.155" fill="#ddc0b1"/><circle cx="51.99" cy="136.005" r="13.155" fill="#edd1bf"/><circle id="_Ellipse_2" data-name="&lt;Ellipse&gt;" cx="107.463" cy="119.154" r="57.736" fill="#ecd1be"/><g clip-path="url(#clip-path)"><circle cx="97.263" cy="120.253" r="60.278" fill="#f7e0d0"/><path d="M165.219,126.49,89.488,140.243a28.121,28.121,0,0,1-11.66-.343l-25.509-6.2a6.453,6.453,0,0,0-6.245,10.671l39.82,42.709a6.451,6.451,0,0,0,6.884,1.679l86.635-30.838a6.453,6.453,0,0,0,3.437-9.286l-10.878-19A6.454,6.454,0,0,0,165.219,126.49Z" fill="#bf997f"/></g><path d="M121.121,102.374l8.309,24.73a.992.992,0,0,1-.794,1.3l-9.273,1.383" fill="none" stroke="#000" stroke-linecap="round" stroke-miterlimit="10" stroke-width="1.984"/><circle cx="100.733" cy="127.62" r="3.182"/><rect x="89.897" y="112.965" width="14.919" height="4.134" transform="translate(-44.473 64.089) rotate(-30)"/><rect x="137.225" y="106.833" width="14.919" height="4.134" transform="translate(-7.15 10.212) rotate(-3.945)"/><path id="_Clipping_Path_3" data-name="&lt;Clipping Path&gt;" d="M140.937,136.266a15.627,15.627,0,0,1-30.8,5.326Z"/><g clip-path="url(#clip-path-2)"><rect x="109.121" y="136.806" width="33.134" height="5.66" transform="translate(-22.987 24.782) rotate(-10.322)" fill="#f5f5f5"/><ellipse cx="124.148" cy="153.109" rx="8.06" ry="3.017" fill="#fcbed4"/></g><polygon id="_Clipping_Path_4" data-name="&lt;Clipping Path&gt;" points="71.114 88.089 77.108 26.315 123.903 75.47 71.114 88.089" fill="#eeb001"/><g clip-path="url(#clip-path-3)"><path d="M66.782,79.158c.869.3,40.986,9.982,40.986,9.982" fill="#fff" stroke="#fff" stroke-miterlimit="10" stroke-width="1.783"/><path d="M70.67,70.018c.869.3,40.986,9.982,40.986,9.982" fill="#fff" stroke="#fff" stroke-miterlimit="10" stroke-width="1.783"/><path d="M72.767,60.394c.869.3,60.562,14.966,60.562,14.966" fill="#fff" stroke="#fff" stroke-miterlimit="10" stroke-width="1.783"/><path d="M73.71,49.325c.87.3,60.562,14.966,60.562,14.966" fill="#fff" stroke="#fff" stroke-miterlimit="10" stroke-width="1.783"/><path d="M74.667,38.1c.869.3,60.562,14.966,60.562,14.966" fill="#fff" stroke="#fff" stroke-miterlimit="10" stroke-width="1.783"/></g><line x1="67.908" y1="19.92" x2="87.564" y2="37.707" fill="#fff" stroke="#e6296e" stroke-miterlimit="10" stroke-width="1.41"/><line x1="87.422" y1="19.766" x2="68.05" y2="37.861" fill="#fff" stroke="#e6296e" stroke-miterlimit="10" stroke-width="1.41"/><line x1="71.126" y1="17.325" x2="84.347" y2="40.302" fill="#fff" stroke="#e6296e" stroke-miterlimit="10" stroke-width="1.41"/><line x1="89.739" y1="23.19" x2="65.734" y2="34.437" fill="#fff" stroke="#e6296e" stroke-miterlimit="10" stroke-width="1.41"/><line x1="76.559" y1="15.611" x2="78.914" y2="42.015" fill="#fff" stroke="#e6296e" stroke-miterlimit="10" stroke-width="1.41"/><line x1="90.991" y1="28.747" x2="64.482" y2="28.879" fill="#fff" stroke="#e6296e" stroke-miterlimit="10" stroke-width="1.41"/><line x1="81.106" y1="15.994" x2="74.366" y2="41.632" fill="#fff" stroke="#e6296e" stroke-miterlimit="10" stroke-width="1.41"/><line x1="90.227" y1="33.246" x2="65.245" y2="24.38" fill="#fff" stroke="#e6296e" stroke-miterlimit="10" stroke-width="1.41"/><path d="M150.35,116.4l-8.917.822a.354.354,0,0,0-.179.636l5.9,4.409" fill="none" stroke="#000" stroke-linecap="round" stroke-miterlimit="10" stroke-width="2.155"/></svg>