<svg id="Layer_1" data-name="Layer 1" xmlns="http://www.w3.org/2000/svg" xmlns:xlink="http://www.w3.org/1999/xlink" viewBox="0 0 203.826 195.02"><defs><clipPath id="clip-path"><circle id="_Ellipse_" data-name="&lt;Ellipse&gt;" cx="101.064" cy="101.5" r="46.166" fill="#724f4e"/></clipPath><clipPath id="clip-path-2"><path id="_Clipping_Path_" data-name="&lt;Clipping Path&gt;" d="M55.073,105.268s8.549-2.455,8.68-14.089l40.467-8.99V72.367l7.564,2.418,3.863-6.346,3.778,10.5,19.655-6.575-20.927-24.75L55.086,56.072,48.019,88.825Z" fill="#1d1d1b"/></clipPath><clipPath id="clip-path-3"><path id="_Clipping_Path_2" data-name="&lt;Clipping Path&gt;" d="M127.087,111.266a12.5,12.5,0,0,1-24.625,4.258Z"/></clipPath><clipPath id="clip-path-4"><polygon id="_Clipping_Path_3" data-name="&lt;Clipping Path&gt;" points="66.991 74.493 67.625 20.263 112.017 59.588 66.991 74.493" fill="#489ed7"/></clipPath></defs><title>Jam_Birthday_Assets</title><circle cx="63.302" cy="140.484" r="4.19" fill="#27131d"/><circle cx="63.302" cy="132.204" r="4.19" fill="#27131d"/><circle cx="63.302" cy="124.755" r="4.19" fill="#27131d"/><circle cx="63.302" cy="116.474" r="4.19" fill="#27131d"/><circle cx="63.302" cy="156.214" r="4.19" fill="#27131d"/><circle cx="63.302" cy="172.079" r="4.19" fill="#27131d"/><circle cx="137.868" cy="170.492" r="4.19" fill="#27131d"/><circle cx="63.302" cy="147.933" r="4.19" fill="#27131d"/><circle cx="63.302" cy="163.663" r="4.19" fill="#e74626"/><rect x="50.407" y="157.66" width="10.061" height="12.005" rx="5.031" ry="5.031" transform="translate(110.875 327.326) rotate(180)" fill="#e74626"/><rect x="66.137" y="157.66" width="10.061" height="12.005" rx="5.031" ry="5.031" transform="translate(142.335 327.326) rotate(-180)" fill="#e74626"/><circle cx="137.074" cy="138.898" r="4.19" fill="#27131d"/><circle cx="137.074" cy="130.617" r="4.19" fill="#27131d"/><circle cx="137.074" cy="123.168" r="4.19" fill="#27131d"/><circle cx="137.074" cy="114.887" r="4.19" fill="#27131d"/><circle cx="137.074" cy="154.628" r="4.19" fill="#27131d"/><circle cx="137.074" cy="146.347" r="4.19" fill="#27131d"/><circle cx="137.074" cy="162.076" r="4.19" fill="#e74626"/><rect x="124.179" y="156.074" width="10.061" height="12.005" rx="5.031" ry="5.031" transform="translate(258.419 324.153) rotate(-180)" fill="#e74626"/><rect x="139.909" y="156.074" width="10.061" height="12.005" rx="5.031" ry="5.031" transform="translate(289.878 324.153) rotate(180)" fill="#e74626"/><circle cx="144.235" cy="96.823" r="10.519" fill="#683d3c"/><circle cx="56.708" cy="114.974" r="10.519" fill="#7c5755"/><circle id="_Ellipse_2" data-name="&lt;Ellipse&gt;" cx="101.064" cy="101.5" r="46.166" fill="#724f4e"/><g clip-path="url(#clip-path)"><circle cx="92.909" cy="102.379" r="48.198" fill="#8e6865"/><path id="_Clipping_Path_4" data-name="&lt;Clipping Path&gt;" d="M55.073,105.268s8.549-2.455,8.68-14.089l40.467-8.99V72.367l7.564,2.418,3.863-6.346,3.778,10.5,19.655-6.575-20.927-24.75L55.086,56.072,48.019,88.825Z" fill="#1d1d1b"/><g clip-path="url(#clip-path-2)"><path d="M132.973,75.251S118.4,49.787,97.688,46.85c-14.942-2.119,25.384-4.3,25.384-4.3l15.384,23.607,2.093,7.5,3.459,3.8Z"/></g></g><circle cx="131.588" cy="97.455" r="2.544"/><circle cx="94.343" cy="105.096" r="2.544"/><circle cx="86.79" cy="116.321" r="1.272" fill="#724f4e"/><circle cx="91.735" cy="117.7" r="1.272" fill="#724f4e"/><circle cx="87.957" cy="120.954" r="1.272" fill="#724f4e"/><circle cx="134.562" cy="106.359" r="1.272" fill="#724f4e"/><circle id="_Ellipse_3" data-name="&lt;Ellipse&gt;" cx="139.507" cy="107.738" r="1.272" fill="#724f4e"/><circle cx="135.73" cy="110.992" r="1.272" fill="#724f4e"/><path d="M114.2,91.9l3.165,9.418a.793.793,0,0,1-.635,1.037l-7.415,1.106" fill="none" stroke="#000" stroke-linecap="round" stroke-miterlimit="10" stroke-width="1.586"/><circle cx="117.04" cy="112.211" r="2.857" fill="#5e103c"/><circle cx="112.211" cy="112.978" r="2.857" fill="#5e103c"/><path id="_Clipping_Path_5" data-name="&lt;Clipping Path&gt;" d="M127.087,111.266a12.5,12.5,0,0,1-24.625,4.258Z"/><g clip-path="url(#clip-path-3)"><rect x="101.646" y="111.698" width="26.494" height="4.526" transform="translate(-18.561 22.432) rotate(-10.322)" fill="#f5f5f5"/><ellipse cx="113.662" cy="124.734" rx="6.445" ry="2.413" fill="#fcbed4"/></g><polygon id="_Clipping_Path_6" data-name="&lt;Clipping Path&gt;" points="66.991 74.493 67.625 20.263 112.017 59.588 66.991 74.493" fill="#489ed7"/><g clip-path="url(#clip-path-4)"><polyline points="63.226 40.386 76.665 43.751 81.498 33.621 95.736 38.94" fill="none" stroke="#fff" stroke-miterlimit="10" stroke-width="1.837"/><polyline points="61.749 61.11 80.733 65.856 87.316 53.302 105.381 58.422 110.586 45.981" fill="none" stroke="#fff" stroke-miterlimit="10" stroke-width="1.837"/><circle cx="73.231" cy="36.462" r="1.684" fill="#fff"/><circle cx="76.665" cy="57.774" r="2.286" fill="#fff"/><circle cx="100.045" cy="49.355" r="2.296" fill="#fff"/></g><line x1="59.14" y1="15.377" x2="77.575" y2="29.405" fill="#fff" stroke="#e6296e" stroke-miterlimit="10" stroke-width="1.233"/><line x1="76.12" y1="13.795" x2="60.595" y2="30.988" fill="#fff" stroke="#e6296e" stroke-miterlimit="10" stroke-width="1.233"/><line x1="61.749" y1="12.879" x2="74.966" y2="31.904" fill="#fff" stroke="#e6296e" stroke-miterlimit="10" stroke-width="1.233"/><line x1="78.391" y1="16.604" x2="58.325" y2="28.178" fill="#fff" stroke="#e6296e" stroke-miterlimit="10" stroke-width="1.233"/><line x1="66.353" y1="10.984" x2="70.363" y2="33.799" fill="#fff" stroke="#e6296e" stroke-miterlimit="10" stroke-width="1.233"/><line x1="79.893" y1="21.35" x2="56.822" y2="23.432" fill="#fff" stroke="#e6296e" stroke-miterlimit="10" stroke-width="1.233"/><line x1="70.34" y1="10.98" x2="66.375" y2="33.803" fill="#fff" stroke="#e6296e" stroke-miterlimit="10" stroke-width="1.233"/><line x1="79.563" y1="25.324" x2="57.153" y2="19.458" fill="#fff" stroke="#e6296e" stroke-miterlimit="10" stroke-width="1.233"/></svg>