<svg id="Layer_1" data-name="Layer 1" xmlns="http://www.w3.org/2000/svg" xmlns:xlink="http://www.w3.org/1999/xlink" viewBox="0 0 203.826 195.02"><defs><clipPath id="clip-path"><polygon id="_Clipping_Path_" data-name="&lt;Clipping Path&gt;" points="69.926 95.985 98.669 35.929 127.767 102.667 69.926 95.985" fill="#4dab33"/></clipPath></defs><title>Jam_Birthday_Assets</title><path d="M68.748,111.809a22.041,22.041,0,0,1-27.386,21.362c-1.717-.43-3.141-1.924-4.672-2.731-1.643-.866-3.378-1.072-4.742-2.308a22.113,22.113,0,0,1-3.454-3.973c-.844-1.245-.7-3.124-1.279-4.532-.7-1.693-2.05-2.947-2.3-4.82a22.287,22.287,0,0,1-.2-3c0-2.629,1.327-5.341,2.172-7.678s1.208-4.3,2.745-6.194a22.14,22.14,0,0,1,4.188-3.965c1.434-1.04,3.219-1.319,4.884-1.993,1.919-.776,3.751-1.882,5.894-2.088q1.054-.1,2.137-.1c2.246,0,4.2,1.12,6.239,1.745s4.173.755,5.915,1.91A22,22,0,0,1,68.748,111.809Z" fill="#f5e95f"/><path d="M161.5,111.809a22.041,22.041,0,0,1-27.386,21.362c-1.718-.43-3.141-1.924-4.672-2.731-1.643-.866-3.378-1.072-4.743-2.308a22.108,22.108,0,0,1-3.453-3.973c-.845-1.245-.7-3.124-1.28-4.532-.695-1.693-2.05-2.947-2.3-4.82a22.287,22.287,0,0,1-.2-3c0-2.629,1.327-5.341,2.173-7.678s1.207-4.3,2.745-6.194a22.135,22.135,0,0,1,4.187-3.965c1.434-1.04,3.219-1.319,4.885-1.993,1.918-.776,3.75-1.882,5.893-2.088q1.054-.1,2.137-.1c2.247,0,4.2,1.12,6.239,1.745s4.173.755,5.915,1.91A22,22,0,0,1,161.5,111.809Z" fill="#f5e95f"/><circle cx="46.728" cy="111.625" r="12.156" fill="#d9c52a"/><circle cx="140.372" cy="111.625" r="12.156" fill="#d9c52a"/><path d="M144.939,128.75a34.543,34.543,0,0,1-1.9,11.3c-.431,1.247-3.319,2.368-3.885,3.564-.71,1.5.864,3.067-.047,4.48a40.649,40.649,0,0,1-2.531,3.5c-1.065,1.321-3.242,1.356-4.479,2.566-1.055,1.032-1.148,3.255-2.319,4.2a49.554,49.554,0,0,1-4.224,3.05q-1.731,1.118-3.582,2.114c-2.3,1.237-4.89.6-7.427,1.53-1.815.662-3.522,2.961-5.442,3.449a60.256,60.256,0,0,1-6.527,1.28,62.176,62.176,0,0,1-6.642.568c-.68.022-1.363-1.357-2.05-1.357-4.832,0-9.507.843-13.937-.18a58.236,58.236,0,0,1-7.4-2.228c-2.164-.813-4.248-3.271-6.236-4.313-1.79-.938-3.5-.439-5.129-1.546-2.114-1.439-2.96-3.015-4.763-4.711a60.576,60.576,0,0,1-4.407-5.253c-1.229-1.506-3.019-2.074-4-3.71-1.2-1.992-1.613-4.177-2.413-6.332-1.418-3.821-2.772-7.771-2.772-11.97,0-12.858,7.149-24.355,18.383-31.992,1.824-1.24,5.516-1.412,7.543-2.438,2.307-1.167,2.975-3.156,5.507-4.016,2.37-.805,5.05-.006,7.585-.516,1.815-.364,3.449-2.113,5.334-2.315a63.256,63.256,0,0,1,6.706-.355c.523,0,2.407.055,2.925.067a47.972,47.972,0,0,1,10.019,1.282c2.789.594,4.987,2.449,7.569,3.4,2.136.787,4.691.617,6.658,1.628C135.4,100.865,144.939,113.9,144.939,128.75Z" fill="#f5e95f"/><circle cx="64.099" cy="132.44" r="2.891"/><circle cx="122.679" cy="132.44" r="2.891"/><line x1="93.88" y1="135.332" x2="93.88" y2="150.077" fill="none" stroke="#000" stroke-linecap="round" stroke-miterlimit="10" stroke-width="2.676"/><rect x="80.949" y="124.643" width="26.087" height="12.684" rx="6.342" ry="6.342" fill="#56322b"/><path d="M83.724,148.892a24.984,24.984,0,0,0,19.849,0" fill="none" stroke="#000" stroke-linecap="round" stroke-miterlimit="10" stroke-width="2.668"/><polygon id="_Clipping_Path_2" data-name="&lt;Clipping Path&gt;" points="69.926 95.985 98.669 35.929 127.767 102.667 69.926 95.985" fill="#4dab33"/><g clip-path="url(#clip-path)"><polyline points="83.367 56.061 96.591 66.756 107.21 57.975 120.313 71.259" fill="none" stroke="#fff" stroke-miterlimit="10" stroke-width="2.255"/><polyline points="71.008 78.373 89.692 93.472 103.513 82.897 120.98 97.938 133.208 86.776" fill="none" stroke="#fff" stroke-miterlimit="10" stroke-width="2.255"/><circle cx="96.536" cy="56.864" r="2.067" fill="#fff"/><circle cx="89.341" cy="82.37" r="2.807" fill="#fff"/><circle cx="119.727" cy="85.083" r="2.819" fill="#fff"/></g><line x1="91.747" y1="26.102" x2="105.021" y2="51.252" fill="#fff" stroke="#ffcf14" stroke-miterlimit="10" stroke-width="1.513"/><line x1="111.472" y1="33.118" x2="85.297" y2="44.236" fill="#fff" stroke="#ffcf14" stroke-miterlimit="10" stroke-width="1.513"/><line x1="95.944" y1="24.669" x2="100.824" y2="52.685" fill="#fff" stroke="#ffcf14" stroke-miterlimit="10" stroke-width="1.513"/><line x1="112.548" y1="37.421" x2="84.221" y2="39.934" fill="#fff" stroke="#ffcf14" stroke-miterlimit="10" stroke-width="1.513"/><line x1="102.049" y1="24.939" x2="94.719" y2="52.416" fill="#fff" stroke="#ffcf14" stroke-miterlimit="10" stroke-width="1.513"/><line x1="111.767" y1="43.482" x2="85.001" y2="33.873" fill="#fff" stroke="#ffcf14" stroke-miterlimit="10" stroke-width="1.513"/><line x1="106.492" y1="26.996" x2="90.277" y2="50.359" fill="#fff" stroke="#ffcf14" stroke-miterlimit="10" stroke-width="1.513"/><line x1="109.344" y1="47.736" x2="87.424" y2="29.619" fill="#fff" stroke="#ffcf14" stroke-miterlimit="10" stroke-width="1.513"/></svg>