<svg id="Layer_1" data-name="Layer 1" xmlns="http://www.w3.org/2000/svg" xmlns:xlink="http://www.w3.org/1999/xlink" viewBox="0 0 203.826 195.02"><defs><clipPath id="clip-path"><polygon id="_Clipping_Path_" data-name="&lt;Clipping Path&gt;" points="69.007 60.13 3.951 162.328 123.872 145.574 69.007 60.13" fill="#1d1d1b"/></clipPath></defs><title>Jam_Birthday_Assets</title><polygon id="_Clipping_Path_2" data-name="&lt;Clipping Path&gt;" points="69.007 60.13 3.951 162.328 123.872 145.574 69.007 60.13" fill="#1d1d1b"/><g clip-path="url(#clip-path)"><circle cx="14.146" cy="140.008" r="13.925" fill="#ffcf14"/><circle cx="68.607" cy="151.814" r="13.925" fill="#ffcf14"/><circle cx="45.912" cy="91.829" r="13.925" fill="#ffcf14"/></g><ellipse cx="99.69" cy="101.264" rx="19.536" ry="51.706" transform="matrix(0.831, -0.557, 0.557, 0.831, -39.501, 72.656)" fill="#ffcf14"/><line x1="99.69" y1="91.853" x2="142.237" y2="52.158" fill="#1d1d1b" stroke="#1d1d1b" stroke-miterlimit="10" stroke-width="6.16"/><line x1="97.534" y1="108.621" x2="155.573" y2="104.451" fill="#1d1d1b" stroke="#1d1d1b" stroke-miterlimit="10" stroke-width="6.16"/><rect x="113.455" y="19.478" width="10.417" height="20.532" fill="#ffcf14"/><rect x="155.573" y="61.739" width="10.417" height="20.532" transform="translate(215.573 -95.426) rotate(83.996)" fill="#ffcf14"/><rect x="167.964" y="117.175" width="10.417" height="20.532" transform="translate(376.376 57.165) rotate(124.572)" fill="#ffcf14"/><rect x="174.149" y="16.741" width="10.417" height="20.532" transform="translate(33.436 134.735) rotate(-45)" fill="#ffcf14"/><circle cx="146.516" cy="24.611" r="5.133" fill="#1d1d1b"/><circle cx="184.577" cy="97.072" r="5.219" fill="#1d1d1b"/><circle cx="195.015" cy="57.377" r="5.219" fill="#1d1d1b"/><circle cx="107.156" cy="56.144" r="3.986" fill="#1d1d1b"/></svg>