<svg id="Layer_1" data-name="Layer 1" xmlns="http://www.w3.org/2000/svg" xmlns:xlink="http://www.w3.org/1999/xlink" viewBox="0 0 203.826 195.02"><defs><clipPath id="clip-path"><polygon id="_Clipping_Path_" data-name="&lt;Clipping Path&gt;" points="71.06 68.144 6.005 170.343 125.925 153.589 71.06 68.144" fill="#1d1d1b"/></clipPath></defs><title>Jam_Birthday_Assets</title><polygon id="_Clipping_Path_2" data-name="&lt;Clipping Path&gt;" points="71.06 68.144 6.005 170.343 125.925 153.589 71.06 68.144" fill="#1d1d1b"/><g clip-path="url(#clip-path)"><circle cx="16.199" cy="148.022" r="13.925" fill="#e6296e"/><circle cx="70.66" cy="159.829" r="13.925" fill="#e6296e"/><circle cx="47.965" cy="99.844" r="13.925" fill="#e6296e"/></g><ellipse cx="101.743" cy="109.279" rx="19.536" ry="51.706" transform="translate(-43.616 75.156) rotate(-33.834)" fill="#e6296e"/><line x1="101.743" y1="99.867" x2="144.29" y2="60.172" fill="#1d1d1b" stroke="#1d1d1b" stroke-miterlimit="10" stroke-width="6.16"/><line x1="99.587" y1="116.636" x2="157.626" y2="112.466" fill="#1d1d1b" stroke="#1d1d1b" stroke-miterlimit="10" stroke-width="6.16"/><rect x="115.508" y="27.493" width="10.417" height="20.532" fill="#e6296e"/><rect x="157.626" y="69.754" width="10.417" height="20.532" transform="translate(225.382 -90.292) rotate(83.996)" fill="#e6296e"/><rect x="170.017" y="125.19" width="10.417" height="20.532" transform="matrix(-0.567, 0.823, -0.823, -0.567, 386.193, 68.037)" fill="#e6296e"/><rect x="176.202" y="24.755" width="10.417" height="20.532" transform="translate(28.37 138.534) rotate(-45)" fill="#e6296e"/><circle cx="148.569" cy="32.626" r="5.133" fill="#1d1d1b"/><circle cx="186.63" cy="105.086" r="5.219" fill="#1d1d1b"/><circle cx="109.209" cy="64.158" r="3.986" fill="#1d1d1b"/></svg>