<svg id="Layer_1" data-name="Layer 1" xmlns="http://www.w3.org/2000/svg" xmlns:xlink="http://www.w3.org/1999/xlink" viewBox="0 0 203.826 195.02"><defs><clipPath id="clip-path"><polygon id="_Clipping_Path_" data-name="&lt;Clipping Path&gt;" points="70.42 95.985 99.163 35.929 128.261 102.667 70.42 95.985" fill="#489ed7"/></clipPath></defs><title>Jam_Birthday_Assets</title><path d="M69.243,111.809a22.042,22.042,0,0,1-27.387,21.362c-1.717-.43-3.14-1.924-4.671-2.731-1.644-.866-3.379-1.072-4.743-2.308a22.153,22.153,0,0,1-3.454-3.973c-.844-1.245-.7-3.124-1.279-4.532-.7-1.693-2.05-2.947-2.3-4.82a22.287,22.287,0,0,1-.2-3c0-2.629,1.327-5.341,2.172-7.678s1.208-4.3,2.745-6.194a22.14,22.14,0,0,1,4.188-3.965c1.434-1.04,3.219-1.319,4.884-1.993,1.919-.776,3.751-1.882,5.894-2.088q1.054-.1,2.137-.1c2.246,0,4.2,1.12,6.239,1.745s4.173.755,5.915,1.91A22,22,0,0,1,69.243,111.809Z" fill="#f5e95f"/><path d="M162,111.809a22.041,22.041,0,0,1-27.386,21.362c-1.718-.43-3.141-1.924-4.672-2.731-1.643-.866-3.378-1.072-4.743-2.308a22.147,22.147,0,0,1-3.453-3.973c-.845-1.245-.7-3.124-1.28-4.532-.695-1.693-2.05-2.947-2.3-4.82a22.123,22.123,0,0,1-.2-3c0-2.629,1.328-5.341,2.173-7.678s1.207-4.3,2.745-6.194a22.135,22.135,0,0,1,4.187-3.965c1.434-1.04,3.219-1.319,4.885-1.993,1.918-.776,3.75-1.882,5.893-2.088q1.055-.1,2.138-.1c2.246,0,4.2,1.12,6.238,1.745s4.173.755,5.915,1.91A22,22,0,0,1,162,111.809Z" fill="#f5e95f"/><circle cx="47.222" cy="111.625" r="12.156" fill="#d9c52a"/><circle cx="140.866" cy="111.625" r="12.156" fill="#d9c52a"/><path d="M145.433,128.75a34.543,34.543,0,0,1-1.9,11.3c-.431,1.247-3.319,2.368-3.885,3.564-.71,1.5.864,3.067-.047,4.48a40.649,40.649,0,0,1-2.531,3.5c-1.065,1.321-3.242,1.356-4.479,2.566-1.055,1.032-1.148,3.255-2.319,4.2a49.4,49.4,0,0,1-4.224,3.05q-1.731,1.118-3.582,2.114c-2.3,1.237-4.889.6-7.427,1.53-1.815.662-3.522,2.961-5.441,3.449a60.351,60.351,0,0,1-6.527,1.28,62.218,62.218,0,0,1-6.643.568c-.68.022-1.363-1.357-2.05-1.357-4.831,0-9.507.843-13.937-.18a58.236,58.236,0,0,1-7.4-2.228c-2.164-.813-4.248-3.271-6.236-4.313-1.79-.938-3.5-.439-5.129-1.546-2.114-1.439-2.959-3.015-4.763-4.711a60.576,60.576,0,0,1-4.407-5.253c-1.229-1.506-3.019-2.074-4-3.71-1.2-1.992-1.613-4.177-2.413-6.332-1.418-3.821-2.772-7.771-2.772-11.97,0-12.858,7.149-24.355,18.383-31.992,1.824-1.24,5.517-1.412,7.544-2.438,2.306-1.167,2.974-3.156,5.506-4.016,2.371-.805,5.05-.006,7.585-.516,1.815-.364,3.449-2.113,5.334-2.315a63.256,63.256,0,0,1,6.706-.355c.523,0,2.407.055,2.925.067a47.972,47.972,0,0,1,10.019,1.282c2.789.594,4.987,2.449,7.569,3.4,2.136.787,4.691.617,6.658,1.628C135.9,100.865,145.433,113.9,145.433,128.75Z" fill="#f5e95f"/><circle cx="64.593" cy="132.44" r="2.891"/><circle cx="123.173" cy="132.44" r="2.891"/><line x1="94.374" y1="135.332" x2="94.374" y2="150.077" fill="none" stroke="#000" stroke-linecap="round" stroke-miterlimit="10" stroke-width="2.676"/><rect x="81.443" y="124.643" width="26.087" height="12.684" rx="6.342" ry="6.342" fill="#56322b"/><path d="M84.218,148.892a24.984,24.984,0,0,0,19.849,0" fill="none" stroke="#000" stroke-linecap="round" stroke-miterlimit="10" stroke-width="2.668"/><polygon id="_Clipping_Path_2" data-name="&lt;Clipping Path&gt;" points="70.42 95.985 99.163 35.929 128.261 102.667 70.42 95.985" fill="#489ed7"/><g clip-path="url(#clip-path)"><polyline points="83.861 56.061 97.085 66.756 107.704 57.975 120.807 71.259" fill="none" stroke="#fff" stroke-miterlimit="10" stroke-width="2.255"/><polyline points="71.503 78.373 90.186 93.472 104.007 82.897 121.474 97.938 133.702 86.776" fill="none" stroke="#fff" stroke-miterlimit="10" stroke-width="2.255"/><circle cx="97.03" cy="56.864" r="2.067" fill="#fff"/><circle cx="89.835" cy="82.37" r="2.807" fill="#fff"/><circle cx="120.221" cy="85.083" r="2.819" fill="#fff"/></g><line x1="92.241" y1="26.102" x2="105.515" y2="51.252" fill="#fff" stroke="#e6296e" stroke-miterlimit="10" stroke-width="1.513"/><line x1="111.966" y1="33.118" x2="85.791" y2="44.236" fill="#fff" stroke="#e6296e" stroke-miterlimit="10" stroke-width="1.513"/><line x1="96.438" y1="24.669" x2="101.319" y2="52.685" fill="#fff" stroke="#e6296e" stroke-miterlimit="10" stroke-width="1.513"/><line x1="113.042" y1="37.421" x2="84.715" y2="39.934" fill="#fff" stroke="#e6296e" stroke-miterlimit="10" stroke-width="1.513"/><line x1="102.544" y1="24.939" x2="95.213" y2="52.416" fill="#fff" stroke="#e6296e" stroke-miterlimit="10" stroke-width="1.513"/><line x1="112.261" y1="43.482" x2="85.495" y2="33.873" fill="#fff" stroke="#e6296e" stroke-miterlimit="10" stroke-width="1.513"/><line x1="106.986" y1="26.996" x2="90.771" y2="50.359" fill="#fff" stroke="#e6296e" stroke-miterlimit="10" stroke-width="1.513"/><line x1="109.838" y1="47.736" x2="87.918" y2="29.619" fill="#fff" stroke="#e6296e" stroke-miterlimit="10" stroke-width="1.513"/></svg>