<svg id="Layer_1" data-name="Layer 1" xmlns="http://www.w3.org/2000/svg" xmlns:xlink="http://www.w3.org/1999/xlink" viewBox="0 0 203.826 195.02"><defs><clipPath id="clip-path"><polygon id="_Clipping_Path_" data-name="&lt;Clipping Path&gt;" points="68.052 60.681 2.996 162.88 122.917 146.126 68.052 60.681" fill="#1d1d1b"/></clipPath></defs><title>Jam_Birthday_Assets</title><polygon id="_Clipping_Path_2" data-name="&lt;Clipping Path&gt;" points="68.052 60.681 2.996 162.88 122.917 146.126 68.052 60.681" fill="#1d1d1b"/><g clip-path="url(#clip-path)"><circle cx="13.19" cy="140.559" r="13.925" fill="#9ac125"/><circle cx="67.651" cy="152.366" r="13.925" fill="#9ac125"/><circle cx="44.957" cy="92.381" r="13.925" fill="#9ac125"/></g><ellipse cx="98.735" cy="101.816" rx="19.536" ry="51.706" transform="translate(-39.97 72.217) rotate(-33.834)" fill="#9ac125"/><line x1="98.735" y1="92.404" x2="141.281" y2="52.709" fill="#1d1d1b" stroke="#1d1d1b" stroke-miterlimit="10" stroke-width="6.16"/><line x1="96.578" y1="109.173" x2="154.617" y2="105.003" fill="#1d1d1b" stroke="#1d1d1b" stroke-miterlimit="10" stroke-width="6.16"/><rect x="112.499" y="20.03" width="10.417" height="20.532" fill="#9ac125"/><rect x="154.617" y="62.291" width="10.417" height="20.532" transform="translate(215.266 -93.982) rotate(83.996)" fill="#9ac125"/><rect x="167.009" y="117.727" width="10.417" height="20.532" transform="matrix(-0.567, 0.823, -0.823, -0.567, 375.332, 58.816)" fill="#9ac125"/><rect x="173.193" y="17.292" width="10.417" height="20.532" transform="translate(32.766 134.221) rotate(-45)" fill="#9ac125"/><circle cx="145.561" cy="25.163" r="5.133" fill="#1d1d1b"/><circle cx="183.621" cy="97.623" r="5.219" fill="#1d1d1b"/><circle cx="194.06" cy="57.929" r="5.219" fill="#1d1d1b"/><circle cx="106.201" cy="56.695" r="3.986" fill="#1d1d1b"/></svg>