<svg id="Layer_1" data-name="Layer 1" xmlns="http://www.w3.org/2000/svg" viewBox="0 0 203.826 195.02"><title>Jam_Birthday_Assets</title><path d="M161.689,168.2c3.437-4.3,24.259-25.034,24.259-25.034l-27.113-25.1Z" fill="#1d1d1b"/><polygon points="39.874 33.371 39.874 131.126 185.948 143.168 185.948 33.371 39.874 33.371" fill="#1d1d1b"/><polygon points="39.874 33.372 19.948 54.392 51.195 59.818 39.874 33.372" fill="#1d1d1b"/><rect x="33.913" y="40.427" width="113.81" height="141.74" transform="translate(-20.478 202.116) rotate(-90)" fill="#9ac125"/><rect x="36.063" y="94.613" width="113.81" height="33.367" transform="translate(-18.329 204.265) rotate(-90)" fill="#1d1d1b"/><rect x="19.948" y="96.864" width="141.74" height="33.073" fill="#1d1d1b"/><rect x="124.501" y="91.387" width="19.484" height="30.57" transform="translate(287.749 183.066) rotate(167.986)" fill="#fff"/><path d="M132.518,90.7c-.886-3.438-.351-4.977,2.266-7.666a11.443,11.443,0,0,0,1.9-2.138,8.326,8.326,0,0,0,1.083-5.267c-.576-4.554-4.942-7.239-9.3-6.674-1.6.207-1.624,2.757,0,2.547,3.733-.484,7.526,2.154,6.7,6.345-.506,2.572-2.886,3.358-4.4,5.108-2.067,2.39-1.429,5.641-.713,8.422a1.275,1.275,0,0,0,2.457-.677Z" fill="#fff"/></svg>