<svg id="Layer_1" data-name="Layer 1" xmlns="http://www.w3.org/2000/svg" xmlns:xlink="http://www.w3.org/1999/xlink" viewBox="0 0 203.826 195.02"><defs><clipPath id="clip-path"><circle id="_Ellipse_" data-name="&lt;Ellipse&gt;" cx="108.481" cy="127.843" r="62.958" fill="#e5cfc3"/></clipPath><clipPath id="clip-path-2"><path id="_Clipping_Path_" data-name="&lt;Clipping Path&gt;" d="M48.114,102.789s118.6,5.036,124.223-17.865l-32.6-33.46L86.019,47.143,53.78,63.058Z" fill="#868686"/></clipPath><clipPath id="clip-path-3"><path id="_Clipping_Path_2" data-name="&lt;Clipping Path&gt;" d="M143.968,145.488a17.04,17.04,0,0,1-33.582,5.807Z"/></clipPath><clipPath id="clip-path-4"><polygon id="_Clipping_Path_3" data-name="&lt;Clipping Path&gt;" points="66.155 90.831 74.89 17.388 129.374 77.158 66.155 90.831" fill="#489ed7"/></clipPath></defs><title>Jam_Birthday_Assets</title><circle cx="167.353" cy="121.465" r="14.345" fill="#ddc0b1"/><circle cx="47.991" cy="146.218" r="14.345" fill="#edd1bf"/><circle id="_Ellipse_2" data-name="&lt;Ellipse&gt;" cx="108.481" cy="127.843" r="62.958" fill="#e5cfc3"/><g clip-path="url(#clip-path)"><circle cx="97.359" cy="129.041" r="65.729" fill="#f2e1d6"/><path id="_Clipping_Path_4" data-name="&lt;Clipping Path&gt;" d="M48.114,102.789s118.6,5.036,124.223-17.865l-32.6-33.46L86.019,47.143,53.78,63.058Z" fill="#868686"/><g clip-path="url(#clip-path-2)"><ellipse cx="97.154" cy="129.882" rx="66.147" ry="66.891" fill="#868686"/><ellipse cx="72.87" cy="134.634" rx="90.037" ry="91.05" fill="#9c9b9b"/></g></g><circle cx="90.556" cy="160.564" r="11.849" fill="#ffcdc0"/><path id="_Clipping_Path_5" data-name="&lt;Clipping Path&gt;" d="M143.968,145.488a17.04,17.04,0,0,1-33.582,5.807Z"/><g clip-path="url(#clip-path-3)"><rect x="109.274" y="146.077" width="36.131" height="6.172" transform="translate(-24.667 25.232) rotate(-10.322)" fill="#f5f5f5"/><ellipse cx="125.66" cy="163.854" rx="8.789" ry="3.29" fill="#fcbed4"/></g><path d="M123.374,109.545l9.061,26.967a1.082,1.082,0,0,1-.866,1.415l-10.111,1.508" fill="none" stroke="#000" stroke-linecap="round" stroke-miterlimit="10" stroke-width="2.164"/><circle cx="149.478" cy="126.502" r="3.469"/><circle cx="99.791" cy="136.144" r="3.469"/><polygon id="_Clipping_Path_6" data-name="&lt;Clipping Path&gt;" points="66.155 90.831 74.89 17.388 129.374 77.158 66.155 90.831" fill="#489ed7"/><g clip-path="url(#clip-path-4)"><path d="M61.225,80.079c1.028.377,48.573,12.949,48.573,12.949" fill="#fff" stroke="#fff" stroke-miterlimit="10" stroke-width="2.125"/><path d="M66.093,69.29c1.028.377,48.573,12.95,48.573,12.95" fill="#fff" stroke="#fff" stroke-miterlimit="10" stroke-width="2.125"/><path d="M68.839,57.878c1.029.377,71.768,19.392,71.768,19.392" fill="#fff" stroke="#fff" stroke-miterlimit="10" stroke-width="2.125"/><path d="M70.249,44.715c1.028.377,71.768,19.392,71.768,19.392" fill="#fff" stroke="#fff" stroke-miterlimit="10" stroke-width="2.125"/><path d="M71.678,31.372c1.028.377,71.768,19.392,71.768,19.392" fill="#fff" stroke="#fff" stroke-miterlimit="10" stroke-width="2.125"/></g><line x1="64.094" y1="9.531" x2="87.054" y2="31.229" fill="#fff" stroke="#e6296e" stroke-miterlimit="10" stroke-width="1.681"/><line x1="87.348" y1="9.851" x2="63.801" y2="30.91" fill="#fff" stroke="#e6296e" stroke-miterlimit="10" stroke-width="1.681"/><line x1="67.995" y1="6.522" x2="83.154" y2="34.238" fill="#fff" stroke="#e6296e" stroke-miterlimit="10" stroke-width="1.681"/><line x1="90.019" y1="13.99" x2="61.129" y2="26.771" fill="#fff" stroke="#e6296e" stroke-miterlimit="10" stroke-width="1.681"/><line x1="74.512" y1="4.621" x2="76.637" y2="36.14" fill="#fff" stroke="#e6296e" stroke-miterlimit="10" stroke-width="1.681"/><line x1="91.368" y1="20.644" x2="59.781" y2="20.117" fill="#fff" stroke="#e6296e" stroke-miterlimit="10" stroke-width="1.681"/><line x1="79.92" y1="5.194" x2="71.229" y2="35.566" fill="#fff" stroke="#e6296e" stroke-miterlimit="10" stroke-width="1.681"/><line x1="90.342" y1="25.984" x2="60.807" y2="14.776" fill="#fff" stroke="#e6296e" stroke-miterlimit="10" stroke-width="1.681"/><rect x="87.974" y="123.208" width="16.268" height="4.507" transform="translate(-26.976 26.326) rotate(-13.698)" fill="#afaeae"/><rect x="139.157" y="114.324" width="16.268" height="4.507" transform="translate(-18.505 28.28) rotate(-10.322)" fill="#afaeae"/><path d="M64.92,103.308l-2.575,37.027a3.983,3.983,0,0,1-2.395,3.381l-7.223,3.116a3.983,3.983,0,0,1-5.506-3l-5.787-34.388a3.982,3.982,0,0,1,2.548-4.4L59.567,99.3A3.983,3.983,0,0,1,64.92,103.308Z" fill="#9c9b9b"/></svg>