<svg id="Layer_1" data-name="Layer 1" xmlns="http://www.w3.org/2000/svg" xmlns:xlink="http://www.w3.org/1999/xlink" viewBox="0 0 203.826 195.02"><defs><clipPath id="clip-path"><polygon id="_Clipping_Path_" data-name="&lt;Clipping Path&gt;" points="77.461 77.462 96.268 25.611 125.69 78.261 77.461 77.462" fill="#5bade0"/></clipPath></defs><title>Jam_Birthday_Assets</title><polygon id="_Clipping_Path_2" data-name="&lt;Clipping Path&gt;" points="77.461 77.462 96.268 25.611 125.69 78.261 77.461 77.462" fill="#5bade0"/><g clip-path="url(#clip-path)"><path d="M75.705,68.817c.683.449,33.076,17.647,33.076,17.647" fill="#fff" stroke="#fff" stroke-miterlimit="10" stroke-width="1.585"/><path d="M81.071,61.809c.683.448,33.076,17.647,33.076,17.647" fill="#fff" stroke="#fff" stroke-miterlimit="10" stroke-width="1.585"/><path d="M85,53.987c.683.449,48.827,26.262,48.827,26.262" fill="#fff" stroke="#fff" stroke-miterlimit="10" stroke-width="1.585"/><path d="M88.26,44.668c.682.448,48.826,26.261,48.826,26.261" fill="#fff" stroke="#fff" stroke-miterlimit="10" stroke-width="1.585"/><path d="M91.562,35.221c.682.448,48.826,26.261,48.826,26.261" fill="#fff" stroke="#fff" stroke-miterlimit="10" stroke-width="1.585"/></g><line x1="89.761" y1="18.073" x2="102.752" y2="37.727" fill="#fff" stroke="#eeb001" stroke-miterlimit="10" stroke-width="1.253"/><line x1="106.593" y1="22.251" x2="85.92" y2="33.548" fill="#fff" stroke="#eeb001" stroke-miterlimit="10" stroke-width="1.253"/><line x1="93.104" y1="16.55" x2="99.409" y2="39.25" fill="#fff" stroke="#eeb001" stroke-miterlimit="10" stroke-width="1.253"/><line x1="107.831" y1="25.711" x2="84.682" y2="30.089" fill="#fff" stroke="#eeb001" stroke-miterlimit="10" stroke-width="1.253"/><line x1="98.16" y1="16.275" x2="94.354" y2="39.525" fill="#fff" stroke="#eeb001" stroke-miterlimit="10" stroke-width="1.253"/><line x1="107.681" y1="30.771" x2="84.832" y2="25.029" fill="#fff" stroke="#eeb001" stroke-miterlimit="10" stroke-width="1.253"/><line x1="101.989" y1="17.61" x2="90.524" y2="38.19" fill="#fff" stroke="#eeb001" stroke-miterlimit="10" stroke-width="1.253"/><line x1="106.03" y1="34.476" x2="86.483" y2="21.324" fill="#fff" stroke="#eeb001" stroke-miterlimit="10" stroke-width="1.253"/><path d="M50.054,87.205A14.1,14.1,0,0,1,64.107,73.152h73.082a14.1,14.1,0,0,1,14.053,14.053v80.95a5.412,5.412,0,0,1-5.412,5.412H55.466a5.412,5.412,0,0,1-5.412-5.412" fill="#e74626"/><rect x="56.586" y="80.642" width="86.685" height="59.416" rx="6.987" ry="6.987" fill="#e8e8e8"/><rect x="84.148" y="120.035" width="31.271" height="3.097" fill="#1d1e1c"/><rect x="92.128" y="102.819" width="17.353" height="2.889" transform="translate(-3.459 205.068) rotate(-90)" fill="#1d1e1c"/><rect x="79.231" y="116.824" width="4.917" height="3.097" fill="#1d1e1c"/><rect x="106.739" y="152.771" width="32.802" height="2.992" rx="1.445" ry="1.445" fill="#1d1e1c"/><rect x="59.734" y="152.771" width="6.595" height="2.992" rx="1.445" ry="1.445" fill="#1d1e1c"/><rect x="115.419" y="116.824" width="4.917" height="3.097" fill="#1d1e1c"/><rect x="94.443" y="92.49" width="4.917" height="3.097" fill="#1d1e1c"/><rect x="64.782" y="97.971" width="11.353" height="3.097" fill="#1d1e1c"/><rect x="123.14" y="97.971" width="11.353" height="3.097" fill="#1d1e1c"/><rect x="125.741" y="106.826" width="4.917" height="4.236" fill="#1d1e1c"/><rect x="67.241" y="106.826" width="4.917" height="4.236" fill="#1d1e1c"/><path d="M125.741,151.573h15.712a1.819,1.819,0,0,1,1.819,1.819v1.749a1.819,1.819,0,0,1-1.819,1.819H125.741a0,0,0,0,1,0,0v-5.386A0,0,0,0,1,125.741,151.573Z" fill="#1d1e1c"/><rect x="60.754" y="119.457" width="9.059" height="7.805" fill="#f6b7a0"/><rect x="128.511" y="119.457" width="9.059" height="7.805" fill="#f6b7a0"/></svg>