<svg id="Layer_1" data-name="Layer 1" xmlns="http://www.w3.org/2000/svg" xmlns:xlink="http://www.w3.org/1999/xlink" viewBox="0 0 203.826 195.02"><defs><clipPath id="clip-path"><circle id="_Ellipse_" data-name="&lt;Ellipse&gt;" cx="104.575" cy="120.546" r="50.747" fill="#ecd1be"/></clipPath><clipPath id="clip-path-2"><path id="_Clipping_Path_" data-name="&lt;Clipping Path&gt;" d="M133.179,134.769a13.735,13.735,0,1,1-27.068,4.681Z"/></clipPath><clipPath id="clip-path-3"><path id="_Clipping_Path_2" data-name="&lt;Clipping Path&gt;" d="M145.931,89.024c-6.555,1.879-26.424,7.214-46.207,8.909A18.427,18.427,0,0,1,83.8,91.008h0s-4.2,17.151-14.774,23.027a12.591,12.591,0,0,0-6.015,7.093l-2.042,6.394a1.3,1.3,0,0,1-1.019.885l-5.493.941A1.3,1.3,0,0,1,53,128.462L42.462,95.429a1.387,1.387,0,0,1,1.211-1.8l7.268-.581,7.4-10.373A47.181,47.181,0,0,1,81.45,65.442l6.98-2.393a47.179,47.179,0,0,1,25.626-1.405h0A47.179,47.179,0,0,1,141.54,79.461l5.239,7.02A1.627,1.627,0,0,1,145.931,89.024Z" fill="#683b37"/></clipPath><clipPath id="clip-path-4"><polygon id="_Clipping_Path_3" data-name="&lt;Clipping Path&gt;" points="64.031 86.463 64.728 26.851 113.525 70.079 64.031 86.463" fill="#ffcf14"/></clipPath></defs><title>Jam_Birthday_Assets</title><circle cx="152.029" cy="115.406" r="11.563" fill="#ddc0b1"/><circle cx="55.817" cy="135.358" r="11.563" fill="#edd1bf"/><circle id="_Ellipse_2" data-name="&lt;Ellipse&gt;" cx="104.575" cy="120.546" r="50.747" fill="#ecd1be"/><g clip-path="url(#clip-path)"><circle cx="95.61" cy="121.513" r="52.981" fill="#f7e0d0"/></g><path id="_Clipping_Path_4" data-name="&lt;Clipping Path&gt;" d="M133.179,134.769a13.735,13.735,0,1,1-27.068,4.681Z"/><g clip-path="url(#clip-path-2)"><rect x="105.214" y="135.244" width="29.123" height="4.975" transform="translate(-22.741 23.692) rotate(-10.322)" fill="#f5f5f5"/><ellipse cx="118.422" cy="149.574" rx="7.085" ry="2.652" fill="#fcbed4"/></g><path d="M116.58,105.8l7.3,21.738a.872.872,0,0,1-.7,1.14l-8.15,1.215" fill="none" stroke="#000" stroke-linecap="round" stroke-miterlimit="10" stroke-width="1.744"/><circle cx="138.127" cy="119.588" r="2.797"/><circle cx="98.058" cy="127.988" r="2.797"/><rect x="88.533" y="117.561" width="13.113" height="3.633" transform="translate(-25.564 25.912) rotate(-13.698)" fill="#683b37"/><rect x="129.808" y="109.771" width="13.113" height="3.633" transform="translate(-7.354 9.646) rotate(-3.945)" fill="#683b37"/><path id="_Clipping_Path_5" data-name="&lt;Clipping Path&gt;" d="M145.931,89.024c-6.555,1.879-26.424,7.214-46.207,8.909A18.427,18.427,0,0,1,83.8,91.008h0s-4.2,17.151-14.774,23.027a12.591,12.591,0,0,0-6.015,7.093l-2.042,6.394a1.3,1.3,0,0,1-1.019.885l-5.493.941A1.3,1.3,0,0,1,53,128.462L42.462,95.429a1.387,1.387,0,0,1,1.211-1.8l7.268-.581,7.4-10.373A47.181,47.181,0,0,1,81.45,65.442l6.98-2.393a47.179,47.179,0,0,1,25.626-1.405h0A47.179,47.179,0,0,1,141.54,79.461l5.239,7.02A1.627,1.627,0,0,1,145.931,89.024Z" fill="#683b37"/><g clip-path="url(#clip-path-3)"><path d="M140.133,91.157s-16.024-27.99-38.786-31.218c-16.426-2.33,27.9-4.723,27.9-4.723l16.91,25.95,2.3,8.247,3.8,4.174Z" fill="#4c2928"/></g><circle cx="88.884" cy="142.07" r="1.398" fill="#d7a483"/><circle cx="94.32" cy="143.586" r="1.398" fill="#d7a483"/><circle cx="90.167" cy="147.163" r="1.398" fill="#d7a483"/><circle cx="141.397" cy="131.12" r="1.398" fill="#d7a483"/><circle id="_Ellipse_3" data-name="&lt;Ellipse&gt;" cx="146.833" cy="132.636" r="1.398" fill="#d7a483"/><circle cx="142.68" cy="136.212" r="1.398" fill="#d7a483"/><polygon id="_Clipping_Path_6" data-name="&lt;Clipping Path&gt;" points="64.031 86.463 64.728 26.851 113.525 70.079 64.031 86.463" fill="#ffcf14"/><g clip-path="url(#clip-path-4)"><polyline points="59.893 48.972 74.665 52.67 79.978 41.535 95.628 47.382" fill="none" stroke="#fff" stroke-miterlimit="10" stroke-width="2.019"/><polyline points="58.269 71.752 79.136 76.968 86.372 63.169 106.23 68.797 111.952 55.122" fill="none" stroke="#fff" stroke-miterlimit="10" stroke-width="2.019"/><circle cx="70.89" cy="44.658" r="1.851" fill="#fff"/><circle cx="74.665" cy="68.085" r="2.513" fill="#fff"/><circle cx="100.365" cy="58.83" r="2.524" fill="#fff"/></g><line x1="55.401" y1="21.481" x2="75.665" y2="36.901" fill="#fff" stroke="#489ed7" stroke-miterlimit="10" stroke-width="1.355"/><line x1="74.065" y1="19.741" x2="57" y2="38.64" fill="#fff" stroke="#489ed7" stroke-miterlimit="10" stroke-width="1.355"/><line x1="58.269" y1="18.734" x2="72.797" y2="39.647" fill="#fff" stroke="#489ed7" stroke-miterlimit="10" stroke-width="1.355"/><line x1="76.562" y1="22.829" x2="54.504" y2="35.552" fill="#fff" stroke="#489ed7" stroke-miterlimit="10" stroke-width="1.355"/><line x1="63.329" y1="16.651" x2="67.737" y2="41.73" fill="#fff" stroke="#489ed7" stroke-miterlimit="10" stroke-width="1.355"/><line x1="78.213" y1="28.046" x2="52.853" y2="30.335" fill="#fff" stroke="#489ed7" stroke-miterlimit="10" stroke-width="1.355"/><line x1="67.712" y1="16.647" x2="63.353" y2="41.735" fill="#fff" stroke="#489ed7" stroke-miterlimit="10" stroke-width="1.355"/><line x1="77.85" y1="32.415" x2="53.216" y2="25.967" fill="#fff" stroke="#489ed7" stroke-miterlimit="10" stroke-width="1.355"/><path d="M45.573,99.375l-5.017,4.136a.819.819,0,0,0,.15,1.33l7.337,3.108" fill="#683b37"/></svg>