<svg id="Layer_1" data-name="Layer 1" xmlns="http://www.w3.org/2000/svg" xmlns:xlink="http://www.w3.org/1999/xlink" viewBox="0 0 203.826 195.02"><defs><clipPath id="clip-path"><polygon id="_Clipping_Path_" data-name="&lt;Clipping Path&gt;" points="73.66 72.53 92.466 20.678 121.889 73.329 73.66 72.53" fill="#4dab33"/></clipPath></defs><title>Jam_Birthday_Assets</title><polygon id="_Clipping_Path_2" data-name="&lt;Clipping Path&gt;" points="73.66 72.53 92.466 20.678 121.889 73.329 73.66 72.53" fill="#4dab33"/><g clip-path="url(#clip-path)"><path d="M71.9,63.885c.682.448,33.076,17.647,33.076,17.647" fill="#fff" stroke="#fff" stroke-miterlimit="10" stroke-width="1.585"/><path d="M77.27,56.876c.682.449,33.076,17.647,33.076,17.647" fill="#fff" stroke="#fff" stroke-miterlimit="10" stroke-width="1.585"/><path d="M81.2,49.055c.683.448,48.826,26.261,48.826,26.261" fill="#fff" stroke="#fff" stroke-miterlimit="10" stroke-width="1.585"/><path d="M84.458,39.735C85.141,40.183,133.285,66,133.285,66" fill="#fff" stroke="#fff" stroke-miterlimit="10" stroke-width="1.585"/><path d="M87.76,30.288c.683.448,48.827,26.262,48.827,26.262" fill="#fff" stroke="#fff" stroke-miterlimit="10" stroke-width="1.585"/></g><line x1="85.96" y1="13.141" x2="98.951" y2="32.794" fill="#fff" stroke="#eeb001" stroke-miterlimit="10" stroke-width="1.253"/><line x1="102.792" y1="17.319" x2="82.118" y2="28.616" fill="#fff" stroke="#eeb001" stroke-miterlimit="10" stroke-width="1.253"/><line x1="89.303" y1="11.617" x2="95.608" y2="34.317" fill="#fff" stroke="#eeb001" stroke-miterlimit="10" stroke-width="1.253"/><line x1="104.03" y1="20.778" x2="80.881" y2="25.157" fill="#fff" stroke="#eeb001" stroke-miterlimit="10" stroke-width="1.253"/><line x1="94.358" y1="11.342" x2="90.552" y2="34.592" fill="#fff" stroke="#eeb001" stroke-miterlimit="10" stroke-width="1.253"/><line x1="103.88" y1="25.839" x2="81.031" y2="20.096" fill="#fff" stroke="#eeb001" stroke-miterlimit="10" stroke-width="1.253"/><line x1="98.188" y1="12.677" x2="86.722" y2="33.258" fill="#fff" stroke="#eeb001" stroke-miterlimit="10" stroke-width="1.253"/><line x1="102.229" y1="29.543" x2="82.682" y2="16.392" fill="#fff" stroke="#eeb001" stroke-miterlimit="10" stroke-width="1.253"/><path d="M61.835,71.695h73.082A14.053,14.053,0,0,1,148.97,85.748V166.7a5.412,5.412,0,0,1-5.412,5.412H53.194a5.412,5.412,0,0,1-5.412-5.412V85.748A14.053,14.053,0,0,1,61.835,71.695Z" fill="#5aaee1"/><rect x="54.314" y="79.185" width="86.685" height="59.416" rx="6.987" ry="6.987" fill="#e8e8e8"/><rect x="81.876" y="118.578" width="31.271" height="3.097" fill="#1d1e1c"/><rect x="89.856" y="101.362" width="17.353" height="2.889" transform="translate(-4.274 201.339) rotate(-90)" fill="#1d1e1c"/><rect x="76.959" y="115.368" width="4.917" height="3.097" fill="#1d1e1c"/><rect x="104.467" y="151.314" width="32.802" height="2.992" rx="1.445" ry="1.445" fill="#1d1e1c"/><rect x="57.462" y="151.314" width="6.595" height="2.992" rx="1.445" ry="1.445" fill="#1d1e1c"/><rect x="113.147" y="115.368" width="4.917" height="3.097" fill="#1d1e1c"/><rect x="92.171" y="91.033" width="4.917" height="3.097" fill="#1d1e1c"/><rect x="62.51" y="96.514" width="11.353" height="3.097" fill="#1d1e1c"/><rect x="120.868" y="96.514" width="11.353" height="3.097" fill="#1d1e1c"/><rect x="123.469" y="105.369" width="4.917" height="4.236" fill="#1d1e1c"/><rect x="64.969" y="105.369" width="4.917" height="4.236" fill="#1d1e1c"/><path d="M123.469,150.117h15.712A1.819,1.819,0,0,1,141,151.935v1.749a1.819,1.819,0,0,1-1.819,1.819H123.469a0,0,0,0,1,0,0v-5.386a0,0,0,0,1,0,0Z" fill="#1d1e1c"/><rect x="58.482" y="118" width="9.059" height="7.805" fill="#f6b7a0"/><rect x="126.239" y="118" width="9.059" height="7.805" fill="#f6b7a0"/></svg>