<svg id="Layer_1" data-name="Layer 1" xmlns="http://www.w3.org/2000/svg" xmlns:xlink="http://www.w3.org/1999/xlink" viewBox="0 0 203.826 195.02"><defs><clipPath id="clip-path"><path id="_Clipping_Path_" data-name="&lt;Clipping Path&gt;" d="M158.181,171.1h0a191.7,191.7,0,0,1-124.961,0h0V102.184H158.181Z" fill="#ffcf14"/></clipPath><clipPath id="clip-path-2"><path id="_Clipping_Path_2" data-name="&lt;Clipping Path&gt;" d="M138.665,101.468h0a132.739,132.739,0,0,1-86.534,0h0V53.743h86.535Z" fill="#ffcf14"/></clipPath><clipPath id="clip-path-3"><path id="_Clipping_Path_3" data-name="&lt;Clipping Path&gt;" d="M122.071,51.813h0a79.525,79.525,0,0,1-51.839,0h0V23.223h51.839Z" fill="#ffcf14"/></clipPath></defs><title>Jam_Birthday_Assets</title><path id="_Clipping_Path_4" data-name="&lt;Clipping Path&gt;" d="M158.181,171.1h0a191.7,191.7,0,0,1-124.961,0h0V102.184H158.181Z" fill="#ffcf14"/><g clip-path="url(#clip-path)"><path d="M23.1,132.306c.595-1.072,5.463.387,6.434.688a18.969,18.969,0,0,1,7.247,4.246c3.56,3.28,6.818,7.079,11.761,8.2,5.423,1.225,10.786-.886,15.562-3.279,5.2-2.606,10.2-5.556,15.885-2.541,4.523,2.4,8.312,5.575,13.45,6.692a26.306,26.306,0,0,0,15.313-1.182c4.654-1.855,8.425-6.3,13.382-7.237,4.77-.9,9.716,1.223,14.274,2.354,5.642,1.4,11.169,1.778,16.6-.623,5.751-2.543,10.758-8.1,17.473-7.38,4.95.528,4.912-7.22,0-7.745-6.051-.646-11.173,2.425-16.1,5.524-5.178,3.258-9.386,4.323-15.379,2.886-5.014-1.2-10.078-3.147-15.316-2.938-5.5.219-9.429,2.941-13.869,5.852a18.683,18.683,0,0,1-16.582,2.4c-5.084-1.764-8.928-6-14.243-7.318-5.627-1.394-10.994.642-15.98,3.127-5.531,2.755-11.36,6.243-16.817,1.507-4.688-4.068-8.455-8.116-14.6-10.008-4.9-1.508-12.246-2.417-15.179,2.871-2.419,4.363,4.267,8.273,6.687,3.909Z" fill="#fff"/><path d="M23.1,153.99c.595-1.072,5.463.387,6.434.688a18.969,18.969,0,0,1,7.247,4.246c3.56,3.28,6.818,7.079,11.761,8.2,5.423,1.226,10.786-.886,15.562-3.279,5.2-2.606,10.2-5.556,15.885-2.541,4.523,2.4,8.312,5.575,13.45,6.693a26.314,26.314,0,0,0,15.313-1.183c4.654-1.854,8.425-6.3,13.382-7.237,4.77-.9,9.716,1.223,14.274,2.355,5.642,1.4,11.169,1.777,16.6-.624,5.751-2.543,10.758-8.1,17.473-7.38,4.95.529,4.912-7.22,0-7.745-6.051-.646-11.173,2.425-16.1,5.524-5.178,3.258-9.386,4.323-15.379,2.886-5.014-1.2-10.078-3.147-15.316-2.938-5.5.22-9.429,2.941-13.869,5.852a18.677,18.677,0,0,1-16.582,2.4c-5.084-1.764-8.928-6-14.243-7.318-5.627-1.394-10.994.643-15.98,3.127-5.531,2.756-11.36,6.243-16.817,1.507-4.688-4.068-8.455-8.116-14.6-10.008-4.9-1.508-12.246-2.417-15.179,2.872-2.419,4.362,4.267,8.272,6.687,3.908Z" fill="#fff"/></g><ellipse cx="95.7" cy="102.184" rx="62.481" ry="19.825" fill="#1d1d1b"/><path id="_Clipping_Path_5" data-name="&lt;Clipping Path&gt;" d="M138.665,101.468h0a132.739,132.739,0,0,1-86.534,0h0V53.743h86.535Z" fill="#ffcf14"/><g clip-path="url(#clip-path-2)"><path d="M23.1,79.644c.595-1.071,5.463.387,6.434.688a18.982,18.982,0,0,1,7.247,4.246c3.56,3.28,6.818,7.079,11.761,8.2C53.962,94,59.325,91.889,64.1,89.5c5.2-2.606,10.2-5.555,15.885-2.541,4.523,2.4,8.312,5.575,13.45,6.693a26.322,26.322,0,0,0,15.313-1.182c4.654-1.855,8.425-6.3,13.382-7.237,4.77-.9,9.716,1.223,14.274,2.354,5.642,1.4,11.169,1.778,16.6-.624,5.751-2.543,10.758-8.1,17.473-7.38,4.95.529,4.912-7.22,0-7.744-6.051-.647-11.173,2.424-16.1,5.523-5.178,3.258-9.386,4.324-15.379,2.886-5.014-1.2-10.078-3.147-15.316-2.938-5.5.22-9.429,2.941-13.869,5.853a18.683,18.683,0,0,1-16.582,2.4c-5.084-1.764-8.928-6-14.243-7.319-5.627-1.394-10.994.643-15.98,3.127-5.531,2.756-11.36,6.243-16.817,1.507-4.688-4.068-8.455-8.115-14.6-10.007-4.9-1.509-12.246-2.418-15.179,2.871-2.419,4.362,4.267,8.272,6.687,3.908Z" fill="#fff"/></g><ellipse cx="95.398" cy="53.743" rx="43.268" ry="13.729" fill="#1d1d1b"/><path id="_Clipping_Path_6" data-name="&lt;Clipping Path&gt;" d="M122.071,51.813h0a79.525,79.525,0,0,1-51.839,0h0V23.223h51.839Z" fill="#ffcf14"/><g clip-path="url(#clip-path-3)"><path d="M24.646,36.276c.595-1.072,5.463.387,6.433.688a18.965,18.965,0,0,1,7.248,4.246c3.56,3.28,6.817,7.079,11.761,8.2,5.423,1.225,10.786-.886,15.562-3.279,5.2-2.606,10.2-5.556,15.885-2.541,4.522,2.4,8.312,5.574,13.449,6.692A26.316,26.316,0,0,0,110.3,49.1c4.654-1.855,8.425-6.3,13.382-7.237,4.77-.9,9.716,1.223,14.274,2.354,5.642,1.4,11.169,1.778,16.6-.623,5.751-2.543,10.758-8.1,17.473-7.38,4.95.528,4.912-7.22,0-7.745-6.051-.646-11.173,2.425-16.1,5.524-5.178,3.258-9.386,4.323-15.379,2.886-5.014-1.2-10.078-3.147-15.316-2.938-5.5.219-9.429,2.941-13.869,5.852a18.683,18.683,0,0,1-16.582,2.4c-5.085-1.764-8.928-6-14.243-7.318-5.627-1.394-10.994.642-15.98,3.127C59.025,40.752,53.2,44.24,47.74,39.5c-4.688-4.069-8.456-8.116-14.6-10.008-4.9-1.508-12.246-2.417-15.179,2.871-2.419,4.362,4.267,8.273,6.687,3.909Z" fill="#fff"/></g><ellipse cx="96.151" cy="23.223" rx="25.919" ry="8.224" fill="#1d1d1b"/><circle cx="94.853" cy="15.961" r="1.298" fill="#fff"/><circle cx="87.657" cy="16.212" r="1.298" fill="#fff"/><circle cx="103.017" cy="16.212" r="1.298" fill="#fff"/><circle cx="95.398" cy="28.101" r="2.047" fill="#fff"/><circle cx="105.416" cy="26.552" r="2.047" fill="#fff"/><circle cx="115.433" cy="23.589" r="2.047" fill="#fff"/><circle cx="85.037" cy="26.552" r="2.047" fill="#fff"/><circle cx="75.309" cy="23.223" r="2.047" fill="#fff"/><circle cx="79.228" cy="17.955" r="1.427" fill="#fff"/><circle cx="111.432" cy="17.955" r="1.427" fill="#fff"/><rect x="82.989" y="14.663" width="1.732" height="6.879" fill="#fff"/><rect x="91.218" y="17.737" width="1.822" height="6.879" fill="#fff"/><rect x="106.55" y="15.942" width="1.825" height="6.879" fill="#fff"/><rect x="97.868" y="12.773" width="1.801" height="6.879" fill="#fff"/><path d="M85.588,12.3c.319,1.548-.745,2.861-1.665,2.861A2.108,2.108,0,0,1,82.258,12.3a9.141,9.141,0,0,0,.913-2.86S85.32,11,85.588,12.3Z" fill="#f46eab"/><path d="M93.862,15.942c.319,1.547-.745,2.861-1.665,2.861a2.109,2.109,0,0,1-1.666-2.861,9.136,9.136,0,0,0,.914-2.86S93.594,14.639,93.862,15.942Z" fill="#f46eab"/><path d="M100.614,10.953c.319,1.548-.746,2.861-1.666,2.861a2.108,2.108,0,0,1-1.665-2.861,9.109,9.109,0,0,0,.913-2.86S100.345,9.651,100.614,10.953Z" fill="#f46eab"/><path d="M109.2,14.205c.319,1.547-.746,2.86-1.665,2.86a2.108,2.108,0,0,1-1.666-2.86,9.137,9.137,0,0,0,.914-2.861S108.927,12.9,109.2,14.205Z" fill="#f46eab"/><circle cx="93.92" cy="63.177" r="2.047" fill="#fff"/><circle cx="106.55" cy="62.678" r="2.047" fill="#fff"/><circle cx="116.712" cy="61.129" r="2.047" fill="#fff"/><circle cx="82.989" cy="62.678" r="2.047" fill="#fff"/><circle cx="72.494" cy="60.631" r="2.047" fill="#fff"/><circle cx="63.781" cy="58.086" r="2.047" fill="#fff"/><circle cx="126.58" cy="58.584" r="2.047" fill="#fff"/><circle cx="57.586" cy="52.887" r="2.047" fill="#fff"/><circle cx="95.552" cy="48.475" r="1.851" fill="#fff"/><circle cx="64.514" cy="48.792" r="2.047" fill="#fff"/><circle cx="126.58" cy="48.792" r="2.047" fill="#fff"/><circle cx="76.343" cy="116.594" r="2.047" fill="#fff"/><circle cx="86.11" cy="117.562" r="2.047" fill="#fff"/><circle cx="95.876" cy="117.562" r="2.047" fill="#fff"/><circle cx="66.327" cy="114.547" r="2.047" fill="#fff"/><circle cx="55.538" cy="112.002" r="2.047" fill="#fff"/><circle cx="46.121" cy="108.717" r="2.047" fill="#fff"/><circle cx="39.827" cy="102.184" r="2.047" fill="#fff"/><circle cx="46.562" cy="95.398" r="2.047" fill="#fff"/><circle cx="115.41" cy="116.594" r="2.047" fill="#fff"/><circle cx="105.643" cy="117.562" r="2.047" fill="#fff"/><circle cx="95.876" cy="117.562" r="2.047" fill="#fff"/><circle cx="125.426" cy="114.547" r="2.047" fill="#fff"/><circle cx="135.903" cy="111.659" r="1.851" fill="#fff"/><circle cx="144.417" cy="108.69" r="1.851" fill="#fff"/><circle cx="150.109" cy="102.782" r="1.851" fill="#fff"/><circle cx="144.019" cy="96.647" r="1.851" fill="#fff"/></svg>