<svg id="Layer_1" data-name="Layer 1" xmlns="http://www.w3.org/2000/svg" xmlns:xlink="http://www.w3.org/1999/xlink" viewBox="0 0 203.826 195.02"><defs><clipPath id="clip-path"><circle id="_Ellipse_" data-name="&lt;Ellipse&gt;" cx="103.615" cy="123.208" r="49.356" fill="#ddc4b3"/></clipPath><clipPath id="clip-path-2"><path id="_Clipping_Path_" data-name="&lt;Clipping Path&gt;" d="M131.435,137.04a13.359,13.359,0,1,1-26.327,4.553Z"/></clipPath><clipPath id="clip-path-3"><path id="_Compound_Clipping_Path_" data-name="&lt;Compound Clipping Path&gt;" d="M163.783,78.657a15.155,15.155,0,0,0-7.227-10.7,15.177,15.177,0,0,0-25.575-10.8A15.173,15.173,0,0,0,102.529,49.5a15.157,15.157,0,0,0-24.438,5.3A15.19,15.19,0,0,0,55.332,70.218c.013.081.036.157.05.238A15.08,15.08,0,0,0,40,84.142a15.154,15.154,0,0,0-7.4,25.651A15.163,15.163,0,0,0,35.113,130.3a15.144,15.144,0,0,0,7.107,14.975c.03.333.053.666.106,1a15.191,15.191,0,1,0,24.708-14.02,15.173,15.173,0,0,0,10.807-16.25,15.16,15.16,0,0,0,15.105-9.892,15.07,15.07,0,0,0,14.477-7.711,15.094,15.094,0,0,0,16.832-.3,15.179,15.179,0,0,0,19.108-2.921,15.174,15.174,0,0,0,20.42-16.531Z" fill="#d65c18"/></clipPath><clipPath id="clip-path-4"><polygon id="_Clipping_Path_2" data-name="&lt;Clipping Path&gt;" points="65.234 84.549 65.912 26.571 113.372 68.614 65.234 84.549" fill="#489ed7"/></clipPath></defs><title>Jam_Birthday_Assets</title><circle cx="155.312" cy="98.966" r="15.191" fill="#d65c18"/><circle cx="157.424" cy="122.126" r="15.191" fill="#d65c18"/><circle cx="56.193" cy="137.613" r="11.246" fill="#edc9ab"/><circle id="_Ellipse_2" data-name="&lt;Ellipse&gt;" cx="103.615" cy="123.208" r="49.356" fill="#ddc4b3"/><g clip-path="url(#clip-path)"><circle cx="94.896" cy="124.147" r="51.529" fill="#efdbce"/></g><path id="_Clipping_Path_3" data-name="&lt;Clipping Path&gt;" d="M131.435,137.04a13.359,13.359,0,1,1-26.327,4.553Z"/><g clip-path="url(#clip-path-2)"><rect x="104.237" y="137.503" width="28.325" height="4.839" transform="translate(-23.156 23.48) rotate(-10.322)" fill="#f5f5f5"/><ellipse cx="117.082" cy="151.439" rx="6.89" ry="2.58" fill="#fcbed4"/></g><circle cx="93.125" cy="129.551" r="2.72"/><path d="M114.5,113.337l6.544,19.007a.848.848,0,0,1-.678,1.109l-7.927,1.182" fill="none" stroke="#000" stroke-linecap="round" stroke-miterlimit="10" stroke-width="1.696"/><rect x="83.862" y="111.778" width="12.753" height="3.534" transform="translate(-24.32 24.597) rotate(-13.698)" fill="#d85a13"/><rect x="129.093" y="100.81" width="12.753" height="3.534" transform="translate(-16.188 25.935) rotate(-10.322)" fill="#d85a13"/><circle cx="59.673" cy="140.755" r="9.782" fill="#e9681a"/><circle cx="131.001" cy="77.288" r="15.191" fill="#e9681a"/><circle cx="51.043" cy="105.178" r="15.191" fill="#e9681a"/><circle cx="86.185" cy="81.293" r="15.191" fill="#e9681a"/><circle cx="110.939" cy="76.001" r="15.191" fill="#e9681a"/><circle cx="93.028" cy="129.231" r="10.849" fill="none" stroke="#61c0dd" stroke-miterlimit="10" stroke-width="3.355"/><circle cx="138.921" cy="119.375" r="2.72"/><circle cx="138.823" cy="119.054" r="10.849" fill="none" stroke="#61c0dd" stroke-miterlimit="10" stroke-width="3.355"/><line x1="82.395" y1="126.943" x2="57.726" y2="125.061" fill="#eeb001" stroke="#61c0dd" stroke-miterlimit="10" stroke-width="3.392"/><line x1="127.342" y1="117.615" x2="101.824" y2="122.517" fill="#eeb001" stroke="#61c0dd" stroke-miterlimit="10" stroke-width="3.392"/><path id="_Compound_Clipping_Path_2" data-name="&lt;Compound Clipping Path&gt;" d="M163.783,78.657a15.155,15.155,0,0,0-7.227-10.7,15.177,15.177,0,0,0-25.575-10.8A15.173,15.173,0,0,0,102.529,49.5a15.157,15.157,0,0,0-24.438,5.3A15.19,15.19,0,0,0,55.332,70.218c.013.081.036.157.05.238A15.08,15.08,0,0,0,40,84.142a15.154,15.154,0,0,0-7.4,25.651A15.163,15.163,0,0,0,35.113,130.3a15.144,15.144,0,0,0,7.107,14.975c.03.333.053.666.106,1a15.191,15.191,0,1,0,24.708-14.02,15.173,15.173,0,0,0,10.807-16.25,15.16,15.16,0,0,0,15.105-9.892,15.07,15.07,0,0,0,14.477-7.711,15.094,15.094,0,0,0,16.832-.3,15.179,15.179,0,0,0,19.108-2.921,15.174,15.174,0,0,0,20.42-16.531Z" fill="#d65c18"/><g clip-path="url(#clip-path-3)"><circle cx="77.583" cy="120.21" r="68.082" fill="#e9681a"/></g><circle cx="90.764" cy="147.208" r="1.36" fill="#cead97"/><circle cx="96.051" cy="148.682" r="1.36" fill="#cead97"/><circle cx="92.012" cy="152.161" r="1.36" fill="#cead97"/><polygon id="_Clipping_Path_4" data-name="&lt;Clipping Path&gt;" points="65.234 84.549 65.912 26.571 113.372 68.614 65.234 84.549" fill="#489ed7"/><g clip-path="url(#clip-path-4)"><circle cx="81.468" cy="49.086" r="6.474" fill="#fff"/><circle cx="70.075" cy="69.859" r="6.474" fill="#fff"/><circle cx="99.816" cy="62.035" r="6.474" fill="#fff"/></g><line x1="56.841" y1="21.348" x2="76.549" y2="36.345" fill="#fff" stroke="#e6296e" stroke-miterlimit="10" stroke-width="1.318"/><line x1="74.994" y1="19.656" x2="58.397" y2="38.038" fill="#fff" stroke="#e6296e" stroke-miterlimit="10" stroke-width="1.318"/><line x1="59.63" y1="18.677" x2="73.76" y2="39.017" fill="#fff" stroke="#e6296e" stroke-miterlimit="10" stroke-width="1.318"/><line x1="77.422" y1="22.66" x2="55.969" y2="35.034" fill="#fff" stroke="#e6296e" stroke-miterlimit="10" stroke-width="1.318"/><line x1="64.552" y1="16.651" x2="68.839" y2="41.043" fill="#fff" stroke="#e6296e" stroke-miterlimit="10" stroke-width="1.318"/><line x1="79.028" y1="27.734" x2="54.363" y2="29.96" fill="#fff" stroke="#e6296e" stroke-miterlimit="10" stroke-width="1.318"/><line x1="68.815" y1="16.647" x2="64.575" y2="41.047" fill="#fff" stroke="#e6296e" stroke-miterlimit="10" stroke-width="1.318"/><line x1="78.674" y1="31.982" x2="54.716" y2="25.711" fill="#fff" stroke="#e6296e" stroke-miterlimit="10" stroke-width="1.318"/><circle cx="91.555" cy="80.048" r="14.134" fill="#e9681a"/><circle cx="110.528" cy="77.771" r="14.134" fill="#e9681a"/></svg>