<svg id="Layer_1" data-name="Layer 1" xmlns="http://www.w3.org/2000/svg" xmlns:xlink="http://www.w3.org/1999/xlink" viewBox="0 0 203.826 195.02"><defs><clipPath id="clip-path"><polyline id="_Clipping_Path_" data-name="&lt;Clipping Path&gt;" points="167.866 127.732 127.334 168.459 35.269 133.456 99.267 39.16 115.527 34.589" fill="#1d1d1b"/></clipPath></defs><title>Jam_Birthday_Assets</title><polyline id="_Clipping_Path_2" data-name="&lt;Clipping Path&gt;" points="167.866 127.732 127.334 168.459 35.269 133.456 99.267 39.16 115.527 34.589" fill="#1d1d1b"/><g clip-path="url(#clip-path)"><path d="M12.294,92.835c1.171-.944,8.115,5,9.036,6,2.869,3.1,4.249,6.908,6.187,10.575,3.455,6.538,8.709,10.366,16.13,11.039,7.845.712,18.218-3.953,25.073,1.248,2.75,2.087,4.6,5.356,6.739,8a29.747,29.747,0,0,0,30.16,10.72c4.212-.858,8.262-2.633,12.608-1.55,3.34.832,6.284,2.948,9.067,4.887,5.282,3.679,10.487,7.735,17.017,8.822,8.67,1.443,18.686-5.082,26.783-1.151,5.157,2.5,9.7-5.208,4.515-7.724-6.216-3.018-12.441-2.433-19.028-1.05-7.572,1.589-12.8,1.5-19.354-2.82-4.681-3.083-8.966-6.754-14.26-8.791-6.206-2.389-11.877-1.1-18.122.372-6.876,1.623-13.964.525-19.458-4.171-4.882-4.173-7.435-10.407-13.032-13.863-5.813-3.59-12.629-3.081-19.115-2.3-7,.846-13.816,1.469-17.644-5.526-3.48-6.359-6.083-12.27-12.14-16.695-5.172-3.778-11.931-6.827-17.488-2.346-4.482,3.615,1.883,9.909,6.326,6.326Z" fill="#fff"/></g><path d="M113.848,31.672,64.287,94.123l103.579,33.609a1.429,1.429,0,0,0,1.683-2.066L116.21,31.854A1.429,1.429,0,0,0,113.848,31.672Z" fill="#e6296e"/><circle cx="124.718" cy="65.166" r="3.698" fill="#f46eab"/><circle cx="118.186" cy="80.021" r="3.698" fill="#f46eab"/><circle cx="109.792" cy="94.85" r="3.698" fill="#f46eab"/><polygon points="65.566 92.511 35.269 133.456 31.396 129.078 93.848 40.926 113.848 31.672 65.566 92.511" fill="#e6296e"/><circle cx="109.909" cy="53.619" r="10.776" fill="#fff"/><circle cx="92.468" cy="81.835" r="10.776" fill="#fff"/></svg>