<svg id="Layer_1" data-name="Layer 1" xmlns="http://www.w3.org/2000/svg" viewBox="0 0 203.826 195.02"><title>Jam_Birthday_Assets</title><path d="M101.661,97.145l-1.395,51.19a2.508,2.508,0,0,0,1.037,2.1l.42.305a2.507,2.507,0,0,1-.185,4.184h0a2.508,2.508,0,0,0-.428,3.986l.32.3a2.506,2.506,0,0,1,.454,3.095l-1,1.707a2.51,2.51,0,0,0-.338,1.391l.323,17.264" fill="none" stroke="#b1b1b1" stroke-linecap="round" stroke-miterlimit="10" stroke-width="1.694"/><path d="M137.392,51.047c0,19.126-15.5,46.505-34.631,46.505S68.13,70.173,68.13,51.047a34.631,34.631,0,0,1,69.262,0Z" fill="#489ed7"/><polygon points="99.104 94.533 97.039 106.302 106.848 106.302 102.761 94.533 99.104 94.533" fill="#489ed7"/><path d="M84.345,70.855h0c-1.415,1.378-4.294.706-5.875-1.758a31.53,31.53,0,0,1,0-34.049c1.581-2.464,4.461-3.136,5.875-1.758h0c1.425,1.38,1.333,3.834.183,5.648a24.327,24.327,0,0,0,0,26.269C85.678,67.021,85.77,69.475,84.345,70.855Z" fill="#fff"/><circle cx="88.293" cy="28.132" r="2.89" fill="#fff"/></svg>