<svg id="Layer_1" data-name="Layer 1" xmlns="http://www.w3.org/2000/svg" xmlns:xlink="http://www.w3.org/1999/xlink" viewBox="0 0 203.826 195.02"><defs><clipPath id="clip-path"><path id="_Clipping_Path_" data-name="&lt;Clipping Path&gt;" d="M111.963,184.382l-.522.372a19.145,19.145,0,0,1-22.759-.372h0V76.6h23.281Z" fill="#1d1d1b"/></clipPath></defs><title>Jam_Birthday_Assets</title><rect x="88.682" y="76.601" width="23.28" height="107.781" fill="#1d1d1b"/><path id="_Clipping_Path_2" data-name="&lt;Clipping Path&gt;" d="M111.963,184.382l-.522.372a19.145,19.145,0,0,1-22.759-.372h0V76.6h23.281Z" fill="#1d1d1b"/><g clip-path="url(#clip-path)"><path d="M123.752,102.914A60.443,60.443,0,0,1,81.974,93.93L87.219,85.8a50.773,50.773,0,0,0,35.093,7.547Z" fill="#e6296e"/><path d="M118.329,128.136a60.447,60.447,0,0,1-41.779-8.985l5.246-8.128a50.774,50.774,0,0,0,35.092,7.546Q117.608,123.352,118.329,128.136Z" fill="#e6296e"/><path d="M117.205,153.357a60.45,60.45,0,0,1-41.779-8.984l5.245-8.129a50.778,50.778,0,0,0,35.093,7.547Q116.484,148.573,117.205,153.357Z" fill="#e6296e"/><path d="M117.514,178.578a60.446,60.446,0,0,1-41.779-8.984l5.245-8.129a50.773,50.773,0,0,0,35.093,7.547Q116.793,173.8,117.514,178.578Z" fill="#e6296e"/></g><ellipse cx="100.386" cy="77.746" rx="11.704" ry="5.445" fill="#fff"/><path d="M116.643,31.881c2.911,14.119-6.8,26.1-15.2,26.1S79.657,44.7,86.253,31.881a83.337,83.337,0,0,0,8.333-26.1S114.192,20,116.643,31.881Z" fill="#5aaee1"/><line x1="100.99" y1="54.101" x2="99.925" y2="77.462" fill="none" stroke="#b1b1b1" stroke-linecap="round" stroke-miterlimit="10" stroke-width="1.869"/><path d="M116.643,31.881c2.911,14.119-6.8,26.1-15.2,26.1S79.657,44.7,86.253,31.881a83.337,83.337,0,0,0,8.333-26.1S114.192,20,116.643,31.881Z" fill="#e6296e"/></svg>