<svg id="Layer_1" data-name="Layer 1" xmlns="http://www.w3.org/2000/svg" viewBox="0 0 203.826 195.02"><title>Jam_Birthday_Assets</title><path d="M169.944,150.456c1.452-2.739,14.241-19.328,14.241-19.328L165.248,113.9Z" fill="#1d1d1b"/><polygon points="32.164 54.085 32.164 123.956 184.185 131.128 184.185 54.085 32.164 54.085" fill="#1d1d1b"/><polygon points="32.164 54.085 17.923 69.109 40.257 72.988 32.164 54.085" fill="#1d1d1b"/><rect x="53.26" y="33.772" width="81.347" height="152.021" transform="translate(-15.849 203.716) rotate(-90)" fill="#5aaee1"/><rect x="50.958" y="97.858" width="81.347" height="23.849" transform="translate(-18.151 201.414) rotate(-90)" fill="#1d1d1b"/><rect x="17.923" y="99.467" width="152.021" height="23.639" fill="#1d1d1b"/><rect x="138.694" y="94.589" width="13.926" height="21.85" transform="translate(310.086 178.399) rotate(167.986)" fill="#fff"/><path d="M144.424,94.1c-.633-2.457-.25-3.557,1.62-5.479a8.138,8.138,0,0,0,1.358-1.529,5.95,5.95,0,0,0,.774-3.764,5.757,5.757,0,0,0-6.645-4.77c-1.146.148-1.16,1.971,0,1.82,2.669-.345,5.38,1.54,4.791,4.536-.362,1.838-2.063,2.4-3.144,3.65-1.478,1.709-1.022,4.032-.51,6.02a.911.911,0,0,0,1.756-.484Z" fill="#fff"/></svg>