<svg id="Layer_1" data-name="Layer 1" xmlns="http://www.w3.org/2000/svg" xmlns:xlink="http://www.w3.org/1999/xlink" viewBox="0 0 203.826 195.02"><defs><clipPath id="clip-path"><path id="_Clipping_Path_" data-name="&lt;Clipping Path&gt;" d="M163.476,174.978h0a191.692,191.692,0,0,1-124.962,0h0V106.06H163.476Z" fill="#489ed7"/></clipPath><clipPath id="clip-path-2"><path id="_Clipping_Path_2" data-name="&lt;Clipping Path&gt;" d="M143.96,105.345h0a132.755,132.755,0,0,1-86.535,0h0V57.619H143.96Z" fill="#489ed7"/></clipPath><clipPath id="clip-path-3"><path id="_Clipping_Path_3" data-name="&lt;Clipping Path&gt;" d="M127.365,55.69h0a79.522,79.522,0,0,1-51.838,0h0V27.1h51.838Z" fill="#489ed7"/></clipPath></defs><title>Jam_Birthday_Assets</title><path id="_Clipping_Path_4" data-name="&lt;Clipping Path&gt;" d="M163.476,174.978h0a191.692,191.692,0,0,1-124.962,0h0V106.06H163.476Z" fill="#489ed7"/><g clip-path="url(#clip-path)"><path d="M28.392,136.183c.595-1.072,5.463.387,6.433.687a18.978,18.978,0,0,1,7.248,4.246c3.56,3.28,6.817,7.079,11.761,8.2,5.423,1.225,10.785-.886,15.561-3.28,5.2-2.606,10.2-5.555,15.886-2.541,4.522,2.4,8.312,5.575,13.449,6.693A26.325,26.325,0,0,0,114.044,149c4.654-1.855,8.424-6.3,13.382-7.237,4.77-.9,9.716,1.223,14.274,2.354,5.642,1.4,11.169,1.778,16.6-.623,5.751-2.544,10.758-8.1,17.473-7.381,4.949.529,4.912-7.219,0-7.744-6.052-.647-11.174,2.424-16.1,5.524-5.177,3.257-9.386,4.323-15.378,2.885-5.014-1.2-10.078-3.147-15.316-2.938-5.5.22-9.429,2.941-13.869,5.853a18.683,18.683,0,0,1-16.582,2.4c-5.085-1.764-8.929-6-14.243-7.319-5.628-1.394-10.994.643-15.98,3.127-5.532,2.756-11.36,6.244-16.818,1.507-4.687-4.068-8.455-8.115-14.6-10.007-4.9-1.509-12.246-2.418-15.179,2.871-2.419,4.362,4.267,8.273,6.687,3.909Z" fill="#fff"/><path d="M28.392,157.867c.595-1.072,5.463.387,6.433.688a18.963,18.963,0,0,1,7.248,4.245c3.56,3.28,6.817,7.08,11.761,8.2,5.423,1.225,10.785-.886,15.561-3.279,5.2-2.606,10.2-5.556,15.886-2.541,4.522,2.4,8.312,5.574,13.449,6.692a26.325,26.325,0,0,0,15.314-1.182c4.654-1.855,8.424-6.3,13.382-7.237,4.77-.9,9.716,1.223,14.274,2.354,5.642,1.4,11.169,1.778,16.6-.623,5.751-2.543,10.758-8.1,17.473-7.381,4.949.529,4.912-7.219,0-7.744-6.052-.647-11.174,2.425-16.1,5.524-5.177,3.258-9.386,4.323-15.378,2.885-5.014-1.2-10.078-3.146-15.316-2.937-5.5.219-9.429,2.94-13.869,5.852a18.683,18.683,0,0,1-16.582,2.4c-5.085-1.764-8.929-6-14.243-7.318-5.628-1.4-10.994.642-15.98,3.126-5.532,2.756-11.36,6.244-16.818,1.507-4.687-4.068-8.455-8.115-14.6-10.007-4.9-1.509-12.246-2.418-15.179,2.871-2.419,4.362,4.267,8.273,6.687,3.909Z" fill="#fff"/></g><ellipse cx="100.995" cy="106.06" rx="62.481" ry="19.825" fill="#1d1d1b"/><path id="_Clipping_Path_5" data-name="&lt;Clipping Path&gt;" d="M143.96,105.345h0a132.755,132.755,0,0,1-86.535,0h0V57.619H143.96Z" fill="#489ed7"/><g clip-path="url(#clip-path-2)"><path d="M28.392,83.521c.595-1.072,5.463.387,6.433.688a18.963,18.963,0,0,1,7.248,4.245c3.56,3.281,6.817,7.08,11.761,8.2,5.423,1.225,10.785-.886,15.561-3.279,5.2-2.606,10.2-5.556,15.886-2.541,4.522,2.4,8.312,5.574,13.449,6.692a26.316,26.316,0,0,0,15.314-1.182c4.654-1.855,8.424-6.3,13.382-7.237,4.77-.9,9.716,1.223,14.274,2.354,5.642,1.4,11.169,1.778,16.6-.623,5.751-2.543,10.758-8.1,17.473-7.381,4.949.529,4.912-7.219,0-7.744-6.052-.646-11.174,2.425-16.1,5.524-5.177,3.258-9.386,4.323-15.378,2.886-5.014-1.2-10.078-3.147-15.316-2.938-5.5.219-9.429,2.94-13.869,5.852a18.683,18.683,0,0,1-16.582,2.4c-5.085-1.764-8.929-6-14.243-7.318-5.628-1.394-10.994.642-15.98,3.126C62.771,88,56.943,91.485,51.485,86.749c-4.687-4.069-8.455-8.116-14.6-10.008-4.9-1.508-12.246-2.417-15.179,2.871-2.419,4.362,4.267,8.273,6.687,3.909Z" fill="#fff"/></g><ellipse cx="100.693" cy="57.619" rx="43.268" ry="13.729" fill="#1d1d1b"/><path id="_Clipping_Path_6" data-name="&lt;Clipping Path&gt;" d="M127.365,55.69h0a79.522,79.522,0,0,1-51.838,0h0V27.1h51.838Z" fill="#489ed7"/><g clip-path="url(#clip-path-3)"><path d="M29.941,40.152c.594-1.071,5.462.387,6.433.688a18.982,18.982,0,0,1,7.247,4.246c3.561,3.28,6.818,7.079,11.762,8.2C60.806,54.508,66.168,52.4,70.944,50c5.2-2.606,10.2-5.555,15.886-2.541,4.522,2.4,8.312,5.575,13.449,6.693a26.325,26.325,0,0,0,15.314-1.182c4.654-1.855,8.424-6.3,13.382-7.237,4.77-.9,9.716,1.223,14.274,2.354,5.642,1.4,11.168,1.778,16.6-.623,5.751-2.544,10.758-8.1,17.473-7.381,4.949.529,4.912-7.22,0-7.744-6.052-.647-11.174,2.424-16.1,5.524-5.177,3.257-9.386,4.323-15.379,2.885-5.014-1.2-10.077-3.147-15.315-2.938-5.5.22-9.429,2.941-13.869,5.853a18.683,18.683,0,0,1-16.582,2.4c-5.085-1.764-8.929-6-14.243-7.319-5.628-1.394-10.994.643-15.98,3.127-5.532,2.756-11.36,6.243-16.818,1.507-4.687-4.068-8.455-8.115-14.6-10.007-4.9-1.509-12.246-2.418-15.179,2.871-2.419,4.362,4.267,8.273,6.687,3.908Z" fill="#fff"/></g><ellipse cx="101.446" cy="27.1" rx="25.919" ry="8.224" fill="#1d1d1b"/><circle cx="100.148" cy="19.838" r="1.298" fill="#fff"/><circle cx="92.952" cy="20.089" r="1.298" fill="#fff"/><circle cx="108.312" cy="20.089" r="1.298" fill="#fff"/><circle cx="100.693" cy="31.977" r="2.047" fill="#fff"/><circle cx="110.71" cy="30.428" r="2.047" fill="#fff"/><circle cx="120.728" cy="27.466" r="2.047" fill="#fff"/><circle cx="90.331" cy="30.428" r="2.047" fill="#fff"/><circle cx="80.604" cy="27.1" r="2.047" fill="#fff"/><circle cx="84.523" cy="21.831" r="1.427" fill="#fff"/><circle cx="116.726" cy="21.831" r="1.427" fill="#fff"/><rect x="88.284" y="18.54" width="1.732" height="6.879" fill="#fff"/><rect x="96.513" y="21.613" width="1.822" height="6.879" fill="#fff"/><rect x="111.845" y="19.819" width="1.825" height="6.879" fill="#fff"/><rect x="103.162" y="16.649" width="1.801" height="6.879" fill="#fff"/><path d="M90.883,16.18c.319,1.547-.745,2.86-1.665,2.86a2.107,2.107,0,0,1-1.665-2.86,9.15,9.15,0,0,0,.913-2.861S90.615,14.877,90.883,16.18Z" fill="#f46eab"/><path d="M99.157,19.819c.319,1.547-.746,2.86-1.666,2.86a2.108,2.108,0,0,1-1.665-2.86,9.118,9.118,0,0,0,.913-2.861S98.888,18.516,99.157,19.819Z" fill="#f46eab"/><path d="M105.908,14.83c.319,1.547-.745,2.86-1.665,2.86a2.107,2.107,0,0,1-1.665-2.86,9.15,9.15,0,0,0,.913-2.861S105.64,13.527,105.908,14.83Z" fill="#f46eab"/><path d="M114.491,18.081c.319,1.548-.746,2.861-1.666,2.861a2.108,2.108,0,0,1-1.665-2.861,9.109,9.109,0,0,0,.913-2.86S114.222,16.779,114.491,18.081Z" fill="#f46eab"/><circle cx="99.215" cy="67.053" r="2.047" fill="#fff"/><circle cx="111.845" cy="66.555" r="2.047" fill="#fff"/><circle cx="122.006" cy="65.006" r="2.047" fill="#fff"/><circle cx="88.284" cy="66.555" r="2.047" fill="#fff"/><circle cx="77.788" cy="64.508" r="2.047" fill="#fff"/><circle cx="69.076" cy="61.962" r="2.047" fill="#fff"/><circle cx="131.875" cy="62.46" r="2.047" fill="#fff"/><circle cx="62.88" cy="56.763" r="2.047" fill="#fff"/><circle cx="138.153" cy="56.763" r="2.047" fill="#fff"/><circle cx="69.809" cy="52.669" r="2.047" fill="#fff"/><circle cx="131.875" cy="52.669" r="2.047" fill="#fff"/><circle cx="81.638" cy="120.471" r="2.047" fill="#fff"/><circle cx="91.404" cy="121.439" r="2.047" fill="#fff"/><circle cx="101.171" cy="121.439" r="2.047" fill="#fff"/><circle cx="71.621" cy="118.424" r="2.047" fill="#fff"/><circle cx="60.833" cy="115.878" r="2.047" fill="#fff"/><circle cx="51.416" cy="112.594" r="2.047" fill="#fff"/><circle cx="45.122" cy="106.06" r="2.047" fill="#fff"/><circle cx="51.856" cy="99.275" r="2.047" fill="#fff"/><circle cx="120.704" cy="120.471" r="2.047" fill="#fff"/><circle cx="110.938" cy="121.439" r="2.047" fill="#fff"/><circle cx="101.171" cy="121.439" r="2.047" fill="#fff"/><circle cx="130.721" cy="118.424" r="2.047" fill="#fff"/><circle cx="141.509" cy="115.878" r="2.047" fill="#fff"/><circle cx="150.926" cy="112.594" r="2.047" fill="#fff"/><circle cx="157.221" cy="106.06" r="2.047" fill="#fff"/><circle cx="150.486" cy="99.275" r="2.047" fill="#fff"/></svg>