<svg id="Layer_1" data-name="Layer 1" xmlns="http://www.w3.org/2000/svg" viewBox="0 0 203.826 195.02"><title>Jam_Birthday_Assets</title><path d="M97.1,96.138l-1.4,51.189a2.51,2.51,0,0,0,1.037,2.1l.42.3a2.508,2.508,0,0,1-.185,4.185h0a2.508,2.508,0,0,0-.428,3.986l.32.3a2.506,2.506,0,0,1,.454,3.095l-1,1.707a2.513,2.513,0,0,0-.338,1.392l.323,17.264" fill="none" stroke="#b1b1b1" stroke-linecap="round" stroke-miterlimit="10" stroke-width="1.694"/><path d="M132.827,50.039c0,19.126-15.5,46.505-34.631,46.505s-34.631-27.379-34.631-46.5a34.631,34.631,0,0,1,69.262,0Z" fill="#ffcf14"/><polygon points="94.539 93.526 92.474 105.295 102.283 105.295 98.196 93.526 94.539 93.526" fill="#ffcf14"/><path d="M79.78,69.847h0c-1.415,1.379-4.294.706-5.875-1.758a31.528,31.528,0,0,1,0-34.048c1.581-2.464,4.461-3.137,5.875-1.758h0c1.425,1.379,1.333,3.833.183,5.647a24.329,24.329,0,0,0,0,26.27C81.113,66.014,81.205,68.468,79.78,69.847Z" fill="#fff"/><circle cx="83.728" cy="27.125" r="2.89" fill="#fff"/></svg>