<svg xmlns="http://www.w3.org/2000/svg" xmlns:xlink="http://www.w3.org/1999/xlink" viewBox="0 0 595.28 841.89"><defs><style>.cls-1{fill:#aeafae;}.cls-2{fill:#5e3633;}.cls-3,.cls-34{fill:#e72b6f;}.cls-4{fill:#d3a685;}.cls-5{fill:#232323;}.cls-6{fill:#010101;}.cls-7{fill:#ecd2bf;}.cls-8{fill:#edb109;}.cls-108,.cls-9{fill:#1e1e1c;}.cls-10{fill:#219388;}.cls-103,.cls-104,.cls-11,.cls-23,.cls-33,.cls-49,.cls-65,.cls-78,.cls-96,.cls-97{fill:#fff;}.cls-12{fill:#4eac33;}.cls-13{fill:#d6d6d6;}.cls-14{fill:#1e1f1d;}.cls-15{fill:#f6a22e;}.cls-16{clip-path:url(#clip-path);}.cls-17{fill:#2e2e2e;}.cls-18{fill:#d6d7d7;}.cls-19{fill:#b0b0af;}.cls-20{fill:#98134d;}.cls-100,.cls-105,.cls-21,.cls-31,.cls-32,.cls-62,.cls-71,.cls-77,.cls-84,.cls-94{fill:none;}.cls-21{stroke:#b0b0b0;stroke-width:0.92px;}.cls-100,.cls-105,.cls-21,.cls-32,.cls-33,.cls-34,.cls-62,.cls-71,.cls-94{stroke-linecap:round;}.cls-100,.cls-103,.cls-104,.cls-105,.cls-108,.cls-21,.cls-31,.cls-32,.cls-33,.cls-34,.cls-44,.cls-46,.cls-48,.cls-62,.cls-65,.cls-71,.cls-77,.cls-78,.cls-84,.cls-94,.cls-96,.cls-97{stroke-miterlimit:10;}.cls-22{fill:#5dacdf;}.cls-23{font-size:25.95px;}.cls-23,.cls-49{font-family:Rubik-Bold, Rubik;font-weight:700;}.cls-24{letter-spacing:-0.02em;}.cls-25{letter-spacing:-0.03em;}.cls-26{letter-spacing:-0.03em;}.cls-27{letter-spacing:-0.03em;}.cls-28{letter-spacing:0em;}.cls-29{fill:#ffd01c;}.cls-30{fill:#4b9dd6;}.cls-103,.cls-31,.cls-32,.cls-33,.cls-34,.cls-77,.cls-96{stroke:#fff;}.cls-31,.cls-32,.cls-33,.cls-34{stroke-width:1.24px;}.cls-35{font-size:26.93px;fill:#010202;font-family:Rubik-Medium, Rubik;}.cls-36{letter-spacing:-0.03em;}.cls-37{letter-spacing:-0.02em;}.cls-38{letter-spacing:0em;}.cls-39{letter-spacing:-0.03em;}.cls-40{fill:#52ac32;}.cls-41{fill:#e84628;}.cls-42{fill:#e94880;}.cls-43,.cls-44{fill:#84c6ee;}.cls-44{stroke:#84c6ee;}.cls-44,.cls-46,.cls-48{stroke-width:0.31px;}.cls-45,.cls-46{fill:#ec70a7;}.cls-46{stroke:#ec70a7;}.cls-47,.cls-48{fill:#ffe7a0;}.cls-48{stroke:#ffe7a0;}.cls-49{font-size:8.46px;}.cls-50{letter-spacing:0em;}.cls-51{letter-spacing:-0.01em;}.cls-52{letter-spacing:-0.01em;}.cls-53{fill:#a8144d;}.cls-54{fill:#28141e;}.cls-55{fill:#4a2927;}.cls-56{fill:#784a44;}.cls-57{clip-path:url(#clip-path-2);}.cls-58{fill:#80534a;}.cls-59{clip-path:url(#clip-path-3);}.cls-60{fill:#f5f5f5;}.cls-61{fill:#f6bdd3;}.cls-100,.cls-105,.cls-62,.cls-71,.cls-94{stroke:#010101;}.cls-62{stroke-width:1.16px;}.cls-63{fill:#5c342f;}.cls-64{clip-path:url(#clip-path-4);}.cls-65{stroke:#4a9ed8;stroke-width:0.92px;}.cls-66{fill:#ddc0b1;}.cls-67{fill:#eed2c0;}.cls-68{clip-path:url(#clip-path-5);}.cls-69{fill:#f6e0d1;}.cls-70{fill:#f4bec6;}.cls-71{stroke-width:1.17px;}.cls-72{fill:#2eb1aa;}.cls-73{clip-path:url(#clip-path-6);}.cls-74{fill:#e25197;}.cls-75{clip-path:url(#clip-path-7);}.cls-76{clip-path:url(#clip-path-8);}.cls-77{stroke-width:1.35px;}.cls-78,.cls-97{stroke:#edb109;}.cls-78{stroke-width:0.9px;}.cls-79{fill:#ddc4b2;}.cls-80{clip-path:url(#clip-path-9);}.cls-81{clip-path:url(#clip-path-10);}.cls-82{clip-path:url(#clip-path-11);}.cls-83{fill:#ffd019;}.cls-108,.cls-84{stroke:#1e1e1c;}.cls-84{stroke-width:1.36px;}.cls-85{fill:#4a9ed8;}.cls-86{fill:#1b1b1b;}.cls-87{fill:#d8b193;}.cls-88{fill:#edc9ab;}.cls-89{clip-path:url(#clip-path-12);}.cls-90{fill:#e8c5a7;}.cls-91{clip-path:url(#clip-path-13);}.cls-92{clip-path:url(#clip-path-14);}.cls-93{fill:#e0a309;}.cls-94{stroke-width:1.23px;}.cls-95{clip-path:url(#clip-path-15);}.cls-96{stroke-width:1.21px;}.cls-97{stroke-width:0.96px;}.cls-98{clip-path:url(#clip-path-16);}.cls-99{fill:#bf9a80;}.cls-100{stroke-width:0.86px;}.cls-101{clip-path:url(#clip-path-17);}.cls-102{clip-path:url(#clip-path-18);}.cls-103{stroke-width:0.77px;}.cls-104{stroke:#e72b6f;stroke-width:0.61px;}.cls-105{stroke-width:0.93px;}.cls-106{clip-path:url(#clip-path-19);}.cls-107{clip-path:url(#clip-path-20);}.cls-108{stroke-width:2.41px;}.cls-109{fill:#e84728;}.cls-110{clip-path:url(#clip-path-21);}</style><clipPath id="clip-path"><path id="_Clipping_Path_" data-name="&lt;Clipping Path&gt;" class="cls-1" d="M166.9,111.58l-8.91-1a1.26,1.26,0,0,1-1.13-1.4l.21-2,.14-1.28a1.27,1.27,0,0,1,1.41-1.13l8.91,1Z"/></clipPath><clipPath id="clip-path-2"><circle id="_Ellipse_" data-name="&lt;Ellipse&gt;" class="cls-2" cx="150.91" cy="241.99" r="33.74"/></clipPath><clipPath id="clip-path-3"><path id="_Clipping_Path_2" data-name="&lt;Clipping Path&gt;" class="cls-6" d="M169.93,251.45a9.13,9.13,0,0,1-18,3.11Z"/></clipPath><clipPath id="clip-path-4"><polygon id="_Clipping_Path_3" data-name="&lt;Clipping Path&gt;" class="cls-8" points="103.3 202.07 99.7 161.82 135.56 187.65 103.3 202.07"/></clipPath><clipPath id="clip-path-5"><circle id="_Ellipse_2" data-name="&lt;Ellipse&gt;" class="cls-7" cx="58.22" cy="88.55" r="34.11"/></clipPath><clipPath id="clip-path-6"><path id="_Clipping_Path_4" data-name="&lt;Clipping Path&gt;" class="cls-10" d="M35.23,86.31c2.73-.44,9.65-2.41,10.53-11.23a.53.53,0,0,1,.65-.47l10.64,2.76a.51.51,0,0,0,.64-.57l-1.81-7.35c0-.3,5.8,1.7,6,1.88l6.76,1.81a.52.52,0,0,0,.8-.25l3.63-10.41a.94.94,0,0,1,.83-.62l6.17-.36a.7.7,0,0,0,.66-.84c-.39-2.07-2-7.55-7.73-9.15a.47.47,0,0,1-.34-.57l1.61-6.47a.29.29,0,0,0-.45-.31l-4.34,2.89s-25.88-5.41-46,13.16c-.22.2-.42.4-.62.61A11.68,11.68,0,0,0,24,77.52l9.4,8.26A2.23,2.23,0,0,0,35.23,86.31Z"/></clipPath><clipPath id="clip-path-7"><path id="_Clipping_Path_5" data-name="&lt;Clipping Path&gt;" class="cls-6" d="M77.45,98.11a9.23,9.23,0,1,1-18.2,3.14Z"/></clipPath><clipPath id="clip-path-8"><polygon id="_Clipping_Path_6" data-name="&lt;Clipping Path&gt;" class="cls-3" points="30.53 60.94 31 21.14 63.58 50 30.53 60.94"/></clipPath><clipPath id="clip-path-9"><path id="_Clipping_Path_7" data-name="&lt;Clipping Path&gt;" class="cls-3" d="M519.81,100.87h0a124.79,124.79,0,0,1-77.47,24.72h0L428.7,82.86l77.48-24.72Z"/></clipPath><clipPath id="clip-path-10"><path id="_Clipping_Path_8" data-name="&lt;Clipping Path&gt;" class="cls-3" d="M493.94,61.55h0a86.37,86.37,0,0,1-53.65,17.12h0l-9.44-29.59L484.5,32Z"/></clipPath><clipPath id="clip-path-11"><path id="_Clipping_Path_9" data-name="&lt;Clipping Path&gt;" class="cls-3" d="M473.83,34.05h0a51.82,51.82,0,0,1-32.14,10.26h0L436,26.58l32.14-10.25Z"/></clipPath><clipPath id="clip-path-12"><circle id="_Ellipse_3" data-name="&lt;Ellipse&gt;" class="cls-4" cx="478.45" cy="246.98" r="35.81"/></clipPath><clipPath id="clip-path-13"><path id="_Clipping_Path_10" data-name="&lt;Clipping Path&gt;" class="cls-5" d="M511.81,249.67s-8.76,3.35-20-17.28c0,0-23.13,10.47-47.9,3.2l-3.26-27.88,30.45-20.44,41.18,15,16.06,43.18Z"/></clipPath><clipPath id="clip-path-14"><path id="_Clipping_Path_11" data-name="&lt;Clipping Path&gt;" class="cls-6" d="M458.27,257a9.69,9.69,0,1,0,19.1,3.31Z"/></clipPath><clipPath id="clip-path-15"><polygon id="_Clipping_Path_12" data-name="&lt;Clipping Path&gt;" class="cls-3" points="500.92 224.56 493.26 183.18 464.53 219.12 500.92 224.56"/></clipPath><clipPath id="clip-path-16"><circle id="_Ellipse_4" data-name="&lt;Ellipse&gt;" class="cls-7" cx="546.16" cy="52.36" r="25"/></clipPath><clipPath id="clip-path-17"><path id="_Clipping_Path_13" data-name="&lt;Clipping Path&gt;" class="cls-6" d="M531.66,59.77A6.77,6.77,0,0,0,545,62.07Z"/></clipPath><clipPath id="clip-path-18"><polygon id="_Clipping_Path_14" data-name="&lt;Clipping Path&gt;" class="cls-8" points="561.9 38.91 559.3 12.16 539.04 33.44 561.9 38.91"/></clipPath><clipPath id="clip-path-19"><polyline id="_Clipping_Path_15" data-name="&lt;Clipping Path&gt;" class="cls-9" points="69.62 238.38 76.18 262.5 43.01 289.62 21.34 245.03 23.14 237.91"/></clipPath><clipPath id="clip-path-20"><polygon id="_Clipping_Path_16" data-name="&lt;Clipping Path&gt;" class="cls-9" points="134.81 22.55 100.13 54.74 147.1 60.26 134.81 22.55"/></clipPath><clipPath id="clip-path-21"><polyline id="_Clipping_Path_17" data-name="&lt;Clipping Path&gt;" class="cls-9" points="580.5 95.94 578.98 113.08 551.09 122.65 547.76 88.7 550.63 84.54"/></clipPath></defs><title>Birthday Birthday Poster v1</title><g id="Background"><rect class="cls-11" x="-8.5" y="-8.5" width="612.29" height="858.9"/></g><g id="Artwork"><rect class="cls-12" x="118.01" y="80.12" width="47.52" height="69.56" rx="6.02" ry="6.02" transform="translate(13.06 -14.46) rotate(6.12)"/><rect class="cls-13" x="151.9" y="76.37" width="13.51" height="19.22" rx="2.9" ry="2.9" transform="translate(10.07 -16.42) rotate(6.12)"/><rect class="cls-13" x="138.68" y="74.77" width="10.21" height="16.75" rx="2.35" ry="2.35" transform="translate(9.68 -14.86) rotate(6.12)"/><rect class="cls-13" x="125.72" y="73.74" width="10.21" height="16.75" rx="2.35" ry="2.35" transform="translate(9.5 -13.48) rotate(6.12)"/><rect class="cls-14" x="137.88" y="122.89" width="11.57" height="11.57" rx="2.56" ry="2.56" transform="translate(14.54 -14.58) rotate(6.12)"/><rect class="cls-14" x="131.33" y="95.78" width="8.12" height="8.12" rx="1.3" ry="1.3" transform="translate(11.42 -13.87) rotate(6.12)"/><rect class="cls-13" x="155" y="119.66" width="10.21" height="12.92" rx="2.07" ry="2.07" transform="translate(17.64 271.87) rotate(-83.88)"/><circle class="cls-11" cx="129.53" cy="142.74" r="1.9"/><circle class="cls-11" cx="157.7" cy="147" r="1.9"/><circle class="cls-11" cx="124.71" cy="95.09" r="1.9"/><circle class="cls-11" cx="162.83" cy="99.18" r="1.9"/><rect class="cls-15" x="119.75" y="102.99" width="4.93" height="32.96" rx="1.4" ry="1.4" transform="translate(13.43 -12.35) rotate(6.12)"/><path class="cls-11" d="M125.86,127.38a.85.85,0,0,1,.11-.26c0-.23.06-.27.11-.38s.09-.3.22-.41v-.13a1.53,1.53,0,0,1,.93-.52,1.57,1.57,0,0,1-.8-.7l0-.14c-.1-.13-.21-.21-.13-.45s-.12-.17,0-.39-.13-.27,0-.44a.38.38,0,0,1,.09-.43c0-.21,0-.27.12-.32s0-.34.2-.45c0-.35.25-.43.46-.28a.28.28,0,0,1,.4.06c.12,0,.24,0,.37.15a.34.34,0,0,1,.34.2c.22,0,.32.24.36.31s.23.11.27.37c.18.06.2.22.22.37a1.6,1.6,0,0,1,1.66-.74l.14-.06a1.52,1.52,0,0,1,2.33,0,4.21,4.21,0,0,1,.67.29,1.71,1.71,0,0,1,1.24,1.21,3.62,3.62,0,0,1,.46,1.09,1.71,1.71,0,0,1,.42,1.32v0a1.77,1.77,0,0,1-.69,1.2,3.73,3.73,0,0,1-.68,1,1.72,1.72,0,0,1-1.47.93,4.38,4.38,0,0,1-.72.14,1.53,1.53,0,0,1-2.27-.53l-.12-.08a1.62,1.62,0,0,1-1.47-1.08c0,.14-.1.29-.29.32-.09.24-.22.29-.35.3s-.2.27-.41.22a.32.32,0,0,1-.37.13c-.16.11-.29.14-.4.07a.28.28,0,0,1-.41,0c-.23.1-.46,0-.38-.36a.52.52,0,0,1-.1-.49c-.06-.06-.11-.13-.06-.34a.39.39,0,0,1,0-.44.28.28,0,0,1,0-.18Zm.85.82a6.28,6.28,0,0,1,1.27-1.89c-.24-.7-1.08-.32-1.42,0,.08,0,.13,0,.14.07a2.56,2.56,0,0,0-.37.3c.06,0,.13,0,.17.07a1,1,0,0,0-.29.27c.12,0,.14,0,.19,0a1.23,1.23,0,0,0-.29.36c.07,0,.14-.11.2,0a1.25,1.25,0,0,0-.22.44c.07,0,.14-.16.19-.08a2.05,2.05,0,0,0-.15.42c.07-.07.14-.13.18-.06a.92.92,0,0,0-.1.51l.13-.1a3.07,3.07,0,0,1,0,.47,1.12,1.12,0,0,1,.38-.15s0,.12,0,.21c.2-.08.27-.23.35-.26a.22.22,0,0,1,0,.22,1.43,1.43,0,0,0,.38-.28.34.34,0,0,1,0,.2,2.18,2.18,0,0,0,.34-.34.58.58,0,0,1,0,.2,1.92,1.92,0,0,0,.32-.43.24.24,0,0,1,0,.2,1.34,1.34,0,0,0,.25-.46.2.2,0,0,1,.07.15c.12-.18.1-.45.16-.52a.22.22,0,0,1,.1.14c.05-.29.11-1.12-.49-1.35a6.77,6.77,0,0,0-1.43,1.71Zm.55-5.12a6.86,6.86,0,0,0,1,2c.64-.09.76-.91.77-1.22a.19.19,0,0,1-.13.12c0-.08,0-.34-.05-.54a.18.18,0,0,1-.09.13,1.64,1.64,0,0,0-.15-.5.25.25,0,0,1-.06.19,1.83,1.83,0,0,0-.23-.49.41.41,0,0,1,0,.2,1.71,1.71,0,0,0-.25-.4c0,.11,0,.16,0,.18a1.5,1.5,0,0,0-.31-.35.27.27,0,0,1,0,.22c-.08,0-.12-.21-.3-.32,0,.09,0,.19,0,.2a1,1,0,0,1-.34-.22,4.38,4.38,0,0,1-.06.47l-.11-.13a.92.92,0,0,0,0,.52c-.06.06-.11,0-.17-.1a2,2,0,0,0,.06.45c-.07.06-.12-.06-.17-.12a1.2,1.2,0,0,0,.12.47c-.08.07-.13,0-.18-.07a.92.92,0,0,0,.2.41s-.09.08-.19,0a.91.91,0,0,0,.22.33c-.06.08-.12,0-.19,0a4,4,0,0,0,.31.37.32.32,0,0,1-.16,0c.28.36,1,.9,1.4.27a6.35,6.35,0,0,1-.84-2.11Zm6.18,2.07a1.12,1.12,0,0,0-1.17,1,1.13,1.13,0,0,0,.94,1.27h0a1.17,1.17,0,0,0,.25-2.32Zm-3.18,1.48a1.16,1.16,0,0,0,.28,1.6,1.12,1.12,0,0,0,1.59,0h0a1.16,1.16,0,0,0-.29-1.59,1.12,1.12,0,0,0-1.58,0Zm.08-1.3a1.12,1.12,0,0,0,1.55.36,1.16,1.16,0,0,0,.61-1.49h0a1.12,1.12,0,0,0-1.55-.37,1.17,1.17,0,0,0-.61,1.5Zm2.07,4.18c.23-.4-2-1-1.9-.45A1.21,1.21,0,0,0,132.41,129.51Zm-1.28-6.45c-.2.51,2.09.41,2,0a1.22,1.22,0,0,0-2,0Zm-.37.1a1.28,1.28,0,0,0-1.5,1.46C129.28,125,131.13,123.23,130.76,123.16ZM129,127.09a1.28,1.28,0,0,0,1.16,1.75C130.49,128.85,129.06,126.77,129,127.09Zm-.09-1.25c-.07.53.27,1.08.51,1.11s.62-.36.7-1-.13-1.08-.42-1.11-.75.51-.79,1Zm5.84.58c-.06.46.06,1.19.31,1.21s.71-.49.75-1.06-.36-1.19-.57-1.2-.46.58-.49,1Zm-1.5,1.58c-.48.34-.79.8-.63,1.14s.68.33,1.24.08a1.16,1.16,0,0,0,.7-1.29c-.18-.29-.88-.22-1.31.07Zm.23-3.35c.38.4,1.11.69,1.38.45s.26-.9-.36-1.47a1.31,1.31,0,0,0-1.42-.19c-.26.28,0,.75.4,1.21Z"/><rect class="cls-13" x="158" y="137.3" width="6.46" height="5.3" rx="1.05" ry="1.05" transform="translate(4.89 285.35) rotate(-83.88)"/><path class="cls-11" d="M146.57,114.77l.1-.91a.59.59,0,0,1,.65-.53l2.09.23.85-1a1,1,0,0,1,.93-.44l10.34,1.11a1,1,0,0,1,.85.72l.42,1,2,.21a.6.6,0,0,1,.53.65l-.1.92a.59.59,0,0,1-.65.52l-17.45-1.87A.58.58,0,0,1,146.57,114.77Z"/><path class="cls-13" d="M150.22,115.57h.93a0,0,0,0,1,0,0v.9a.4.4,0,0,1-.4.4h-.13a.4.4,0,0,1-.4-.4v-.9a0,0,0,0,1,0,0Z" transform="translate(13.25 -15.4) rotate(6.12)"/><path class="cls-13" d="M151.87,115.75h.93a0,0,0,0,1,0,0v.9a.4.4,0,0,1-.4.4h-.13a.4.4,0,0,1-.4-.4v-.9A0,0,0,0,1,151.87,115.75Z" transform="translate(13.28 -15.58) rotate(6.12)"/><path class="cls-13" d="M153.52,115.92h.93a0,0,0,0,1,0,0v.9a.4.4,0,0,1-.4.4h-.13a.4.4,0,0,1-.4-.4v-.9a0,0,0,0,1,0,0Z" transform="translate(13.31 -15.75) rotate(6.12)"/><path class="cls-13" d="M155.17,116.1h.93a0,0,0,0,1,0,0v.9a.4.4,0,0,1-.4.4h-.13a.4.4,0,0,1-.4-.4v-.9A0,0,0,0,1,155.17,116.1Z" transform="translate(13.33 -15.93) rotate(6.12)"/><path class="cls-13" d="M156.82,116.28h.93a0,0,0,0,1,0,0v.9a.4.4,0,0,1-.4.4h-.13a.4.4,0,0,1-.4-.4v-.9A0,0,0,0,1,156.82,116.28Z" transform="translate(13.36 -16.1) rotate(6.12)"/><path class="cls-13" d="M158.47,116.46h.93a0,0,0,0,1,0,0v.9a.4.4,0,0,1-.4.4h-.13a.4.4,0,0,1-.4-.4v-.9a0,0,0,0,1,0,0Z" transform="translate(13.39 -16.28) rotate(6.12)"/><path class="cls-13" d="M160.12,116.63h.93a0,0,0,0,1,0,0v.9a.4.4,0,0,1-.4.4h-.13a.4.4,0,0,1-.4-.4v-.9A0,0,0,0,1,160.12,116.63Z" transform="translate(13.42 -16.45) rotate(6.12)"/><path class="cls-6" d="M149.67,114.84H162a0,0,0,0,1,0,0V116a.32.32,0,0,1-.32.32H150a.32.32,0,0,1-.32-.32v-1.19A0,0,0,0,1,149.67,114.84Z" transform="translate(298.45 247.15) rotate(-173.88)"/><path class="cls-11" d="M148.71,146.5l-.1.91a.6.6,0,0,1-.65.53l-2.09-.23-.86.95a1,1,0,0,1-.93.44L133.75,148a1,1,0,0,1-.85-.73l-.42-1-2-.21a.6.6,0,0,1-.52-.66l.1-.91a.59.59,0,0,1,.65-.53l17.44,1.87A.6.6,0,0,1,148.71,146.5Z"/><path class="cls-13" d="M144.12,144.4h.93a0,0,0,0,1,0,0v.9a.4.4,0,0,1-.4.4h-.13a.4.4,0,0,1-.4-.4v-.9A0,0,0,0,1,144.12,144.4Z" transform="translate(272.88 304.69) rotate(-173.88)"/><path class="cls-13" d="M142.47,144.22h.93a0,0,0,0,1,0,0v.9a.4.4,0,0,1-.4.4h-.13a.4.4,0,0,1-.4-.4v-.9A0,0,0,0,1,142.47,144.22Z" transform="matrix(-0.99, -0.11, 0.11, -0.99, 269.61, 304.16)"/><path class="cls-13" d="M140.82,144h.93a0,0,0,0,1,0,0v.9a.4.4,0,0,1-.4.4h-.13a.4.4,0,0,1-.4-.4V144A0,0,0,0,1,140.82,144Z" transform="translate(266.34 303.63) rotate(-173.88)"/><path class="cls-13" d="M139.17,143.87h.93a0,0,0,0,1,0,0v.9a.4.4,0,0,1-.4.4h-.13a.4.4,0,0,1-.4-.4v-.9a0,0,0,0,1,0,0Z" transform="translate(263.07 303.1) rotate(-173.88)"/><path class="cls-13" d="M137.52,143.69h.93a0,0,0,0,1,0,0v.9a.4.4,0,0,1-.4.4h-.13a.4.4,0,0,1-.4-.4v-.9A0,0,0,0,1,137.52,143.69Z" transform="translate(259.8 302.57) rotate(-173.88)"/><path class="cls-13" d="M135.87,143.52h.93a0,0,0,0,1,0,0v.9a.4.4,0,0,1-.4.4h-.13a.4.4,0,0,1-.4-.4v-.9A0,0,0,0,1,135.87,143.52Z" transform="translate(256.53 302.04) rotate(-173.88)"/><path class="cls-13" d="M134.22,143.34h.93a0,0,0,0,1,0,0v.9a.4.4,0,0,1-.4.4h-.13a.4.4,0,0,1-.4-.4v-.9A0,0,0,0,1,134.22,143.34Z" transform="translate(253.26 301.51) rotate(-173.88)"/><path class="cls-6" d="M133.28,144.91H145.6a0,0,0,0,1,0,0v1.19a.32.32,0,0,1-.32.32H133.6a.32.32,0,0,1-.32-.32v-1.19A0,0,0,0,1,133.28,144.91Z" transform="translate(16.33 -14.04) rotate(6.12)"/><rect class="cls-13" x="122.61" y="145.93" width="4.82" height="2.25" rx="0.42" ry="0.42" transform="translate(16.39 -12.49) rotate(6.12)"/><path class="cls-6" d="M166.41,106.18h2.73a.56.56,0,0,1,.56.56v4a.56.56,0,0,1-.56.56h-2.73a0,0,0,0,1,0,0v-5.11a0,0,0,0,1,0,0Z" transform="translate(12.55 -17.3) rotate(6.12)"/><path id="_Clipping_Path_18" data-name="&lt;Clipping Path&gt;" class="cls-1" d="M166.9,111.58l-8.91-1a1.26,1.26,0,0,1-1.13-1.4l.21-2,.14-1.28a1.27,1.27,0,0,1,1.41-1.13l8.91,1Z"/><g class="cls-16"><rect class="cls-17" x="156.7" y="104.59" width="6.63" height="6.63" transform="translate(35.67 255.5) rotate(-83.88)"/></g><circle class="cls-6" cx="157.99" cy="107.66" r="0.48"/><rect class="cls-18" x="158.12" y="108.79" width="0.85" height="1.5" rx="0.37" ry="0.37" transform="translate(32.72 255.5) rotate(-83.88)"/><path class="cls-19" d="M163.64,106.86l-.3,2.77-4.21-1a.49.49,0,0,1-.38-.54l.07-.69a.49.49,0,0,1,.48-.44Z"/><rect class="cls-6" x="167.22" y="105.76" width="0.14" height="5.85" transform="translate(12.54 -17.22) rotate(6.12)"/><path class="cls-20" d="M216.89,227H323.33L318,218.78l5.33-8.95H216.89a4.08,4.08,0,0,0-4.06,4.06V223A4.07,4.07,0,0,0,216.89,227Z"/><path class="cls-20" d="M390.53,187.32H284.09l5.32-8.26-5.32-8.95H390.53a4.07,4.07,0,0,1,4.05,4.06v9.1A4.06,4.06,0,0,1,390.53,187.32Z"/><path class="cls-21" d="M241.17,163v52.59a2.36,2.36,0,0,0,1,2l.4.28a2.37,2.37,0,0,1-.06,4h0a2.36,2.36,0,0,0-.3,3.78l.31.28a2.36,2.36,0,0,1,.5,2.91l-.89,1.64a2.47,2.47,0,0,0-.29,1.33l.47,5.92"/><path class="cls-21" d="M295.71,140.53,294.39,189a2.36,2.36,0,0,0,1,2l.4.29a2.36,2.36,0,0,1-.18,4h0a2.37,2.37,0,0,0-.4,3.77l.3.29a2.36,2.36,0,0,1,.43,2.92l-.94,1.62a2.44,2.44,0,0,0-.32,1.32l.3,16.33"/><path class="cls-21" d="M367.75,160.14v53.2a2.39,2.39,0,0,0,1,2l.4.27"/><rect class="cls-22" x="205.58" y="225.32" width="4.28" height="10.79" transform="translate(143.19 -72.95) rotate(30)"/><polygon class="cls-3" points="394.38 210.18 201.07 210.18 213.81 192.55 201.07 174.91 394.38 174.91 394.38 192.55 394.38 210.18"/><text class="cls-23" transform="translate(221.53 200.4)">Big Birthd<tspan class="cls-24" x="131.63" y="0">a</tspan><tspan class="cls-25" x="146.44" y="0">y</tspan></text><polygon class="cls-3" points="212.83 249.4 408.79 249.4 396.13 231.77 408.79 214.13 212.83 214.13 212.83 231.77 212.83 249.4"/><text class="cls-23" transform="translate(222.88 240.01)"><tspan class="cls-26">W</tspan><tspan x="20.76" y="0">ee</tspan><tspan class="cls-27" x="52.26" y="0">k</tspan><tspan class="cls-28" x="67.31" y="0">end</tspan></text><polygon class="cls-6" points="309.23 68.81 304.19 62.89 300.38 62.4 302.05 70.58 309.23 68.81"/><path class="cls-6" d="M297,116.46l6-49.29a2.28,2.28,0,0,1,1.83-2.24,2,2,0,0,1,1.28.24l10.36,12.24a5.94,5.94,0,0,1,1,4.63l-2.26,36"/><path class="cls-6" d="M219.28,123.73l12,2.94a2.16,2.16,0,0,1,.79.56h0a3.9,3.9,0,0,1,.76,1.19l2.74,6.72s-14.09-4.34-14-4.66S219.28,123.73,219.28,123.73Z"/><polygon class="cls-6" points="335.76 160.49 322.46 146.95 334.12 145.25 342.95 143.39 335.76 160.49"/><polygon class="cls-6" points="386.46 159.07 373.28 145.65 384.93 143.95 393.76 142.09 386.46 159.07"/><polygon class="cls-6" points="362.19 155.2 348.82 134.21 360.47 132.51 375.44 86.66 379.53 121.59 362.19 155.2"/><path class="cls-6" d="M370.05,137.74c.71,4.56,3.1,6.32,7.49,6.2,5.17-.15,7.44-2.78,7.32-7.2l-2.62-60.07a2.26,2.26,0,0,1,1.45-2.5,1.94,1.94,0,0,1,1.3,0l12.15,10.47a5.86,5.86,0,0,1,1.7,4.41l1.05,47.23"/><polygon class="cls-6" points="272.27 117.57 292.73 75.98 299.47 110.95 279.39 123.27 272.27 117.57"/><polygon class="cls-6" points="268.62 142.81 255.79 127.49 268.48 120.02 280.55 114.83 268.62 142.81"/><polygon class="cls-6" points="313.35 148.99 300.38 133.49 312.15 133.63 315.04 140.95 313.35 148.99"/><path class="cls-6" d="M219.42,138.82c-.27-1.73.48-2.74,2-2.89l10.37-1c1.38-.13,2.22.69,2.67,2.25l0,.14c1,4.49,3.55,6.08,7.92,5.65,5.14-.51,7.22-3.3,6.79-7.7L242.3,75.5a2.27,2.27,0,0,1,1.28-2.59,1.9,1.9,0,0,1,1.29,0l12.87,9.58a5.92,5.92,0,0,1,2,4.28l4.38,47c1.57,15.75-8.57,24-20.16,25.14C232.94,160,222,154.57,219.42,138.82Z"/><path class="cls-6" d="M326.24,151l-11.46-1.49a2.48,2.48,0,0,1-2.33-2.48l-1.28-9.39-22.86-3-3.63,8.76a2.48,2.48,0,0,1-2.88,1.8l-11.46-1.49c-1.68-.22-2.38-1.34-1.59-3.11l28.37-63.78a2.67,2.67,0,0,1,3-1.79L315,77a2.68,2.68,0,0,1,2.43,2.49l11.13,68.92C328.88,150.35,327.91,151.26,326.24,151ZM309,121.86l-3.8-28L294.43,120Z"/><polygon class="cls-6" points="342.09 80.26 336.9 75.77 332.38 75.4 335.28 83.13 342.09 80.26"/><path class="cls-6" d="M337.51,129.23l-1.78-49.62a2.28,2.28,0,0,1,1.45-2.5,2,2,0,0,1,1.3,0l12.15,10.47a5.89,5.89,0,0,1,1.7,4.41l3.41,36"/><path class="cls-6" d="M331.39,90.13a2.69,2.69,0,0,1,2.67-2.23l15-.42a2.65,2.65,0,0,1,2.78,2.08l21.05,64.07m-22.72-20.94-8.12-27-6.59,27.43Z"/><path class="cls-6" d="M399,97.14l1.67,59.5c.05,1.65-.77,2.59-2.28,2.64l-10.33.29c-1.5,0-2.37-.86-2.42-2.51l-.95-34.24-11.06,31.27a2.67,2.67,0,0,1-2.67,2l-6.39.18a2.67,2.67,0,0,1-2.78-1.87L349,123.82l1,34.24c.05,1.65-.77,2.6-2.28,2.64l-10.33.29c-1.5,0-2.37-.86-2.41-2.51L333.3,99c-.05-1.64.77-2.59,2.27-2.63l10.33-.29,2.26-.06a2.65,2.65,0,0,1,2.77,1.87l.82,29.26L381.36,97A2.67,2.67,0,0,1,384,95l7.61-.21,5-.14C398.12,94.6,399,95.5,399,97.14Z"/><path class="cls-3" d="M313.48,135.76,302,134.28a2.5,2.5,0,0,1-2.33-2.48l-1.27-9.39-22.86-3-3.63,8.75A2.49,2.49,0,0,1,269,130l-11.45-1.48c-1.68-.22-2.39-1.35-1.59-3.11l28.36-63.79a2.67,2.67,0,0,1,3-1.79l14.91,1.94a2.66,2.66,0,0,1,2.42,2.49l11.14,68.91C316.13,135.07,315.16,136,313.48,135.76Zm-17.21-29.18-3.79-27.95-10.8,26.06Z"/><path class="cls-29" d="M386,76.39l1.87,66.78c.05,1.65-.77,2.59-2.27,2.64l-10.33.29c-1.51,0-2.38-.86-2.42-2.51l-1.17-41.52-11.05,31.28a2.67,2.67,0,0,1-2.67,2l-6.39.18a2.67,2.67,0,0,1-2.78-1.87L336,103.07l1.16,41.52c.05,1.65-.77,2.6-2.27,2.64l-10.33.29c-1.5,0-2.38-.86-2.42-2.51l-1.87-66.78c-.05-1.64.77-2.59,2.27-2.63l10.33-.29,2.26-.06a2.65,2.65,0,0,1,2.77,1.87l16.33,39.13,14.1-40a2.67,2.67,0,0,1,2.67-2l7.6-.21,5-.14C385,73.85,385.91,74.75,386,76.39Z"/><polygon class="cls-6" points="227.4 154.27 214.55 143.45 214.64 132.75 228.27 146.93 227.4 154.27"/><path class="cls-6" d="M230.57,148.52s-.71-5.3,1.13-8.65,19.54-20.25,19.54-20.25l3,24.07-12.07,12.77Z"/><path class="cls-30" d="M206.12,127.6c-.26-1.73.49-2.73,2-2.88l10.38-1c1.4-.14,2.24.71,2.69,2.31,1,4.55,3.53,6.16,7.93,5.72,5.14-.51,7.22-3.29,6.78-7.69l-4.71-47.56c-.17-1.64.58-2.64,2.08-2.79l10.28-1c1.5-.15,2.43.69,2.59,2.33l4.72,47.55c1.57,15.75-8.57,24-20.16,25.14C219.65,148.77,208.73,143.35,206.12,127.6Z"/><ellipse class="cls-31" cx="215.81" cy="133.24" rx="2.76" ry="2.89" transform="translate(-12.1 21.96) rotate(-5.67)"/><path class="cls-32" d="M217.74,135.36l4.53,3.95a4.36,4.36,0,0,0,3.31,1.08l11.09-1.1"/><line class="cls-33" x1="242.14" y1="127.13" x2="237.62" y2="81.58"/><ellipse class="cls-31" cx="242.44" cy="130.13" rx="2.76" ry="2.89" transform="translate(-11.67 24.58) rotate(-5.67)"/><ellipse class="cls-31" cx="266.05" cy="119.13" rx="2.92" ry="2.79" transform="translate(134.93 379.47) rotate(-87.39)"/><ellipse class="cls-31" cx="307.48" cy="124.9" rx="2.92" ry="2.79" transform="translate(144.03 413.74) rotate(-82.6)"/><path class="cls-32" d="M270.42,109.44l13.93,1.81a2.37,2.37,0,0,1,1.58.93l4,5.32"/><line class="cls-32" x1="305.2" y1="113.96" x2="294.74" y2="112.6"/><ellipse class="cls-31" cx="293.55" cy="69.99" rx="2.92" ry="2.79" transform="translate(186.35 352.09) rotate(-82.6)"/><ellipse class="cls-31" cx="329.67" cy="86.2" rx="2.71" ry="2.84" transform="translate(-2.29 9.27) rotate(-1.61)"/><ellipse class="cls-31" cx="377.65" cy="85.15" rx="2.71" ry="2.84" transform="translate(-2.24 10.61) rotate(-1.61)"/><ellipse class="cls-31" cx="379.84" cy="137.62" rx="2.71" ry="2.84" transform="translate(-3.71 10.7) rotate(-1.61)"/><path class="cls-32" d="M329.73,89.57l.2,7a2.07,2.07,0,0,1-.43,1.32l-1.73,2.21a2.06,2.06,0,0,0-.42,1.32l1.11,39.68"/><path class="cls-31" d="M375.44,86.66l-4.91,3.62a3.17,3.17,0,0,0-1,1.41L357.1,123.82"/><line class="cls-34" x1="351.31" y1="123.94" x2="337.37" y2="92.68"/><ellipse class="cls-31" cx="354.2" cy="124.85" rx="2.98" ry="3.12" transform="translate(-3.36 9.97) rotate(-1.61)"/><line class="cls-34" x1="379.76" y1="134.78" x2="378.74" y2="98.46"/><path class="cls-31" d="M291,69.91l-2.69-.35a.81.81,0,0,0-.83.49l-20.7,46.87"/><path class="cls-31" d="M296,70.55l1.78.23a.8.8,0,0,1,.68.68l8,50.6"/><text class="cls-35" transform="translate(210.91 55.5) scale(0.91 1)">R<tspan class="cls-36" x="18.04" y="0" xml:space="preserve"> A</tspan><tspan x="41.74" y="0" xml:space="preserve"> S </tspan><tspan class="cls-37" x="71.47" y="0">P</tspan><tspan class="cls-38" x="88.65" y="0" xml:space="preserve"> B E R R</tspan><tspan class="cls-39" x="184.39" y="0" xml:space="preserve"> Y</tspan><tspan x="206.79" y="0"> </tspan></text><path class="cls-6" d="M241.17,164.06H238.7a.32.32,0,0,1-.28-.48l1.24-2.14,1.51-2.63,1.52,2.63,1.24,2.14a.32.32,0,0,1-.28.48Z"/><polygon class="cls-6" points="241.18 158.45 243.33 158.45 242.25 160.32 241.18 162.19 240.09 160.32 239.02 158.45 241.18 158.45"/><path class="cls-6" d="M296,141.13l-2.47-.21a.32.32,0,0,1-.24-.5l1.42-2,1.73-2.5,1.29,2.75,1.05,2.24a.32.32,0,0,1-.31.46Z"/><polygon class="cls-6" points="296.49 135.54 298.64 135.72 297.4 137.49 296.17 139.26 295.25 137.31 294.33 135.36 296.49 135.54"/><path class="cls-6" d="M367.75,161.72h-2.47a.32.32,0,0,1-.28-.49l1.24-2.14,1.51-2.63,1.52,2.63,1.24,2.14a.33.33,0,0,1-.28.49Z"/><polygon class="cls-6" points="367.75 156.1 369.91 156.1 368.83 157.97 367.75 159.84 366.67 157.97 365.59 156.1 367.75 156.1"/><rect class="cls-40" x="209.12" y="82.08" width="4.28" height="10.79" transform="translate(58.79 -82.92) rotate(25.69)"/><rect class="cls-41" x="402.72" y="61.59" width="4.28" height="10.79" transform="translate(3.1 150.58) rotate(-21.15)"/><rect class="cls-40" x="351.88" y="72.34" width="4.28" height="10.79" transform="translate(158.66 -227.56) rotate(45)"/><rect class="cls-42" x="252.33" y="75.68" width="4.28" height="10.79" transform="translate(18.01 -43.09) rotate(10.03)"/><rect class="cls-40" x="201.03" y="160.24" width="4.28" height="10.79" transform="translate(-49.96 233.74) rotate(-54.25)"/><rect class="cls-22" x="411.49" y="136.57" width="4.28" height="10.79" transform="translate(57.07 -111.24) rotate(16.44)"/><rect class="cls-22" x="201.03" y="36.66" width="4.28" height="10.79" transform="translate(50.33 182.36) rotate(-54.25)"/><rect class="cls-29" x="252.12" y="18.8" width="4.28" height="10.79" transform="translate(74.21 -156.96) rotate(39.74)"/><rect class="cls-40" x="370.17" y="128.4" width="4.28" height="10.79" transform="translate(-23.2 143.34) rotate(-21.15)"/><rect class="cls-42" x="324.98" y="11.59" width="4.28" height="10.79" transform="translate(71.58 -187.94) rotate(35.75)"/><rect class="cls-29" x="357.16" y="31.81" width="4.28" height="10.79" transform="translate(10.78 132.14) rotate(-21.15)"/><rect class="cls-29" x="216.17" y="117.26" width="4.28" height="10.79" transform="translate(-15.57 212.12) rotate(-50.26)"/><rect class="cls-29" x="310.94" y="131.04" width="4.28" height="10.79" transform="translate(138.73 -157.22) rotate(35.75)"/><rect class="cls-29" x="262.15" y="171.12" width="4.28" height="10.79" transform="translate(152.95 -121.16) rotate(35.75)"/><rect class="cls-43" x="242.74" y="83.61" width="2.37" height="19.93" rx="1.19" ry="1.19" transform="translate(-8.05 24.54) rotate(-5.67)"/><rect class="cls-44" x="241.05" y="78.69" width="2.86" height="2.86" rx="1.43" ry="1.43"/><rect class="cls-45" x="302.69" y="70.23" width="2.37" height="19.93" rx="1.19" ry="1.19" transform="translate(-9.03 50.81) rotate(-9.42)"/><rect class="cls-46" x="300.12" y="65.43" width="2.86" height="2.86" rx="1.43" ry="1.43" transform="translate(-3.73 19.87) rotate(-3.75)"/><rect class="cls-47" x="339.81" y="82.51" width="2.37" height="19.93" rx="1.19" ry="1.19" transform="translate(-8.7 142.92) rotate(-23.38)"/><rect class="cls-48" x="333.99" y="78.34" width="2.86" height="2.86" rx="1.43" ry="1.43" transform="translate(-8.37 105.84) rotate(-17.71)"/><rect class="cls-47" x="382.37" y="96.77" width="2.37" height="19.93" rx="1.19" ry="1.19" transform="translate(-3.53 13.63) rotate(-2.03)"/><rect class="cls-48" x="381.62" y="91.84" width="2.86" height="2.86" rx="1.43" ry="1.43" transform="matrix(1, 0.06, -0.06, 1, 6.7, -24.14)"/><circle class="cls-47" cx="203.17" cy="63.16" r="1.76"/><circle class="cls-47" cx="344.53" cy="68.24" r="1.76"/><circle class="cls-47" cx="270.42" cy="68.24" r="1.76"/><circle class="cls-47" cx="282.3" cy="15.23" r="1.76"/><circle class="cls-47" cx="378.74" cy="24.19" r="1.76"/><circle class="cls-47" cx="226.43" cy="178.46" r="1.76"/><circle class="cls-47" cx="284.06" cy="151.94" r="1.76"/><circle class="cls-47" cx="223.83" cy="214.13" r="1.76"/><circle class="cls-47" cx="400.17" cy="172.83" r="1.76"/><circle class="cls-47" cx="414.84" cy="104.36" r="1.76"/><circle class="cls-47" cx="193.01" cy="145.34" r="1.5"/><circle class="cls-47" cx="303.88" cy="209.16" r="1.76"/><circle class="cls-47" cx="419.56" cy="126.16" r="1.76"/><rect class="cls-45" x="273.72" y="79.38" width="2.37" height="19.93" rx="1.19" ry="1.19" transform="translate(64.69 -109.06) rotate(25.34)"/><rect class="cls-46" x="279.07" y="76.01" width="2.86" height="2.86" rx="1.43" ry="1.43" transform="translate(79.98 -133.43) rotate(31.01)"/><rect class="cls-42" x="398.03" y="107.88" width="4.28" height="10.79" transform="matrix(0.77, 0.64, -0.64, 0.77, 164.86, -229.65)"/><rect class="cls-22" x="392.84" y="177.27" width="4.28" height="10.79" transform="translate(-13.48 332.79) rotate(-45)"/><rect class="cls-29" x="392.58" y="244.76" width="4.28" height="10.79" transform="translate(251.11 -194.55) rotate(39.74)"/><rect class="cls-40" x="212.74" y="267.43" width="4.28" height="10.79" transform="translate(-83.96 95.91) rotate(-21.15)"/><circle class="cls-47" cx="223.68" cy="255.11" r="1.76"/><circle class="cls-47" cx="401.93" cy="265.79" r="1.76"/><circle class="cls-47" cx="410.06" cy="197.74" r="1.76"/><text class="cls-49" transform="translate(358.41 233.98)">Ma<tspan class="cls-50" x="12.06" y="0">r</tspan><tspan x="15.9" y="0">ch</tspan></text><text class="cls-49" transform="translate(358.41 242.91)">2019</text><text class="cls-49" transform="translate(358.41 226.35)"><tspan class="cls-51">2</tspan><tspan class="cls-52" x="5.52" y="0">-</tspan><tspan x="9.48" y="0">3</tspan></text><rect class="cls-53" x="347.29" y="220.51" width="3.08" height="22.4"/><circle class="cls-47" cx="322.47" cy="159.09" r="1.76"/><rect class="cls-40" x="409.67" y="218.58" width="4.28" height="10.79" transform="matrix(-0.5, -0.87, 0.87, -0.5, 423.75, 692.6)"/><path class="cls-54" d="M177.24,217.65c.14,1.27,2.67,2.26,2.71,3.52a47.52,47.52,0,0,1-.23,6.44,46.3,46.3,0,0,1-52.88,40.81c-1.39-.21-2.26-3.69-3.62-4-1.75-.43-4,2.25-5.63,1.63a46.15,46.15,0,0,1-10-5.18c-1.46-1,.17-3.77-1.17-4.93-.82-.72-4.65.23-5.42-.54-1-1-1.88-2-2.76-3-1-1.23,2.94-4.42,2-5.76-.7-1-6.29-.18-6.9-1.27s-1.31-2.46-1.88-3.73a45.43,45.43,0,0,1-1.72-4.42c-.48-1.48,2.81-3.41,2.47-4.95S88,229.57,87.78,228c-.13-1.2-.23-2.39-.27-3.57-.06-1.57,0-3.13,0-4.68.14-2.18,2.64-4.31,3.07-6.4.35-1.7-1.42-3.37-.88-5a44.24,44.24,0,0,1,1.9-4.87c.59-1.29,3.24-2.21,3.94-3.43,1.2-2.09.55-4.42,2-6.29s4.87-1.53,6.74-3.21c.8-.73.07-3.69.93-4.35a43.35,43.35,0,0,1,4.09-2.86c1.69-1.05,3.86,1.38,5.69.55,1.57-.7,2.79-4.7,4.45-5.23,1.37-.44,2.77-.82,4.21-1.13a44.16,44.16,0,0,1,4.67-.78c2.12-.25,3.6,2.2,5.67,2.24,1.38,0,3.37-2.43,4.72-2.28a46.56,46.56,0,0,1,6.38,1.16c2,.52,1.82,3.65,3.72,4.42,1.7.68,5.48-1,7.07-.14,1.06.58,2.09,1.2,3.1,1.86,1.72,1.13,1.58,4.28,3.14,5.63,1.34,1.16,4.39.48,5.58,1.78a46.2,46.2,0,0,1,3.39,4.13c1.12,1.55.05,4.72,1,6.4.7,1.28,3.44,1.05,4,2.4a44.43,44.43,0,0,1,1.9,5.26C178.82,212.1,176.93,215,177.24,217.65Z"/><circle class="cls-55" cx="182.46" cy="238.57" r="7.69"/><circle class="cls-56" cx="118.49" cy="251.84" r="7.69"/><circle id="_Ellipse_5" data-name="&lt;Ellipse&gt;" class="cls-2" cx="150.91" cy="241.99" r="33.74"/><g class="cls-57"><circle class="cls-58" cx="144.95" cy="242.63" r="35.23"/></g><path id="_Clipping_Path_19" data-name="&lt;Clipping Path&gt;" class="cls-6" d="M169.93,251.45a9.13,9.13,0,0,1-18,3.11Z"/><g class="cls-59"><rect class="cls-60" x="151.33" y="251.76" width="19.36" height="3.31" transform="translate(-42.8 32.95) rotate(-10.32)"/><ellipse class="cls-61" cx="160.11" cy="261.29" rx="4.71" ry="1.76"/></g><path class="cls-62" d="M158.89,232.18l4.85,14.46a.58.58,0,0,1-.46.76l-5.42.8"/><circle class="cls-6" cx="173.29" cy="241.32" r="1.86"/><circle class="cls-6" cx="146.43" cy="246.39" r="1.86"/><circle class="cls-63" cx="140.47" cy="256.3" r="0.93"/><circle class="cls-63" cx="144.09" cy="257.31" r="0.93"/><circle class="cls-63" cx="141.33" cy="259.69" r="0.93"/><circle class="cls-63" cx="175.39" cy="249.02" r="0.93"/><circle id="_Ellipse_6" data-name="&lt;Ellipse&gt;" class="cls-63" cx="179" cy="250.03" r="0.93"/><circle class="cls-63" cx="176.24" cy="252.41" r="0.93"/><polygon id="_Clipping_Path_20" data-name="&lt;Clipping Path&gt;" class="cls-8" points="103.3 202.07 99.7 161.82 135.56 187.65 103.3 202.07"/><g class="cls-64"><circle class="cls-11" cx="112.07" cy="176.34" r="4.51"/><circle class="cls-11" cx="105.62" cy="191.54" r="4.51"/><circle class="cls-11" cx="125.7" cy="184.03" r="4.51"/></g><line class="cls-65" x1="93.05" y1="158.83" x2="107.76" y2="167.85"/><line class="cls-65" x1="105.52" y1="156.39" x2="95.29" y2="170.3"/><line class="cls-65" x1="94.79" y1="156.78" x2="106.02" y2="169.9"/><line class="cls-65" x1="107.41" y1="158.3" x2="93.4" y2="168.38"/><line class="cls-65" x1="98.06" y1="155.03" x2="102.75" y2="171.65"/><line class="cls-65" x1="108.88" y1="161.7" x2="91.93" y2="164.98"/><line class="cls-65" x1="101.02" y1="154.73" x2="99.79" y2="171.95"/><line class="cls-65" x1="108.93" y1="164.68" x2="91.88" y2="162.01"/><path class="cls-54" d="M140.11,185.63c-.84-.32-8.44,2.8-9.79,2.16s-6.42,4.38-6.42,4.38l-7.74,2.55L112,198.18h-6.47l-4.5,2.6,8.76,11.75s22.16-10.63,23.59-12S140.11,185.63,140.11,185.63Z"/><circle class="cls-66" cx="90.12" cy="85.09" r="7.77"/><circle class="cls-67" cx="25.44" cy="98.5" r="7.77"/><circle id="_Ellipse_7" data-name="&lt;Ellipse&gt;" class="cls-7" cx="58.22" cy="88.55" r="34.11"/><g class="cls-68"><circle class="cls-69" cx="52.19" cy="89.2" r="35.61"/></g><circle class="cls-70" cx="48.51" cy="106.27" r="6.42"/><path class="cls-71" d="M66.29,78.63,71.2,93.24a.59.59,0,0,1-.47.77l-5.48.82"/><circle class="cls-6" cx="80.84" cy="87.87" r="1.88"/><circle class="cls-6" cx="53.14" cy="93.55" r="1.88"/><rect class="cls-72" x="46.74" y="86.54" width="8.81" height="2.44" transform="matrix(0.87, -0.5, 0.5, 0.87, -37.03, 37.33)"/><rect class="cls-72" x="75.25" y="81.27" width="8.81" height="2.44" transform="translate(-5.49 5.68) rotate(-3.95)"/><path id="_Clipping_Path_21" data-name="&lt;Clipping Path&gt;" class="cls-10" d="M35.23,86.31c2.73-.44,9.65-2.41,10.53-11.23a.53.53,0,0,1,.65-.47l10.64,2.76a.51.51,0,0,0,.64-.57l-1.81-7.35c0-.3,5.8,1.7,6,1.88l6.76,1.81a.52.52,0,0,0,.8-.25l3.63-10.41a.94.94,0,0,1,.83-.62l6.17-.36a.7.7,0,0,0,.66-.84c-.39-2.07-2-7.55-7.73-9.15a.47.47,0,0,1-.34-.57l1.61-6.47a.29.29,0,0,0-.45-.31l-4.34,2.89s-25.88-5.41-46,13.16c-.22.2-.42.4-.62.61A11.68,11.68,0,0,0,24,77.52l9.4,8.26A2.23,2.23,0,0,0,35.23,86.31Z"/><g class="cls-73"><circle class="cls-72" cx="42.79" cy="91.22" r="44.66"/></g><circle class="cls-74" cx="70.73" cy="98.79" r="2.09"/><circle class="cls-74" cx="67.2" cy="99.35" r="2.09"/><path id="_Clipping_Path_22" data-name="&lt;Clipping Path&gt;" class="cls-6" d="M77.45,98.11a9.23,9.23,0,1,1-18.2,3.14Z"/><g class="cls-75"><rect class="cls-60" x="58.65" y="98.43" width="19.58" height="3.34" transform="translate(-16.83 13.88) rotate(-10.32)"/><ellipse class="cls-61" cx="67.53" cy="108.06" rx="4.76" ry="1.78"/></g><polygon id="_Clipping_Path_23" data-name="&lt;Clipping Path&gt;" class="cls-3" points="30.53 60.94 31 21.14 63.58 50 30.53 60.94"/><g class="cls-76"><polyline class="cls-77" points="27.77 35.91 37.63 38.38 41.18 30.94 51.63 34.85"/><polyline class="cls-77" points="26.68 51.12 40.62 54.6 45.45 45.39 58.71 49.15 62.53 40.02"/><circle class="cls-11" cx="35.11" cy="33.03" r="1.24"/><circle class="cls-11" cx="37.63" cy="48.67" r="1.68"/><circle class="cls-11" cx="54.79" cy="42.49" r="1.69"/></g><line class="cls-78" x1="24.77" y1="17.55" x2="38.3" y2="27.85"/><line class="cls-78" x1="37.23" y1="16.39" x2="25.84" y2="29.01"/><line class="cls-78" x1="26.68" y1="15.72" x2="36.38" y2="29.68"/><line class="cls-78" x1="38.9" y1="18.45" x2="24.17" y2="26.95"/><line class="cls-78" x1="30.06" y1="14.32" x2="33.01" y2="31.07"/><line class="cls-78" x1="40" y1="21.93" x2="23.07" y2="23.46"/><line class="cls-78" x1="32.99" y1="14.32" x2="30.08" y2="31.08"/><line class="cls-78" x1="39.76" y1="24.85" x2="23.31" y2="20.55"/><path class="cls-72" d="M24.49,60.33,36.84,54.4l-3.43,5.23,16.49-8.2s-3,4.66-1.84,4.3,12.18-6.34,12.18-6.34l.9,5.47L45,61.18l-19,3.13Z"/><circle class="cls-79" cx="27.42" cy="84.35" r="0.74"/><circle class="cls-79" cx="26.87" cy="87.65" r="0.74"/><circle class="cls-79" cx="30.17" cy="86.55" r="0.74"/><path class="cls-9" d="M37.9,133.18S24.52,138.41,23,139l13.79,1.6-8.64,72.94,27.69,3.37.39,7.69,14.93-5.83L80.9,138.4Z"/><rect class="cls-15" x="17.93" y="141.32" width="43.32" height="80.96" transform="translate(22.22 -3.45) rotate(6.93)"/><rect class="cls-9" x="17.79" y="176.67" width="43.32" height="12.7" transform="translate(22.37 -3.42) rotate(6.93)"/><rect class="cls-9" x="-1.68" y="175.41" width="80.96" height="12.59" transform="translate(-146.26 198.3) rotate(-83.07)"/><rect class="cls-11" x="51.46" y="157.74" width="7.42" height="11.64" transform="translate(56.08 -9.05) rotate(18.94)"/><path class="cls-11" d="M57.47,157.91a3.33,3.33,0,0,0,.1-3.15c-.43-.64-1.15-1-1.36-1.78a2.09,2.09,0,0,1,2.69-2.46c.6.15.86-.79.26-.94a3.09,3.09,0,0,0-3.85,1.94,3.13,3.13,0,0,0,.15,2.23,5.83,5.83,0,0,0,.84,1.07,2.63,2.63,0,0,1,.24,2.83c-.23.58.71.84.93.26Z"/><path id="_Clipping_Path_24" data-name="&lt;Clipping Path&gt;" class="cls-3" d="M519.81,100.87h0a124.79,124.79,0,0,1-77.47,24.72h0L428.7,82.86l77.48-24.72Z"/><g class="cls-80"><path class="cls-11" d="M428.36,103.65c.3-.81,3.91-1,4.82-1a14.22,14.22,0,0,1,5.51,1.59,31,31,0,0,0,4.46,1.94,10.67,10.67,0,0,0,9.08-1.7c3.46-2.3,5.83-6.66,10-7.59,4.46-1,9.13,2,13.88,1.17a17.09,17.09,0,0,0,9.4-5c1.36-1.41,2.33-3.22,3.78-4.55,2.29-2.11,5.31-2.29,8.28-2.44,3.56-.18,7.32-.27,10.51-2.1,4.46-2.56,6.38-8.32,11.54-9.69,3.13-.83,1.81-5.7-1.34-4.86-4.79,1.27-6.89,4.72-10.22,8-4.26,4.26-9.43,3-14.84,3.93-4.47.73-7.08,2.94-9.86,6.39-4.54,5.63-9.43,5.75-16,4.28-3.71-.83-7-.65-10.25,1.46-4,2.59-6.95,8.45-12.28,7.79-2.37-.3-4.63-2.13-6.92-2.89a17.56,17.56,0,0,0-6.4-.84c-3.5.2-6.73,1.2-8,4.63-1.15,3,3.72,4.36,4.86,1.34Z"/><path class="cls-11" d="M432.65,117.1c.3-.81,3.91-1,4.82-1a14.41,14.41,0,0,1,5.51,1.6,31,31,0,0,0,4.46,1.94,10.7,10.7,0,0,0,9.08-1.7c3.46-2.31,5.83-6.67,10-7.59,4.46-1,9.13,2,13.88,1.16a17,17,0,0,0,9.4-5c1.36-1.42,2.33-3.22,3.78-4.56,2.29-2.11,5.31-2.28,8.27-2.43,3.57-.18,7.33-.28,10.52-2.11,4.45-2.56,6.38-8.32,11.54-9.69,3.13-.83,1.81-5.69-1.34-4.86-4.79,1.28-6.89,4.72-10.22,8-4.27,4.26-9.43,3-14.84,3.93-4.47.73-7.08,2.95-9.86,6.39-4.54,5.64-9.43,5.75-16,4.28-3.71-.83-7-.64-10.25,1.46-4,2.6-7,8.46-12.28,7.79-2.37-.29-4.63-2.13-6.92-2.88a17.35,17.35,0,0,0-6.4-.84c-3.5.19-6.73,1.2-8,4.63-1.15,3,3.72,4.35,4.86,1.34Z"/></g><ellipse class="cls-9" cx="467.44" cy="70.5" rx="40.66" ry="12.9" transform="translate(0.69 145.42) rotate(-17.7)"/><path id="_Clipping_Path_25" data-name="&lt;Clipping Path&gt;" class="cls-3" d="M493.94,61.55h0a86.37,86.37,0,0,1-53.65,17.12h0l-9.44-29.59L484.5,32Z"/><g class="cls-81"><path class="cls-11" d="M417.94,71c.31-.81,3.91-1,4.82-1a14.17,14.17,0,0,1,5.51,1.59,32,32,0,0,0,4.46,1.94,10.7,10.7,0,0,0,9.09-1.7c3.46-2.3,5.83-6.66,10-7.59,4.46-1,9.14,2,13.88,1.17a17.09,17.09,0,0,0,9.4-5c1.36-1.41,2.33-3.22,3.78-4.55,2.29-2.11,5.32-2.29,8.28-2.44,3.57-.18,7.33-.27,10.51-2.1,4.46-2.56,6.38-8.32,11.55-9.69,3.13-.83,1.8-5.7-1.34-4.86-4.8,1.27-6.89,4.72-10.23,8-4.26,4.26-9.43,3.05-14.84,3.93-4.47.73-7.08,2.94-9.85,6.39-4.55,5.63-9.44,5.75-16,4.28-3.71-.83-7-.65-10.25,1.46-4,2.59-6.95,8.45-12.28,7.79-2.37-.3-4.63-2.13-6.92-2.89a17.56,17.56,0,0,0-6.4-.84c-3.5.2-6.73,1.2-8,4.63-1.14,3,3.73,4.36,4.86,1.34Z"/></g><ellipse class="cls-9" cx="457.67" cy="40.52" rx="28.16" ry="8.93" transform="translate(9.34 141.03) rotate(-17.7)"/><path id="_Clipping_Path_26" data-name="&lt;Clipping Path&gt;" class="cls-3" d="M473.83,34.05h0a51.82,51.82,0,0,1-32.14,10.26h0L436,26.58l32.14-10.25Z"/><g class="cls-82"><path class="cls-11" d="M410.32,43.81c.31-.81,3.91-1,4.82-1a14.36,14.36,0,0,1,5.51,1.6,32,32,0,0,0,4.46,1.94,10.73,10.73,0,0,0,9.09-1.7c3.46-2.3,5.83-6.66,10-7.59,4.46-1,9.14,2,13.88,1.17a17.09,17.09,0,0,0,9.4-5c1.37-1.42,2.33-3.22,3.78-4.56,2.29-2.11,5.32-2.28,8.28-2.43,3.57-.18,7.33-.27,10.51-2.11,4.46-2.56,6.38-8.31,11.55-9.69,3.13-.83,1.8-5.69-1.34-4.86-4.8,1.28-6.89,4.72-10.23,8.05-4.26,4.26-9.43,3.05-14.83,3.94-4.47.72-7.09,2.94-9.86,6.38-4.55,5.64-9.44,5.76-16,4.28-3.71-.83-7-.64-10.25,1.46-4,2.6-6.95,8.46-12.28,7.79-2.37-.29-4.63-2.12-6.92-2.88a17.35,17.35,0,0,0-6.4-.84c-3.5.19-6.72,1.2-8,4.63-1.14,3,3.73,4.35,4.86,1.34Z"/></g><ellipse class="cls-9" cx="452.1" cy="21.45" rx="16.87" ry="5.35" transform="translate(14.87 138.44) rotate(-17.7)"/><circle class="cls-11" cx="449.86" cy="17.21" r="0.84"/><circle class="cls-11" cx="445.45" cy="18.79" r="0.84"/><circle class="cls-11" cx="454.97" cy="15.75" r="0.84"/><circle class="cls-11" cx="452.6" cy="24.63" r="1.33"/><circle class="cls-11" cx="458.5" cy="21.68" r="1.33"/><circle class="cls-11" cx="464.13" cy="17.87" r="1.33"/><circle class="cls-11" cx="445.87" cy="25.72" r="1.33"/><circle class="cls-11" cx="439.18" cy="25.58" r="1.33"/><circle class="cls-11" cx="440.57" cy="21.53" r="0.93"/><circle class="cls-11" cx="460.53" cy="15.16" r="0.93"/><rect class="cls-3" x="441.08" y="18.11" width="1.45" height="5.77" transform="translate(14.52 135.29) rotate(-17.7)"/><rect class="cls-3" x="448.44" y="18.46" width="1.53" height="5.77" transform="translate(14.77 137.55) rotate(-17.7)"/><rect class="cls-3" x="460.24" y="13.11" width="1.53" height="5.77" transform="translate(16.95 140.89) rotate(-17.7)"/><rect class="cls-3" x="452.49" y="12.79" width="1.51" height="5.77" transform="translate(16.68 138.51) rotate(-17.7)"/><path class="cls-83" d="M441.71,15.92a1.92,1.92,0,0,1-.6,2.71,1.77,1.77,0,0,1-2.06-1.86,7.71,7.71,0,0,0,0-2.52S441.16,14.94,441.71,15.92Z"/><path class="cls-83" d="M449.26,16.72a1.92,1.92,0,0,1-.61,2.71,1.77,1.77,0,0,1-2.06-1.86,7.71,7.71,0,0,0,0-2.52S448.71,15.74,449.26,16.72Z"/><path class="cls-83" d="M453.38,11a1.93,1.93,0,0,1-.6,2.72,1.77,1.77,0,0,1-2.06-1.87,7.71,7.71,0,0,0,0-2.52S452.83,10,453.38,11Z"/><path class="cls-83" d="M461.07,11.41a1.92,1.92,0,0,1-.6,2.72,1.78,1.78,0,0,1-2.06-1.87,7.73,7.73,0,0,0,0-2.52S460.53,10.44,461.07,11.41Z"/><circle class="cls-11" cx="458.62" cy="46.67" r="1.33"/><circle class="cls-11" cx="466.35" cy="43.86" r="1.33"/><circle class="cls-11" cx="472.35" cy="40.89" r="1.33"/><circle class="cls-11" cx="451.75" cy="48.52" r="1.33"/><circle class="cls-11" cx="444.83" cy="49.33" r="1.33"/><circle class="cls-11" cx="438.93" cy="49.47" r="1.33"/><circle class="cls-11" cx="477.96" cy="37.36" r="1.33"/><circle class="cls-11" cx="434.06" cy="47.47" r="1.33"/><circle class="cls-11" cx="480.73" cy="32.58" r="1.33"/><circle class="cls-11" cx="437.55" cy="43.56" r="1.33"/><circle class="cls-11" cx="476.03" cy="31.29" r="1.33"/><circle class="cls-11" cx="458.29" cy="83.26" r="1.33"/><circle class="cls-11" cx="464.54" cy="81.93" r="1.33"/><circle class="cls-11" cx="470.59" cy="80" r="1.33"/><circle class="cls-11" cx="451.68" cy="83.97" r="1.33"/><circle class="cls-11" cx="444.48" cy="84.53" r="1.33"/><circle class="cls-11" cx="438" cy="84.36" r="1.33"/><circle class="cls-11" cx="432.8" cy="81.55" r="1.33"/><circle class="cls-11" cx="435.63" cy="76.01" r="1.33"/><circle class="cls-11" cx="482.51" cy="75.53" r="1.33"/><circle class="cls-11" cx="476.65" cy="78.07" r="1.33"/><circle class="cls-11" cx="470.59" cy="80" r="1.33"/><circle class="cls-11" cx="488.32" cy="72.28" r="1.33"/><circle class="cls-11" cx="494.5" cy="68.57" r="1.33"/><circle class="cls-11" cx="499.69" cy="64.67" r="1.33"/><circle class="cls-11" cx="502.3" cy="59.38" r="1.33"/><circle class="cls-11" cx="496.78" cy="56.5" r="1.33"/><path class="cls-84" d="M547.56,204.94l-1.34,48.94a2.39,2.39,0,0,0,1,2l.41.29a2.4,2.4,0,0,1-.18,4h0A2.4,2.4,0,0,0,547,264l.31.29a2.41,2.41,0,0,1,.43,3l-.95,1.63a2.29,2.29,0,0,0-.32,1.33l.3,16.5"/><path class="cls-12" d="M581.71,160.88c0,18.28-14.82,44.45-33.1,44.45s-33.11-26.17-33.11-44.45a33.11,33.11,0,0,1,66.21,0Z"/><polygon class="cls-12" points="545.11 202.45 543.14 213.7 552.51 213.7 548.61 202.45 545.11 202.45"/><path class="cls-11" d="M531,179.81h0c-1.35,1.32-4.1.68-5.61-1.68a30.13,30.13,0,0,1,0-32.54c1.51-2.36,4.26-3,5.61-1.68h0c1.37,1.32,1.28,3.66.18,5.39a23.26,23.26,0,0,0,0,25.12C532.28,176.15,532.37,178.49,531,179.81Z"/><circle class="cls-11" cx="534.78" cy="138.98" r="2.76"/><path class="cls-9" d="M439,140.47l11.94-4.08,2.86,8.53Z"/><rect class="cls-9" x="447.17" y="138.89" width="34.12" height="43.14" transform="translate(32.52 -73.81) rotate(9.42)"/><polygon class="cls-9" points="477.53 184.54 465.59 188.61 465.51 179.1 477.53 184.54"/><rect class="cls-85" x="435.23" y="142.97" width="34.12" height="43.14" transform="translate(33.03 -71.8) rotate(9.42)"/><rect class="cls-9" x="435.26" y="159.36" width="34.12" height="10" transform="translate(33 -71.81) rotate(9.42)"/><rect class="cls-9" x="430.09" y="159.48" width="43.14" height="9.92" transform="translate(215.53 583.1) rotate(-80.58)"/><rect class="cls-11" x="460.56" y="156.3" width="5.84" height="9.16" transform="translate(90.84 -158.24) rotate(21.43)"/><path class="cls-11" d="M465.45,156.6a2.78,2.78,0,0,0,.24-2.53c-.29-.51-.76-.75-.95-1.34a1.61,1.61,0,0,1,2.14-2c.47.14.67-.6.2-.74a2.43,2.43,0,0,0-3.08,1.41,2.51,2.51,0,0,0,.05,1.77,4.61,4.61,0,0,0,.63.87,1.75,1.75,0,0,1,.11,2.14c-.19.45.46.84.66.39Z"/><circle class="cls-86" cx="510.43" cy="223.81" r="19.3"/><circle class="cls-87" cx="444.96" cy="243.36" r="8.16"/><circle class="cls-88" cx="512.86" cy="257.44" r="8.16"/><circle id="_Ellipse_8" data-name="&lt;Ellipse&gt;" class="cls-4" cx="478.45" cy="246.98" r="35.81"/><g class="cls-89"><circle class="cls-90" cx="484.78" cy="247.67" r="37.39"/><path id="_Clipping_Path_27" data-name="&lt;Clipping Path&gt;" class="cls-5" d="M511.81,249.67s-8.76,3.35-20-17.28c0,0-23.13,10.47-47.9,3.2l-3.26-27.88,30.45-20.44,41.18,15,16.06,43.18Z"/><g class="cls-91"><path class="cls-6" d="M448,237.27s11.31-19.76,27.37-22c11.59-1.65-19.69-3.34-19.69-3.34l-11.93,18.32L442.1,236,439.42,239Z"/></g></g><circle class="cls-4" cx="488.65" cy="265.6" r="6.74"/><path id="_Clipping_Path_28" data-name="&lt;Clipping Path&gt;" class="cls-6" d="M458.27,257a9.69,9.69,0,1,0,19.1,3.31Z"/><g class="cls-92"><rect class="cls-60" x="457.45" y="257.36" width="20.55" height="3.51" transform="translate(881.45 597.84) rotate(-169.68)"/><ellipse class="cls-61" cx="468.68" cy="267.47" rx="5" ry="1.87"/></g><circle class="cls-6" cx="455.39" cy="247.54" r="1.97"/><circle class="cls-6" cx="483.67" cy="252.24" r="1.97"/><circle class="cls-8" cx="512.38" cy="270.85" r="2.63"/><circle class="cls-93" cx="439.66" cy="254.45" r="2.63"/><path class="cls-94" d="M468.88,245.69,466.42,253a.61.61,0,0,0,.5.8l5.75.86"/><polygon id="_Clipping_Path_29" data-name="&lt;Clipping Path&gt;" class="cls-3" points="500.92 224.56 493.26 183.18 464.53 219.12 500.92 224.56"/><g class="cls-95"><path class="cls-96" d="M503.32,218.27c-.57.25-27.1,9.14-27.1,9.14"/><path class="cls-96" d="M500.16,212.32c-.57.26-27.1,9.14-27.1,9.14"/><path class="cls-96" d="M498.18,206c-.57.25-40,13.64-40,13.64"/><path class="cls-96" d="M496.9,198.53c-.57.25-40,13.64-40,13.64"/><path class="cls-96" d="M495.6,191c-.57.26-40,13.65-40,13.65"/></g><line class="cls-97" x1="499.1" y1="178.33" x2="486.86" y2="191.49"/><line class="cls-97" x1="485.91" y1="179.36" x2="500.05" y2="190.45"/><line class="cls-97" x1="496.78" y1="176.76" x2="489.19" y2="193.05"/><line class="cls-97" x1="484.55" y1="181.81" x2="501.42" y2="188"/><line class="cls-97" x1="493.01" y1="175.92" x2="492.96" y2="193.89"/><line class="cls-97" x1="484.03" y1="185.64" x2="501.94" y2="184.18"/><line class="cls-97" x1="489.96" y1="176.45" x2="496.01" y2="193.37"/><line class="cls-97" x1="484.8" y1="188.63" x2="501.16" y2="181.18"/><circle class="cls-66" cx="522.78" cy="49.82" r="5.7"/><circle class="cls-67" cx="570.18" cy="59.65" r="5.7"/><circle id="_Ellipse_9" data-name="&lt;Ellipse&gt;" class="cls-7" cx="546.16" cy="52.36" r="25"/><g class="cls-98"><circle class="cls-69" cx="550.57" cy="52.83" r="26.1"/><path class="cls-99" d="M521.15,55.53l32.79,6a12.28,12.28,0,0,0,5-.15l11-2.69a2.8,2.8,0,0,1,2.71,4.62L555.5,81.77a2.79,2.79,0,0,1-3,.72L515,69.14a2.79,2.79,0,0,1-1.48-4l4.71-8.23A2.8,2.8,0,0,1,521.15,55.53Z"/></g><path class="cls-100" d="M540.24,45.09,536.65,55.8a.43.43,0,0,0,.34.56l4,.6"/><circle class="cls-6" cx="549.07" cy="56.02" r="1.38"/><rect class="cls-6" x="547.3" y="49.68" width="6.46" height="1.79" transform="translate(1002.02 369.64) rotate(-150)"/><rect class="cls-6" x="526.81" y="47.02" width="6.46" height="1.79" transform="translate(1055.53 132.19) rotate(-176.05)"/><path id="_Clipping_Path_30" data-name="&lt;Clipping Path&gt;" class="cls-6" d="M531.66,59.77A6.77,6.77,0,0,0,545,62.07Z"/><g class="cls-101"><rect class="cls-60" x="531.09" y="60" width="14.35" height="2.45" transform="translate(1056.85 217.91) rotate(-169.68)"/><ellipse class="cls-61" cx="538.93" cy="67.06" rx="3.49" ry="1.31"/></g><polygon id="_Clipping_Path_31" data-name="&lt;Clipping Path&gt;" class="cls-8" points="561.9 38.91 559.3 12.16 539.04 33.44 561.9 38.91"/><g class="cls-102"><path class="cls-103" d="M563.77,35c-.37.13-17.74,4.32-17.74,4.32"/><path class="cls-103" d="M562.09,31.08c-.38.13-17.75,4.32-17.75,4.32"/><path class="cls-103" d="M561.18,26.91C560.8,27,535,33.39,535,33.39"/><path class="cls-103" d="M560.77,22.12c-.37.13-26.22,6.48-26.22,6.48"/><path class="cls-103" d="M560.36,17.26c-.38.13-26.22,6.48-26.22,6.48"/></g><line class="cls-104" x1="563.28" y1="9.39" x2="554.77" y2="17.09"/><line class="cls-104" x1="554.84" y1="9.32" x2="563.22" y2="17.16"/><line class="cls-104" x1="561.89" y1="8.27" x2="556.17" y2="18.21"/><line class="cls-104" x1="553.83" y1="10.81" x2="564.23" y2="15.68"/><line class="cls-104" x1="559.54" y1="7.52" x2="558.52" y2="18.96"/><line class="cls-104" x1="553.29" y1="13.21" x2="564.77" y2="13.27"/><line class="cls-104" x1="557.57" y1="7.69" x2="560.49" y2="18.79"/><line class="cls-104" x1="553.62" y1="15.16" x2="564.44" y2="11.32"/><path class="cls-105" d="M527.59,51.16l3.86.36a.16.16,0,0,1,.08.28L529,53.7"/><polyline id="_Clipping_Path_32" data-name="&lt;Clipping Path&gt;" class="cls-9" points="69.62 238.38 76.18 262.5 43.01 289.62 21.34 245.03 23.14 237.91"/><g class="cls-106"><path class="cls-11" d="M22.78,290c.51-4.3,9.69-2.23,12.38-2.93a8.85,8.85,0,0,0,5.44-4.48c.7-1.18,1.11-2.48,1.7-3.72,1.72-3.56,3.51-4.46,7.38-5.12a14.17,14.17,0,0,0,6.4-2.44,13.17,13.17,0,0,0,4.57-6c1-2.57,1.06-4.88,3.49-6.7a18.73,18.73,0,0,1,3.26-1.71c2.36-1.14,4.77-2.19,6.48-4.26,2.5-3,2.17-7.92,5.39-10.35,2-1.49,0-4.87-2-3.36A12.74,12.74,0,0,0,73,245.1c-1.11,2.85-1.59,5-4.27,6.79a45,45,0,0,1-4.47,2.18,11.83,11.83,0,0,0-5.94,5.64c-2,4.37-2.31,8.5-7.79,9.94-3.25.86-6.32.54-8.94,3-2.77,2.61-2.8,7.09-5.56,9.59s-9,.55-12.57,2.21c-2.66,1.24-4.27,2.65-4.61,5.52-.3,2.48,3.6,2.46,3.89,0Z"/></g><path class="cls-3" d="M21.68,237.91l12.8,32.23,35.14-31.76a.62.62,0,0,0-.41-1.08l-46.95-.24A.62.62,0,0,0,21.68,237.91Z"/><circle class="cls-83" cx="36.67" cy="241.08" r="1.61"/><circle class="cls-83" cx="40.85" cy="246.76" r="1.61"/><circle class="cls-83" cx="44.62" cy="253.14" r="1.61"/><polygon class="cls-3" points="34.15 269.31 43.01 289.62 40.52 290.13 20.83 247.46 21.68 237.91 34.15 269.31"/><circle class="cls-11" cx="29.1" cy="244.16" r="4.69"/><circle class="cls-11" cx="35.96" cy="256.85" r="4.69"/><polygon id="_Clipping_Path_33" data-name="&lt;Clipping Path&gt;" class="cls-9" points="134.81 22.55 100.13 54.74 147.1 60.26 134.81 22.55"/><g class="cls-107"><circle class="cls-83" cx="106.19" cy="47.32" r="5.44"/><circle class="cls-83" cx="125.6" cy="57.16" r="5.44"/><circle class="cls-83" cx="122.95" cy="32.25" r="5.44"/></g><ellipse class="cls-83" cx="142.34" cy="41.13" rx="7.63" ry="20.19" transform="translate(-5.61 49.04) rotate(-19.18)"/><line class="cls-108" x1="143.27" y1="37.57" x2="163.27" y2="26.78"/><line class="cls-108" x1="140.8" y1="43.7" x2="163.14" y2="47.86"/><rect class="cls-83" x="154.54" y="11.97" width="4.07" height="8.02" transform="translate(9.14 -39.1) rotate(14.66)"/><rect class="cls-83" x="166.28" y="32.1" width="4.07" height="8.02" transform="translate(229.33 -124.86) rotate(98.65)"/><rect class="cls-83" x="165.48" y="54.27" width="4.07" height="8.02" transform="translate(332.44 -6.98) rotate(139.23)"/><rect class="cls-83" x="177.74" y="16.93" width="4.07" height="8.02" transform="translate(14.05 93.69) rotate(-30.34)"/><circle class="cls-9" cx="167.61" cy="16.79" r="2"/><circle class="cls-9" cx="174.83" cy="47.93" r="2.04"/><circle class="cls-9" cx="182.69" cy="33.97" r="2.04"/><circle class="cls-9" cx="149.62" cy="24.82" r="1.56"/><rect class="cls-22" x="92.12" y="267.74" width="6.35" height="16" transform="translate(-184.16 191.95) rotate(-54.25)"/><rect class="cls-83" x="128.24" y="154.09" width="6.35" height="16" transform="translate(192.79 -37.35) rotate(56.14)"/><rect class="cls-40" x="16.06" y="114.62" width="6.35" height="16" transform="translate(110.34 38.32) rotate(56.14)"/><rect class="cls-22" x="13.65" y="33.89" width="6.35" height="16" transform="matrix(-0.94, 0.33, -0.33, -0.94, 46.49, 75.93)"/><rect class="cls-83" x="65.24" y="13.94" width="6.35" height="16" transform="translate(107.01 82.54) rotate(-140.26)"/><rect class="cls-40" x="177.48" y="272.6" width="6.35" height="16" transform="translate(140.2 611.86) rotate(-140.26)"/><rect class="cls-109" x="92.12" y="110.9" width="6.35" height="16" transform="translate(92.56 271.26) rotate(-140.26)"/><rect class="cls-40" x="204.55" y="0.45" width="6.35" height="16" transform="translate(362.06 147.73) rotate(-140.26)"/><rect class="cls-22" x="170.11" y="159.98" width="6.35" height="16" transform="translate(395.51 262.13) rotate(158.85)"/><circle class="cls-85" cx="553.14" cy="87.08" r="1.11"/><polyline id="_Clipping_Path_34" data-name="&lt;Clipping Path&gt;" class="cls-9" points="580.5 95.94 578.98 113.08 551.09 122.65 547.76 88.7 550.63 84.54"/><g class="cls-110"><path class="cls-11" d="M537.85,118.26c1.43-2.8,7.25,1,9.45.93a6.23,6.23,0,0,0,3.32-1.22c.75-.48,1.26-1.25,2-1.76a11.77,11.77,0,0,1,6.88-2.17c1.93,0,3.15.38,5.1-.33a11.68,11.68,0,0,0,3.59-2.37,32.81,32.81,0,0,1,2.73-2.53c2-1.41,3.48-1.22,5.72-1.63,4.49-.84,5.42-5,9.32-6.43,1.59-.61.9-3.2-.71-2.59a9.66,9.66,0,0,0-4.4,3.34c-2.49,2.91-5.56,2.63-8.92,3.51a9.42,9.42,0,0,0-4.16,2.48c-1.44,1.23-2.68,3.13-4.56,3.9-2.09.86-3.83-.35-5.78-.47a6.75,6.75,0,0,0-4.55,1.34c-.82.58-1.38,1.44-2.15,2.06-2.54,2-4,2-6.92,1-2.63-.89-6.75-1.27-8.23,1.63-.78,1.53,1.53,2.88,2.31,1.35Z"/></g><path class="cls-83" d="M549.68,84.19l.56,23.86L580.5,95.94a.42.42,0,0,0,0-.79L550.26,83.78A.43.43,0,0,0,549.68,84.19Z"/><circle class="cls-85" cx="559.94" cy="94.48" r="1.11"/><circle class="cls-85" cx="560.85" cy="99.5" r="1.11"/><polygon class="cls-83" points="550.22 107.43 551.09 122.65 549.36 122.39 546.85 90.15 549.68 84.19 550.22 107.43"/><circle class="cls-11" cx="552.98" cy="89.99" r="3.23"/><circle class="cls-11" cx="554.37" cy="99.82" r="3.23"/><rect class="cls-22" x="409.46" y="15.46" width="6.35" height="16" transform="translate(733.78 283.61) rotate(-144.25)"/><rect class="cls-40" x="498.24" y="142.82" width="6.35" height="16" transform="translate(1024.55 128.54) rotate(160.82)"/><rect class="cls-109" x="527.72" y="104.17" width="6.35" height="16" transform="translate(764.76 601.79) rotate(-127.46)"/><rect class="cls-83" x="500.86" y="14.46" width="6.35" height="16" transform="translate(975.6 -156.94) rotate(156.62)"/><rect class="cls-22" x="563.46" y="225.71" width="6.35" height="16" transform="translate(1179.5 223.36) rotate(156.62)"/><rect class="cls-83" x="440.92" y="196.94" width="6.35" height="16" transform="translate(709.47 615.79) rotate(-147.63)"/><rect class="cls-22" x="422.71" y="271.06" width="6.35" height="16" transform="translate(636.2 742.75) rotate(-147.63)"/><rect class="cls-40" x="566.74" y="268.67" width="6.35" height="16" transform="translate(1021.18 -167.99) rotate(109.53)"/><circle class="cls-47" cx="98.26" cy="23.47" r="2.76"/><circle class="cls-47" cx="76.18" cy="127.63" r="2.76"/><circle class="cls-47" cx="187.83" cy="193.89" r="2.76"/><circle class="cls-47" cx="186.72" cy="106.12" r="2.76"/><circle class="cls-47" cx="76.18" cy="229.36" r="2.76"/><circle class="cls-47" cx="12.86" cy="230.04" r="2.76"/><circle class="cls-47" cx="17.67" cy="284.52" r="2.76"/><circle class="cls-47" cx="126.98" cy="283.18" r="2.76"/><circle class="cls-47" cx="414.84" cy="42.78" r="2.76"/><circle class="cls-47" cx="421.31" cy="166.9" r="2.76"/><circle class="cls-47" cx="447.2" cy="280.6" r="2.76"/><circle class="cls-47" cx="512.38" cy="190.32" r="2.76"/><circle class="cls-47" cx="522.78" cy="15.75" r="2.76"/><circle class="cls-47" cx="531.82" cy="86.73" r="2.76"/><circle class="cls-47" cx="495.39" cy="129.32" r="2.76"/><circle class="cls-47" cx="533.07" cy="243.01" r="2.76"/><circle class="cls-47" cx="580.5" cy="206.82" r="2.76"/><circle class="cls-47" cx="574.99" cy="257.44" r="2.76"/><circle class="cls-47" cx="577.74" cy="78.4" r="2.76"/><circle class="cls-47" cx="575.87" cy="24.63" r="2.76"/></g></svg>