<svg xmlns="http://www.w3.org/2000/svg" xmlns:xlink="http://www.w3.org/1999/xlink" viewBox="0 0 595.28 841.89"><defs><style>.cls-1{fill:#e6d0c4;}.cls-2{fill:#868686;}.cls-3{fill:#73514f;}.cls-108,.cls-110,.cls-4{fill:#1e1e1c;}.cls-5{fill:#010101;}.cls-6{fill:#4a9ed8;}.cls-7{fill:#ffd017;}.cls-8{fill:#50ac33;}.cls-9{fill:#aeafae;}.cls-10{fill:#715043;}.cls-11{fill:#edb109;}.cls-100,.cls-12,.cls-17,.cls-27,.cls-43,.cls-60,.cls-61,.cls-64,.cls-65,.cls-86,.cls-87{fill:#fff;}.cls-13{fill:#98134d;}.cls-112,.cls-14,.cls-25,.cls-26,.cls-58,.cls-84,.cls-95,.cls-99{fill:none;}.cls-14{stroke:#b0b0b0;stroke-width:0.92px;}.cls-112,.cls-14,.cls-26,.cls-27,.cls-28,.cls-58,.cls-84,.cls-95{stroke-linecap:round;}.cls-100,.cls-108,.cls-110,.cls-112,.cls-14,.cls-25,.cls-26,.cls-27,.cls-28,.cls-38,.cls-40,.cls-42,.cls-58,.cls-60,.cls-61,.cls-64,.cls-65,.cls-84,.cls-86,.cls-87,.cls-95,.cls-99{stroke-miterlimit:10;}.cls-15{fill:#5dacdf;}.cls-16,.cls-28{fill:#e72b6f;}.cls-17{font-size:25.95px;}.cls-17,.cls-43{font-family:Rubik-Bold, Rubik;font-weight:700;}.cls-18{letter-spacing:-0.02em;}.cls-19{letter-spacing:-0.03em;}.cls-20{letter-spacing:-0.03em;}.cls-21{letter-spacing:-0.03em;}.cls-22{letter-spacing:0em;}.cls-23{fill:#ffd01c;}.cls-24{fill:#4b9dd6;}.cls-25,.cls-26,.cls-27,.cls-28,.cls-60,.cls-64,.cls-86,.cls-99{stroke:#fff;}.cls-25,.cls-26,.cls-27,.cls-28{stroke-width:1.24px;}.cls-29{font-size:26.93px;fill:#010202;font-family:Rubik-Medium, Rubik;}.cls-30{letter-spacing:-0.03em;}.cls-31{letter-spacing:-0.02em;}.cls-32{letter-spacing:0em;}.cls-33{letter-spacing:-0.03em;}.cls-34{fill:#52ac32;}.cls-35{fill:#e84628;}.cls-36{fill:#e94880;}.cls-37,.cls-38{fill:#84c6ee;}.cls-38{stroke:#84c6ee;}.cls-38,.cls-40,.cls-42{stroke-width:0.31px;}.cls-39,.cls-40{fill:#ec70a7;}.cls-40{stroke:#ec70a7;}.cls-41,.cls-42{fill:#ffe7a0;}.cls-42{stroke:#ffe7a0;}.cls-43{font-size:8.46px;}.cls-44{letter-spacing:0em;}.cls-45{letter-spacing:-0.01em;}.cls-46{letter-spacing:-0.01em;}.cls-47{fill:#a8144d;}.cls-48{fill:#ddc0b1;}.cls-49{fill:#eed2c0;}.cls-50{clip-path:url(#clip-path);}.cls-51{fill:#f2e1d6;}.cls-52{clip-path:url(#clip-path-2);}.cls-53{fill:#9c9b9b;}.cls-54{fill:#faccc1;}.cls-55{clip-path:url(#clip-path-3);}.cls-56{fill:#f5f5f5;}.cls-57{fill:#f6bdd3;}.cls-58,.cls-84,.cls-95{stroke:#010101;}.cls-58{stroke-width:1.27px;}.cls-59{clip-path:url(#clip-path-4);}.cls-60{stroke-width:1.25px;}.cls-100,.cls-61,.cls-87{stroke:#e72b6f;}.cls-61{stroke-width:0.99px;}.cls-62{fill:#b0aeae;}.cls-63{clip-path:url(#clip-path-5);}.cls-64{stroke-width:1.11px;}.cls-65{stroke:#edb109;stroke-width:0.88px;}.cls-66{fill:#5caee1;}.cls-67{fill:#e9e8e8;}.cls-68{fill:#1e1f1d;}.cls-69{fill:#f7b8a0;}.cls-70{fill:#4eac33;}.cls-71{fill:#d6d6d6;}.cls-72{fill:#f6a22e;}.cls-73{clip-path:url(#clip-path-6);}.cls-74{fill:#2e2e2e;}.cls-75{fill:#d6d7d7;}.cls-76{fill:#b0b0af;}.cls-77{fill:#644941;}.cls-78{fill:#71574d;}.cls-79{clip-path:url(#clip-path-7);}.cls-80{fill:#80665a;}.cls-81{clip-path:url(#clip-path-8);}.cls-82{fill:#202020;}.cls-83{clip-path:url(#clip-path-9);}.cls-84{stroke-width:1.63px;}.cls-85{clip-path:url(#clip-path-10);}.cls-86{stroke-width:1.38px;}.cls-87{stroke-width:1.09px;}.cls-88{fill:#28141e;}.cls-89{fill:#e84728;}.cls-90{fill:#683d3d;}.cls-91{fill:#7d5857;}.cls-92{clip-path:url(#clip-path-11);}.cls-93{fill:#8e6966;}.cls-94{clip-path:url(#clip-path-12);}.cls-95{stroke-width:0.86px;}.cls-96{fill:#5f113d;}.cls-97{clip-path:url(#clip-path-13);}.cls-98{clip-path:url(#clip-path-14);}.cls-99{stroke-width:0.99px;}.cls-100{stroke-width:0.66px;}.cls-101{clip-path:url(#clip-path-15);}.cls-102{clip-path:url(#clip-path-16);}.cls-103{clip-path:url(#clip-path-17);}.cls-104{fill:#ffd019;}.cls-105{fill:#9bc224;}.cls-106{fill:#c7c6c6;}.cls-107{clip-path:url(#clip-path-18);}.cls-108,.cls-110{stroke:#1e1e1c;}.cls-108{stroke-width:2.06px;}.cls-109{clip-path:url(#clip-path-19);}.cls-110{stroke-width:2.27px;}.cls-111{clip-path:url(#clip-path-20);}.cls-112{stroke:#b2b2b2;stroke-width:0.93px;}</style><clipPath id="clip-path"><circle id="_Ellipse_" data-name="&lt;Ellipse&gt;" class="cls-1" cx="61.33" cy="246.37" r="36.94"/></clipPath><clipPath id="clip-path-2"><path id="_Clipping_Path_" data-name="&lt;Clipping Path&gt;" class="cls-2" d="M24.79,234.75s69.58-3,71.72-16.67L75.78,200.16l-31.62.16-18,10.92Z"/></clipPath><clipPath id="clip-path-3"><path id="_Clipping_Path_2" data-name="&lt;Clipping Path&gt;" class="cls-5" d="M83,254.91A10,10,0,1,1,63.62,260Z"/></clipPath><clipPath id="clip-path-4"><polygon id="_Clipping_Path_3" data-name="&lt;Clipping Path&gt;" class="cls-6" points="34.74 226.85 36.17 183.48 71.01 215.69 34.74 226.85"/></clipPath><clipPath id="clip-path-5"><polygon id="_Clipping_Path_4" data-name="&lt;Clipping Path&gt;" class="cls-8" points="462.59 53.48 482.22 20.23 495.67 60.26 462.59 53.48"/></clipPath><clipPath id="clip-path-6"><path id="_Clipping_Path_5" data-name="&lt;Clipping Path&gt;" class="cls-9" d="M82.93,118.91l-11.17-1.82a1.63,1.63,0,0,1-1.34-1.86l.41-2.5.26-1.6A1.62,1.62,0,0,1,73,109.8l11.17,1.82Z"/></clipPath><clipPath id="clip-path-7"><ellipse id="_Ellipse_2" data-name="&lt;Ellipse&gt;" class="cls-10" cx="481.72" cy="240.2" rx="47.15" ry="47.68"/></clipPath><clipPath id="clip-path-8"><path id="_Clipping_Path_6" data-name="&lt;Clipping Path&gt;" d="M529.09,245l-5.6,20.57-10.77-4.32,6.5-22.08s-12.08-.65-16-10.43l-27.06-10.93,6.49-4.62-45,5.82,3.74-12.17.34,7.8,16.91-20.45,17.53-8.73,58.46,19.2Z"/></clipPath><clipPath id="clip-path-9"><path id="_Clipping_Path_7" data-name="&lt;Clipping Path&gt;" class="cls-5" d="M455.14,253.56a12.77,12.77,0,1,0,25.15,4.4Z"/></clipPath><clipPath id="clip-path-10"><polygon id="_Clipping_Path_8" data-name="&lt;Clipping Path&gt;" class="cls-11" points="513.21 211.64 512.65 163.52 473.26 198.42 513.21 211.64"/></clipPath><clipPath id="clip-path-11"><circle id="_Ellipse_3" data-name="&lt;Ellipse&gt;" class="cls-3" cx="132.76" cy="59.74" r="24.89"/></clipPath><clipPath id="clip-path-12"><path id="_Clipping_Path_9" data-name="&lt;Clipping Path&gt;" class="cls-4" d="M108,61.78s4.61-1.33,4.68-7.6l21.83-4.85V44l4.07,1.31,2.09-3.42,2,5.66L153.26,44,142,30.69l-34,4.56-3.81,17.66Z"/></clipPath><clipPath id="clip-path-13"><path id="_Clipping_Path_10" data-name="&lt;Clipping Path&gt;" class="cls-5" d="M146.8,65a6.74,6.74,0,0,1-13.28,2.3Z"/></clipPath><clipPath id="clip-path-14"><polygon id="_Clipping_Path_11" data-name="&lt;Clipping Path&gt;" class="cls-6" points="114.39 45.18 114.73 15.94 138.67 37.14 114.39 45.18"/></clipPath><clipPath id="clip-path-15"><path id="_Clipping_Path_12" data-name="&lt;Clipping Path&gt;" class="cls-7" d="M187.78,199.52h0a124.82,124.82,0,0,1-77.48,24.72h0L96.67,181.51l77.48-24.72Z"/></clipPath><clipPath id="clip-path-16"><path id="_Clipping_Path_13" data-name="&lt;Clipping Path&gt;" class="cls-7" d="M161.9,160.2h0a86.35,86.35,0,0,1-53.65,17.12h0l-9.44-29.59,53.65-17.11Z"/></clipPath><clipPath id="clip-path-17"><path id="_Clipping_Path_14" data-name="&lt;Clipping Path&gt;" class="cls-7" d="M141.79,132.7h0A51.8,51.8,0,0,1,109.65,143h0L104,125.23,136.14,115Z"/></clipPath><clipPath id="clip-path-18"><polygon id="_Clipping_Path_15" data-name="&lt;Clipping Path&gt;" class="cls-4" points="441.35 149.72 419.55 183.96 459.73 178.34 441.35 149.72"/></clipPath><clipPath id="clip-path-19"><polygon id="_Clipping_Path_16" data-name="&lt;Clipping Path&gt;" class="cls-4" points="46.13 21.08 13.59 51.72 57.99 56.61 46.13 21.08"/></clipPath><clipPath id="clip-path-20"><path id="_Clipping_Path_17" data-name="&lt;Clipping Path&gt;" class="cls-4" d="M564.81,287.81l-.26.19a9.5,9.5,0,0,1-11.29-.19h0V234.35h11.55Z"/></clipPath></defs><title>Birthday Birthday Poster v2</title><g id="Background"><rect class="cls-12" x="-8.5" y="-8.5" width="612.29" height="858.9"/></g><g id="Artwork"><path class="cls-13" d="M216.19,228.52H322.63l-5.32-8.25,5.32-9H216.19a4.07,4.07,0,0,0-4.05,4.06v9.1A4.06,4.06,0,0,0,216.19,228.52Z"/><path class="cls-13" d="M389.84,188.8H283.4l5.32-8.25-5.32-9H389.84a4.06,4.06,0,0,1,4.05,4.05v9.1A4.06,4.06,0,0,1,389.84,188.8Z"/><path class="cls-14" d="M240.48,164.52v52.59a2.39,2.39,0,0,0,1,2l.4.27a2.38,2.38,0,0,1-.07,4h0a2.38,2.38,0,0,0-.3,3.78l.31.27a2.37,2.37,0,0,1,.51,2.91l-.9,1.64a2.38,2.38,0,0,0-.28,1.33l.47,5.93"/><path class="cls-14" d="M295,142l-1.31,48.43a2.33,2.33,0,0,0,1,2l.39.29a2.38,2.38,0,0,1-.17,4h0a2.37,2.37,0,0,0-.41,3.77l.31.28a2.38,2.38,0,0,1,.43,2.93l-.94,1.61a2.28,2.28,0,0,0-.32,1.32l.3,16.33"/><path class="cls-14" d="M367.06,161.62v53.2a2.39,2.39,0,0,0,1,2l.41.28"/><rect class="cls-15" x="204.89" y="226.8" width="4.28" height="10.79" transform="translate(143.83 -72.41) rotate(30)"/><polygon class="cls-16" points="393.69 211.67 200.38 211.67 213.12 194.03 200.38 176.39 393.69 176.39 393.69 194.03 393.69 211.67"/><text class="cls-17" transform="translate(220.83 201.89)">Big Birthd<tspan class="cls-18" x="131.63" y="0">a</tspan><tspan class="cls-19" x="146.44" y="0">y</tspan></text><polygon class="cls-16" points="212.14 250.89 408.1 250.89 395.44 233.25 408.1 215.62 212.14 215.62 212.14 233.25 212.14 250.89"/><text class="cls-17" transform="translate(222.18 241.49)"><tspan class="cls-20">W</tspan><tspan x="20.76" y="0">ee</tspan><tspan class="cls-21" x="52.26" y="0">k</tspan><tspan class="cls-22" x="67.31" y="0">end</tspan></text><polygon class="cls-5" points="308.53 70.29 303.5 64.38 299.68 63.88 301.36 72.06 308.53 70.29"/><path class="cls-5" d="M296.35,117.94l6-49.29a2.28,2.28,0,0,1,1.83-2.24,2,2,0,0,1,1.27.25L315.82,78.9a5.91,5.91,0,0,1,1,4.62l-2.26,36"/><path class="cls-5" d="M218.59,125.21l12,3a2.29,2.29,0,0,1,.8.55h0a3.87,3.87,0,0,1,.75,1.19l2.75,6.72s-14.09-4.34-14-4.66S218.59,125.21,218.59,125.21Z"/><polygon class="cls-5" points="335.07 161.97 321.77 148.43 333.42 146.73 342.25 144.88 335.07 161.97"/><polygon class="cls-5" points="385.77 160.55 372.59 147.13 384.24 145.43 393.07 143.57 385.77 160.55"/><polygon class="cls-5" points="361.5 156.68 348.13 135.69 359.78 134 374.75 88.14 378.83 123.08 361.5 156.68"/><path class="cls-5" d="M369.35,139.22c.71,4.56,3.11,6.32,7.5,6.2,5.17-.14,7.44-2.78,7.32-7.2l-2.63-60.07a2.28,2.28,0,0,1,1.46-2.5,2,2,0,0,1,1.29,0l12.16,10.47a5.93,5.93,0,0,1,1.7,4.41l1,47.23"/><polygon class="cls-5" points="271.58 119.06 292.04 77.46 298.77 112.43 278.7 124.75 271.58 119.06"/><polygon class="cls-5" points="267.93 144.29 255.1 128.97 267.79 121.5 279.85 116.32 267.93 144.29"/><polygon class="cls-5" points="312.66 150.47 299.68 134.97 311.46 135.12 314.35 142.44 312.66 150.47"/><path class="cls-5" d="M218.72,140.3c-.26-1.73.49-2.73,2-2.88l10.38-1c1.38-.14,2.22.68,2.66,2.25a.65.65,0,0,1,0,.13c1,4.5,3.54,6.09,7.91,5.65,5.15-.51,7.23-3.3,6.79-7.69L241.61,77a2.28,2.28,0,0,1,1.27-2.6,2,2,0,0,1,1.3,0l12.87,9.58a5.92,5.92,0,0,1,2,4.28l4.38,47c1.56,15.75-8.57,24-20.16,25.14C232.25,161.47,221.32,156.05,218.72,140.3Z"/><path class="cls-5" d="M325.54,152.52,314.08,151a2.49,2.49,0,0,1-2.33-2.47l-1.27-9.39-22.86-3L284,145a2.49,2.49,0,0,1-2.89,1.8l-11.45-1.48c-1.68-.22-2.39-1.35-1.59-3.11l28.36-63.79a2.67,2.67,0,0,1,3-1.79l14.91,1.93a2.67,2.67,0,0,1,2.42,2.5l11.14,68.91C328.19,151.83,327.22,152.74,325.54,152.52Zm-17.21-29.18-3.79-28-10.8,26.07Z"/><polygon class="cls-5" points="341.39 81.74 336.2 77.25 331.68 76.88 334.59 84.62 341.39 81.74"/><path class="cls-5" d="M336.82,130.71,335,81.09a2.28,2.28,0,0,1,1.46-2.5,1.91,1.91,0,0,1,1.29,0L349.94,89.1a5.94,5.94,0,0,1,1.7,4.42l3.4,35.94"/><path class="cls-5" d="M330.7,91.62a2.68,2.68,0,0,1,2.66-2.24l15-.42A2.68,2.68,0,0,1,351.17,91l21,64.07M349.5,134.17l-8.12-27-6.59,27.43Z"/><path class="cls-5" d="M398.34,98.62,400,158.13c0,1.64-.78,2.59-2.28,2.63l-10.33.29c-1.5,0-2.37-.86-2.42-2.5l-1-34.25L373,155.58a2.67,2.67,0,0,1-2.67,2l-6.38.17a2.66,2.66,0,0,1-2.78-1.87L348.34,125.3l1,34.25c0,1.64-.78,2.59-2.28,2.63l-10.33.29c-1.5,0-2.37-.86-2.42-2.5l-1.67-59.5c0-1.65.78-2.6,2.28-2.64l10.33-.29,2.25-.06a2.66,2.66,0,0,1,2.78,1.87l.81,29.26L380.67,98.5a2.67,2.67,0,0,1,2.67-2l7.6-.21,5-.14C397.42,96.08,398.29,97,398.34,98.62Z"/><path class="cls-16" d="M312.79,137.25l-11.46-1.49a2.49,2.49,0,0,1-2.33-2.48l-1.27-9.39-22.86-3-3.63,8.76a2.49,2.49,0,0,1-2.89,1.8L256.89,130c-1.68-.22-2.38-1.35-1.58-3.11l28.36-63.79a2.7,2.7,0,0,1,3-1.79l14.91,1.94A2.68,2.68,0,0,1,304,65.73l11.14,68.92C315.44,136.55,314.47,137.46,312.79,137.25Zm-17.21-29.18-3.79-28L281,106.17Z"/><path class="cls-23" d="M385.26,77.88l1.87,66.77c.05,1.65-.77,2.6-2.28,2.64l-10.33.29c-1.5,0-2.37-.86-2.42-2.5l-1.16-41.52-11.06,31.27a2.67,2.67,0,0,1-2.67,2l-6.38.18a2.68,2.68,0,0,1-2.78-1.88l-12.79-30.6,1.16,41.52c.05,1.64-.77,2.59-2.28,2.63l-10.33.29c-1.5,0-2.37-.86-2.42-2.5l-1.87-66.78c0-1.65.78-2.59,2.28-2.64l10.33-.29,2.25-.06a2.66,2.66,0,0,1,2.78,1.88l16.32,39.12,14.11-40a2.64,2.64,0,0,1,2.66-2l7.61-.22,5-.14C384.34,75.33,385.21,76.23,385.26,77.88Z"/><polygon class="cls-5" points="226.71 155.75 213.86 144.93 213.95 134.24 227.57 148.41 226.71 155.75"/><path class="cls-5" d="M229.88,150s-.71-5.31,1.12-8.66,19.55-20.25,19.55-20.25l3,24.08-12.08,12.76Z"/><path class="cls-24" d="M205.43,129.08c-.27-1.73.48-2.73,2-2.88l10.38-1c1.4-.14,2.24.71,2.68,2.32,1,4.54,3.54,6.15,7.93,5.72,5.14-.51,7.23-3.3,6.79-7.7L230.47,78c-.16-1.63.59-2.64,2.09-2.79l10.28-1c1.49-.15,2.43.69,2.59,2.33L250.15,124c1.56,15.75-8.57,24-20.16,25.13C219,150.26,208,144.83,205.43,129.08Z"/><ellipse class="cls-25" cx="215.11" cy="134.72" rx="2.76" ry="2.89" transform="translate(-12.25 21.9) rotate(-5.67)"/><path class="cls-26" d="M217.05,136.84l4.52,3.95a4.38,4.38,0,0,0,3.32,1.08l11.09-1.1"/><line class="cls-27" x1="241.45" y1="128.61" x2="236.93" y2="83.07"/><ellipse class="cls-25" cx="241.75" cy="131.62" rx="2.76" ry="2.89" transform="translate(-11.82 24.52) rotate(-5.67)"/><ellipse class="cls-25" cx="265.35" cy="120.61" rx="2.92" ry="2.79" transform="translate(132.79 380.19) rotate(-87.39)"/><ellipse class="cls-25" cx="306.78" cy="126.38" rx="2.92" ry="2.79" transform="translate(141.96 414.34) rotate(-82.6)"/><path class="cls-26" d="M269.73,110.92l13.93,1.81a2.39,2.39,0,0,1,1.58.93l4,5.32"/><line class="cls-26" x1="304.51" y1="115.44" x2="294.04" y2="114.08"/><ellipse class="cls-25" cx="292.85" cy="71.48" rx="2.92" ry="2.79" transform="translate(184.27 352.69) rotate(-82.6)"/><ellipse class="cls-25" cx="328.98" cy="87.68" rx="2.71" ry="2.84" transform="translate(-2.33 9.25) rotate(-1.61)"/><ellipse class="cls-25" cx="376.96" cy="86.63" rx="2.71" ry="2.84" transform="translate(-2.28 10.6) rotate(-1.61)"/><ellipse class="cls-25" cx="379.15" cy="139.1" rx="2.71" ry="2.84" transform="translate(-3.75 10.68) rotate(-1.61)"/><path class="cls-26" d="M329,91.05l.19,7a2,2,0,0,1-.42,1.32l-1.73,2.21a2.07,2.07,0,0,0-.43,1.32l1.12,39.69"/><path class="cls-25" d="M374.75,88.14l-4.91,3.62a3.09,3.09,0,0,0-1,1.41l-12.38,32.14"/><line class="cls-28" x1="350.62" y1="125.42" x2="336.68" y2="94.16"/><ellipse class="cls-25" cx="353.51" cy="126.34" rx="2.98" ry="3.12" transform="translate(-3.4 9.95) rotate(-1.61)"/><line class="cls-28" x1="379.07" y1="136.26" x2="378.05" y2="99.94"/><path class="cls-25" d="M290.33,71.39l-2.69-.34a.79.79,0,0,0-.83.48l-20.7,46.87"/><path class="cls-25" d="M295.35,72l1.78.23a.8.8,0,0,1,.67.68l8.05,50.61"/><text class="cls-29" transform="translate(210.21 56.98) scale(0.91 1)">R<tspan class="cls-30" x="18.04" y="0" xml:space="preserve"> A</tspan><tspan x="41.74" y="0" xml:space="preserve"> S </tspan><tspan class="cls-31" x="71.47" y="0">P</tspan><tspan class="cls-32" x="88.65" y="0" xml:space="preserve"> B E R R</tspan><tspan class="cls-33" x="184.39" y="0" xml:space="preserve"> Y</tspan><tspan x="206.79" y="0"> </tspan></text><path class="cls-5" d="M240.48,165.55H238a.32.32,0,0,1-.28-.49l1.23-2.14,1.52-2.63,1.52,2.63,1.24,2.14a.33.33,0,0,1-.28.49Z"/><polygon class="cls-5" points="240.48 159.93 242.64 159.93 241.56 161.8 240.48 163.67 239.4 161.8 238.32 159.93 240.48 159.93"/><path class="cls-5" d="M295.32,142.61l-2.46-.2a.33.33,0,0,1-.24-.51l1.41-2,1.73-2.49,1.3,2.74,1.05,2.24a.32.32,0,0,1-.32.46Z"/><polygon class="cls-5" points="295.79 137.02 297.94 137.2 296.71 138.97 295.48 140.75 294.56 138.79 293.64 136.84 295.79 137.02"/><path class="cls-5" d="M367.06,163.2h-2.48a.33.33,0,0,1-.28-.48l1.24-2.15,1.52-2.62,1.52,2.62,1.23,2.15a.32.32,0,0,1-.27.48Z"/><polygon class="cls-5" points="367.06 157.59 369.22 157.59 368.14 159.46 367.06 161.32 365.98 159.46 364.9 157.59 367.06 157.59"/><rect class="cls-34" x="208.43" y="83.57" width="4.28" height="10.79" transform="translate(59.36 -82.48) rotate(25.69)"/><rect class="cls-35" x="402.02" y="63.07" width="4.28" height="10.79" transform="translate(2.52 150.43) rotate(-21.15)"/><rect class="cls-34" x="351.18" y="73.83" width="4.28" height="10.79" transform="translate(159.5 -226.64) rotate(45)"/><rect class="cls-36" x="251.64" y="77.17" width="4.28" height="10.79" transform="translate(18.26 -42.95) rotate(10.03)"/><rect class="cls-34" x="200.34" y="161.73" width="4.28" height="10.79" transform="translate(-51.46 233.79) rotate(-54.25)"/><rect class="cls-15" x="410.8" y="138.06" width="4.28" height="10.79" transform="translate(57.46 -110.98) rotate(16.44)"/><rect class="cls-15" x="200.34" y="38.14" width="4.28" height="10.79" transform="translate(48.84 182.42) rotate(-54.25)"/><rect class="cls-23" x="251.43" y="20.28" width="4.28" height="10.79" transform="translate(75 -156.17) rotate(39.74)"/><rect class="cls-34" x="369.47" y="129.89" width="4.28" height="10.79" transform="translate(-23.78 143.19) rotate(-21.15)"/><rect class="cls-36" x="324.28" y="13.08" width="4.28" height="10.79" transform="translate(72.31 -187.25) rotate(35.75)"/><rect class="cls-23" x="356.47" y="33.29" width="4.28" height="10.79" transform="translate(10.2 131.99) rotate(-21.15)"/><rect class="cls-23" x="215.48" y="118.75" width="4.28" height="10.79" transform="translate(-16.96 212.12) rotate(-50.26)"/><rect class="cls-23" x="310.25" y="132.53" width="4.28" height="10.79" transform="translate(139.46 -156.54) rotate(35.75)"/><rect class="cls-23" x="261.46" y="172.6" width="4.28" height="10.79" transform="translate(153.68 -120.48) rotate(35.75)"/><rect class="cls-37" x="242.04" y="85.09" width="2.37" height="19.93" rx="1.19" ry="1.19" transform="translate(-8.2 24.48) rotate(-5.67)"/><rect class="cls-38" x="240.35" y="80.17" width="2.86" height="2.86" rx="1.43" ry="1.43"/><rect class="cls-39" x="302" y="71.71" width="2.37" height="19.93" rx="1.19" ry="1.19" transform="translate(-9.28 50.71) rotate(-9.42)"/><rect class="cls-40" x="299.43" y="66.91" width="2.86" height="2.86" rx="1.43" ry="1.43" transform="matrix(1, -0.07, 0.07, 1, -3.83, 19.83)"/><rect class="cls-41" x="339.12" y="83.99" width="2.37" height="19.93" rx="1.19" ry="1.19" transform="translate(-9.34 142.76) rotate(-23.38)"/><rect class="cls-42" x="333.3" y="79.82" width="2.86" height="2.86" rx="1.43" ry="1.43" transform="translate(-8.85 105.7) rotate(-17.71)"/><rect class="cls-41" x="381.68" y="98.25" width="2.37" height="19.93" rx="1.19" ry="1.19" transform="matrix(1, -0.04, 0.04, 1, -3.59, 13.6)"/><rect class="cls-42" x="380.93" y="93.32" width="2.86" height="2.86" rx="1.43" ry="1.43" transform="translate(6.79 -24.09) rotate(3.64)"/><circle class="cls-41" cx="202.48" cy="64.64" r="1.76"/><circle class="cls-41" cx="343.83" cy="69.72" r="1.76"/><circle class="cls-41" cx="269.73" cy="69.72" r="1.76"/><circle class="cls-41" cx="281.61" cy="16.71" r="1.76"/><circle class="cls-41" cx="378.05" cy="25.68" r="1.76"/><circle class="cls-41" cx="225.74" cy="179.95" r="1.76"/><circle class="cls-41" cx="283.37" cy="153.42" r="1.76"/><circle class="cls-41" cx="223.14" cy="215.62" r="1.76"/><circle class="cls-41" cx="399.48" cy="174.32" r="1.76"/><circle class="cls-41" cx="414.14" cy="105.84" r="1.76"/><circle class="cls-41" cx="192.32" cy="146.83" r="1.5"/><circle class="cls-41" cx="303.18" cy="210.64" r="1.76"/><circle class="cls-41" cx="418.86" cy="127.65" r="1.76"/><rect class="cls-39" x="273.03" y="80.86" width="2.37" height="19.93" rx="1.19" ry="1.19" transform="translate(65.25 -108.62) rotate(25.34)"/><rect class="cls-40" x="278.38" y="77.49" width="2.86" height="2.86" rx="1.43" ry="1.43" transform="translate(80.64 -132.86) rotate(31.01)"/><rect class="cls-36" x="397.34" y="109.37" width="4.28" height="10.79" transform="translate(165.65 -228.86) rotate(39.74)"/><rect class="cls-15" x="392.14" y="178.75" width="4.28" height="10.79" transform="translate(-14.73 332.74) rotate(-45)"/><rect class="cls-23" x="391.89" y="246.24" width="4.28" height="10.79" transform="translate(251.9 -193.76) rotate(39.74)"/><rect class="cls-34" x="212.05" y="268.92" width="4.28" height="10.79" transform="translate(-84.54 95.76) rotate(-21.15)"/><circle class="cls-41" cx="222.99" cy="256.59" r="1.76"/><circle class="cls-41" cx="401.23" cy="267.28" r="1.76"/><circle class="cls-41" cx="409.36" cy="199.23" r="1.76"/><text class="cls-43" transform="translate(357.72 235.46)">Ma<tspan class="cls-44" x="12.06" y="0">r</tspan><tspan x="15.9" y="0">ch</tspan></text><text class="cls-43" transform="translate(357.72 244.39)">2019</text><text class="cls-43" transform="translate(357.72 227.84)"><tspan class="cls-45">2</tspan><tspan class="cls-46" x="5.52" y="0">-</tspan><tspan x="9.48" y="0">3</tspan></text><rect class="cls-47" x="346.6" y="222" width="3.08" height="22.4"/><circle class="cls-41" cx="321.77" cy="160.57" r="1.76"/><rect class="cls-34" x="408.98" y="220.06" width="4.28" height="10.79" transform="translate(421.43 694.22) rotate(-120)"/><circle class="cls-48" cx="95.43" cy="239.69" r="8.42"/><circle class="cls-49" cx="26.89" cy="260.14" r="8.42"/><circle id="_Ellipse_4" data-name="&lt;Ellipse&gt;" class="cls-1" cx="61.33" cy="246.37" r="36.94"/><g class="cls-50"><circle class="cls-51" cx="54.89" cy="247.63" r="38.56"/><path id="_Clipping_Path_18" data-name="&lt;Clipping Path&gt;" class="cls-2" d="M24.79,234.75s69.58-3,71.72-16.67L75.78,200.16l-31.62.16-18,10.92Z"/><g class="cls-52"><ellipse class="cls-2" cx="54.81" cy="248.13" rx="38.81" ry="39.25" transform="translate(-20.97 5.58) rotate(-4.89)"/><ellipse class="cls-53" cx="40.85" cy="252.12" rx="52.83" ry="53.42" transform="translate(-21.36 4.4) rotate(-4.89)"/></g></g><circle class="cls-54" cx="52.49" cy="266.39" r="6.95"/><path id="_Clipping_Path_19" data-name="&lt;Clipping Path&gt;" class="cls-5" d="M83,254.91A10,10,0,1,1,63.62,260Z"/><g class="cls-55"><rect class="cls-56" x="62.82" y="256.08" width="21.2" height="3.62" transform="translate(-65.11 28.31) rotate(-15.22)"/><ellipse class="cls-57" cx="73.18" cy="266.56" rx="5.16" ry="1.93" transform="translate(-22.47 7.21) rotate(-4.89)"/></g><path class="cls-58" d="M69.12,234.93l6.65,15.31a.63.63,0,0,1-.44.87L69.5,252.5"/><circle class="cls-5" cx="85.23" cy="243.53" r="2.04"/><circle class="cls-5" cx="56.67" cy="251.66" r="2.04"/><polygon id="_Clipping_Path_20" data-name="&lt;Clipping Path&gt;" class="cls-6" points="34.74 226.85 36.17 183.48 71.01 215.69 34.74 226.85"/><g class="cls-59"><path class="cls-60" d="M31.32,220.81c.62.17,29,5.14,29,5.14"/><path class="cls-60" d="M33.62,214.26c.62.17,29.05,5.14,29.05,5.14"/><path class="cls-60" d="M34.66,207.45c.62.17,42.92,7.75,42.92,7.75"/><path class="cls-60" d="M34.82,199.69c.62.17,42.93,7.74,42.93,7.74"/><path class="cls-60" d="M35,191.82c.62.17,42.92,7.74,42.92,7.74"/></g><line class="cls-61" x1="29.46" y1="179.43" x2="43.97" y2="190.96"/><line class="cls-61" x1="43.07" y1="178.45" x2="30.36" y2="191.94"/><line class="cls-61" x1="31.59" y1="177.48" x2="41.84" y2="192.92"/><line class="cls-61" x1="44.84" y1="180.74" x2="28.59" y2="189.66"/><line class="cls-61" x1="35.31" y1="176.04" x2="38.13" y2="194.36"/><line class="cls-61" x1="45.96" y1="184.56" x2="27.47" y2="185.83"/><line class="cls-61" x1="38.5" y1="176.1" x2="34.94" y2="194.29"/><line class="cls-61" x1="45.63" y1="187.73" x2="27.8" y2="182.66"/><rect class="cls-62" x="49.21" y="244.27" width="9.54" height="2.64" transform="translate(-75.48 30.02) rotate(-18.59)"/><rect class="cls-62" x="78.68" y="236.52" width="9.54" height="2.64" transform="translate(-59.5 30.24) rotate(-15.22)"/><path class="cls-53" d="M34.64,234.21,35,256a2.36,2.36,0,0,1-1.23,2.1l-4.07,2.18a2.34,2.34,0,0,1-3.37-1.48L21.22,239a2.34,2.34,0,0,1,1.27-2.7l8.82-4.14A2.34,2.34,0,0,1,34.64,234.21Z"/><polygon id="_Clipping_Path_21" data-name="&lt;Clipping Path&gt;" class="cls-8" points="462.59 53.48 482.22 20.23 495.67 60.26 462.59 53.48"/><g class="cls-63"><path class="cls-64" d="M462.5,47.3c.41.4,20.48,16.42,20.48,16.42"/><path class="cls-64" d="M467.09,43.17c.42.4,20.48,16.42,20.48,16.42"/><path class="cls-64" d="M470.81,38.3c.41.4,30.2,24.37,30.2,24.37"/><path class="cls-64" d="M474.25,32.31c.41.39,30.21,24.37,30.21,24.37"/><path class="cls-64" d="M477.74,26.23c.42.4,30.21,24.38,30.21,24.38"/></g><line class="cls-65" x1="478.72" y1="14.2" x2="485.12" y2="29.4"/><line class="cls-65" x1="489.76" y1="19.25" x2="474.08" y2="24.35"/><line class="cls-65" x1="481.22" y1="13.59" x2="482.62" y2="30.02"/><line class="cls-65" x1="490.17" y1="21.79" x2="473.67" y2="21.81"/><line class="cls-65" x1="484.73" y1="14.05" x2="479.11" y2="29.56"/><line class="cls-65" x1="489.41" y1="25.25" x2="474.43" y2="18.35"/><line class="cls-65" x1="487.19" y1="15.46" x2="476.65" y2="28.14"/><line class="cls-65" x1="487.8" y1="27.59" x2="476.04" y2="16.02"/><path class="cls-66" d="M447.64,55.49H498.8a9.84,9.84,0,0,1,9.84,9.84V122a3.79,3.79,0,0,1-3.79,3.79H441.59A3.79,3.79,0,0,1,437.8,122V65.33a9.84,9.84,0,0,1,9.84-9.84Z" transform="translate(24.83 -85.7) rotate(10.63)"/><rect class="cls-67" x="444.06" y="60.8" width="60.69" height="41.6" rx="4.89" ry="4.89" transform="translate(23.18 -86.08) rotate(10.63)"/><rect class="cls-68" x="461.91" y="88.22" width="21.89" height="2.17" transform="translate(24.58 -85.66) rotate(10.63)"/><rect class="cls-68" x="469.72" y="76.51" width="12.15" height="2.02" transform="translate(311.87 530.87) rotate(-79.37)"/><rect class="cls-68" x="459.1" y="83.68" width="3.44" height="2.17" transform="translate(23.53 -83.52) rotate(10.63)"/><rect class="cls-68" x="473.23" y="113.76" width="22.96" height="2.09" rx="1.01" ry="1.01" transform="translate(29.48 -87.41) rotate(10.63)"/><rect class="cls-68" x="441.04" y="106.01" width="4.62" height="2.09" rx="1.01" ry="1.01" transform="translate(27.34 -79.91) rotate(10.63)"/><rect class="cls-68" x="484" y="88.35" width="3.44" height="2.17" transform="translate(24.82 -88.03) rotate(10.63)"/><rect class="cls-68" x="472.71" y="68.9" width="3.44" height="2.17" transform="translate(21.04 -86.28) rotate(10.63)"/><rect class="cls-68" x="451.55" y="69.26" width="7.95" height="2.17" transform="translate(20.78 -82.79) rotate(10.63)"/><rect class="cls-68" x="491.71" y="76.79" width="7.95" height="2.17" transform="translate(22.86 -90.06) rotate(10.63)"/><rect class="cls-68" x="492.32" y="82.8" width="3.44" height="2.97" transform="translate(24.01 -89.65) rotate(10.63)"/><rect class="cls-68" x="452.07" y="75.24" width="3.44" height="2.97" transform="translate(21.93 -82.36) rotate(10.63)"/><path class="cls-68" d="M486.39,114.39h11a1.27,1.27,0,0,1,1.27,1.27v1.22a1.27,1.27,0,0,1-1.27,1.27h-11a0,0,0,0,1,0,0v-3.77A0,0,0,0,1,486.39,114.39Z" transform="translate(29.89 -88.82) rotate(10.63)"/><rect class="cls-69" x="445.72" y="83.34" width="6.34" height="5.46" transform="translate(23.57 -81.29) rotate(10.63)"/><rect class="cls-69" x="492.34" y="92.09" width="6.34" height="5.46" transform="translate(25.98 -89.74) rotate(10.63)"/><path class="cls-70" d="M36,74.39a7.63,7.63,0,0,0-8.74,6.28L15.53,152.34a7.64,7.64,0,0,0,6.28,8.74L66,168.31A7.63,7.63,0,0,0,74.76,162L86.48,90.35a7.62,7.62,0,0,0-6.28-8.73ZM18.71,154.74a2.4,2.4,0,1,1,2,2.75A2.39,2.39,0,0,1,18.71,154.74Zm52.51,8.58a2.4,2.4,0,1,1-2-2.75A2.4,2.4,0,0,1,71.22,163.32ZM28.51,94.8a2.4,2.4,0,1,1,2,2.75A2.39,2.39,0,0,1,28.51,94.8ZM81,103.38a2.4,2.4,0,1,1-2-2.75A2.4,2.4,0,0,1,81,103.38Z"/><rect class="cls-71" x="65.78" y="73.92" width="17.06" height="24.27" rx="3.66" ry="3.66" transform="translate(14.86 -10.86) rotate(9.29)"/><rect class="cls-71" x="49.31" y="70.87" width="12.9" height="21.16" rx="2.97" ry="2.97" transform="translate(13.87 -7.93) rotate(9.29)"/><rect class="cls-71" x="33.04" y="68.67" width="12.9" height="21.16" rx="2.97" ry="2.97" transform="translate(13.3 -5.33) rotate(9.29)"/><rect class="cls-68" x="45.12" y="131.55" width="14.61" height="14.61" rx="3.23" ry="3.23" transform="translate(23.09 -6.64) rotate(9.29)"/><rect class="cls-68" x="38.88" y="96.78" width="10.25" height="10.25" rx="1.64" ry="1.64" transform="translate(17.02 -5.77) rotate(9.29)"/><rect class="cls-71" x="66.9" y="128.61" width="12.9" height="16.32" rx="2.61" ry="2.61" transform="translate(-73.47 187.09) rotate(-80.71)"/><rect class="cls-72" x="22.91" y="104.93" width="6.23" height="41.63" rx="1.76" ry="1.76" transform="translate(20.63 -2.55) rotate(9.29)"/><path class="cls-12" d="M30.07,136a.84.84,0,0,1,.16-.33c-.05-.29.09-.33.16-.46,0-.31.14-.38.31-.51l0-.16a1.87,1.87,0,0,1,1.21-.59,1.92,1.92,0,0,1-1-.94l0-.17c-.12-.17-.24-.29-.13-.58s-.14-.23,0-.49c0-.18-.15-.36.07-.56a.5.5,0,0,1,.14-.54c0-.26.09-.33.18-.39s0-.43.29-.56c0-.43.33-.52.59-.32a.37.37,0,0,1,.51.11c.15-.05.29,0,.45.22a.41.41,0,0,1,.41.27c.28,0,.39.32.43.42a.48.48,0,0,1,.32.48c.22.09.23.29.25.49a2,2,0,0,1,2.15-.83l.17-.06a1.94,1.94,0,0,1,3,.12,6.39,6.39,0,0,1,.83.42,2.16,2.16,0,0,1,1.47,1.62,4.8,4.8,0,0,1,.51,1.4,2.22,2.22,0,0,1,.44,1.69v0a2.2,2.2,0,0,1-1,1.47,4.64,4.64,0,0,1-.93,1.16,2.15,2.15,0,0,1-1.91,1.07,5.82,5.82,0,0,1-.92.13,1.94,1.94,0,0,1-2.83-.82l-.15-.12a2,2,0,0,1-1.77-1.46c-.08.18-.15.36-.39.38-.14.31-.3.35-.46.36s-.27.32-.54.25a.39.39,0,0,1-.47.13c-.22.14-.38.16-.5.06-.29.16-.41,0-.52-.06-.3.11-.58-.07-.46-.49-.22-.21-.1-.57-.09-.62s-.13-.17-.05-.43a.48.48,0,0,1,0-.55.36.36,0,0,1-.05-.23Zm1,1.09a8.15,8.15,0,0,1,1.72-2.29c-.25-.9-1.33-.49-1.79-.14.1,0,.17.07.18.1a3.61,3.61,0,0,0-.49.34c.08,0,.17,0,.22.1a1.19,1.19,0,0,0-.39.33c.15-.06.18,0,.23.07a1.37,1.37,0,0,0-.38.43c.09-.06.18-.13.25,0a1.4,1.4,0,0,0-.31.53c.09-.06.19-.19.25-.09a2.46,2.46,0,0,0-.22.52c.09-.08.18-.15.23-.06a1.27,1.27,0,0,0-.17.64l.18-.13s-.05.35-.08.59a1.36,1.36,0,0,1,.48-.15s0,.14,0,.25c.26-.07.36-.26.47-.29a.3.3,0,0,1,0,.27,1.88,1.88,0,0,0,.49-.32s0,.1,0,.24a2,2,0,0,0,.44-.4s0,.15,0,.25a2.25,2.25,0,0,0,.45-.52.39.39,0,0,1,0,.26,2.24,2.24,0,0,0,.34-.56.21.21,0,0,1,.07.19c.17-.21.17-.56.25-.64a.26.26,0,0,1,.11.18c.09-.37.22-1.41-.53-1.73a8.08,8.08,0,0,0-1.91,2Zm1.05-6.42a8.1,8.1,0,0,0,1.16,2.55c.81-.07,1-1.09,1.06-1.47a.37.37,0,0,1-.17.14c0-.11.06-.43,0-.69,0,.09-.06.13-.13.16a2.15,2.15,0,0,0-.15-.64.34.34,0,0,1-.09.23,2.15,2.15,0,0,0-.26-.63c0,.1,0,.22-.07.24a2,2,0,0,0-.3-.52.34.34,0,0,1-.06.24,1.68,1.68,0,0,0-.36-.47.3.3,0,0,1-.05.28c-.09-.07-.12-.28-.35-.43,0,.11,0,.23,0,.25a1.12,1.12,0,0,1-.41-.3,5.45,5.45,0,0,1-.11.58l-.13-.17a1.17,1.17,0,0,0,0,.66c-.07.07-.14,0-.2-.13a2.5,2.5,0,0,0,0,.56c-.09.08-.14-.08-.21-.16a1.4,1.4,0,0,0,.13.6c-.11.08-.17,0-.23-.1a1.24,1.24,0,0,0,.22.53.17.17,0,0,1-.24,0,1.37,1.37,0,0,0,.27.44c-.08.09-.17,0-.25,0a3.75,3.75,0,0,0,.36.48s-.09,0-.2,0c.33.48,1.22,1.21,1.74.44a8.08,8.08,0,0,1-.9-2.72Zm7.65,3a1.48,1.48,0,0,0-.46,2.91h0a1.48,1.48,0,0,0,.46-2.91Zm-4.13,1.65a1.48,1.48,0,0,0,.25,2,1.4,1.4,0,0,0,2,.08h0a1.47,1.47,0,0,0-.24-2,1.42,1.42,0,0,0-2-.08Zm.2-1.64a1.41,1.41,0,0,0,1.93.57,1.48,1.48,0,0,0,.87-1.85h0a1.41,1.41,0,0,0-1.92-.56,1.46,1.46,0,0,0-.88,1.84Zm2.32,5.42c.32-.49-2.43-1.38-2.36-.7A1.53,1.53,0,0,0,38.18,139.12ZM37,130.9c-.28.62,2.61.65,2.47.09A1.53,1.53,0,0,0,37,130.9Zm-.46.09a1.63,1.63,0,0,0-2,1.75C34.55,133.16,37,131.1,36.55,131ZM34,135.83a1.62,1.62,0,0,0,1.34,2.29C35.81,138.16,34.14,135.43,34,135.83Zm0-1.59c-.13.67.28,1.39.57,1.44s.81-.41,1-1.2-.08-1.37-.45-1.43-1,.59-1.07,1.19Zm7.33,1.14c-.11.58,0,1.51.3,1.55s.94-.56,1-1.29-.37-1.51-.64-1.55-.62.71-.69,1.29Zm-2,1.89c-.62.39-1,1-.87,1.4s.83.46,1.57.19a1.45,1.45,0,0,0,1-1.58c-.2-.39-1.1-.34-1.66,0Zm.53-4.21c.45.54,1.35.94,1.71.67s.39-1.13-.36-1.89a1.63,1.63,0,0,0-1.77-.33c-.35.34-.07,1,.42,1.55Z"/><rect class="cls-71" x="69.72" y="150.95" width="8.16" height="6.69" rx="1.33" ry="1.33" transform="translate(-90.38 202.23) rotate(-80.71)"/><path class="cls-12" d="M57.06,121.52l.19-1.15a.74.74,0,0,1,.86-.61l2.62.42,1.14-1.13a1.25,1.25,0,0,1,1.2-.49l13,2.12a1.25,1.25,0,0,1,1,1l.46,1.28,2.46.4a.75.75,0,0,1,.62.86l-.19,1.15a.74.74,0,0,1-.85.61l-21.87-3.57A.75.75,0,0,1,57.06,121.52Z"/><path class="cls-71" d="M61.57,122.81h1.18a0,0,0,0,1,0,0v1.13a.51.51,0,0,1-.51.51h-.17a.51.51,0,0,1-.51-.51v-1.13a0,0,0,0,1,0,0Z" transform="translate(20.76 -8.41) rotate(9.29)"/><path class="cls-71" d="M63.64,123.15h1.18a0,0,0,0,1,0,0v1.13a.51.51,0,0,1-.51.51h-.17a.51.51,0,0,1-.51-.51v-1.13A0,0,0,0,1,63.64,123.15Z" transform="translate(20.84 -8.74) rotate(9.29)"/><path class="cls-71" d="M65.7,123.49h1.18a0,0,0,0,1,0,0v1.13a.51.51,0,0,1-.51.51h-.17a.51.51,0,0,1-.51-.51v-1.13a0,0,0,0,1,0,0Z" transform="translate(20.93 -9.07) rotate(9.29)"/><path class="cls-71" d="M67.77,123.83h1.18a0,0,0,0,1,0,0V125a.51.51,0,0,1-.51.51h-.17a.51.51,0,0,1-.51-.51v-1.13A0,0,0,0,1,67.77,123.83Z" transform="translate(21.01 -9.4) rotate(9.29)"/><path class="cls-71" d="M69.84,124.17H71a0,0,0,0,1,0,0v1.13a.51.51,0,0,1-.51.51h-.17a.51.51,0,0,1-.51-.51v-1.13A0,0,0,0,1,69.84,124.17Z" transform="translate(21.09 -9.73) rotate(9.29)"/><path class="cls-71" d="M71.91,124.51h1.18a0,0,0,0,1,0,0v1.13a.51.51,0,0,1-.51.51h-.17a.51.51,0,0,1-.51-.51v-1.13A0,0,0,0,1,71.91,124.51Z" transform="matrix(0.99, 0.16, -0.16, 0.99, 21.17, -10.06)"/><path class="cls-71" d="M74,124.84h1.18a0,0,0,0,1,0,0V126a.51.51,0,0,1-.51.51h-.17A.51.51,0,0,1,74,126v-1.13A0,0,0,0,1,74,124.84Z" transform="translate(21.25 -10.38) rotate(9.29)"/><path class="cls-5" d="M60.91,122.25H76.47a0,0,0,0,1,0,0v1.51a.4.4,0,0,1-.4.4H61.31a.4.4,0,0,1-.4-.4v-1.51A0,0,0,0,1,60.91,122.25Z" transform="translate(116.59 255.89) rotate(-170.71)"/><path class="cls-12" d="M57.55,161.67l-.19,1.15a.75.75,0,0,1-.86.62L53.88,163l-1.14,1.14a1.26,1.26,0,0,1-1.21.48l-13-2.12a1.24,1.24,0,0,1-1-1l-.47-1.28-2.46-.4A.74.74,0,0,1,34,159l.18-1.14a.75.75,0,0,1,.86-.62l21.87,3.58A.74.74,0,0,1,57.55,161.67Z"/><path class="cls-71" d="M51.86,158.74H53a0,0,0,0,1,0,0v1.13a.51.51,0,0,1-.51.51h-.17a.51.51,0,0,1-.51-.51v-1.13A0,0,0,0,1,51.86,158.74Z" transform="translate(78.46 325.49) rotate(-170.71)"/><path class="cls-71" d="M49.79,158.4H51a0,0,0,0,1,0,0v1.13a.51.51,0,0,1-.51.51H50.3a.51.51,0,0,1-.51-.51V158.4A0,0,0,0,1,49.79,158.4Z" transform="translate(74.41 324.49) rotate(-170.71)"/><path class="cls-71" d="M47.72,158.07H48.9a0,0,0,0,1,0,0v1.13a.51.51,0,0,1-.51.51h-.17a.51.51,0,0,1-.51-.51v-1.13A0,0,0,0,1,47.72,158.07Z" transform="translate(70.36 323.48) rotate(-170.71)"/><path class="cls-71" d="M45.66,157.73h1.18a0,0,0,0,1,0,0v1.13a.51.51,0,0,1-.51.51h-.17a.51.51,0,0,1-.51-.51v-1.13A0,0,0,0,1,45.66,157.73Z" transform="translate(66.31 322.48) rotate(-170.71)"/><path class="cls-71" d="M43.59,157.39h1.18a0,0,0,0,1,0,0v1.13a.51.51,0,0,1-.51.51H44.1a.51.51,0,0,1-.51-.51v-1.13A0,0,0,0,1,43.59,157.39Z" transform="translate(62.25 321.47) rotate(-170.71)"/><path class="cls-71" d="M41.52,157.05H42.7a0,0,0,0,1,0,0v1.13a.51.51,0,0,1-.51.51H42a.51.51,0,0,1-.51-.51v-1.13A0,0,0,0,1,41.52,157.05Z" transform="translate(58.2 320.47) rotate(-170.71)"/><path class="cls-71" d="M39.46,156.71h1.18a0,0,0,0,1,0,0v1.13a.51.51,0,0,1-.51.51H40a.51.51,0,0,1-.51-.51v-1.13A0,0,0,0,1,39.46,156.71Z" transform="translate(54.15 319.46) rotate(-170.71)"/><path class="cls-5" d="M38.14,159H53.7a0,0,0,0,1,0,0v1.51a.4.4,0,0,1-.4.4H38.54a.4.4,0,0,1-.4-.4V159A0,0,0,0,1,38.14,159Z" transform="translate(26.42 -5.31) rotate(9.29)"/><rect class="cls-71" x="24.59" y="159.3" width="6.09" height="2.84" rx="0.53" ry="0.53" transform="translate(26.3 -2.35) rotate(9.29)"/><path class="cls-5" d="M82.5,112.18h3.45a.71.71,0,0,1,.71.71v5a.71.71,0,0,1-.71.71H82.5a0,0,0,0,1,0,0v-6.45A0,0,0,0,1,82.5,112.18Z" transform="translate(19.73 -12.13) rotate(9.29)"/><path id="_Clipping_Path_22" data-name="&lt;Clipping Path&gt;" class="cls-9" d="M82.93,118.91l-11.17-1.82a1.63,1.63,0,0,1-1.34-1.86l.41-2.5.26-1.6A1.62,1.62,0,0,1,73,109.8l11.17,1.82Z"/><g class="cls-73"><rect class="cls-74" x="70.31" y="109.61" width="8.37" height="8.37" transform="translate(-49.83 168.95) rotate(-80.71)"/></g><circle class="cls-5" cx="71.96" cy="113.35" r="0.6"/><rect class="cls-75" x="71.99" y="114.82" width="1.08" height="1.9" rx="0.47" ry="0.47" transform="translate(-53.43 168.66) rotate(-80.71)"/><path class="cls-76" d="M79.14,112.74l-.57,3.47-5.24-1.52a.63.63,0,0,1-.45-.71l.14-.86a.64.64,0,0,1,.64-.53Z"/><rect class="cls-5" x="83.52" y="111.59" width="0.17" height="7.39" transform="translate(19.7 -11.98) rotate(9.29)"/><ellipse class="cls-77" cx="437.63" cy="235.37" rx="10.74" ry="10.86"/><ellipse class="cls-78" cx="525.59" cy="254.12" rx="10.74" ry="10.86"/><ellipse id="_Ellipse_5" data-name="&lt;Ellipse&gt;" class="cls-10" cx="481.72" cy="240.2" rx="47.15" ry="47.68"/><g class="cls-79"><ellipse class="cls-80" cx="490.05" cy="241.11" rx="49.23" ry="49.78"/><path id="_Clipping_Path_23" data-name="&lt;Clipping Path&gt;" d="M529.09,245l-5.6,20.57-10.77-4.32,6.5-22.08s-12.08-.65-16-10.43l-27.06-10.93,6.49-4.62-45,5.82,3.74-12.17.34,7.8,16.91-20.45,17.53-8.73,58.46,19.2Z"/><g class="cls-81"><ellipse class="cls-82" cx="502.28" cy="241.7" rx="60.84" ry="61.53"/></g></g><path id="_Clipping_Path_24" data-name="&lt;Clipping Path&gt;" class="cls-5" d="M455.14,253.56a12.77,12.77,0,1,0,25.15,4.4Z"/><g class="cls-83"><polygon class="cls-56" points="453.87 256.19 480.49 261.1 481.32 256.5 454.7 251.59 453.87 256.19"/><ellipse class="cls-57" cx="468.85" cy="267.47" rx="6.58" ry="2.49"/></g><path class="cls-84" d="M470.56,226.34l-6.78,20.42a.83.83,0,0,0,.65,1.08L472,249"/><ellipse class="cls-5" cx="450.98" cy="239.86" rx="2.6" ry="2.63"/><ellipse class="cls-5" cx="488.27" cy="247.19" rx="2.6" ry="2.63"/><polygon class="cls-4" points="484.71 239.3 496.55 242.22 497.35 238.9 485.51 235.98 484.71 239.3"/><polygon class="cls-4" points="446.42 233.63 458.58 234.47 458.81 231.07 446.65 230.22 446.42 233.63"/><polygon id="_Clipping_Path_25" data-name="&lt;Clipping Path&gt;" class="cls-11" points="513.21 211.64 512.65 163.52 473.26 198.42 513.21 211.64"/><g class="cls-85"><path class="cls-86" d="M517.15,205c-.7.17-32.33,5-32.33,5"/><path class="cls-86" d="M514.74,197.71c-.69.17-32.32,5-32.32,5"/><path class="cls-86" d="M513.76,190.14c-.69.17-47.78,7.57-47.78,7.57"/><path class="cls-86" d="M513.76,181.52c-.69.18-47.78,7.58-47.78,7.58"/><path class="cls-86" d="M513.76,172.79c-.69.17-47.78,7.58-47.78,7.58"/></g><line class="cls-87" x1="520.18" y1="159.19" x2="503.82" y2="171.63"/><line class="cls-87" x1="505.11" y1="157.78" x2="518.89" y2="173.04"/><line class="cls-87" x1="517.86" y1="156.97" x2="506.13" y2="173.85"/><line class="cls-87" x1="503.1" y1="160.28" x2="520.9" y2="170.55"/><line class="cls-87" x1="513.78" y1="155.29" x2="510.22" y2="175.53"/><line class="cls-87" x1="501.76" y1="164.49" x2="522.23" y2="166.33"/><line class="cls-87" x1="510.24" y1="155.28" x2="513.76" y2="175.54"/><line class="cls-87" x1="502.06" y1="168.01" x2="521.94" y2="162.81"/><path class="cls-82" d="M514,209.39l-14-7.58,3.9,6.68L485.21,198s3.43,6,2.08,5.5-13.8-8.11-13.8-8.11l-1,7,18.28,8.09,21.49,4Z"/><circle class="cls-88" cx="112.4" cy="80.76" r="2.26"/><circle class="cls-88" cx="112.4" cy="76.3" r="2.26"/><circle class="cls-88" cx="112.4" cy="72.28" r="2.26"/><circle class="cls-88" cx="112.4" cy="67.82" r="2.26"/><circle class="cls-88" cx="112.4" cy="89.25" r="2.26"/><circle class="cls-88" cx="112.4" cy="97.8" r="2.26"/><circle class="cls-88" cx="152.61" cy="96.95" r="2.26"/><circle class="cls-88" cx="112.4" cy="84.78" r="2.26"/><circle class="cls-89" cx="112.4" cy="93.26" r="2.26"/><rect class="cls-89" x="105.45" y="90.03" width="5.43" height="6.47" rx="2.71" ry="2.71" transform="translate(216.32 186.53) rotate(-180)"/><rect class="cls-89" x="113.93" y="90.03" width="5.43" height="6.47" rx="2.71" ry="2.71" transform="translate(233.29 186.53) rotate(-180)"/><circle class="cls-88" cx="152.18" cy="79.91" r="2.26"/><circle class="cls-88" cx="152.18" cy="75.44" r="2.26"/><circle class="cls-88" cx="152.18" cy="71.43" r="2.26"/><circle class="cls-88" cx="152.18" cy="66.96" r="2.26"/><circle class="cls-88" cx="152.18" cy="88.39" r="2.26"/><circle class="cls-88" cx="152.18" cy="83.93" r="2.26"/><circle class="cls-89" cx="152.18" cy="92.41" r="2.26"/><rect class="cls-89" x="145.23" y="89.17" width="5.43" height="6.47" rx="2.71" ry="2.71" transform="translate(295.88 184.82) rotate(180)"/><rect class="cls-89" x="153.71" y="89.17" width="5.43" height="6.47" rx="2.71" ry="2.71" transform="translate(312.84 184.82) rotate(-180)"/><circle class="cls-90" cx="156.04" cy="57.22" r="5.67"/><circle class="cls-91" cx="108.85" cy="67.01" r="5.67"/><circle id="_Ellipse_6" data-name="&lt;Ellipse&gt;" class="cls-3" cx="132.76" cy="59.74" r="24.89"/><g class="cls-92"><circle class="cls-93" cx="128.37" cy="60.22" r="25.99"/><path id="_Clipping_Path_26" data-name="&lt;Clipping Path&gt;" class="cls-4" d="M108,61.78s4.61-1.33,4.68-7.6l21.83-4.85V44l4.07,1.31,2.09-3.42,2,5.66L153.26,44,142,30.69l-34,4.56-3.81,17.66Z"/><g class="cls-94"><path class="cls-5" d="M150,45.59s-7.86-13.73-19-15.31c-8-1.15,13.69-2.32,13.69-2.32l8.3,12.73,1.12,4,1.87,2.05Z"/></g></g><circle class="cls-5" cx="149.22" cy="57.56" r="1.37"/><circle class="cls-5" cx="129.14" cy="61.68" r="1.37"/><circle class="cls-3" cx="125.07" cy="67.74" r="0.69"/><circle class="cls-3" cx="127.73" cy="68.48" r="0.69"/><circle class="cls-3" cx="125.7" cy="70.23" r="0.69"/><circle class="cls-3" cx="150.83" cy="62.36" r="0.69"/><circle id="_Ellipse_7" data-name="&lt;Ellipse&gt;" class="cls-3" cx="153.49" cy="63.11" r="0.69"/><circle class="cls-3" cx="151.46" cy="64.86" r="0.69"/><path class="cls-95" d="M139.85,54.57l1.7,5.08a.43.43,0,0,1-.34.56l-4,.59"/><circle class="cls-96" cx="141.38" cy="65.52" r="1.54"/><circle class="cls-96" cx="138.77" cy="65.93" r="1.54"/><path id="_Clipping_Path_27" data-name="&lt;Clipping Path&gt;" class="cls-5" d="M146.8,65a6.74,6.74,0,0,1-13.28,2.3Z"/><g class="cls-97"><rect class="cls-56" x="133.08" y="65.24" width="14.29" height="2.44" transform="translate(-9.64 26.2) rotate(-10.32)"/><ellipse class="cls-57" cx="139.56" cy="72.27" rx="3.48" ry="1.3"/></g><polygon id="_Clipping_Path_28" data-name="&lt;Clipping Path&gt;" class="cls-6" points="114.39 45.18 114.73 15.94 138.67 37.14 114.39 45.18"/><g class="cls-98"><polyline class="cls-99" points="112.36 26.79 119.61 28.61 122.21 23.14 129.89 26.01"/><polyline class="cls-99" points="111.56 37.97 121.8 40.52 125.35 33.76 135.09 36.52 137.9 29.81"/><circle class="cls-12" cx="117.76" cy="24.67" r="0.91"/><circle class="cls-12" cx="119.61" cy="36.17" r="1.23"/><circle class="cls-12" cx="132.21" cy="31.63" r="1.24"/></g><line class="cls-100" x1="110.16" y1="13.3" x2="120.1" y2="20.87"/><line class="cls-100" x1="119.31" y1="12.45" x2="110.94" y2="21.72"/><line class="cls-100" x1="111.56" y1="11.96" x2="118.69" y2="22.22"/><line class="cls-100" x1="120.54" y1="13.97" x2="109.72" y2="20.21"/><line class="cls-100" x1="114.05" y1="10.94" x2="116.21" y2="23.24"/><line class="cls-100" x1="121.35" y1="16.53" x2="108.91" y2="17.65"/><line class="cls-100" x1="116.2" y1="10.93" x2="114.06" y2="23.24"/><line class="cls-100" x1="121.17" y1="18.67" x2="109.09" y2="15.51"/><path id="_Clipping_Path_29" data-name="&lt;Clipping Path&gt;" class="cls-7" d="M187.78,199.52h0a124.82,124.82,0,0,1-77.48,24.72h0L96.67,181.51l77.48-24.72Z"/><g class="cls-101"><path class="cls-12" d="M96.32,202.3c.31-.81,3.92-1,4.82-1a14.17,14.17,0,0,1,5.51,1.59,32,32,0,0,0,4.46,1.94,10.7,10.7,0,0,0,9.09-1.7c3.46-2.3,5.83-6.66,10-7.59,4.45-1,9.13,2,13.87,1.17a17.09,17.09,0,0,0,9.4-5c1.37-1.41,2.33-3.22,3.78-4.55,2.29-2.11,5.32-2.29,8.28-2.44,3.57-.18,7.33-.27,10.51-2.1,4.46-2.56,6.38-8.32,11.55-9.69,3.13-.83,1.8-5.7-1.34-4.86-4.8,1.27-6.89,4.72-10.22,8.05-4.27,4.26-9.44,3-14.84,3.93-4.47.73-7.08,2.94-9.86,6.39-4.55,5.63-9.44,5.75-16,4.28-3.71-.83-7-.65-10.25,1.46-4,2.59-7,8.45-12.27,7.79-2.38-.3-4.63-2.13-6.93-2.89a17.56,17.56,0,0,0-6.4-.84c-3.5.2-6.72,1.21-8,4.64-1.14,3,3.73,4.35,4.86,1.33Z"/><path class="cls-12" d="M100.61,215.75c.31-.81,3.92-1,4.82-1a14.36,14.36,0,0,1,5.51,1.6,32,32,0,0,0,4.46,1.94,10.73,10.73,0,0,0,9.09-1.7c3.46-2.31,5.83-6.67,10-7.59,4.45-1,9.13,2,13.87,1.16a17,17,0,0,0,9.4-4.95c1.37-1.42,2.33-3.22,3.78-4.56,2.29-2.11,5.32-2.28,8.28-2.43,3.57-.18,7.33-.27,10.51-2.11,4.46-2.56,6.38-8.31,11.55-9.69,3.13-.83,1.8-5.69-1.34-4.86-4.8,1.28-6.89,4.72-10.23,8.05-4.26,4.26-9.43,3-14.83,3.93-4.47.73-7.09,2.95-9.86,6.39-4.55,5.64-9.44,5.76-16,4.28-3.71-.83-7-.64-10.25,1.46-4,2.6-7,8.46-12.28,7.79-2.37-.29-4.63-2.12-6.92-2.88a17.35,17.35,0,0,0-6.4-.84c-3.5.19-6.72,1.2-8,4.63-1.14,3,3.73,4.35,4.86,1.34Z"/></g><ellipse class="cls-4" cx="135.41" cy="169.15" rx="40.66" ry="12.9" transform="translate(-45.01 49.16) rotate(-17.7)"/><path id="_Clipping_Path_30" data-name="&lt;Clipping Path&gt;" class="cls-7" d="M161.9,160.2h0a86.35,86.35,0,0,1-53.65,17.12h0l-9.44-29.59,53.65-17.11Z"/><g class="cls-102"><path class="cls-12" d="M85.91,169.66c.3-.82,3.91-1,4.82-1a14.18,14.18,0,0,1,5.5,1.59,31.61,31.61,0,0,0,4.47,1.94,10.67,10.67,0,0,0,9.08-1.7c3.46-2.3,5.83-6.66,10-7.59,4.46-1,9.13,2,13.88,1.17a17.09,17.09,0,0,0,9.4-5c1.36-1.41,2.32-3.22,3.78-4.55,2.28-2.11,5.31-2.29,8.27-2.44,3.57-.18,7.33-.27,10.52-2.1,4.45-2.56,6.38-8.32,11.54-9.69,3.13-.83,1.8-5.69-1.34-4.86-4.79,1.27-6.89,4.72-10.22,8.05-4.27,4.26-9.44,3.05-14.84,3.93-4.47.73-7.08,2.94-9.86,6.39-4.54,5.63-9.43,5.75-16,4.28-3.71-.83-7-.65-10.25,1.46-4,2.59-7,8.45-12.28,7.79-2.37-.3-4.63-2.13-6.93-2.89a17.56,17.56,0,0,0-6.4-.84c-3.5.2-6.72,1.21-8,4.64-1.15,3,3.72,4.35,4.86,1.34Z"/></g><ellipse class="cls-4" cx="125.64" cy="139.17" rx="28.16" ry="8.93" transform="translate(-36.36 44.77) rotate(-17.7)"/><path id="_Clipping_Path_31" data-name="&lt;Clipping Path&gt;" class="cls-7" d="M141.79,132.7h0A51.8,51.8,0,0,1,109.65,143h0L104,125.23,136.14,115Z"/><g class="cls-103"><path class="cls-12" d="M78.29,142.46c.3-.81,3.91-1,4.82-1a14.41,14.41,0,0,1,5.51,1.6A31,31,0,0,0,93.08,145a10.7,10.7,0,0,0,9.08-1.7c3.46-2.3,5.83-6.66,10-7.59,4.46-1,9.13,2,13.88,1.17a17.09,17.09,0,0,0,9.4-5c1.36-1.42,2.33-3.22,3.78-4.56,2.29-2.11,5.31-2.28,8.27-2.43,3.57-.18,7.33-.27,10.52-2.11,4.45-2.56,6.38-8.31,11.54-9.68,3.13-.84,1.8-5.7-1.34-4.86-4.79,1.27-6.89,4.71-10.22,8-4.27,4.26-9.43,3-14.84,3.94-4.47.72-7.08,2.94-9.86,6.38-4.54,5.64-9.43,5.76-16,4.28-3.71-.83-7-.64-10.25,1.46-4,2.6-7,8.46-12.28,7.79-2.37-.29-4.63-2.12-6.92-2.88a17.38,17.38,0,0,0-6.4-.84c-3.51.19-6.73,1.2-8,4.63-1.15,3,3.72,4.35,4.86,1.34Z"/></g><ellipse class="cls-4" cx="120.07" cy="120.1" rx="16.87" ry="5.35" transform="matrix(0.95, -0.3, 0.3, 0.95, -30.83, 42.18)"/><circle class="cls-12" cx="117.83" cy="115.86" r="0.84"/><circle class="cls-12" cx="113.41" cy="117.44" r="0.84"/><circle class="cls-12" cx="122.94" cy="114.4" r="0.84"/><circle class="cls-12" cx="120.57" cy="123.28" r="1.33"/><circle class="cls-12" cx="126.47" cy="120.33" r="1.33"/><circle class="cls-12" cx="132.09" cy="116.52" r="1.33"/><circle class="cls-12" cx="113.83" cy="124.37" r="1.33"/><circle class="cls-12" cx="107.15" cy="124.23" r="1.33"/><circle class="cls-12" cx="108.53" cy="120.18" r="0.93"/><circle class="cls-12" cx="128.5" cy="113.81" r="0.93"/><rect class="cls-16" x="109.04" y="116.76" width="1.45" height="5.77" transform="translate(-31.17 39.03) rotate(-17.7)"/><rect class="cls-16" x="116.41" y="117.11" width="1.53" height="5.77" transform="translate(-30.93 41.29) rotate(-17.7)"/><rect class="cls-16" x="128.21" y="111.76" width="1.53" height="5.77" transform="translate(-28.75 44.63) rotate(-17.7)"/><rect class="cls-16" x="120.46" y="111.44" width="1.51" height="5.77" transform="matrix(0.95, -0.3, 0.3, 0.95, -29.02, 42.25)"/><path class="cls-104" d="M109.68,114.57a1.92,1.92,0,0,1-.61,2.71,1.77,1.77,0,0,1-2.06-1.86,7.4,7.4,0,0,0,0-2.52S109.13,113.59,109.68,114.57Z"/><path class="cls-104" d="M117.22,115.37a1.92,1.92,0,0,1-.6,2.71,1.77,1.77,0,0,1-2.06-1.86,7.71,7.71,0,0,0,0-2.52S116.67,114.39,117.22,115.37Z"/><path class="cls-104" d="M121.35,109.65a1.93,1.93,0,0,1-.61,2.72,1.78,1.78,0,0,1-2.06-1.87,7.73,7.73,0,0,0,0-2.52S120.8,108.68,121.35,109.65Z"/><path class="cls-104" d="M129,110.07a1.92,1.92,0,0,1-.6,2.71,1.77,1.77,0,0,1-2.06-1.86,7.78,7.78,0,0,0,0-2.53S128.49,109.09,129,110.07Z"/><circle class="cls-12" cx="126.59" cy="145.32" r="1.33"/><circle class="cls-12" cx="134.32" cy="142.51" r="1.33"/><circle class="cls-12" cx="140.31" cy="139.54" r="1.33"/><circle class="cls-12" cx="119.71" cy="147.17" r="1.33"/><circle class="cls-12" cx="112.8" cy="147.98" r="1.33"/><circle class="cls-12" cx="106.89" cy="148.12" r="1.33"/><circle class="cls-12" cx="145.93" cy="136.01" r="1.33"/><circle class="cls-12" cx="102.02" cy="146.12" r="1.33"/><circle class="cls-12" cx="148.69" cy="131.23" r="1.33"/><circle class="cls-12" cx="105.51" cy="142.21" r="1.33"/><circle class="cls-12" cx="143.99" cy="129.94" r="1.33"/><circle class="cls-12" cx="126.26" cy="181.91" r="1.33"/><circle class="cls-12" cx="132.5" cy="180.58" r="1.33"/><circle class="cls-12" cx="138.56" cy="178.65" r="1.33"/><circle class="cls-12" cx="119.64" cy="182.62" r="1.33"/><circle class="cls-12" cx="112.45" cy="183.18" r="1.33"/><circle class="cls-12" cx="105.96" cy="183.01" r="1.33"/><circle class="cls-12" cx="100.77" cy="180.2" r="1.33"/><circle class="cls-12" cx="103.6" cy="174.66" r="1.33"/><circle class="cls-12" cx="150.48" cy="174.18" r="1.33"/><circle class="cls-12" cx="144.61" cy="176.72" r="1.33"/><circle class="cls-12" cx="138.56" cy="178.65" r="1.33"/><circle class="cls-12" cx="156.28" cy="170.93" r="1.33"/><circle class="cls-12" cx="162.47" cy="167.22" r="1.33"/><circle class="cls-12" cx="167.66" cy="163.32" r="1.33"/><circle class="cls-12" cx="170.27" cy="158.03" r="1.33"/><circle class="cls-12" cx="164.75" cy="155.15" r="1.33"/><path class="cls-4" d="M182.37,286.87c1.25-1.79,8.94-10.54,8.94-10.54l-11.38-9.21Z"/><polygon class="cls-4" points="130.66 236.75 133.23 275.4 191.31 276.33 188.43 232.91 130.66 236.75"/><polygon class="cls-4" points="130.66 236.75 123.34 245.59 135.84 246.91 130.66 236.75"/><rect class="cls-16" x="130.3" y="238.14" width="45.1" height="56.17" transform="translate(-102.66 436.38) rotate(-93.8)"/><rect class="cls-4" x="131.15" y="259.56" width="45.1" height="13.22" transform="translate(-101.7 437.17) rotate(-93.8)"/><rect class="cls-4" x="124.83" y="260.5" width="56.17" height="13.11" transform="translate(-17.36 10.72) rotate(-3.8)"/><rect class="cls-12" x="166.04" y="257.2" width="7.72" height="12.11" transform="translate(405.11 470.26) rotate(164.19)"/><path class="cls-12" d="M168.81,257a2.75,2.75,0,0,1,.44-2.92,5.59,5.59,0,0,0,.93-1.07,3.28,3.28,0,0,0,.26-2.32,3.23,3.23,0,0,0-3.91-2.2c-.64.13-.37,1.1.27,1a2.16,2.16,0,0,1,2.68,2.38c-.13,1.14-1,1.36-1.59,2.14-.73,1-.4,2.23,0,3.29.2.61,1.18.35,1-.27Z"/><path class="cls-4" d="M576.87,62.61c1-1.75,7.15-10.45,7.15-10.45l-11.25-7.32Z"/><polygon class="cls-4" points="524.96 21.82 530.97 56.82 584.02 52.16 577.27 12.84 524.96 21.82"/><polygon class="cls-4" points="524.96 21.82 519.12 30.57 530.64 30.59 524.96 21.82"/><rect class="cls-105" x="527.32" y="20.84" width="41.35" height="51.5" transform="translate(594.76 594.57) rotate(-99.74)"/><rect class="cls-4" x="528.09" y="40.4" width="41.35" height="12.12" transform="translate(595.8 595.18) rotate(-99.74)"/><rect class="cls-4" x="522.37" y="41.34" width="51.5" height="12.02" transform="translate(-0.11 93.4) rotate(-9.74)"/><rect class="cls-12" x="559.72" y="36.71" width="7.08" height="11.11" transform="translate(1102.08 -127.21) rotate(158.25)"/><path class="cls-12" d="M561.64,36.62a4.11,4.11,0,0,1-.46-1.53,3,3,0,0,1,.85-1.35,5,5,0,0,0,.53-.89,2.88,2.88,0,0,0-3.73-3.72.46.46,0,0,0,.25.89,2,2,0,0,1,2.74,1.91c-.07,1-.86,1.35-1.28,2.09-.57,1-.12,2.11.3,3.06.25.55,1,.08.8-.46Z"/><path class="cls-70" d="M541.73,87.53a7.32,7.32,0,0,0-7.32,7.32v85.06a7.32,7.32,0,0,0,7.32,7.32h25.54a7.32,7.32,0,0,0,7.32-7.32V94.84a7.31,7.31,0,0,0-7.31-7.32Zm-1.83,95.7a2.19,2.19,0,1,1,2.19-2.19A2.19,2.19,0,0,1,539.9,183.23Zm31.08-3a2.19,2.19,0,1,1-2.19-2.19A2.19,2.19,0,0,1,571,180.26Zm0-86.42a2.19,2.19,0,1,1-2.19-2.19A2.2,2.2,0,0,1,571,93.84Zm-28.89,0a2.2,2.2,0,1,1-2.2-2.19A2.21,2.21,0,0,1,542.09,93.84Z"/><rect class="cls-68" x="547.56" y="135.39" width="17.55" height="17.55" rx="3.88" ry="3.88" transform="translate(412.17 700.49) rotate(-90)"/><rect class="cls-71" x="563.44" y="159.23" width="14.27" height="11.57" rx="2.31" ry="2.31" transform="translate(405.56 735.58) rotate(-90)"/><rect class="cls-106" x="545.76" y="167.33" width="16.54" height="15.27" rx="2.86" ry="2.86" transform="translate(379.06 728.99) rotate(-90)"/><rect class="cls-72" x="536.84" y="101.24" width="6.12" height="72.75" rx="2.31" ry="2.31" transform="translate(1079.81 275.24) rotate(180)"/><rect class="cls-71" x="565.81" y="104.47" width="12.67" height="8.74" rx="1.89" ry="1.89" transform="translate(463.3 680.99) rotate(-90)"/><rect class="cls-71" x="566" y="121.79" width="12.67" height="8.74" rx="1.89" ry="1.89" transform="translate(446.17 698.49) rotate(-90)"/><path class="cls-71" d="M553.11,81.46h4a0,0,0,0,1,0,0V99.41a0,0,0,0,1,0,0h-4a1.84,1.84,0,0,1-1.84-1.84V83.3A1.84,1.84,0,0,1,553.11,81.46Z" transform="translate(463.75 644.62) rotate(-90)"/><path class="cls-68" d="M550.17,90.29H552a.59.59,0,0,1,.59.59v16.77a.59.59,0,0,1-.59.59h-1.8a0,0,0,0,1,0,0V90.29A0,0,0,0,1,550.17,90.29Z" transform="translate(452.1 650.63) rotate(-90)"/><path class="cls-68" d="M547.9,88.91l-.4.75a.5.5,0,0,1-.43.25h-1.86v-1Z"/><path class="cls-68" d="M560.46,88.91l.41.75a.5.5,0,0,0,.43.25h1.86v-1Z"/><rect class="cls-68" x="552.24" y="103.39" width="8.13" height="8.13" rx="1.8" ry="1.8" transform="translate(448.85 663.77) rotate(-90)"/><path class="cls-12" d="M546,124.47a1.33,1.33,0,0,1,.1-.34c-.09-.27,0-.34.09-.47-.07-.3.07-.39.21-.54V123a1.87,1.87,0,0,1,1.07-.76,1.85,1.85,0,0,1-1.07-.75v-.17c-.14-.14-.28-.23-.21-.53,0-.14-.18-.2-.09-.47s-.19-.32,0-.55a.5.5,0,0,1,.05-.54c0-.26,0-.34.12-.4s-.06-.42.19-.59c0-.42.24-.55.51-.4a.35.35,0,0,1,.51,0c.14-.07.29,0,.47.14a.42.42,0,0,1,.44.2c.27,0,.42.25.48.33s.3.1.38.42c.23,0,.27.24.32.42a2,2,0,0,1,1.93-1.12l.16-.09a1.88,1.88,0,0,1,2.85-.35,5.14,5.14,0,0,1,.86.27,2.08,2.08,0,0,1,1.67,1.33,4.46,4.46,0,0,1,.71,1.26,2.13,2.13,0,0,1,.69,1.56v0a2.11,2.11,0,0,1-.69,1.55A4.52,4.52,0,0,1,557,125a2.1,2.1,0,0,1-1.67,1.33,5.18,5.18,0,0,1-.86.26,1.88,1.88,0,0,1-2.85-.34l-.16-.09a2,2,0,0,1-1.93-1.13c0,.19-.09.38-.32.43-.08.32-.23.38-.38.41s-.21.36-.48.34a.4.4,0,0,1-.44.19c-.18.17-.33.21-.47.14a.36.36,0,0,1-.51,0c-.27.15-.56,0-.51-.4-.25-.17-.19-.53-.19-.59s-.15-.15-.12-.4a.5.5,0,0,1-.05-.54.35.35,0,0,1-.08-.21Zm1.15.89a7.92,7.92,0,0,1,1.3-2.48c-.38-.82-1.36-.25-1.74.15.1,0,.17,0,.18.07a4,4,0,0,0-.42.41c.08,0,.17,0,.23.06a1.17,1.17,0,0,0-.32.37.16.16,0,0,1,.23,0,1.66,1.66,0,0,0-.3.47c.08-.06.15-.15.24,0a1.22,1.22,0,0,0-.21.56c.07-.07.15-.21.22-.13a2.67,2.67,0,0,0-.13.54c.08-.1.16-.18.22-.1a1.12,1.12,0,0,0-.07.64l.15-.14a3.37,3.37,0,0,1,0,.57,1.29,1.29,0,0,1,.44-.22s0,.14,0,.25c.24-.11.3-.31.4-.36a.28.28,0,0,1,0,.27,1.88,1.88,0,0,0,.42-.38.33.33,0,0,1,0,.23,2.09,2.09,0,0,0,.36-.45s0,.14,0,.24a2.36,2.36,0,0,0,.35-.57.38.38,0,0,1,0,.24A2,2,0,0,0,549,125a.23.23,0,0,1,.1.17c.13-.23.07-.56.13-.65a.23.23,0,0,1,.14.16c0-.37,0-1.39-.78-1.59a8.1,8.1,0,0,0-1.52,2.28Zm0-6.34a8.17,8.17,0,0,0,1.52,2.27c.77-.19.81-1.21.78-1.59a.27.27,0,0,1-.14.17c-.06-.1,0-.43-.13-.66a.23.23,0,0,1-.1.17,2,2,0,0,0-.24-.59.38.38,0,0,1,0,.24,2.5,2.5,0,0,0-.35-.56c0,.1,0,.21,0,.24a2.45,2.45,0,0,0-.36-.46.38.38,0,0,1,0,.24,1.71,1.71,0,0,0-.42-.39.28.28,0,0,1,0,.27c-.1-.05-.16-.24-.4-.36,0,.11,0,.23,0,.25a1.29,1.29,0,0,1-.44-.22,3.52,3.52,0,0,1,0,.58l-.15-.15a1.12,1.12,0,0,0,.07.64c-.06.08-.14,0-.22-.09a2.74,2.74,0,0,0,.13.53c-.07.09-.15,0-.22-.12a1.33,1.33,0,0,0,.21.56c-.09.09-.16,0-.24-.06a1.52,1.52,0,0,0,.3.47.16.16,0,0,1-.23,0,1.22,1.22,0,0,0,.32.38c-.06.1-.15.06-.23.06a3.87,3.87,0,0,0,.42.4s-.08,0-.18.07c.38.41,1.36,1,1.74.15a7.76,7.76,0,0,1-1.3-2.47Zm7.84,1.72a1.44,1.44,0,0,0,0,2.87h0a1.38,1.38,0,0,0,1.3-1.44,1.36,1.36,0,0,0-1.31-1.43ZM551.24,123a1.44,1.44,0,0,0,.55,1.92,1.38,1.38,0,0,0,1.94-.24h0a1.42,1.42,0,0,0-.55-1.91,1.37,1.37,0,0,0-1.94.23Zm-.07-1.6a1.37,1.37,0,0,0,1.94.24,1.42,1.42,0,0,0,.55-1.91h0a1.37,1.37,0,0,0-1.94-.24,1.43,1.43,0,0,0-.55,1.91Zm3.09,4.84c.23-.52-2.56-.94-2.39-.3A1.5,1.5,0,0,0,554.26,126.21Zm-2.42-7.72c-.17.65,2.61.22,2.38-.3a1.49,1.49,0,0,0-2.38.3Zm-.43.16a1.59,1.59,0,0,0-1.65,2C549.83,121.05,551.86,118.69,551.41,118.65Zm-1.69,5a1.6,1.6,0,0,0,1.65,2C551.82,125.66,549.79,123.3,549.72,123.7Zm-.27-1.52c0,.66.48,1.29.77,1.3s.72-.53.72-1.31-.28-1.3-.65-1.3-.85.72-.84,1.31Zm7.22-.05c0,.57.23,1.45.54,1.44s.81-.69.78-1.4-.59-1.4-.86-1.39-.48.77-.46,1.35ZM555,124.26c-.54.47-.86,1.08-.62,1.48s.88.31,1.54-.07a1.4,1.4,0,0,0,.68-1.66c-.26-.35-1.11-.16-1.6.25Zm-.15-4.13c.51.44,1.44.69,1.75.37s.2-1.14-.64-1.76a1.62,1.62,0,0,0-1.76,0c-.29.38.08.92.65,1.43Z"/><polygon id="_Clipping_Path_32" data-name="&lt;Clipping Path&gt;" class="cls-4" points="441.35 149.72 419.55 183.96 459.73 178.34 441.35 149.72"/><g class="cls-107"><circle class="cls-104" cx="422.97" cy="176.48" r="4.66"/><circle class="cls-104" cx="441.21" cy="180.43" r="4.66"/><circle class="cls-104" cx="433.61" cy="160.34" r="4.66"/></g><ellipse class="cls-104" cx="451.63" cy="163.5" rx="6.54" ry="17.32" transform="translate(-14.55 279.15) rotate(-33.83)"/><line class="cls-108" x1="451.63" y1="160.35" x2="465.88" y2="147.05"/><line class="cls-108" x1="450.9" y1="165.96" x2="470.35" y2="164.57"/><rect class="cls-104" x="456.24" y="136.1" width="3.49" height="6.88"/><rect class="cls-104" x="470.35" y="150.26" width="3.49" height="6.88" transform="translate(575.56 -331.88) rotate(84)"/><rect class="cls-104" x="474.5" y="168.83" width="3.49" height="6.88" transform="translate(888.33 -122.12) rotate(124.57)"/><rect class="cls-104" x="476.57" y="135.18" width="3.49" height="6.88" transform="translate(42.07 378.82) rotate(-45)"/><circle class="cls-4" cx="467.31" cy="137.82" r="1.72"/><circle class="cls-4" cx="480.06" cy="162.09" r="1.75"/><circle class="cls-4" cx="483.56" cy="148.8" r="1.75"/><circle class="cls-4" cx="454.13" cy="148.38" r="1.34"/><polygon id="_Clipping_Path_33" data-name="&lt;Clipping Path&gt;" class="cls-4" points="46.13 21.08 13.59 51.72 57.99 56.61 46.13 21.08"/><g class="cls-109"><circle class="cls-16" cx="19.26" cy="44.66" r="5.14"/><circle class="cls-16" cx="37.66" cy="53.82" r="5.14"/><circle class="cls-16" cx="34.99" cy="30.32" r="5.14"/></g><ellipse class="cls-16" cx="53.36" cy="38.57" rx="7.21" ry="19.07" transform="translate(-9.84 20.13) rotate(-19.59)"/><line class="cls-110" x1="54.22" y1="35.2" x2="73.03" y2="24.87"/><line class="cls-110" x1="51.93" y1="41" x2="73.06" y2="44.78"/><rect class="cls-16" x="64.72" y="10.93" width="3.84" height="7.57" transform="translate(5.67 -15.94) rotate(14.24)"/><rect class="cls-16" x="75.94" y="29.86" width="3.84" height="7.57" transform="translate(122.32 -38.59) rotate(98.24)"/><rect class="cls-16" x="75.34" y="50.81" width="3.84" height="7.57" transform="translate(171.36 44.81) rotate(138.81)"/><rect class="cls-16" x="86.67" y="15.46" width="3.84" height="7.57" transform="translate(2.62 48.02) rotate(-30.76)"/><circle class="cls-4" cx="77.06" cy="15.41" r="1.89"/><circle class="cls-4" cx="84.1" cy="44.77" r="1.93"/><circle class="cls-4" cx="91.43" cy="31.53" r="1.93"/><circle class="cls-4" cx="60.13" cy="23.11" r="1.47"/><rect class="cls-4" x="553.26" y="234.35" width="11.55" height="53.46"/><path id="_Clipping_Path_34" data-name="&lt;Clipping Path&gt;" class="cls-4" d="M564.81,287.81l-.26.19a9.5,9.5,0,0,1-11.29-.19h0V234.35h11.55Z"/><g class="cls-111"><path class="cls-104" d="M570.66,247.4A30,30,0,0,1,549.94,243q1.29-2,2.6-4a25.21,25.21,0,0,0,17.4,3.74Z"/><path class="cls-104" d="M568,259.91a30,30,0,0,1-20.72-4.45q1.29-2,2.6-4a25.21,25.21,0,0,0,17.4,3.74Z"/><path class="cls-104" d="M567.41,272.42A30,30,0,0,1,546.69,268l2.6-4a25.23,25.23,0,0,0,17.41,3.74C566.94,269.26,567.17,270.84,567.41,272.42Z"/><path class="cls-104" d="M567.56,284.93a30,30,0,0,1-20.72-4.45l2.6-4a25.25,25.25,0,0,0,17.41,3.74C567.09,281.77,567.33,283.35,567.56,284.93Z"/></g><ellipse class="cls-12" cx="559.07" cy="234.92" rx="5.81" ry="2.7"/><path class="cls-66" d="M567.13,212.17c1.45,7-3.37,13-7.53,13s-10.81-6.59-7.54-13a41.26,41.26,0,0,0,4.13-12.94S565.92,206.28,567.13,212.17Z"/><line class="cls-112" x1="559.37" y1="223.19" x2="558.84" y2="234.78"/><path class="cls-7" d="M567.13,212.17c1.45,7-3.37,13-7.53,13s-10.81-6.59-7.54-13a41.26,41.26,0,0,0,4.13-12.94S565.92,206.28,567.13,212.17Z"/><rect class="cls-34" x="172.45" y="18.21" width="6.35" height="16" transform="translate(99.53 -134.23) rotate(56.14)"/><rect class="cls-15" x="173.44" y="108.21" width="6.35" height="16" transform="translate(357.9 7.41) rotate(115.69)"/><rect class="cls-15" x="13.8" y="200.89" width="6.35" height="16" transform="translate(51.9 2.24) rotate(14.24)"/><rect class="cls-89" x="102.79" y="273.37" width="6.35" height="16" transform="translate(405.45 307.83) rotate(115.69)"/><rect class="cls-16" x="435.12" y="21.4" width="6.35" height="16" transform="translate(864.79 -75.81) rotate(162.3)"/><rect class="cls-16" x="531.24" y="200.86" width="6.35" height="16" transform="translate(1107.02 245.4) rotate(162.3)"/><rect class="cls-7" x="512.95" y="122.58" width="6.35" height="16" transform="translate(788.75 587.87) rotate(-135)"/><rect class="cls-34" x="419.86" y="273.37" width="6.35" height="16" transform="translate(775.65 -84.41) rotate(100.32)"/><circle class="cls-41" cx="17.39" cy="70.34" r="2.76"/><circle class="cls-41" cx="145.87" cy="18.02" r="2.76"/><circle class="cls-41" cx="175.63" cy="86.99" r="2.76"/><circle class="cls-41" cx="77.63" cy="187.58" r="2.76"/><circle class="cls-41" cx="179.24" cy="220.19" r="2.76"/><circle class="cls-41" cx="22.28" cy="283.27" r="2.76"/><circle class="cls-41" cx="426.88" cy="55.25" r="2.76"/><circle class="cls-41" cx="523.64" cy="89.23" r="2.76"/><circle class="cls-41" cx="504.01" cy="23.92" r="2.76"/><circle class="cls-41" cx="577.05" cy="200.29" r="2.76"/><circle class="cls-41" cx="430.26" cy="202.12" r="2.76"/><circle class="cls-41" cx="530.2" cy="281.92" r="2.76"/></g></svg>